<svg xmlns="http://www.w3.org/2000/svg" width="590" height="405" fill="none" viewBox="0 0 590 405"><path stroke="#FB5F66" stroke-opacity=".09" stroke-width=".653" d="M222.477 12.3815L243.992 0.373939L265.507 12.3815V36.3778L243.992 48.3854L222.477 36.3778V12.3815Z"/><path stroke="#FB5F66" stroke-opacity=".09" stroke-width=".653" d="M265.762 12.3815L287.277 0.373939L308.792 12.3815V36.3778L287.277 48.3854L265.762 36.3778V12.3815Z"/><path stroke="#FB5F66" stroke-opacity=".09" stroke-width=".653" d="M309.047 12.3815L330.562 0.373939L352.077 12.3815V36.3778L330.562 48.3854L309.047 36.3778V12.3815Z"/><path stroke="#FB5F66" stroke-opacity=".09" stroke-width=".653" d="M352.33 12.3815L373.845 0.373939L395.36 12.3815V36.3778L373.845 48.3854L352.33 36.3778V12.3815Z"/><path stroke="#FB5F66" stroke-opacity=".09" stroke-width=".653" d="M395.612 12.3815L417.126 0.373939L438.641 12.3815V36.3778L417.126 48.3854L395.612 36.3778V12.3815Z"/><path stroke="#FB5F66" stroke-opacity=".09" stroke-width=".653" d="M438.897 12.3815L460.411 0.373939L481.926 12.3815V36.3778L460.411 48.3854L438.897 36.3778V12.3815Z"/><path stroke="#FB5F66" stroke-opacity=".09" stroke-width=".653" d="M482.178 12.3815L503.693 0.373939L525.208 12.3815V36.3778L503.693 48.3854L482.178 36.3778V12.3815Z"/><path stroke="#FB5F66" stroke-opacity=".09" stroke-width=".653" d="M525.461 12.3815L546.976 0.373939L568.491 12.3815V36.3778L546.976 48.3854L525.461 36.3778V12.3815Z"/><path stroke="#FB5F66" stroke-opacity=".09" stroke-width=".653" d="M568.744 12.3815L590.259 0.373939L611.774 12.3815V36.3778L590.259 48.3854L568.744 36.3778V12.3815Z"/><path stroke="#FB5F66" stroke-opacity=".09" stroke-width=".653" d="M200.6 47.9728L222.115 35.9652L243.63 47.9728V71.9691L222.115 83.9767L200.6 71.9691V47.9728Z"/><path stroke="#FB5F66" stroke-opacity=".09" stroke-width=".653" d="M243.883 47.9728L265.398 35.9652L286.913 47.9728V71.9691L265.398 83.9767L243.883 71.9691V47.9728Z"/><path stroke="#FB5F66" stroke-opacity=".09" stroke-width=".653" d="M287.166 47.9728L308.681 35.9652L330.196 47.9728V71.9691L308.681 83.9767L287.166 71.9691V47.9728Z"/><path stroke="#FB5F66" stroke-opacity=".09" stroke-width=".653" d="M330.451 47.9728L351.966 35.9652L373.481 47.9728V71.9691L351.966 83.9767L330.451 71.9691V47.9728Z"/><path stroke="#FB5F66" stroke-opacity=".09" stroke-width=".653" d="M373.735 47.9728L395.25 35.9652L416.764 47.9728V71.9691L395.25 83.9767L373.735 71.9691V47.9728Z"/><path stroke="#FB5F66" stroke-opacity=".09" stroke-width=".653" d="M417.018 47.9728L438.533 35.9652L460.048 47.9728V71.9691L438.533 83.9767L417.018 71.9691V47.9728Z"/><path stroke="#FB5F66" stroke-opacity=".09" stroke-width=".653" d="M460.301 47.9728L481.816 35.9652L503.331 47.9728V71.9691L481.816 83.9767L460.301 71.9691V47.9728Z"/><path stroke="#FB5F66" stroke-opacity=".09" stroke-width=".653" d="M503.586 47.973L525.101 35.9654L546.616 47.973V71.9692L525.101 83.9768L503.586 71.9692V47.973Z"/><path stroke="#FB5F66" stroke-opacity=".09" stroke-width=".653" d="M546.869 47.973L568.384 35.9654L589.899 47.973V71.9692L568.384 83.9768L546.869 71.9692V47.973Z"/><path stroke="#FB5F66" stroke-opacity=".09" stroke-width=".653" d="M590.151 47.973L611.666 35.9654L633.18 47.973V71.9692L611.666 83.9768L590.151 71.9692V47.973Z"/><path stroke="#FB5F66" stroke-opacity=".09" stroke-width=".653" d="M178.725 83.5644L200.24 71.5568L221.754 83.5644V107.561L200.24 119.568L178.725 107.561V83.5644Z"/><path stroke="#FB5F66" stroke-opacity=".09" stroke-width=".653" d="M222.008 83.5644L243.523 71.5568L265.038 83.5644V107.561L243.523 119.568L222.008 107.561V83.5644Z"/><path stroke="#FB5F66" stroke-opacity=".09" stroke-width=".653" d="M265.289 83.5642L286.804 71.5566L308.319 83.5642V107.56L286.804 119.568L265.289 107.56V83.5642Z"/><path stroke="#FB5F66" stroke-opacity=".09" stroke-width=".653" d="M308.575 83.5642L330.089 71.5566L351.604 83.5642V107.56L330.089 119.568L308.575 107.56V83.5642Z"/><path stroke="#FB5F66" stroke-opacity=".09" stroke-width=".653" d="M351.856 83.5642L373.371 71.5566L394.885 83.5642V107.56L373.371 119.568L351.856 107.56V83.5642Z"/><path stroke="#FB5F66" stroke-opacity=".09" stroke-width=".653" d="M395.139 83.5642L416.654 71.5566L438.169 83.5642V107.56L416.654 119.568L395.139 107.56V83.5642Z"/><path stroke="#FB5F66" stroke-opacity=".09" stroke-width=".653" d="M438.424 83.5642L459.939 71.5566L481.454 83.5642V107.56L459.939 119.568L438.424 107.56V83.5642Z"/><path stroke="#FB5F66" stroke-opacity=".09" stroke-width=".653" d="M481.707 83.5642L503.222 71.5566L524.737 83.5642V107.56L503.222 119.568L481.707 107.56V83.5642Z"/><path stroke="#FB5F66" stroke-opacity=".09" stroke-width=".653" d="M524.991 83.5642L546.505 71.5566L568.02 83.5642V107.56L546.505 119.568L524.991 107.56V83.5642Z"/><path stroke="#FB5F66" stroke-opacity=".09" stroke-width=".653" d="M568.274 83.5642L589.789 71.5566L611.303 83.5642V107.56L589.789 119.568L568.274 107.56V83.5642Z"/><path stroke="#FB5F66" stroke-opacity=".09" stroke-width=".653" d="M156.846 119.156L178.361 107.148L199.876 119.156V143.152L178.361 155.16L156.846 143.152V119.156Z"/><path stroke="#FB5F66" stroke-opacity=".09" stroke-width=".653" d="M200.129 119.156L221.644 107.148L243.159 119.156V143.152L221.644 155.16L200.129 143.152V119.156Z"/><path stroke="#FB5F66" stroke-opacity=".09" stroke-width=".653" d="M243.414 119.156L264.929 107.148L286.444 119.156V143.152L264.929 155.16L243.414 143.152V119.156Z"/><path stroke="#FB5F66" stroke-opacity=".09" stroke-width=".653" d="M286.698 119.156L308.212 107.148L329.727 119.156V143.152L308.212 155.16L286.698 143.152V119.156Z"/><path stroke="#FB5F66" stroke-opacity=".09" stroke-width=".653" d="M329.981 119.156L351.496 107.148L373.011 119.156V143.152L351.496 155.16L329.981 143.152V119.156Z"/><path stroke="#FB5F66" stroke-opacity=".09" stroke-width=".653" d="M373.264 119.156L394.779 107.148L416.294 119.156V143.152L394.779 155.16L373.264 143.152V119.156Z"/><path stroke="#FB5F66" stroke-opacity=".09" stroke-width=".653" d="M416.545 119.156L438.06 107.148L459.575 119.156V143.152L438.06 155.16L416.545 143.152V119.156Z"/><path stroke="#FB5F66" stroke-opacity=".09" stroke-width=".653" d="M459.83 119.156L481.345 107.148L502.86 119.156V143.152L481.345 155.16L459.83 143.152V119.156Z"/><path stroke="#FB5F66" stroke-opacity=".09" stroke-width=".653" d="M503.112 119.156L524.626 107.148L546.141 119.156V143.152L524.626 155.16L503.112 143.152V119.156Z"/><path stroke="#FB5F66" stroke-opacity=".09" stroke-width=".653" d="M546.397 119.156L567.912 107.148L589.426 119.156V143.152L567.912 155.16L546.397 143.152V119.156Z"/><path stroke="#FB5F66" stroke-opacity=".09" stroke-width=".653" d="M589.494 119.156L611.009 107.148L632.524 119.156V143.152L611.009 155.16L589.494 143.152V119.156Z"/><path stroke="#FB5F66" stroke-opacity=".09" stroke-width=".653" d="M134.969 154.747L156.484 142.74L177.999 154.747V178.744L156.484 190.751L134.969 178.744V154.747Z"/><path stroke="#FB5F66" stroke-opacity=".09" stroke-width=".653" d="M178.252 154.747L199.767 142.74L221.282 154.747V178.744L199.767 190.751L178.252 178.744V154.747Z"/><path stroke="#FB5F66" stroke-opacity=".09" stroke-width=".653" d="M221.535 154.747L243.05 142.74L264.565 154.747V178.744L243.05 190.751L221.535 178.744V154.747Z"/><path stroke="#FB5F66" stroke-opacity=".09" stroke-width=".653" d="M264.819 154.747L286.333 142.74L307.848 154.747V178.744L286.333 190.751L264.819 178.744V154.747Z"/><path stroke="#FB5F66" stroke-opacity=".09" stroke-width=".653" d="M308.102 154.747L329.617 142.74L351.132 154.747V178.744L329.617 190.751L308.102 178.744V154.747Z"/><path stroke="#FB5F66" stroke-opacity=".09" stroke-width=".653" d="M351.385 154.747L372.9 142.74L394.415 154.747V178.744L372.9 190.751L351.385 178.744V154.747Z"/><path stroke="#FB5F66" stroke-opacity=".09" stroke-width=".653" d="M394.67 154.747L416.185 142.74L437.7 154.747V178.744L416.185 190.751L394.67 178.744V154.747Z"/><path stroke="#FB5F66" stroke-opacity=".09" stroke-width=".653" d="M437.953 154.747L459.468 142.74L480.983 154.747V178.744L459.468 190.751L437.953 178.744V154.747Z"/><path stroke="#FB5F66" stroke-opacity=".09" stroke-width=".653" d="M481.237 154.747L502.751 142.74L524.266 154.747V178.744L502.751 190.751L481.237 178.744V154.747Z"/><path stroke="#FB5F66" stroke-opacity=".09" stroke-width=".653" d="M524.52 154.747L546.035 142.74L567.549 154.747V178.744L546.035 190.751L524.52 178.744V154.747Z"/><path stroke="#FB5F66" stroke-opacity=".09" stroke-width=".653" d="M113.092 190.339L134.607 178.331L156.122 190.339V214.335L134.607 226.342L113.092 214.335V190.339Z"/><path stroke="#FB5F66" stroke-opacity=".09" stroke-width=".653" d="M156.375 190.339L177.89 178.331L199.405 190.339V214.335L177.89 226.342L156.375 214.335V190.339Z"/><path stroke="#FB5F66" stroke-opacity=".09" stroke-width=".653" d="M199.659 190.339L221.173 178.331L242.688 190.339V214.335L221.173 226.342L199.659 214.335V190.339Z"/><path stroke="#FB5F66" stroke-opacity=".09" stroke-width=".653" d="M242.944 190.339L264.458 178.331L285.973 190.339V214.335L264.458 226.342L242.944 214.335V190.339Z"/><path stroke="#FB5F66" stroke-opacity=".09" stroke-width=".653" d="M286.225 190.339L307.74 178.331L329.255 190.339V214.335L307.74 226.342L286.225 214.335V190.339Z"/><path stroke="#FB5F66" stroke-opacity=".09" stroke-width=".653" d="M329.51 190.339L351.025 178.331L372.54 190.339V214.335L351.025 226.342L329.51 214.335V190.339Z"/><path stroke="#FB5F66" stroke-opacity=".09" stroke-width=".653" d="M372.791 190.339L394.306 178.331L415.821 190.339V214.335L394.306 226.342L372.791 214.335V190.339Z"/><path stroke="#FB5F66" stroke-opacity=".09" stroke-width=".653" d="M416.074 190.339L437.589 178.331L459.104 190.339V214.335L437.589 226.342L416.074 214.335V190.339Z"/><path stroke="#FB5F66" stroke-opacity=".09" stroke-width=".653" d="M459.358 190.339L480.873 178.331L502.387 190.339V214.335L480.873 226.342L459.358 214.335V190.339Z"/><path stroke="#FB5F66" stroke-opacity=".09" stroke-width=".653" d="M502.641 190.339L524.156 178.331L545.671 190.339V214.335L524.156 226.342L502.641 214.335V190.339Z"/><path stroke="#FB5F66" stroke-opacity=".09" stroke-width=".653" d="M91.2132 225.93L112.728 213.922L134.243 225.93V249.926L112.728 261.934L91.2132 249.926V225.93Z"/><path stroke="#FB5F66" stroke-opacity=".09" stroke-width=".653" d="M134.497 225.93L156.011 213.922L177.526 225.93V249.926L156.011 261.934L134.497 249.926V225.93Z"/><path stroke="#FB5F66" stroke-opacity=".09" stroke-width=".653" d="M177.782 225.93L199.296 213.922L220.811 225.93V249.926L199.296 261.934L177.782 249.926V225.93Z"/><path stroke="#FB5F66" stroke-opacity=".09" stroke-width=".653" d="M221.065 225.93L242.58 213.922L264.094 225.93V249.926L242.58 261.934L221.065 249.926V225.93Z"/><path stroke="#FB5F66" stroke-opacity=".09" stroke-width=".653" d="M264.348 225.93L285.863 213.922L307.378 225.93V249.926L285.863 261.934L264.348 249.926V225.93Z"/><path stroke="#FB5F66" stroke-opacity=".09" stroke-width=".653" d="M307.631 225.93L329.146 213.922L350.661 225.93V249.926L329.146 261.934L307.631 249.926V225.93Z"/><path stroke="#FB5F66" stroke-opacity=".09" stroke-width=".653" d="M350.916 225.93L372.431 213.922L393.946 225.93V249.926L372.431 261.934L350.916 249.926V225.93Z"/><path stroke="#FB5F66" stroke-opacity=".09" stroke-width=".653" d="M394.2 225.93L415.714 213.922L437.229 225.93V249.926L415.714 261.934L394.2 249.926V225.93Z"/><path stroke="#FB5F66" stroke-opacity=".09" stroke-width=".653" d="M437.483 225.93L458.998 213.922L480.512 225.93V249.926L458.998 261.934L437.483 249.926V225.93Z"/><path stroke="#FB5F66" stroke-opacity=".09" stroke-width=".653" d="M480.764 225.93L502.279 213.922L523.794 225.93V249.926L502.279 261.934L480.764 249.926V225.93Z"/><path stroke="#FB5F66" stroke-opacity=".09" stroke-width=".653" d="M69.3382 261.521L90.853 249.514L112.368 261.521V285.517L90.853 297.525L69.3382 285.517V261.521Z"/><path stroke="#FB5F66" stroke-opacity=".09" stroke-width=".653" d="M112.621 261.521L134.136 249.514L155.651 261.521V285.517L134.136 297.525L112.621 285.517V261.521Z"/><path stroke="#FB5F66" stroke-opacity=".09" stroke-width=".653" d="M155.903 261.521L177.417 249.514L198.932 261.521V285.518L177.417 297.525L155.903 285.518V261.521Z"/><path stroke="#FB5F66" stroke-opacity=".09" stroke-width=".653" d="M199.188 261.521L220.703 249.514L242.218 261.521V285.518L220.703 297.525L199.188 285.518V261.521Z"/><path stroke="#FB5F66" stroke-opacity=".09" stroke-width=".653" d="M242.469 261.521L263.984 249.514L285.499 261.521V285.517L263.984 297.525L242.469 285.517V261.521Z"/><path stroke="#FB5F66" stroke-opacity=".09" stroke-width=".653" d="M285.752 261.521L307.267 249.514L328.782 261.521V285.517L307.267 297.525L285.752 285.517V261.521Z"/><path stroke="#FB5F66" stroke-opacity=".09" stroke-width=".653" d="M329.035 261.521L350.55 249.514L372.065 261.521V285.517L350.55 297.525L329.035 285.517V261.521Z"/><path stroke="#FB5F66" stroke-opacity=".09" stroke-width=".653" d="M372.321 261.521L393.835 249.514L415.35 261.521V285.517L393.835 297.525L372.321 285.517V261.521Z"/><path stroke="#FB5F66" stroke-opacity=".09" stroke-width=".653" d="M415.606 261.521L437.121 249.514L458.635 261.521V285.517L437.121 297.525L415.606 285.517V261.521Z"/><path stroke="#FB5F66" stroke-opacity=".09" stroke-width=".653" d="M458.889 261.521L480.404 249.514L501.919 261.521V285.517L480.404 297.525L458.889 285.517V261.521Z"/><path stroke="#FB5F66" stroke-opacity=".09" stroke-width=".653" d="M47.4593 297.113L68.9741 285.105L90.4889 297.113V321.109L68.9741 333.117L47.4593 321.109V297.113Z"/><path stroke="#FB5F66" stroke-opacity=".09" stroke-width=".653" d="M90.7445 297.113L112.259 285.105L133.774 297.113V321.109L112.259 333.117L90.7445 321.109V297.113Z"/><path stroke="#FB5F66" stroke-opacity=".09" stroke-width=".653" d="M134.028 297.113L155.542 285.105L177.057 297.113V321.109L155.542 333.117L134.028 321.109V297.113Z"/><path stroke="#FB5F66" stroke-opacity=".09" stroke-width=".653" d="M177.311 297.113L198.826 285.105L220.341 297.113V321.109L198.826 333.117L177.311 321.109V297.113Z"/><path stroke="#FB5F66" stroke-opacity=".09" stroke-width=".653" d="M220.594 297.113L242.109 285.105L263.623 297.113V321.109L242.109 333.117L220.594 321.109V297.113Z"/><path stroke="#FB5F66" stroke-opacity=".09" stroke-width=".653" d="M263.877 297.113L285.392 285.105L306.907 297.113V321.109L285.392 333.117L263.877 321.109V297.113Z"/><path stroke="#FB5F66" stroke-opacity=".09" stroke-width=".653" d="M307.159 297.113L328.674 285.105L350.188 297.113V321.109L328.674 333.117L307.159 321.109V297.113Z"/><path stroke="#FB5F66" stroke-opacity=".09" stroke-width=".653" d="M350.444 297.113L371.958 285.105L393.473 297.113V321.109L371.958 333.117L350.444 321.109V297.113Z"/><path stroke="#FB5F66" stroke-opacity=".09" stroke-width=".653" d="M393.725 297.113L415.24 285.105L436.755 297.113V321.109L415.24 333.117L393.725 321.109V297.113Z"/><path stroke="#FB5F66" stroke-opacity=".09" stroke-width=".653" d="M437.008 297.113L458.523 285.105L480.038 297.113V321.109L458.523 333.117L437.008 321.109V297.113Z"/><path stroke="#FB5F66" stroke-opacity=".09" stroke-width=".653" d="M480.434 297.113L501.949 285.105L523.464 297.113V321.109L501.949 333.117L480.434 321.109V297.113Z"/><path stroke="#FB5F66" stroke-opacity=".09" stroke-width=".653" d="M523.717 297.113L545.232 285.105L566.747 297.113V321.109L545.232 333.117L523.717 321.109V297.113Z"/><path stroke="#FB5F66" stroke-opacity=".09" stroke-width=".653" d="M567 297.113L588.515 285.105L610.03 297.113V321.109L588.515 333.117L567 321.109V297.113Z"/><path stroke="#FB5F66" stroke-opacity=".09" stroke-width=".653" d="M25.5823 332.704L47.0972 320.697L68.612 332.704V356.701L47.0972 368.708L25.5823 356.701V332.704Z"/><path stroke="#FB5F66" stroke-opacity=".09" stroke-width=".653" d="M68.8636 332.704L90.3784 320.697L111.893 332.704V356.701L90.3784 368.708L68.8636 356.701V332.704Z"/><path stroke="#FB5F66" stroke-opacity=".09" stroke-width=".653" d="M112.149 332.704L133.664 320.697L155.178 332.704V356.701L133.664 368.708L112.149 356.701V332.704Z"/><path stroke="#FB5F66" stroke-opacity=".09" stroke-width=".653" d="M155.436 332.704L176.951 320.697L198.466 332.704V356.701L176.951 368.708L155.436 356.701V332.704Z"/><path stroke="#FB5F66" stroke-opacity=".09" stroke-width=".653" d="M198.717 332.704L220.232 320.697L241.747 332.704V356.701L220.232 368.708L198.717 356.701V332.704Z"/><path stroke="#FB5F66" stroke-opacity=".09" stroke-width=".653" d="M242 332.704L263.515 320.697L285.03 332.704V356.701L263.515 368.708L242 356.701V332.704Z"/><path stroke="#FB5F66" stroke-opacity=".09" stroke-width=".653" d="M285.284 332.704L306.798 320.697L328.313 332.704V356.701L306.798 368.708L285.284 356.701V332.704Z"/><path stroke="#FB5F66" stroke-opacity=".09" stroke-width=".653" d="M328.567 332.704L350.081 320.697L371.596 332.704V356.701L350.081 368.708L328.567 356.701V332.704Z"/><path stroke="#FB5F66" stroke-opacity=".09" stroke-width=".653" d="M371.85 332.704L393.365 320.697L414.88 332.704V356.701L393.365 368.708L371.85 356.701V332.704Z"/><path stroke="#FB5F66" stroke-opacity=".09" stroke-width=".653" d="M415.133 332.704L436.648 320.697L458.163 332.704V356.701L436.648 368.708L415.133 356.701V332.704Z"/><path stroke="#FB5F66" stroke-opacity=".09" stroke-width=".653" d="M3.70539 368.296L25.2202 356.288L46.735 368.296V392.292L25.2202 404.299L3.70539 392.292V368.296Z"/><path stroke="#FB5F66" stroke-opacity=".09" stroke-width=".653" d="M46.9888 368.296L68.5036 356.288L90.0184 368.296V392.292L68.5036 404.299L46.9888 392.292V368.296Z"/><path stroke="#FB5F66" stroke-opacity=".09" stroke-width=".653" d="M90.2718 368.296L111.787 356.288L133.301 368.296V392.292L111.787 404.299L90.2718 392.292V368.296Z"/><path stroke="#FB5F66" stroke-opacity=".09" stroke-width=".653" d="M133.555 368.296L155.07 356.288L176.585 368.296V392.292L155.07 404.299L133.555 392.292V368.296Z"/><path stroke="#FB5F66" stroke-opacity=".09" stroke-width=".653" d="M176.836 368.296L198.351 356.288L219.866 368.296V392.292L198.351 404.299L176.836 392.292V368.296Z"/><path stroke="#FB5F66" stroke-opacity=".09" stroke-width=".653" d="M220.121 368.296L241.636 356.288L263.151 368.296V392.292L241.636 404.299L220.121 392.292V368.296Z"/><path stroke="#FB5F66" stroke-opacity=".09" stroke-width=".653" d="M263.405 368.296L284.919 356.288L306.434 368.296V392.292L284.919 404.299L263.405 392.292V368.296Z"/><path stroke="#FB5F66" stroke-opacity=".09" stroke-width=".653" d="M306.69 368.296L328.205 356.288L349.719 368.296V392.292L328.205 404.299L306.69 392.292V368.296Z"/><path stroke="#FB5F66" stroke-opacity=".09" stroke-width=".653" d="M349.973 368.296L371.488 356.288L393.003 368.296V392.292L371.488 404.299L349.973 392.292V368.296Z"/><path stroke="#FB5F66" stroke-opacity=".09" stroke-width=".653" d="M393.256 368.296L414.771 356.288L436.286 368.296V392.292L414.771 404.299L393.256 392.292V368.296Z"/><path stroke="#FB5F66" stroke-opacity=".09" stroke-width=".653" d="M436.68 368.622L458.195 356.615L479.71 368.622V392.619L458.195 404.626L436.68 392.619V368.622Z"/><path stroke="#FB5F66" stroke-opacity=".09" stroke-width=".653" d="M479.963 368.622L501.478 356.615L522.993 368.622V392.619L501.478 404.626L479.963 392.619V368.622Z"/><path stroke="#FB5F66" stroke-opacity=".09" stroke-width=".653" d="M523.246 368.622L544.761 356.615L566.276 368.622V392.619L544.761 404.626L523.246 392.619V368.622Z"/><path stroke="#FB5F66" stroke-opacity=".09" stroke-width=".653" d="M566.532 368.622L588.046 356.615L609.561 368.622V392.619L588.046 404.626L566.532 392.619V368.622Z"/><path stroke="#FB5F66" stroke-opacity=".09" stroke-width=".653" d="M567.944 154.747L589.458 142.74L610.973 154.747V178.744L589.458 190.751L567.944 178.744V154.747Z"/><path stroke="#FB5F66" stroke-opacity=".09" stroke-width=".653" d="M546.067 190.665L567.582 178.658L589.096 190.665V214.661L567.582 226.669L546.067 214.661V190.665Z"/><path stroke="#FB5F66" stroke-opacity=".09" stroke-width=".653" d="M589.35 190.665L610.865 178.658L632.38 190.665V214.661L610.865 226.669L589.35 214.661V190.665Z"/><path stroke="#FB5F66" stroke-opacity=".09" stroke-width=".653" d="M524.188 226.583L545.703 214.576L567.217 226.583V250.579L545.703 262.587L524.188 250.579V226.583Z"/><path stroke="#FB5F66" stroke-opacity=".09" stroke-width=".653" d="M567.473 226.583L588.988 214.576L610.503 226.583V250.579L588.988 262.587L567.473 250.579V226.583Z"/><path stroke="#FB5F66" stroke-opacity=".09" stroke-width=".653" d="M502.311 261.848L523.826 249.84L545.341 261.848V285.844L523.826 297.852L502.311 285.844V261.848Z"/><path stroke="#FB5F66" stroke-opacity=".09" stroke-width=".653" d="M545.594 261.848L567.109 249.84L588.624 261.848V285.844L567.109 297.852L545.594 285.844V261.848Z"/><path stroke="#FB5F66" stroke-opacity=".09" stroke-width=".653" d="M588.877 261.848L610.392 249.84L631.907 261.848V285.844L610.392 297.852L588.877 285.844V261.848Z"/><path stroke="#FB5F66" stroke-opacity=".09" stroke-width=".653" d="M458.231 333.031L479.746 321.023L501.26 333.031V357.027L479.746 369.035L458.231 357.027V333.031Z"/><path stroke="#FB5F66" stroke-opacity=".09" stroke-width=".653" d="M501.514 333.031L523.029 321.023L544.544 333.031V357.027L523.029 369.035L501.514 357.027V333.031Z"/><path stroke="#FB5F66" stroke-opacity=".09" stroke-width=".653" d="M544.797 333.031L566.312 321.023L587.827 333.031V357.027L566.312 369.035L544.797 357.027V333.031Z"/><path stroke="#FB5F66" stroke-opacity=".09" stroke-width=".653" d="M588.08 333.031L609.595 321.023L631.11 333.031V357.027L609.595 369.035L588.08 357.027V333.031Z"/></svg>