<svg width="581" height="405" viewBox="0 0 581 405" fill="none" xmlns="http://www.w3.org/2000/svg">
<path d="M348.919 12.3854L326.477 0.370381L304.036 12.3854V36.3739L326.477 48.389L348.919 36.3739V12.3854Z" stroke="#FB5F66" stroke-opacity="0.09" stroke-width="0.653053"/>
<path d="M303.796 12.3854L281.354 0.370381L258.913 12.3854V36.3739L281.354 48.389L303.796 36.3739V12.3854Z" stroke="#FB5F66" stroke-opacity="0.09" stroke-width="0.653053"/>
<path d="M258.675 12.3854L236.233 0.370381L213.792 12.3854V36.3739L236.233 48.389L258.675 36.3739V12.3854Z" stroke="#FB5F66" stroke-opacity="0.09" stroke-width="0.653053"/>
<path d="M213.555 12.3854L191.114 0.370381L168.672 12.3854V36.3739L191.114 48.389L213.555 36.3739V12.3854Z" stroke="#FB5F66" stroke-opacity="0.09" stroke-width="0.653053"/>
<path d="M168.438 12.3854L145.997 0.370381L123.555 12.3854V36.3739L145.997 48.389L168.438 36.3739V12.3854Z" stroke="#FB5F66" stroke-opacity="0.09" stroke-width="0.653053"/>
<path d="M123.315 12.3854L100.874 0.370381L78.4323 12.3854V36.3739L100.874 48.389L123.315 36.3739V12.3854Z" stroke="#FB5F66" stroke-opacity="0.09" stroke-width="0.653053"/>
<path d="M78.1981 12.3854L55.7566 0.370381L33.3151 12.3854V36.3739L55.7566 48.389L78.1981 36.3739V12.3854Z" stroke="#FB5F66" stroke-opacity="0.09" stroke-width="0.653053"/>
<path d="M33.079 12.3854L10.6376 0.370381L-11.8039 12.3854V36.3739L10.6376 48.389L33.079 36.3739V12.3854Z" stroke="#FB5F66" stroke-opacity="0.09" stroke-width="0.653053"/>
<path d="M371.723 47.9767L349.282 35.9617L326.84 47.9767V71.9653L349.282 83.9803L371.723 71.9653V47.9767Z" stroke="#FB5F66" stroke-opacity="0.09" stroke-width="0.653053"/>
<path d="M326.604 47.9767L304.163 35.9617L281.721 47.9767V71.9653L304.163 83.9803L326.604 71.9653V47.9767Z" stroke="#FB5F66" stroke-opacity="0.09" stroke-width="0.653053"/>
<path d="M281.483 47.9767L259.042 35.9617L236.6 47.9767V71.9653L259.042 83.9803L281.483 71.9653V47.9767Z" stroke="#FB5F66" stroke-opacity="0.09" stroke-width="0.653053"/>
<path d="M236.362 47.9767L213.921 35.9617L191.479 47.9767V71.9653L213.921 83.9803L236.362 71.9653V47.9767Z" stroke="#FB5F66" stroke-opacity="0.09" stroke-width="0.653053"/>
<path d="M191.243 47.9767L168.801 35.9617L146.36 47.9767V71.9653L168.801 83.9803L191.243 71.9653V47.9767Z" stroke="#FB5F66" stroke-opacity="0.09" stroke-width="0.653053"/>
<path d="M146.124 47.9767L123.682 35.9617L101.241 47.9767V71.9653L123.682 83.9803L146.124 71.9653V47.9767Z" stroke="#FB5F66" stroke-opacity="0.09" stroke-width="0.653053"/>
<path d="M101.003 47.9767L78.5613 35.9617L56.1198 47.9767V71.9653L78.5613 83.9803L101.003 71.9653V47.9767Z" stroke="#FB5F66" stroke-opacity="0.09" stroke-width="0.653053"/>
<path d="M55.8817 47.9767L33.4402 35.9617L10.9987 47.9767V71.9653L33.4402 83.9803L55.8817 71.9653V47.9767Z" stroke="#FB5F66" stroke-opacity="0.09" stroke-width="0.653053"/>
<path d="M10.7625 47.9767L-11.679 35.9617L-34.1205 47.9767V71.9653L-11.679 83.9803L10.7625 71.9653V47.9767Z" stroke="#FB5F66" stroke-opacity="0.09" stroke-width="0.653053"/>
<path d="M394.526 83.568L372.085 71.553L349.643 83.568V107.557L372.085 119.572L394.526 107.557V83.568Z" stroke="#FB5F66" stroke-opacity="0.09" stroke-width="0.653053"/>
<path d="M349.407 83.568L326.966 71.553L304.524 83.568V107.557L326.966 119.572L349.407 107.557V83.568Z" stroke="#FB5F66" stroke-opacity="0.09" stroke-width="0.653053"/>
<path d="M304.29 83.568L281.848 71.553L259.407 83.568V107.557L281.848 119.572L304.29 107.557V83.568Z" stroke="#FB5F66" stroke-opacity="0.09" stroke-width="0.653053"/>
<path d="M259.167 83.568L236.725 71.553L214.284 83.568V107.557L236.725 119.572L259.167 107.557V83.568Z" stroke="#FB5F66" stroke-opacity="0.09" stroke-width="0.653053"/>
<path d="M214.05 83.568L191.608 71.553L169.167 83.568V107.557L191.608 119.572L214.05 107.557V83.568Z" stroke="#FB5F66" stroke-opacity="0.09" stroke-width="0.653053"/>
<path d="M168.931 83.568L146.489 71.553L124.048 83.568V107.557L146.489 119.572L168.931 107.557V83.568Z" stroke="#FB5F66" stroke-opacity="0.09" stroke-width="0.653053"/>
<path d="M123.809 83.568L101.368 71.553L78.9265 83.568V107.557L101.368 119.572L123.809 107.557V83.568Z" stroke="#FB5F66" stroke-opacity="0.09" stroke-width="0.653053"/>
<path d="M78.6884 83.568L56.2469 71.553L33.8054 83.568V107.557L56.2469 119.572L78.6884 107.557V83.568Z" stroke="#FB5F66" stroke-opacity="0.09" stroke-width="0.653053"/>
<path d="M33.5692 83.568L11.1277 71.553L-11.3138 83.568V107.557L11.1277 119.572L33.5692 107.557V83.568Z" stroke="#FB5F66" stroke-opacity="0.09" stroke-width="0.653053"/>
<path d="M417.333 119.16L394.891 107.145L372.45 119.16V143.148L394.891 155.163L417.333 143.148V119.16Z" stroke="#FB5F66" stroke-opacity="0.09" stroke-width="0.653053"/>
<path d="M372.214 119.16L349.772 107.145L327.331 119.16V143.148L349.772 155.163L372.214 143.148V119.16Z" stroke="#FB5F66" stroke-opacity="0.09" stroke-width="0.653053"/>
<path d="M327.093 119.16L304.651 107.145L282.21 119.16V143.148L304.651 155.163L327.093 143.148V119.16Z" stroke="#FB5F66" stroke-opacity="0.09" stroke-width="0.653053"/>
<path d="M281.974 119.16L259.532 107.145L237.091 119.16V143.148L259.532 155.163L281.974 143.148V119.16Z" stroke="#FB5F66" stroke-opacity="0.09" stroke-width="0.653053"/>
<path d="M236.852 119.16L214.411 107.145L191.969 119.16V143.148L214.411 155.163L236.852 143.148V119.16Z" stroke="#FB5F66" stroke-opacity="0.09" stroke-width="0.653053"/>
<path d="M191.733 119.16L169.292 107.145L146.85 119.16V143.148L169.292 155.163L191.733 143.148V119.16Z" stroke="#FB5F66" stroke-opacity="0.09" stroke-width="0.653053"/>
<path d="M146.616 119.16L124.175 107.145L101.733 119.16V143.148L124.175 155.163L146.616 143.148V119.16Z" stroke="#FB5F66" stroke-opacity="0.09" stroke-width="0.653053"/>
<path d="M101.495 119.16L79.0535 107.145L56.612 119.16V143.148L79.0535 155.163L101.495 143.148V119.16Z" stroke="#FB5F66" stroke-opacity="0.09" stroke-width="0.653053"/>
<path d="M56.3778 119.16L33.9363 107.145L11.4948 119.16V143.148L33.9363 155.163L56.3778 143.148V119.16Z" stroke="#FB5F66" stroke-opacity="0.09" stroke-width="0.653053"/>
<path d="M11.2548 119.16L-11.1867 107.145L-33.6282 119.16V143.148L-11.1867 155.163L11.2548 143.148V119.16Z" stroke="#FB5F66" stroke-opacity="0.09" stroke-width="0.653053"/>
<path d="M440.14 154.751L417.698 142.736L395.257 154.751V178.74L417.698 190.755L440.14 178.74V154.751Z" stroke="#FB5F66" stroke-opacity="0.09" stroke-width="0.653053"/>
<path d="M395.018 154.751L372.577 142.736L350.135 154.751V178.74L372.577 190.755L395.018 178.74V154.751Z" stroke="#FB5F66" stroke-opacity="0.09" stroke-width="0.653053"/>
<path d="M349.899 154.751L327.458 142.736L305.016 154.751V178.74L327.458 190.755L349.899 178.74V154.751Z" stroke="#FB5F66" stroke-opacity="0.09" stroke-width="0.653053"/>
<path d="M304.78 154.751L282.338 142.736L259.897 154.751V178.74L282.338 190.755L304.78 178.74V154.751Z" stroke="#FB5F66" stroke-opacity="0.09" stroke-width="0.653053"/>
<path d="M259.661 154.751L237.22 142.736L214.778 154.751V178.74L237.22 190.755L259.661 178.74V154.751Z" stroke="#FB5F66" stroke-opacity="0.09" stroke-width="0.653053"/>
<path d="M214.54 154.751L192.098 142.736L169.657 154.751V178.74L192.098 190.755L214.54 178.74V154.751Z" stroke="#FB5F66" stroke-opacity="0.09" stroke-width="0.653053"/>
<path d="M169.419 154.751L146.977 142.736L124.536 154.751V178.74L146.977 190.755L169.419 178.74V154.751Z" stroke="#FB5F66" stroke-opacity="0.09" stroke-width="0.653053"/>
<path d="M124.3 154.751L101.858 142.736L79.4166 154.751V178.74L101.858 190.755L124.3 178.74V154.751Z" stroke="#FB5F66" stroke-opacity="0.09" stroke-width="0.653053"/>
<path d="M79.1805 154.751L56.7391 142.736L34.2976 154.751V178.74L56.7391 190.755L79.1805 178.74V154.751Z" stroke="#FB5F66" stroke-opacity="0.09" stroke-width="0.653053"/>
<path d="M34.0595 154.751L11.618 142.736L-10.8235 154.751V178.74L11.618 190.755L34.0595 178.74V154.751Z" stroke="#FB5F66" stroke-opacity="0.09" stroke-width="0.653053"/>
<path d="M462.944 190.342L440.503 178.327L418.061 190.342V214.331L440.503 226.346L462.944 214.331V190.342Z" stroke="#FB5F66" stroke-opacity="0.09" stroke-width="0.653053"/>
<path d="M417.825 190.342L395.384 178.327L372.942 190.342V214.331L395.384 226.346L417.825 214.331V190.342Z" stroke="#FB5F66" stroke-opacity="0.09" stroke-width="0.653053"/>
<path d="M372.704 190.342L350.262 178.327L327.821 190.342V214.331L350.262 226.346L372.704 214.331V190.342Z" stroke="#FB5F66" stroke-opacity="0.09" stroke-width="0.653053"/>
<path d="M327.583 190.342L305.142 178.327L282.7 190.342V214.331L305.142 226.346L327.583 214.331V190.342Z" stroke="#FB5F66" stroke-opacity="0.09" stroke-width="0.653053"/>
<path d="M282.465 190.342L260.024 178.327L237.583 190.342V214.331L260.024 226.346L282.465 214.331V190.342Z" stroke="#FB5F66" stroke-opacity="0.09" stroke-width="0.653053"/>
<path d="M237.345 190.342L214.903 178.327L192.462 190.342V214.331L214.903 226.346L237.345 214.331V190.342Z" stroke="#FB5F66" stroke-opacity="0.09" stroke-width="0.653053"/>
<path d="M192.225 190.342L169.784 178.327L147.342 190.342V214.331L169.784 226.346L192.225 214.331V190.342Z" stroke="#FB5F66" stroke-opacity="0.09" stroke-width="0.653053"/>
<path d="M147.106 190.342L124.665 178.327L102.223 190.342V214.331L124.665 226.346L147.106 214.331V190.342Z" stroke="#FB5F66" stroke-opacity="0.09" stroke-width="0.653053"/>
<path d="M101.987 190.342L79.5456 178.327L57.1041 190.342V214.331L79.5456 226.346L101.987 214.331V190.342Z" stroke="#FB5F66" stroke-opacity="0.09" stroke-width="0.653053"/>
<path d="M56.868 190.342L34.4266 178.327L11.9851 190.342V214.331L34.4266 226.346L56.868 214.331V190.342Z" stroke="#FB5F66" stroke-opacity="0.09" stroke-width="0.653053"/>
<path d="M485.751 225.934L463.31 213.919L440.868 225.934V249.922L463.31 261.937L485.751 249.922V225.934Z" stroke="#FB5F66" stroke-opacity="0.09" stroke-width="0.653053"/>
<path d="M440.632 225.934L418.19 213.919L395.749 225.934V249.922L418.19 261.937L440.632 249.922V225.934Z" stroke="#FB5F66" stroke-opacity="0.09" stroke-width="0.653053"/>
<path d="M395.511 225.934L373.069 213.919L350.628 225.934V249.922L373.069 261.937L395.511 249.922V225.934Z" stroke="#FB5F66" stroke-opacity="0.09" stroke-width="0.653053"/>
<path d="M350.39 225.934L327.948 213.919L305.507 225.934V249.922L327.948 261.937L350.39 249.922V225.934Z" stroke="#FB5F66" stroke-opacity="0.09" stroke-width="0.653053"/>
<path d="M305.27 225.934L282.829 213.919L260.387 225.934V249.922L282.829 261.937L305.27 249.922V225.934Z" stroke="#FB5F66" stroke-opacity="0.09" stroke-width="0.653053"/>
<path d="M260.151 225.934L237.71 213.919L215.268 225.934V249.922L237.71 261.937L260.151 249.922V225.934Z" stroke="#FB5F66" stroke-opacity="0.09" stroke-width="0.653053"/>
<path d="M215.03 225.934L192.589 213.919L170.147 225.934V249.922L192.589 261.937L215.03 249.922V225.934Z" stroke="#FB5F66" stroke-opacity="0.09" stroke-width="0.653053"/>
<path d="M169.909 225.934L147.468 213.919L125.026 225.934V249.922L147.468 261.937L169.909 249.922V225.934Z" stroke="#FB5F66" stroke-opacity="0.09" stroke-width="0.653053"/>
<path d="M124.79 225.934L102.348 213.919L79.9069 225.934V249.922L102.348 261.937L124.79 249.922V225.934Z" stroke="#FB5F66" stroke-opacity="0.09" stroke-width="0.653053"/>
<path d="M79.6727 225.934L57.2312 213.919L34.7897 225.934V249.922L57.2312 261.937L79.6727 249.922V225.934Z" stroke="#FB5F66" stroke-opacity="0.09" stroke-width="0.653053"/>
<path d="M508.554 261.525L486.112 249.51L463.671 261.525V285.514L486.112 297.529L508.554 285.514V261.525Z" stroke="#FB5F66" stroke-opacity="0.09" stroke-width="0.653053"/>
<path d="M463.434 261.525L440.993 249.51L418.551 261.525V285.514L440.993 297.529L463.434 285.514V261.525Z" stroke="#FB5F66" stroke-opacity="0.09" stroke-width="0.653053"/>
<path d="M418.317 261.525L395.876 249.51L373.434 261.525V285.514L395.876 297.529L418.317 285.514V261.525Z" stroke="#FB5F66" stroke-opacity="0.09" stroke-width="0.653053"/>
<path d="M373.196 261.525L350.755 249.51L328.313 261.525V285.514L350.755 297.529L373.196 285.514V261.525Z" stroke="#FB5F66" stroke-opacity="0.09" stroke-width="0.653053"/>
<path d="M328.077 261.525L305.636 249.51L283.194 261.525V285.514L305.636 297.529L328.077 285.514V261.525Z" stroke="#FB5F66" stroke-opacity="0.09" stroke-width="0.653053"/>
<path d="M282.958 261.525L260.516 249.51L238.075 261.525V285.514L260.516 297.529L282.958 285.514V261.525Z" stroke="#FB5F66" stroke-opacity="0.09" stroke-width="0.653053"/>
<path d="M237.839 261.525L215.397 249.51L192.956 261.525V285.514L215.397 297.529L237.839 285.514V261.525Z" stroke="#FB5F66" stroke-opacity="0.09" stroke-width="0.653053"/>
<path d="M192.718 261.525L170.276 249.51L147.835 261.525V285.514L170.276 297.529L192.718 285.514V261.525Z" stroke="#FB5F66" stroke-opacity="0.09" stroke-width="0.653053"/>
<path d="M147.595 261.525L125.153 249.51L102.712 261.525V285.514L125.153 297.529L147.595 285.514V261.525Z" stroke="#FB5F66" stroke-opacity="0.09" stroke-width="0.653053"/>
<path d="M102.475 261.525L80.034 249.51L57.5925 261.525V285.514L80.034 297.529L102.475 285.514V261.525Z" stroke="#FB5F66" stroke-opacity="0.09" stroke-width="0.653053"/>
<path d="M531.362 297.117L508.921 285.102L486.479 297.117V321.105L508.921 333.12L531.362 321.105V297.117Z" stroke="#FB5F66" stroke-opacity="0.09" stroke-width="0.653053"/>
<path d="M486.239 297.117L463.798 285.102L441.356 297.117V321.105L463.798 333.12L486.239 321.105V297.117Z" stroke="#FB5F66" stroke-opacity="0.09" stroke-width="0.653053"/>
<path d="M441.12 297.117L418.679 285.102L396.237 297.117V321.105L418.679 333.12L441.12 321.105V297.117Z" stroke="#FB5F66" stroke-opacity="0.09" stroke-width="0.653053"/>
<path d="M396.001 297.117L373.559 285.102L351.118 297.117V321.105L373.559 333.12L396.001 321.105V297.117Z" stroke="#FB5F66" stroke-opacity="0.09" stroke-width="0.653053"/>
<path d="M350.882 297.117L328.44 285.102L305.999 297.117V321.105L328.44 333.12L350.882 321.105V297.117Z" stroke="#FB5F66" stroke-opacity="0.09" stroke-width="0.653053"/>
<path d="M305.761 297.117L283.319 285.102L260.878 297.117V321.105L283.319 333.12L305.761 321.105V297.117Z" stroke="#FB5F66" stroke-opacity="0.09" stroke-width="0.653053"/>
<path d="M260.643 297.117L238.202 285.102L215.76 297.117V321.105L238.202 333.12L260.643 321.105V297.117Z" stroke="#FB5F66" stroke-opacity="0.09" stroke-width="0.653053"/>
<path d="M215.522 297.117L193.081 285.102L170.639 297.117V321.105L193.081 333.12L215.522 321.105V297.117Z" stroke="#FB5F66" stroke-opacity="0.09" stroke-width="0.653053"/>
<path d="M170.405 297.117L147.964 285.102L125.522 297.117V321.105L147.964 333.12L170.405 321.105V297.117Z" stroke="#FB5F66" stroke-opacity="0.09" stroke-width="0.653053"/>
<path d="M125.284 297.117L102.843 285.102L80.4011 297.117V321.105L102.843 333.12L125.284 321.105V297.117Z" stroke="#FB5F66" stroke-opacity="0.09" stroke-width="0.653053"/>
<path d="M80.0165 297.117L57.575 285.102L35.1335 297.117V321.105L57.575 333.12L80.0165 321.105V297.117Z" stroke="#FB5F66" stroke-opacity="0.09" stroke-width="0.653053"/>
<path d="M34.8972 297.117L12.4557 285.102L-9.98582 297.117V321.105L12.4557 333.12L34.8972 321.105V297.117Z" stroke="#FB5F66" stroke-opacity="0.09" stroke-width="0.653053"/>
<path d="M554.167 332.708L531.725 320.693L509.284 332.708V356.697L531.725 368.712L554.167 356.697V332.708Z" stroke="#FB5F66" stroke-opacity="0.09" stroke-width="0.653053"/>
<path d="M509.05 332.708L486.608 320.693L464.167 332.708V356.697L486.608 368.712L509.05 356.697V332.708Z" stroke="#FB5F66" stroke-opacity="0.09" stroke-width="0.653053"/>
<path d="M463.927 332.708L441.485 320.693L419.044 332.708V356.697L441.485 368.712L463.927 356.697V332.708Z" stroke="#FB5F66" stroke-opacity="0.09" stroke-width="0.653053"/>
<path d="M418.804 332.708L396.362 320.693L373.921 332.708V356.697L396.362 368.712L418.804 356.697V332.708Z" stroke="#FB5F66" stroke-opacity="0.09" stroke-width="0.653053"/>
<path d="M373.686 332.708L351.245 320.693L328.803 332.708V356.697L351.245 368.712L373.686 356.697V332.708Z" stroke="#FB5F66" stroke-opacity="0.09" stroke-width="0.653053"/>
<path d="M328.567 332.708L306.126 320.693L283.684 332.708V356.697L306.126 368.712L328.567 356.697V332.708Z" stroke="#FB5F66" stroke-opacity="0.09" stroke-width="0.653053"/>
<path d="M283.446 332.708L261.005 320.693L238.563 332.708V356.697L261.005 368.712L283.446 356.697V332.708Z" stroke="#FB5F66" stroke-opacity="0.09" stroke-width="0.653053"/>
<path d="M238.327 332.708L215.886 320.693L193.444 332.708V356.697L215.886 368.712L238.327 356.697V332.708Z" stroke="#FB5F66" stroke-opacity="0.09" stroke-width="0.653053"/>
<path d="M193.208 332.708L170.766 320.693L148.325 332.708V356.697L170.766 368.712L193.208 356.697V332.708Z" stroke="#FB5F66" stroke-opacity="0.09" stroke-width="0.653053"/>
<path d="M148.089 332.708L125.647 320.693L103.206 332.708V356.697L125.647 368.712L148.089 356.697V332.708Z" stroke="#FB5F66" stroke-opacity="0.09" stroke-width="0.653053"/>
<path d="M576.972 368.299L554.53 356.284L532.089 368.299V392.288L554.53 404.303L576.972 392.288V368.299Z" stroke="#FB5F66" stroke-opacity="0.09" stroke-width="0.653053"/>
<path d="M531.852 368.299L509.411 356.284L486.969 368.299V392.288L509.411 404.303L531.852 392.288V368.299Z" stroke="#FB5F66" stroke-opacity="0.09" stroke-width="0.653053"/>
<path d="M486.733 368.299L464.292 356.284L441.85 368.299V392.288L464.292 404.303L486.733 392.288V368.299Z" stroke="#FB5F66" stroke-opacity="0.09" stroke-width="0.653053"/>
<path d="M441.612 368.299L419.171 356.284L396.729 368.299V392.288L419.171 404.303L441.612 392.288V368.299Z" stroke="#FB5F66" stroke-opacity="0.09" stroke-width="0.653053"/>
<path d="M396.495 368.299L374.054 356.284L351.612 368.299V392.288L374.054 404.303L396.495 392.288V368.299Z" stroke="#FB5F66" stroke-opacity="0.09" stroke-width="0.653053"/>
<path d="M351.374 368.299L328.932 356.284L306.491 368.299V392.288L328.932 404.303L351.374 392.288V368.299Z" stroke="#FB5F66" stroke-opacity="0.09" stroke-width="0.653053"/>
<path d="M306.255 368.299L283.813 356.284L261.372 368.299V392.288L283.813 404.303L306.255 392.288V368.299Z" stroke="#FB5F66" stroke-opacity="0.09" stroke-width="0.653053"/>
<path d="M261.132 368.299L238.69 356.284L216.249 368.299V392.288L238.69 404.303L261.132 392.288V368.299Z" stroke="#FB5F66" stroke-opacity="0.09" stroke-width="0.653053"/>
<path d="M216.013 368.299L193.571 356.284L171.13 368.299V392.288L193.571 404.303L216.013 392.288V368.299Z" stroke="#FB5F66" stroke-opacity="0.09" stroke-width="0.653053"/>
<path d="M170.893 368.299L148.452 356.284L126.01 368.299V392.288L148.452 404.303L170.893 392.288V368.299Z" stroke="#FB5F66" stroke-opacity="0.09" stroke-width="0.653053"/>
<path d="M125.628 368.626L103.186 356.611L80.7448 368.626V392.615L103.186 404.63L125.628 392.615V368.626Z" stroke="#FB5F66" stroke-opacity="0.09" stroke-width="0.653053"/>
<path d="M80.5067 368.626L58.0652 356.611L35.6237 368.626V392.615L58.0652 404.63L80.5067 392.615V368.626Z" stroke="#FB5F66" stroke-opacity="0.09" stroke-width="0.653053"/>
<path d="M35.3876 368.626L12.9461 356.611L-9.4954 368.626V392.615L12.9461 404.63L35.3876 392.615V368.626Z" stroke="#FB5F66" stroke-opacity="0.09" stroke-width="0.653053"/>
<path d="M11.5985 190.669L-10.843 178.654L-33.2845 190.669V214.658L-10.843 226.673L11.5985 214.658V190.669Z" stroke="#FB5F66" stroke-opacity="0.09" stroke-width="0.653053"/>
<path d="M34.4071 226.587L11.9656 214.572L-10.4759 226.587V250.576L11.9656 262.591L34.4071 250.576V226.587Z" stroke="#FB5F66" stroke-opacity="0.09" stroke-width="0.653053"/>
<path d="M57.2116 261.852L34.7701 249.837L12.3286 261.852V285.84L34.7701 297.855L57.2116 285.84V261.852Z" stroke="#FB5F66" stroke-opacity="0.09" stroke-width="0.653053"/>
<path d="M12.0927 261.852L-10.3488 249.837L-32.7903 261.852V285.84L-10.3488 297.855L12.0927 285.84V261.852Z" stroke="#FB5F66" stroke-opacity="0.09" stroke-width="0.653053"/>
<path d="M103.161 333.035L80.7195 321.02L58.278 333.035V357.023L80.7195 369.038L103.161 357.023V333.035Z" stroke="#FB5F66" stroke-opacity="0.09" stroke-width="0.653053"/>
<path d="M58.0419 333.035L35.6004 321.02L13.1589 333.035V357.023L35.6004 369.038L58.0419 357.023V333.035Z" stroke="#FB5F66" stroke-opacity="0.09" stroke-width="0.653053"/>
<path d="M12.9227 333.035L-9.51875 321.02L-31.9602 333.035V357.023L-9.51875 369.038L12.9227 357.023V333.035Z" stroke="#FB5F66" stroke-opacity="0.09" stroke-width="0.653053"/>
</svg>
