<svg width="35" height="35" viewBox="0 0 35 35" fill="none" xmlns="http://www.w3.org/2000/svg">
<g clip-path="url(#clip0_0_669)">
<path d="M22.3275 9.09602C23.2698 9.09602 24.0365 8.32937 24.0365 7.38703C24.0365 6.4447 23.2698 5.67798 22.3275 5.67798C21.3852 5.67798 20.6185 6.4447 20.6185 7.38703C20.6185 7.77189 20.7465 8.12736 20.962 8.41338L18.1541 12.3373C17.9824 12.2808 17.8027 12.252 17.622 12.252C17.1729 12.252 16.764 12.4264 16.4587 12.7107L14.5871 11.6486C14.6126 11.5305 14.6254 11.4101 14.6254 11.2893C14.6254 10.3469 13.8588 9.58027 12.9165 9.58027C11.9741 9.58027 11.2075 10.3469 11.2075 11.2893C11.2075 11.4125 11.2209 11.5327 11.2458 11.6486L9.37421 12.7107C9.06892 12.4264 8.65999 12.2521 8.21094 12.2521C7.2686 12.2521 6.50195 13.0188 6.50195 13.9612C6.50195 14.9035 7.2686 15.6702 8.21094 15.6702C9.15327 15.6702 9.91992 14.9035 9.91992 13.9612C9.9199 13.8403 9.90704 13.7199 9.88157 13.6018L11.7532 12.5398C12.0585 12.824 12.4674 12.9984 12.9165 12.9984C13.3655 12.9984 13.7744 12.824 14.0797 12.5398L15.9513 13.6019C15.9259 13.7199 15.913 13.8404 15.913 13.9612C15.913 14.9036 16.6796 15.6703 17.622 15.6703C18.5644 15.6703 19.331 14.9036 19.331 13.9612C19.3314 13.5908 19.2108 13.2303 18.9875 12.9347L21.7954 9.01084C21.9671 9.06728 22.1467 9.09603 22.3275 9.09602ZM22.3275 6.70337C22.7044 6.70337 23.0111 7.01003 23.0111 7.38703C23.0111 7.76396 22.7044 8.07063 22.3275 8.07063C21.9506 8.07063 21.6439 7.76396 21.6439 7.38703C21.6438 7.01003 21.9505 6.70337 22.3275 6.70337ZM8.21073 14.6447C7.8338 14.6447 7.52714 14.338 7.52714 13.961C7.52714 13.584 7.8338 13.2774 8.21073 13.2774C8.58767 13.2774 8.89433 13.584 8.89433 13.961C8.89433 14.338 8.58767 14.6447 8.21073 14.6447ZM12.9163 11.9729C12.5394 11.9729 12.2327 11.6662 12.2327 11.2892C12.2327 10.9123 12.5394 10.6056 12.9163 10.6056C13.2933 10.6056 13.5999 10.9123 13.5999 11.2892C13.6 11.6662 13.2933 11.9729 12.9163 11.9729ZM17.6219 14.6447C17.245 14.6447 16.9383 14.338 16.9383 13.961C16.9383 13.584 17.245 13.2774 17.6219 13.2774C17.9989 13.2774 18.3056 13.584 18.3056 13.961C18.3056 14.338 17.9988 14.6447 17.6219 14.6447Z" fill="#FB5F65"/>
<path d="M28.6286 25.7691H1.45024C1.3376 25.769 1.22962 25.7242 1.14997 25.6445C1.07032 25.5649 1.02552 25.4569 1.02539 25.3442V4.19255C1.02552 4.07991 1.07032 3.97192 1.14997 3.89227C1.22962 3.81263 1.3376 3.76782 1.45024 3.7677H3.86716C4.1503 3.7677 4.37985 3.53822 4.37985 3.255C4.37985 2.97179 4.1503 2.74231 3.86716 2.74231H1.45024C0.650576 2.74231 0 3.39288 0 4.19255V25.3442C0 26.1439 0.650576 26.7945 1.45024 26.7945H4.98531V27.9228C4.98531 28.5656 5.50826 29.0886 6.15105 29.0886H11.2831L8.86724 33.8052C8.80674 33.9261 8.79641 34.0659 8.83849 34.1944C8.88058 34.3228 8.97167 34.4294 9.09197 34.491C9.21226 34.5527 9.35201 34.5643 9.48083 34.5234C9.60965 34.4825 9.71711 34.3924 9.77983 34.2727L12.4351 29.0886H18.1036L20.7589 34.2727C20.7896 34.3326 20.8318 34.3859 20.883 34.4295C20.9343 34.4732 20.9937 34.5063 21.0578 34.5269C21.1219 34.5476 21.1894 34.5555 21.2565 34.55C21.3236 34.5446 21.389 34.526 21.4489 34.4953C21.5088 34.4646 21.5621 34.4224 21.6058 34.3711C21.6494 34.3198 21.6825 34.2604 21.7031 34.1964C21.7238 34.1323 21.7316 34.0648 21.7262 33.9976C21.7208 33.9305 21.7022 33.8651 21.6715 33.8052L19.2557 29.0886H24.3877C25.0305 29.0886 25.5534 28.5657 25.5534 27.9228V26.7945H28.6286C28.9118 26.7945 29.1413 26.565 29.1413 26.2818C29.1413 25.9986 28.9118 25.7691 28.6286 25.7691ZM24.528 27.9228C24.528 27.96 24.5132 27.9957 24.4869 28.022C24.4606 28.0483 24.4249 28.0631 24.3877 28.0632H6.15105C6.11384 28.0631 6.07816 28.0483 6.05185 28.022C6.02554 27.9957 6.01074 27.96 6.0107 27.9228V26.7945H24.528V27.9228ZM5.91794 3.7677H29.0884C29.2011 3.76782 29.309 3.81263 29.3887 3.89227C29.4683 3.97192 29.5131 4.07991 29.5133 4.19255V9.06733C29.5133 9.35054 29.7428 9.58002 30.026 9.58002C30.3091 9.58002 30.5387 9.35054 30.5387 9.06733V4.19255C30.5387 3.39288 29.8881 2.74231 29.0884 2.74231H18.1149V1.73455C18.1149 1.02532 17.5379 0.448303 16.8286 0.448303H13.7102C13.0009 0.448303 12.4238 1.02532 12.4238 1.73455V2.74231H5.91794C5.63479 2.74231 5.40524 2.97179 5.40524 3.255C5.40524 3.53822 5.63479 3.7677 5.91794 3.7677ZM13.4492 1.73455C13.4493 1.66538 13.4768 1.59906 13.5257 1.55015C13.5747 1.50125 13.641 1.47375 13.7102 1.47369H16.8286C16.8977 1.47377 16.9641 1.50127 17.013 1.55017C17.0619 1.59908 17.0894 1.66538 17.0895 1.73455V2.74231H13.4493V1.73455H13.4492Z" fill="#FB5F65"/>
<path d="M7.17111 18.2913C7.03514 18.2913 6.90473 18.3453 6.80858 18.4414C6.71243 18.5376 6.65842 18.668 6.65842 18.804V23.3343C6.65842 23.4702 6.71243 23.6007 6.80858 23.6968C6.90473 23.7929 7.03514 23.847 7.17111 23.847H9.25108C9.38706 23.847 9.51746 23.7929 9.61361 23.6968C9.70976 23.6007 9.76378 23.4702 9.76378 23.3343V18.804C9.76378 18.668 9.70976 18.5376 9.61361 18.4414C9.51746 18.3453 9.38706 18.2913 9.25108 18.2913H7.17111ZM8.73839 22.8216H7.68381V19.3167H8.73839V22.8216ZM11.8766 15.6712C11.7407 15.6712 11.6102 15.7252 11.5141 15.8213C11.418 15.9175 11.3639 16.0479 11.3639 16.1839V23.3343C11.3639 23.4703 11.418 23.6007 11.5141 23.6969C11.6102 23.793 11.7407 23.847 11.8766 23.847H13.9566C14.0926 23.847 14.223 23.793 14.3191 23.6969C14.4153 23.6007 14.4693 23.4703 14.4693 23.3343V16.1839C14.4693 16.0479 14.4153 15.9175 14.3191 15.8213C14.223 15.7252 14.0926 15.6712 13.9566 15.6712H11.8766ZM13.444 22.8216H12.3894V16.6966H13.444V22.8216ZM16.5822 18.2913C16.4462 18.2913 16.3158 18.3453 16.2197 18.4414C16.1235 18.5376 16.0695 18.668 16.0695 18.804V23.3343C16.0695 23.4702 16.1235 23.6007 16.2197 23.6968C16.3158 23.7929 16.4462 23.847 16.5822 23.847H18.6622C18.7982 23.847 18.9286 23.7929 19.0247 23.6968C19.1209 23.6007 19.1749 23.4702 19.1749 23.3343V18.804C19.1749 18.668 19.1209 18.5376 19.0247 18.4414C18.9286 18.3453 18.7982 18.2913 18.6622 18.2913H16.5822ZM18.1495 22.8216H17.0949V19.3167H18.1495V22.8216ZM21.2878 21.3166C21.1518 21.3166 21.0214 21.3706 20.9253 21.4667C20.8291 21.5629 20.7751 21.6933 20.7751 21.8293V23.3343C20.7751 23.4703 20.8291 23.6007 20.9253 23.6969C21.0214 23.793 21.1518 23.847 21.2878 23.847H23.3678C23.6509 23.847 23.8805 23.6176 23.8805 23.3343C23.8805 23.0511 23.6509 22.8216 23.3678 22.8216H21.8005V21.8293C21.8005 21.6933 21.7465 21.5629 21.6503 21.4667C21.5542 21.3706 21.4238 21.3166 21.2878 21.3166ZM34.7386 26.2512L31.7973 21.1567C32.5425 20.3624 33.0851 19.3919 33.375 18.3102C33.8382 16.5813 33.6005 14.7755 32.7055 13.2254C30.858 10.0252 26.7516 8.92514 23.5517 10.7725C20.3518 12.62 19.2515 16.7264 21.099 19.9263C21.994 21.4765 23.439 22.5853 25.1679 23.0486C25.737 23.2017 26.3237 23.2794 26.9131 23.2798C27.4218 23.2798 27.9276 23.2213 28.4223 23.1055L31.3629 28.2002C31.7234 28.8248 32.3798 29.1743 33.054 29.1742C33.3843 29.1742 33.719 29.0902 34.0252 28.9136C34.6265 28.5665 35.0001 27.9193 35.0001 27.2247C35.0001 26.8843 34.9097 26.5478 34.7386 26.2512ZM25.4333 22.0581C23.9689 21.6658 22.7449 20.7266 21.9869 19.4137C20.4222 16.7033 21.3541 13.2254 24.0644 11.6605C24.956 11.1458 25.9303 10.9013 26.8927 10.9013C28.8556 10.9013 30.7675 11.9194 31.8175 13.738C32.5754 15.051 32.7768 16.5804 32.3844 18.0448C31.9921 19.5092 31.0529 20.7331 29.74 21.4911C28.4271 22.2491 26.8976 22.4504 25.4333 22.0581ZM33.5127 28.0254C33.0716 28.2801 32.5056 28.1285 32.2511 27.6876L29.4218 22.786C29.7077 22.6694 29.9853 22.5335 30.2528 22.3792C30.5202 22.2244 30.7766 22.0516 31.0205 21.8619L33.8505 26.7638C33.9316 26.9039 33.9744 27.0629 33.9747 27.2247C33.9745 27.387 33.9317 27.5463 33.8506 27.6868C33.7696 27.8273 33.653 27.9441 33.5127 28.0254Z" fill="#FB5F65"/>
<path d="M31.5497 18.0202C31.9117 16.8543 31.8255 15.6061 31.307 14.5055C31.2788 14.4439 31.2386 14.3885 31.1888 14.3425C31.139 14.2965 31.0806 14.2608 31.0169 14.2376C30.9533 14.2143 30.8856 14.2039 30.8179 14.2069C30.7502 14.21 30.6838 14.2264 30.6224 14.2553C30.5611 14.2842 30.5061 14.3249 30.4607 14.3752C30.4152 14.4255 30.3802 14.4843 30.3576 14.5482C30.335 14.6121 30.3253 14.6798 30.329 14.7475C30.3328 14.8152 30.3499 14.8814 30.3794 14.9424C30.7884 15.8106 30.8563 16.7956 30.5705 17.7161C30.2831 18.6417 29.6623 19.4185 28.8223 19.9034C27.9335 20.4167 26.898 20.5528 25.9067 20.2872C24.9153 20.0216 24.0867 19.3858 23.5736 18.497C22.5142 16.6621 23.1452 14.3076 24.98 13.2482C25.6343 12.8693 26.3861 12.6922 27.1407 12.7391C27.8954 12.7861 28.6194 13.0549 29.2218 13.5119C29.2754 13.5525 29.3366 13.5822 29.4018 13.5992C29.4669 13.6162 29.5348 13.6202 29.6015 13.6109C29.6682 13.6017 29.7324 13.5794 29.7905 13.5453C29.8485 13.5113 29.8993 13.4661 29.9399 13.4124C30.022 13.304 30.0576 13.1674 30.0389 13.0327C30.0203 12.898 29.9489 12.7763 29.8404 12.6942C29.0774 12.1153 28.1603 11.7747 27.2043 11.7153C26.2483 11.6559 25.2961 11.8802 24.4672 12.3602C23.3412 13.0103 22.5357 14.06 22.1992 15.3159C21.8627 16.5718 22.0354 17.8836 22.6855 19.0096C23.3356 20.1357 24.3853 20.9411 25.6412 21.2777C26.0547 21.3889 26.4809 21.4454 26.909 21.4457C27.7524 21.4457 28.585 21.2245 29.335 20.7914C30.3991 20.1771 31.1857 19.193 31.5497 18.0202Z" fill="#FB5F65"/>
</g>
<defs>
<clipPath id="clip0_0_669">
<rect width="35" height="35" fill="white"/>
</clipPath>
</defs>
</svg>
