<svg xmlns="http://www.w3.org/2000/svg" width="18" height="19" fill="none" viewBox="0 0 18 19"><g clip-path="url(#clip0_0_581)"><path stroke="#FB5F66" stroke-linecap="round" stroke-linejoin="round" stroke-width="2" d="M16.5 8.54623V9.23623C16.4991 10.8535 15.9754 12.4272 15.007 13.7226C14.0386 15.018 12.6775 15.9656 11.1265 16.4242C9.57557 16.8827 7.91794 16.8277 6.40085 16.2672C4.88376 15.7067 3.58849 14.6708 2.70822 13.314C1.82795 11.9573 1.40984 10.3523 1.51626 8.73846C1.62267 7.12465 2.24791 5.58847 3.29871 4.35903C4.34951 3.12959 5.76959 2.27276 7.34714 1.91634C8.92469 1.55991 10.5752 1.72298 12.0525 2.38123"/><path stroke="#FB5F66" stroke-linecap="round" stroke-linejoin="round" stroke-width="2" d="M16.5 3.23633L9 10.7438L6.75 8.49383"/></g><defs><clipPath id="clip0_0_581"><rect width="18" height="18" fill="#fff" transform="translate(0 0.236328)"/></clipPath></defs></svg>