<svg width="30" height="30" viewBox="0 0 30 30" fill="none" xmlns="http://www.w3.org/2000/svg">
<path d="M24.0698 2.09302C23.7922 2.09302 23.526 1.98277 23.3298 1.78651C23.1335 1.59025 23.0233 1.32406 23.0233 1.04651C23.0233 0.768959 23.1335 0.502775 23.3298 0.306516C23.526 0.110257 23.7922 0 24.0698 0H26.1628C27.1805 0 28.1565 0.404276 28.8761 1.12389C29.5957 1.84351 30 2.81952 30 3.83721V5.93023C30 6.20778 29.8897 6.47397 29.6935 6.67023C29.4972 6.86649 29.231 6.97674 28.9535 6.97674C28.6759 6.97674 28.4097 6.86649 28.2135 6.67023C28.0172 6.47397 27.907 6.20778 27.907 5.93023V3.83721C27.907 2.87442 27.1256 2.09302 26.1628 2.09302H24.0698ZM24.0698 30C23.7922 30 23.526 29.8897 23.3298 29.6935C23.1335 29.4972 23.0233 29.231 23.0233 28.9535C23.0233 28.6759 23.1335 28.4097 23.3298 28.2135C23.526 28.0172 23.7922 27.907 24.0698 27.907H26.1628C27.1256 27.907 27.907 27.1256 27.907 26.1628V24.0698C27.907 23.7922 28.0172 23.526 28.2135 23.3298C28.4097 23.1335 28.6759 23.0233 28.9535 23.0233C29.231 23.0233 29.4972 23.1335 29.6935 23.3298C29.8897 23.526 30 23.7922 30 24.0698V26.1628C30 27.1805 29.5957 28.1565 28.8761 28.8761C28.1565 29.5957 27.1805 30 26.1628 30H24.0698ZM5.93023 0C6.20778 0 6.47397 0.110257 6.67023 0.306516C6.86649 0.502775 6.97674 0.768959 6.97674 1.04651C6.97674 1.32406 6.86649 1.59025 6.67023 1.78651C6.47397 1.98277 6.20778 2.09302 5.93023 2.09302H3.83721C2.87442 2.09302 2.09302 2.87442 2.09302 3.83721V5.93023C2.09302 6.20778 1.98277 6.47397 1.78651 6.67023C1.59025 6.86649 1.32406 6.97674 1.04651 6.97674C0.768959 6.97674 0.502775 6.86649 0.306516 6.67023C0.110257 6.47397 0 6.20778 0 5.93023V3.83721C0 2.81952 0.404276 1.84351 1.12389 1.12389C1.84351 0.404276 2.81952 0 3.83721 0H5.93023ZM5.93023 27.907C6.20778 27.907 6.47397 28.0172 6.67023 28.2135C6.86649 28.4097 6.97674 28.6759 6.97674 28.9535C6.97674 29.231 6.86649 29.4972 6.67023 29.6935C6.47397 29.8897 6.20778 30 5.93023 30H3.83721C2.81952 30 1.84351 29.5957 1.12389 28.8761C0.404276 28.1565 0 27.1805 0 26.1628V24.0698C0 23.7922 0.110257 23.526 0.306516 23.3298C0.502775 23.1335 0.768959 23.0233 1.04651 23.0233C1.32406 23.0233 1.59025 23.1335 1.78651 23.3298C1.98277 23.526 2.09302 23.7922 2.09302 24.0698V26.1628C2.09302 27.1256 2.87442 27.907 3.83721 27.907H5.93023ZM25.814 5.93023V10.1163C25.8125 10.5784 25.6282 11.0212 25.3015 11.348C24.9747 11.6748 24.5319 11.859 24.0698 11.8605H5.93023C5.46787 11.8597 5.02466 11.6757 4.69772 11.3488C4.37078 11.0219 4.18678 10.5786 4.18605 10.1163V5.93023C4.18752 5.4681 4.37175 5.02531 4.69853 4.69853C5.02531 4.37175 5.4681 4.18752 5.93023 4.18605H24.0698C24.5321 4.18678 24.9753 4.37078 25.3023 4.69772C25.6292 5.02466 25.8132 5.46787 25.814 5.93023ZM13.9535 15.6977V24.0698C13.9535 25.0326 13.1721 25.814 12.2093 25.814H5.93023C4.96744 25.814 4.18605 25.0326 4.18605 24.0698V15.6977C4.18605 14.7349 4.96744 13.9535 5.93023 13.9535H12.2093C13.1721 13.9535 13.9535 14.7349 13.9535 15.6977ZM25.814 15.6977V24.0698C25.814 25.0326 25.0326 25.814 24.0698 25.814H17.7907C16.8279 25.814 16.0465 25.0326 16.0465 24.0698V15.6977C16.0465 14.7349 16.8279 13.9535 17.7907 13.9535H24.0698C25.0326 13.9535 25.814 14.7349 25.814 15.6977ZM27.907 9.4186C27.907 9.14105 28.0172 8.87487 28.2135 8.67861C28.4097 8.48235 28.6759 8.37209 28.9535 8.37209C29.231 8.37209 29.4972 8.48235 29.6935 8.67861C29.8897 8.87487 30 9.14105 30 9.4186V10.814C30 11.0915 29.8897 11.3577 29.6935 11.5539C29.4972 11.7502 29.231 11.8605 28.9535 11.8605C28.6759 11.8605 28.4097 11.7502 28.2135 11.5539C28.0172 11.3577 27.907 11.0915 27.907 10.814V9.4186ZM9.4186 2.09302C9.14105 2.09302 8.87487 1.98277 8.67861 1.78651C8.48235 1.59025 8.37209 1.32406 8.37209 1.04651C8.37209 0.768959 8.48235 0.502775 8.67861 0.306516C8.87487 0.110257 9.14105 0 9.4186 0H10.814C11.0915 0 11.3577 0.110257 11.5539 0.306516C11.7502 0.502775 11.8605 0.768959 11.8605 1.04651C11.8605 1.32406 11.7502 1.59025 11.5539 1.78651C11.3577 1.98277 11.0915 2.09302 10.814 2.09302H9.4186ZM0 9.4186C0 9.14105 0.110257 8.87487 0.306516 8.67861C0.502775 8.48235 0.768959 8.37209 1.04651 8.37209C1.32406 8.37209 1.59025 8.48235 1.78651 8.67861C1.98277 8.87487 2.09302 9.14105 2.09302 9.4186V10.814C2.09302 11.0915 1.98277 11.3577 1.78651 11.5539C1.59025 11.7502 1.32406 11.8605 1.04651 11.8605C0.768959 11.8605 0.502775 11.7502 0.306516 11.5539C0.110257 11.3577 0 11.0915 0 10.814V9.4186ZM9.4186 30C9.14105 30 8.87487 29.8897 8.67861 29.6935C8.48235 29.4972 8.37209 29.231 8.37209 28.9535C8.37209 28.6759 8.48235 28.4097 8.67861 28.2135C8.87487 28.0172 9.14105 27.907 9.4186 27.907H10.814C11.0915 27.907 11.3577 28.0172 11.5539 28.2135C11.7502 28.4097 11.8605 28.6759 11.8605 28.9535C11.8605 29.231 11.7502 29.4972 11.5539 29.6935C11.3577 29.8897 11.0915 30 10.814 30H9.4186ZM27.907 14.3023C27.907 14.0248 28.0172 13.7586 28.2135 13.5623C28.4097 13.3661 28.6759 13.2558 28.9535 13.2558C29.231 13.2558 29.4972 13.3661 29.6935 13.5623C29.8897 13.7586 30 14.0248 30 14.3023V15.6977C30 15.9752 29.8897 16.2414 29.6935 16.4377C29.4972 16.6339 29.231 16.7442 28.9535 16.7442C28.6759 16.7442 28.4097 16.6339 28.2135 16.4377C28.0172 16.2414 27.907 15.9752 27.907 15.6977V14.3023ZM14.3023 2.09302C14.0248 2.09302 13.7586 1.98277 13.5623 1.78651C13.3661 1.59025 13.2558 1.32406 13.2558 1.04651C13.2558 0.768959 13.3661 0.502775 13.5623 0.306516C13.7586 0.110257 14.0248 0 14.3023 0H15.6977C15.9752 0 16.2414 0.110257 16.4377 0.306516C16.6339 0.502775 16.7442 0.768959 16.7442 1.04651C16.7442 1.32406 16.6339 1.59025 16.4377 1.78651C16.2414 1.98277 15.9752 2.09302 15.6977 2.09302H14.3023ZM0 14.3023C0 14.0248 0.110257 13.7586 0.306516 13.5623C0.502775 13.3661 0.768959 13.2558 1.04651 13.2558C1.32406 13.2558 1.59025 13.3661 1.78651 13.5623C1.98277 13.7586 2.09302 14.0248 2.09302 14.3023V15.6977C2.09302 15.9752 1.98277 16.2414 1.78651 16.4377C1.59025 16.6339 1.32406 16.7442 1.04651 16.7442C0.768959 16.7442 0.502775 16.6339 0.306516 16.4377C0.110257 16.2414 0 15.9752 0 15.6977V14.3023ZM14.3023 30C14.0248 30 13.7586 29.8897 13.5623 29.6935C13.3661 29.4972 13.2558 29.231 13.2558 28.9535C13.2558 28.6759 13.3661 28.4097 13.5623 28.2135C13.7586 28.0172 14.0248 27.907 14.3023 27.907H15.6977C15.9752 27.907 16.2414 28.0172 16.4377 28.2135C16.6339 28.4097 16.7442 28.6759 16.7442 28.9535C16.7442 29.231 16.6339 29.4972 16.4377 29.6935C16.2414 29.8897 15.9752 30 15.6977 30H14.3023ZM27.907 19.186C27.907 18.9085 28.0172 18.6423 28.2135 18.4461C28.4097 18.2498 28.6759 18.1395 28.9535 18.1395C29.231 18.1395 29.4972 18.2498 29.6935 18.4461C29.8897 18.6423 30 18.9085 30 19.186V20.5814C30 20.8589 29.8897 21.1251 29.6935 21.3214C29.4972 21.5177 29.231 21.6279 28.9535 21.6279C28.6759 21.6279 28.4097 21.5177 28.2135 21.3214C28.0172 21.1251 27.907 20.8589 27.907 20.5814V19.186ZM19.186 2.09302C18.9085 2.09302 18.6423 1.98277 18.4461 1.78651C18.2498 1.59025 18.1395 1.32406 18.1395 1.04651C18.1395 0.768959 18.2498 0.502775 18.4461 0.306516C18.6423 0.110257 18.9085 0 19.186 0H20.5814C20.8589 0 21.1251 0.110257 21.3214 0.306516C21.5177 0.502775 21.6279 0.768959 21.6279 1.04651C21.6279 1.32406 21.5177 1.59025 21.3214 1.78651C21.1251 1.98277 20.8589 2.09302 20.5814 2.09302H19.186ZM0 19.186C0 18.9085 0.110257 18.6423 0.306516 18.4461C0.502775 18.2498 0.768959 18.1395 1.04651 18.1395C1.32406 18.1395 1.59025 18.2498 1.78651 18.4461C1.98277 18.6423 2.09302 18.9085 2.09302 19.186V20.5814C2.09302 20.8589 1.98277 21.1251 1.78651 21.3214C1.59025 21.5177 1.32406 21.6279 1.04651 21.6279C0.768959 21.6279 0.502775 21.5177 0.306516 21.3214C0.110257 21.1251 0 20.8589 0 20.5814V19.186ZM19.186 30C18.9085 30 18.6423 29.8897 18.4461 29.6935C18.2498 29.4972 18.1395 29.231 18.1395 28.9535C18.1395 28.6759 18.2498 28.4097 18.4461 28.2135C18.6423 28.0172 18.9085 27.907 19.186 27.907H20.5814C20.8589 27.907 21.1251 28.0172 21.3214 28.2135C21.5177 28.4097 21.6279 28.6759 21.6279 28.9535C21.6279 29.231 21.5177 29.4972 21.3214 29.6935C21.1251 29.8897 20.8589 30 20.5814 30H19.186Z" fill="#FB5F68"/>
</svg>
