<svg xmlns="http://www.w3.org/2000/svg" width="98" height="16" fill="none" viewBox="0 0 98 16"><path fill="#FB5F66" d="M0.487252 12V0.799999H2.32725V12H0.487252ZM1.75125 12V10.32H8.02325V12H1.75125ZM1.75125 7.088V5.472H7.47925V7.088H1.75125ZM1.75125 2.48V0.799999H7.94325V2.48H1.75125ZM14.8688 12L12.6608 8.752L12.3408 8.464L9.36475 4.32H11.4928L13.4608 7.168L13.7648 7.44L16.9808 12H14.8688ZM9.22075 12L12.3248 7.696L13.3488 8.96L11.2688 12H9.22075ZM13.9248 8.432L12.8848 7.184L14.8048 4.32H16.8368L13.9248 8.432ZM22.5774 12.16C21.9907 12.16 21.468 12.0373 21.0094 11.792C20.5507 11.536 20.188 11.1893 19.9214 10.752C19.6654 10.3147 19.5374 9.81867 19.5374 9.264V7.056C19.5374 6.50133 19.6707 6.00533 19.9374 5.568C20.204 5.13067 20.5667 4.78933 21.0254 4.544C21.484 4.288 22.0014 4.16 22.5774 4.16C23.2707 4.16 23.8947 4.34133 24.4494 4.704C25.0147 5.056 25.4574 5.536 25.7774 6.144C26.108 6.74133 26.2734 7.41867 26.2734 8.176C26.2734 8.92267 26.108 9.6 25.7774 10.208C25.4574 10.8053 25.0147 11.28 24.4494 11.632C23.8947 11.984 23.2707 12.16 22.5774 12.16ZM22.2894 10.496C22.716 10.496 23.0894 10.4 23.4094 10.208C23.74 10.0053 23.996 9.728 24.1774 9.376C24.3694 9.024 24.4654 8.61867 24.4654 8.16C24.4654 7.70133 24.3694 7.296 24.1774 6.944C23.996 6.592 23.74 6.32 23.4094 6.128C23.0894 5.92533 22.716 5.824 22.2894 5.824C21.8627 5.824 21.484 5.92533 21.1534 6.128C20.8227 6.32 20.5667 6.592 20.3854 6.944C20.204 7.296 20.1134 7.70133 20.1134 8.16C20.1134 8.61867 20.204 9.024 20.3854 9.376C20.5667 9.728 20.8227 10.0053 21.1534 10.208C21.484 10.4 21.8627 10.496 22.2894 10.496ZM18.4654 15.2V4.32H20.2254V6.384L19.9214 8.256L20.2254 10.112V15.2H18.4654ZM28.0666 12V0.48H29.8266V12H28.0666ZM35.6254 12.16C34.8787 12.16 34.2014 11.984 33.5934 11.632C32.9854 11.2693 32.5 10.784 32.1374 10.176C31.7854 9.568 31.6094 8.89067 31.6094 8.144C31.6094 7.39733 31.7854 6.72533 32.1374 6.128C32.5 5.53067 32.9854 5.056 33.5934 4.704C34.2014 4.34133 34.8787 4.16 35.6254 4.16C36.3827 4.16 37.0654 4.336 37.6734 4.688C38.2814 5.04 38.7614 5.52 39.1134 6.128C39.476 6.72533 39.6574 7.39733 39.6574 8.144C39.6574 8.89067 39.476 9.568 39.1134 10.176C38.7614 10.784 38.2814 11.2693 37.6734 11.632C37.0654 11.984 36.3827 12.16 35.6254 12.16ZM35.6254 10.464C36.0627 10.464 36.4467 10.368 36.7774 10.176C37.1187 9.97333 37.38 9.696 37.5614 9.344C37.7534 8.992 37.8494 8.592 37.8494 8.144C37.8494 7.696 37.7534 7.30133 37.5614 6.96C37.3694 6.61867 37.108 6.352 36.7774 6.16C36.4467 5.95733 36.0627 5.856 35.6254 5.856C35.1987 5.856 34.8147 5.95733 34.4734 6.16C34.1427 6.352 33.8814 6.61867 33.6894 6.96C33.508 7.30133 33.4174 7.696 33.4174 8.144C33.4174 8.592 33.508 8.992 33.6894 9.344C33.8814 9.696 34.1427 9.97333 34.4734 10.176C34.8147 10.368 35.1987 10.464 35.6254 10.464ZM41.441 12V4.32H43.201V12H41.441ZM43.201 7.728L42.593 7.424C42.593 6.45333 42.8063 5.66933 43.233 5.072C43.6703 4.464 44.3263 4.16 45.201 4.16C45.585 4.16 45.9317 4.22933 46.241 4.368C46.5503 4.50667 46.8383 4.73067 47.105 5.04L45.953 6.224C45.8143 6.07467 45.6597 5.968 45.489 5.904C45.3183 5.84 45.121 5.808 44.897 5.808C44.4063 5.808 44.001 5.96267 43.681 6.272C43.361 6.58133 43.201 7.06667 43.201 7.728ZM51.6102 12.16C50.8423 12.16 50.1489 11.9893 49.5303 11.648C48.9222 11.296 48.4369 10.816 48.0742 10.208C47.7222 9.6 47.5462 8.91733 47.5462 8.16C47.5462 7.40267 47.7222 6.72533 48.0742 6.128C48.4262 5.52 48.9009 5.04 49.4983 4.688C50.1062 4.336 50.7783 4.16 51.5143 4.16C52.2289 4.16 52.8583 4.32533 53.4023 4.656C53.9569 4.98667 54.3889 5.44 54.6983 6.016C55.0183 6.592 55.1783 7.248 55.1783 7.984C55.1783 8.112 55.1676 8.24533 55.1462 8.384C55.1356 8.512 55.1143 8.656 55.0823 8.816H48.7782V7.376H54.1703L53.5143 7.952C53.4929 7.48267 53.4023 7.088 53.2422 6.768C53.0823 6.448 52.8529 6.20267 52.5543 6.032C52.2663 5.86133 51.9089 5.776 51.4823 5.776C51.0343 5.776 50.6449 5.872 50.3142 6.064C49.9836 6.256 49.7276 6.528 49.5462 6.88C49.3649 7.22133 49.2743 7.632 49.2743 8.112C49.2743 8.592 49.3702 9.01333 49.5622 9.376C49.7542 9.73867 50.0263 10.0213 50.3783 10.224C50.7303 10.416 51.1356 10.512 51.5943 10.512C51.9889 10.512 52.3516 10.4427 52.6823 10.304C53.0236 10.1653 53.3116 9.96267 53.5463 9.696L54.6663 10.832C54.2929 11.2693 53.8396 11.6 53.3063 11.824C52.7729 12.048 52.2076 12.16 51.6102 12.16ZM60.6723 12V0.799999H61.9523L66.6083 8.464H65.7763L70.4323 0.799999H71.7123V12H69.8723V4.032L70.2883 4.144L66.8323 9.824H65.5523L62.0963 4.144L62.5123 4.032V12H60.6723ZM77.741 12.16C76.9943 12.16 76.317 11.984 75.709 11.632C75.101 11.2693 74.6157 10.784 74.253 10.176C73.901 9.568 73.725 8.89067 73.725 8.144C73.725 7.39733 73.901 6.72533 74.253 6.128C74.6157 5.53067 75.101 5.056 75.709 4.704C76.317 4.34133 76.9943 4.16 77.741 4.16C78.4983 4.16 79.181 4.336 79.789 4.688C80.397 5.04 80.877 5.52 81.229 6.128C81.5917 6.72533 81.773 7.39733 81.773 8.144C81.773 8.89067 81.5917 9.568 81.229 10.176C80.877 10.784 80.397 11.2693 79.789 11.632C79.181 11.984 78.4983 12.16 77.741 12.16ZM77.741 10.464C78.1783 10.464 78.5623 10.368 78.893 10.176C79.2343 9.97333 79.4957 9.696 79.677 9.344C79.869 8.992 79.965 8.592 79.965 8.144C79.965 7.696 79.869 7.30133 79.677 6.96C79.485 6.61867 79.2237 6.352 78.893 6.16C78.5623 5.95733 78.1783 5.856 77.741 5.856C77.3143 5.856 76.9303 5.95733 76.589 6.16C76.2583 6.352 75.997 6.61867 75.805 6.96C75.6237 7.30133 75.533 7.696 75.533 8.144C75.533 8.592 75.6237 8.992 75.805 9.344C75.997 9.696 76.2583 9.97333 76.589 10.176C76.9303 10.368 77.3143 10.464 77.741 10.464ZM83.5566 12V4.32H85.3166V12H83.5566ZM85.3166 7.728L84.7086 7.424C84.7086 6.45333 84.922 5.66933 85.3486 5.072C85.786 4.464 86.442 4.16 87.3166 4.16C87.7006 4.16 88.0473 4.22933 88.3566 4.368C88.666 4.50667 88.954 4.73067 89.2206 5.04L88.0686 6.224C87.93 6.07467 87.7753 5.968 87.6046 5.904C87.434 5.84 87.2366 5.808 87.0126 5.808C86.522 5.808 86.1166 5.96267 85.7966 6.272C85.4766 6.58133 85.3166 7.06667 85.3166 7.728ZM93.7259 12.16C92.9579 12.16 92.2645 11.9893 91.6459 11.648C91.0379 11.296 90.5525 10.816 90.1899 10.208C89.8379 9.6 89.6619 8.91733 89.6619 8.16C89.6619 7.40267 89.8379 6.72533 90.1899 6.128C90.5419 5.52 91.0165 5.04 91.6139 4.688C92.2219 4.336 92.8939 4.16 93.6299 4.16C94.3445 4.16 94.9739 4.32533 95.5179 4.656C96.0725 4.98667 96.5045 5.44 96.8139 6.016C97.1339 6.592 97.2939 7.248 97.2939 7.984C97.2939 8.112 97.2832 8.24533 97.2619 8.384C97.2512 8.512 97.2299 8.656 97.1979 8.816H90.8939V7.376H96.2859L95.6299 7.952C95.6085 7.48267 95.5179 7.088 95.3579 6.768C95.1979 6.448 94.9685 6.20267 94.6699 6.032C94.3819 5.86133 94.0245 5.776 93.5979 5.776C93.1499 5.776 92.7605 5.872 92.4299 6.064C92.0992 6.256 91.8432 6.528 91.6619 6.88C91.4805 7.22133 91.3899 7.632 91.3899 8.112C91.3899 8.592 91.4859 9.01333 91.6779 9.376C91.8699 9.73867 92.1419 10.0213 92.4939 10.224C92.8459 10.416 93.2512 10.512 93.7099 10.512C94.1045 10.512 94.4672 10.4427 94.7979 10.304C95.1392 10.1653 95.4272 9.96267 95.6619 9.696L96.7819 10.832C96.4085 11.2693 95.9552 11.6 95.4219 11.824C94.8885 12.048 94.3232 12.16 93.7259 12.16Z"/></svg>