<svg xmlns="http://www.w3.org/2000/svg" width="30" height="30" fill="none" viewBox="0 0 30 30"><path fill="#FB5F68" d="M17.8948 14.843C21.987 14.843 25.3157 11.5137 25.3157 7.42148C25.3157 3.3293 21.987 0 17.8948 0C13.8026 0 10.4733 3.3293 10.4733 7.42148C10.4733 11.5137 13.8026 14.843 17.8948 14.843ZM17.0159 3.05918V2.85762C17.0159 2.37188 17.4091 1.97871 17.8948 1.97871C18.38 1.97871 18.7737 2.37188 18.7737 2.85762V3.06035C19.8196 3.28477 20.6065 4.21641 20.6065 5.32852C20.6065 5.81367 20.2128 6.20742 19.7276 6.20742C19.2419 6.20742 18.8487 5.81367 18.8487 5.32852C18.8487 5.01855 18.5962 4.76602 18.2862 4.76602H17.4981C17.1882 4.76602 16.9356 5.01855 16.9356 5.32852C16.9357 5.41638 16.9564 5.503 16.996 5.58144C17.0356 5.65988 17.0929 5.72798 17.1635 5.78027L17.8948 6.32168L19.6714 7.63652C20.255 8.06836 20.6065 8.75918 20.6112 9.48574V9.49395C20.6153 10.1139 20.378 10.6986 19.9421 11.1398C19.6186 11.4674 19.2143 11.6871 18.7737 11.7797V11.9854C18.7737 12.4711 18.38 12.8643 17.8948 12.8643C17.4091 12.8643 17.0159 12.4711 17.0159 11.9854V11.7826C16.587 11.6912 16.1926 11.4803 15.8739 11.165C15.4327 10.7297 15.1878 10.1484 15.1842 9.52851C15.1813 9.04336 15.5721 8.64727 16.0573 8.64434H16.0632C16.546 8.64434 16.9391 9.03457 16.9421 9.51797C16.9424 9.59183 16.9573 9.66491 16.9859 9.73301C17.0145 9.80111 17.0562 9.8629 17.1087 9.91483C17.1613 9.96676 17.2235 10.0078 17.292 10.0356C17.3604 10.0635 17.4336 10.0775 17.5075 10.077C17.9931 10.074 17.8122 10.0751 18.2944 10.0723C18.6064 10.0698 18.8558 9.81662 18.8534 9.50566V9.49746C18.8522 9.32168 18.7673 9.1541 18.6255 9.04922L17.8948 8.5084L16.1177 7.19355C15.5294 6.75762 15.1778 6.06035 15.1778 5.32852C15.1778 4.21406 15.9671 3.28184 17.0159 3.05918ZM5.87013 19.0659C5.64484 18.6754 5.14439 18.5395 4.7514 18.7662L0.617142 21.1527C0.225678 21.3793 0.0913807 21.88 0.317377 22.272L4.54281 29.5904C4.76898 29.9818 5.26937 30.1162 5.66154 29.8902L9.79579 27.5031C10.1878 27.277 10.3216 26.7763 10.0956 26.3844L5.87013 19.0659ZM29.559 17.6051C29.1611 17.0525 28.3912 16.9277 27.8393 17.3256C26.1647 18.532 22.949 20.8488 22.6936 21.0334C22.577 21.1328 22.4532 21.2235 22.3233 21.3047C21.8176 21.6229 21.2311 21.7928 20.6188 21.7928H16.4088C15.9236 21.7928 15.5299 21.3996 15.5299 20.9139C15.5299 20.4275 15.9242 20.035 16.4088 20.035H20.9111C21.5727 20.035 22.1024 19.4842 22.0748 18.8215C22.049 18.1928 21.5123 17.7053 20.883 17.7053H17.4559C17.2238 17.4598 16.9695 17.2348 16.6971 17.0338C15.7602 16.343 14.6024 15.9346 13.349 15.9346C11.1207 15.9346 8.90353 17.3385 7.98419 19.2123L11.5795 25.4391H18.3236C19.6479 25.4391 20.9522 25.1004 22.1 24.44C22.4979 24.2115 22.9238 23.9367 23.3856 23.6051C25.3203 22.2152 29.276 19.3277 29.2789 19.326C29.832 18.9287 29.9574 18.1576 29.559 17.6051Z"/></svg>