<svg xmlns="http://www.w3.org/2000/svg" width="24" height="23" fill="none" viewBox="0 0 24 23"><path fill="#FB5F66" d="M12.0341 6.94556C11.2114 6.94556 10.4071 7.18953 9.72305 7.64661C9.03898 8.10369 8.50582 8.75335 8.19098 9.51344C7.87614 10.2735 7.79376 11.1099 7.95426 11.9168C8.11477 12.7237 8.51095 13.4649 9.0927 14.0467C9.67445 14.6284 10.4156 15.0246 11.2226 15.1851C12.0295 15.3456 12.8659 15.2633 13.6259 14.9484C14.386 14.6336 15.0357 14.1004 15.4928 13.4163C15.9499 12.7323 16.1938 11.928 16.1938 11.1053C16.1927 10.0024 15.7541 8.94505 14.9742 8.16519C14.1943 7.38534 13.137 6.94671 12.0341 6.94556ZM12.0341 13.8785C11.4856 13.8785 10.9494 13.7158 10.4934 13.4111C10.0373 13.1064 9.68191 12.6733 9.47201 12.1666C9.26212 11.6598 9.2072 11.1022 9.3142 10.5643C9.42121 10.0264 9.68532 9.53222 10.0732 9.14439C10.461 8.75655 10.9551 8.49243 11.4931 8.38543C12.031 8.27843 12.5886 8.33335 13.0953 8.54324C13.6021 8.75313 14.0352 9.10858 14.3399 9.56462C14.6446 10.0207 14.8072 10.5568 14.8072 11.1053C14.8072 11.8408 14.5151 12.5462 13.995 13.0662C13.4749 13.5863 12.7696 13.8785 12.0341 13.8785ZM16.1938 2.09253H7.87434C6.58765 2.09391 5.35406 2.60565 4.44424 3.51547C3.53442 4.42529 3.02268 5.65888 3.0213 6.94556V15.2651C3.02268 16.5517 3.53442 17.7853 4.44424 18.6951C5.35406 19.605 6.58765 20.1167 7.87434 20.1181H16.1938C17.4805 20.1167 18.7141 19.605 19.6239 18.6951C20.5337 17.7853 21.0455 16.5517 21.0469 15.2651V6.94556C21.0455 5.65888 20.5337 4.42529 19.6239 3.51547C18.7141 2.60565 17.4805 2.09391 16.1938 2.09253ZM19.6603 15.2651C19.6603 16.1844 19.2951 17.0661 18.645 17.7162C17.9949 18.3663 17.1132 18.7315 16.1938 18.7315H7.87434C6.95498 18.7315 6.07327 18.3663 5.42318 17.7162C4.7731 17.0661 4.40788 16.1844 4.40788 15.2651V6.94556C4.40788 6.0262 4.7731 5.1445 5.42318 4.49441C6.07327 3.84433 6.95498 3.47911 7.87434 3.47911H16.1938C17.1132 3.47911 17.9949 3.84433 18.645 4.49441C19.2951 5.1445 19.6603 6.0262 19.6603 6.94556V15.2651ZM17.5804 6.59892C17.5804 6.8046 17.5194 7.00566 17.4051 7.17668C17.2909 7.34769 17.1285 7.48098 16.9384 7.55969C16.7484 7.6384 16.5393 7.659 16.3376 7.61887C16.1359 7.57875 15.9506 7.4797 15.8051 7.33426C15.6597 7.18883 15.5606 7.00353 15.5205 6.8018C15.4804 6.60007 15.501 6.39098 15.5797 6.20095C15.6584 6.01093 15.7917 5.84851 15.9627 5.73424C16.1337 5.61997 16.3348 5.55898 16.5405 5.55898C16.8163 5.55898 17.0808 5.66855 17.2758 5.86357C17.4708 6.0586 17.5804 6.32311 17.5804 6.59892Z"/></svg>