<svg xmlns="http://www.w3.org/2000/svg" width="35" height="35" fill="none" viewBox="0 0 35 35"><g clip-path="url(#clip0_0_638)"><path fill="#FB5F65" d="M32.9416 10.7264C32.9984 10.5533 33.0273 10.3723 33.0273 10.1901V1.7325C33.0273 0.777178 32.2472 0 31.2885 0H20.6623C19.7036 0 18.9235 0.777178 18.9235 1.7325V2.34104C16.6312 2.2951 14.2486 2.77081 12.1421 3.69462C10.2136 4.53633 8.48914 5.72701 7.01203 7.23324H5.19531C5.05934 7.23324 4.92893 7.28726 4.83278 7.38341C4.73663 7.47956 4.68262 7.60996 4.68262 7.74594C4.68262 7.88191 4.73663 8.01232 4.83278 8.10847C4.92893 8.20462 5.05934 8.25863 5.19531 8.25863H12.365C12.7583 8.25863 13.0784 8.57589 13.0784 8.96574V17.4232C13.0784 17.8132 12.7583 18.1304 12.365 18.1304H11.3841C10.6507 18.1304 10.054 18.7252 10.054 19.4563V20.6505L6.90573 18.3818C6.67905 18.2179 6.40627 18.1299 6.1265 18.1305H1.73879C1.34545 18.1305 1.02539 17.8132 1.02539 17.4233V8.96581C1.02539 8.57589 1.34545 8.2587 1.73879 8.2587H2.80273C2.93871 8.2587 3.06912 8.20469 3.16526 8.10854C3.26141 8.01239 3.31543 7.88198 3.31543 7.74601C3.31543 7.61003 3.26141 7.47962 3.16526 7.38348C3.06912 7.28733 2.93871 7.23331 2.80273 7.23331H1.73879C0.780049 7.23331 0 8.01049 0 8.96581V17.4233C0 18.3786 0.780049 19.1559 1.73879 19.1559H2.34589C2.46743 23.3356 4.15181 27.2474 7.12127 30.2168C10.2058 33.3013 14.3069 35 18.669 35C20.937 35 23.1324 34.5438 25.1945 33.644C27.186 32.775 28.9608 31.535 30.4695 29.9584C30.5635 29.8602 30.6146 29.7286 30.6116 29.5927C30.6087 29.4567 30.5518 29.3276 30.4536 29.2335C30.3553 29.1395 30.2238 29.0884 30.0878 29.0914C29.9519 29.0944 29.8227 29.1512 29.7287 29.2495C28.6022 30.4266 27.3241 31.3985 25.9373 32.1492C25.2857 31.282 24.3296 30.2386 23.6904 29.2385L23.8126 29.1504C23.8648 29.1126 23.9277 29.0923 23.9922 29.0925H28.3799C29.3387 29.0925 30.1187 28.3153 30.1187 27.36V18.9025C30.1187 18.788 30.1072 18.6763 30.0858 18.5679C30.967 17.5132 31.4497 16.1687 31.4497 14.7499C31.4436 13.7503 31.1614 12.7719 30.6344 11.9226H31.2884C31.6349 11.923 31.9736 11.8196 32.2607 11.6257C33.3836 13.7909 33.9746 16.2112 33.9746 18.669C33.9746 21.8338 33.0172 24.8708 31.2058 27.4516C31.1671 27.5067 31.1396 27.5688 31.125 27.6346C31.1103 27.7003 31.1088 27.7682 31.1204 27.8345C31.132 27.9009 31.1566 27.9642 31.1927 28.0211C31.2288 28.0779 31.2758 28.127 31.3309 28.1657C31.4839 28.2756 31.8128 28.3196 32.045 28.0406C33.9782 25.2864 35 22.0458 35 18.669C35 15.8842 34.2889 13.1437 32.9416 10.7264ZM12.365 7.23331H8.49502C9.69903 6.15768 11.0445 5.29272 12.489 4.65527L12.8317 5.05073C13.4071 5.8061 13.7663 6.89049 13.6485 7.79837C13.3304 7.45138 12.8728 7.23331 12.365 7.23331ZM24.3057 31.748C24.5509 32.0466 24.7866 32.3341 25.003 32.6147C23.0432 33.5059 20.8964 33.9746 18.669 33.9746C12.9323 33.9746 7.9236 30.8016 5.30318 26.119C6.02602 25.5228 6.95714 24.7983 7.70103 24.8845C8.00461 24.9198 8.2734 25.0972 8.52271 25.4271C9.14655 26.2518 10.1993 26.4125 10.9368 26.4616C12.0381 26.3936 13.0195 25.831 13.6322 24.924C13.6708 24.8685 13.6982 24.8059 13.7125 24.7398C13.7269 24.6737 13.7281 24.6054 13.7159 24.5389C13.7038 24.4723 13.6786 24.4088 13.6418 24.352C13.605 24.2953 13.5574 24.2463 13.5016 24.2081C13.4458 24.1698 13.383 24.143 13.3168 24.1291C13.2506 24.1152 13.1823 24.1145 13.1158 24.1272C13.0493 24.1398 12.986 24.1655 12.9295 24.2027C12.873 24.2399 12.8245 24.2879 12.7866 24.344C12.346 24.9863 11.7642 25.3338 10.9583 25.4352C10.1213 25.3738 9.62124 25.1797 9.34056 24.8086C8.9194 24.2514 8.40759 23.9343 7.81929 23.8659C6.7334 23.74 5.66542 24.503 4.82275 25.187C3.95295 23.3467 3.4395 21.3066 3.37189 19.1558H6.12644C6.19151 19.1558 6.25365 19.1758 6.30615 19.2136L9.61837 21.6006C9.77514 21.7141 9.96371 21.7753 10.1572 21.7754C10.3008 21.7754 10.445 21.7416 10.5785 21.6733C10.7295 21.5967 10.8562 21.4796 10.9446 21.3352C11.033 21.1908 11.0796 21.0247 11.0793 20.8554V19.4563C11.0793 19.2906 11.216 19.1558 11.384 19.1558H12.3649C13.3237 19.1558 14.1037 18.3786 14.1037 17.4232V15.2353C14.7139 15.6116 15.6805 15.9456 16.4673 15.9242C17.3338 15.9241 18.1798 15.6611 18.8936 15.17C19.8448 14.5167 20.4997 13.4971 20.6905 12.3725C20.7152 12.2265 20.7369 12.0761 20.7555 11.9225H21.6431C21.8112 11.9225 21.9478 12.0573 21.9478 12.223V13.6221C21.9478 13.9685 22.1397 14.2819 22.4485 14.44C22.7091 14.562 23.0266 14.6033 23.4086 14.3674L25.5192 12.8464C25.4376 13.6404 25.2241 14.4758 24.2516 15.4463C23.7949 15.9113 23.5327 16.5323 23.5188 17.1699H17.7537C16.7949 17.1699 16.0149 17.9471 16.0149 18.9025V19.1241C15.0631 19.4869 14.301 20.2878 13.9595 21.2967C13.885 21.5167 13.7685 21.8913 13.6602 22.2492C13.6204 22.3792 13.634 22.5197 13.6978 22.6398C13.7616 22.7598 13.8705 22.8496 14.0005 22.8894C14.207 22.9474 14.4993 22.8758 14.6407 22.549C14.7134 22.3113 14.8131 21.9797 14.9308 21.6254C15.1282 21.0422 15.5187 20.5583 16.015 20.2599V27.3599C16.015 28.3152 16.795 29.0924 17.7537 29.0924H18.7346C18.9027 29.0924 19.0393 29.2272 19.0393 29.3929V30.7919C19.0393 31.1383 19.2312 31.4517 19.54 31.6099C19.6736 31.6782 19.8178 31.7119 19.9614 31.7119C20.1511 31.7119 20.3396 31.653 20.5003 31.5372L22.8579 29.8383C23.2902 30.5094 23.8046 31.1378 24.3057 31.748ZM29.0935 27.36C29.0935 27.7499 28.7734 28.0671 28.3801 28.0671H23.9924C23.7107 28.0671 23.4413 28.154 23.2131 28.3185L20.0648 30.5873V29.393C20.0648 28.6619 19.4681 28.0671 18.7348 28.0671H17.7539C17.3605 28.0671 17.0405 27.7498 17.0405 27.36V18.9025C17.0405 18.5126 17.3605 18.1954 17.7539 18.1954H24.0864L24.0879 18.1955L24.0902 18.1954H28.3801C28.7735 18.1954 29.0935 18.5126 29.0935 18.9025L29.0935 27.36ZM30.4244 14.7534C30.4244 15.7949 30.1102 16.7876 29.5319 17.6062C29.2143 17.3248 28.8045 17.1696 28.3801 17.17H24.5447C24.5584 16.7997 24.7142 16.4387 24.9796 16.1686C26.4236 14.7277 26.5113 13.4507 26.5818 12.4247C26.5904 12.2987 26.5991 12.1776 26.6098 12.0606L26.7209 11.9805C26.7732 11.9427 26.8362 11.9224 26.9007 11.9226H29.3679C30.0432 12.7131 30.4173 13.7123 30.4244 14.7534ZM31.2885 10.8972H26.9008C26.621 10.8966 26.3482 10.9846 26.1216 11.1485L25.8152 11.3693L25.8117 11.3717L22.9733 13.4173V12.223C22.9733 11.4919 22.3766 10.8971 21.6432 10.8971H20.6623C20.269 10.8971 19.9489 10.5798 19.9489 10.19V8.27148C19.9489 8.13551 19.8949 8.0051 19.7987 7.90895C19.7026 7.81281 19.5722 7.75879 19.4362 7.75879C19.3002 7.75879 19.1698 7.81281 19.0737 7.90895C18.9775 8.0051 18.9235 8.13551 18.9235 8.27148V10.19C18.9235 10.8131 19.2555 11.3602 19.7522 11.6655C19.7336 11.8447 19.7093 12.0234 19.6796 12.2011C19.535 13.0537 19.0369 13.8277 18.3132 14.3248C17.0365 15.2234 15.3162 14.9965 14.1038 13.9931V9.3573C15.2038 7.90651 14.6534 5.59884 13.4973 4.25291C15.1478 3.66092 17.065 3.32726 18.9234 3.36636V5.87891C18.9234 6.01488 18.9775 6.14529 19.0736 6.24144C19.1698 6.33759 19.3002 6.3916 19.4361 6.3916C19.5721 6.3916 19.7025 6.33759 19.7987 6.24144C19.8948 6.14529 19.9488 6.01488 19.9488 5.87891V1.7325C19.9488 1.34258 20.2689 1.02539 20.6622 1.02539H31.2884C31.6818 1.02539 32.0018 1.34265 32.0018 1.7325V10.19C32.0019 10.5799 31.6818 10.8972 31.2885 10.8972Z"/><path fill="#FB5F65" d="M29.143 3.40108H26.4889V2.5293C26.4889 2.39332 26.4349 2.26292 26.3387 2.16677C26.2426 2.07062 26.1122 2.0166 25.9762 2.0166C25.8402 2.0166 25.7098 2.07062 25.6137 2.16677C25.5175 2.26292 25.4635 2.39332 25.4635 2.5293V3.40108H22.8095C22.6735 3.40108 22.5431 3.4551 22.4469 3.55125C22.3508 3.6474 22.2968 3.7778 22.2968 3.91378C22.2968 4.04975 22.3508 4.18016 22.4469 4.27631C22.5431 4.37246 22.6735 4.42647 22.8095 4.42647H23.8725C24.1149 5.50284 24.5973 6.51054 25.2837 7.37434C24.7564 7.87735 24.1465 8.28592 23.4807 8.58218L22.7744 8.89697C22.667 8.94475 22.5793 9.02797 22.526 9.13268C22.4727 9.23739 22.4569 9.35725 22.4814 9.47218C22.5059 9.58711 22.5691 9.69015 22.6605 9.76404C22.7519 9.83793 22.8659 9.87818 22.9834 9.87807C23.0531 9.87807 23.124 9.86378 23.1917 9.83356L23.8981 9.51877C24.6646 9.17782 25.3674 8.70869 25.9762 8.13155C26.585 8.70869 27.2878 9.17782 28.0543 9.51877L28.7607 9.83356C28.9409 9.90821 29.2788 9.88729 29.4376 9.57394C29.493 9.44973 29.4967 9.30864 29.448 9.18169C29.3993 9.05473 29.3022 8.95232 29.178 8.89697L28.4717 8.58218C27.8058 8.28597 27.1959 7.87739 26.6687 7.37434C27.3551 6.51053 27.8375 5.50283 28.0798 4.42647H29.1429C29.2789 4.42648 29.4093 4.37248 29.5054 4.27633C29.6016 4.18019 29.6556 4.04979 29.6556 3.91381C29.6556 3.77784 29.6016 3.64743 29.5055 3.55127C29.4093 3.45512 29.2789 3.40109 29.143 3.40108ZM25.9762 6.59299C25.4908 5.94488 25.1349 5.20929 24.9279 4.42647H27.0244C26.8175 5.20929 26.4616 5.94488 25.9762 6.59299ZM4.443 16.7492C4.506 16.773 4.57305 16.7841 4.64035 16.782C4.70764 16.7798 4.77385 16.7644 4.83521 16.7367C4.89656 16.709 4.95184 16.6694 4.99791 16.6203C5.04398 16.5712 5.07993 16.5135 5.1037 16.4505L5.54865 15.2716H8.5527L9.0023 16.4521C9.03929 16.5492 9.10492 16.6328 9.1905 16.6918C9.27607 16.7508 9.37755 16.7824 9.4815 16.7824C9.56457 16.7824 9.64639 16.7622 9.71992 16.7236C9.79345 16.6849 9.85649 16.629 9.90361 16.5606C9.95074 16.4922 9.98054 16.4134 9.99045 16.3309C10.0004 16.2484 9.99008 16.1648 9.96049 16.0871L7.65036 10.0215L7.64578 10.0098C7.59704 9.8899 7.51362 9.78729 7.40621 9.71511C7.29879 9.64292 7.17226 9.60445 7.04285 9.60463H7.04216C6.91027 9.60435 6.78142 9.64419 6.6727 9.71886C6.56399 9.79354 6.48056 9.89951 6.43349 10.0227L4.14434 16.0887C4.12057 16.1516 4.10944 16.2187 4.11159 16.286C4.11373 16.3533 4.12911 16.4195 4.15685 16.4808C4.18458 16.5421 4.22413 16.5974 4.27323 16.6435C4.32233 16.6895 4.38002 16.7255 4.443 16.7492ZM7.04374 11.3096L8.16216 14.2462H5.93556L7.04374 11.3096ZM26.995 20.0293H24.6098C24.4739 20.0293 24.3435 20.0833 24.2473 20.1795C24.1512 20.2756 24.0971 20.406 24.0971 20.542C24.0971 20.678 24.1512 20.8084 24.2473 20.9045C24.3435 21.0007 24.4739 21.0547 24.6098 21.0547H25.2897V22.6611H23.2503C23.3731 22.4112 23.4368 22.1364 23.4365 21.8579C23.4365 20.8496 22.6162 20.0293 21.6079 20.0293H20.1275C19.9915 20.0293 19.8611 20.0833 19.765 20.1795C19.6688 20.2756 19.6148 20.406 19.6148 20.542C19.6148 20.678 19.6688 20.8084 19.765 20.9045C19.8611 21.0007 19.9915 21.0547 20.1275 21.0547H21.6079C22.0508 21.0547 22.4111 21.415 22.4111 21.8579C22.4111 22.3008 22.0508 22.6611 21.6079 22.6611H19.963C19.827 22.6611 19.6966 22.7151 19.6004 22.8113C19.5043 22.9074 19.4503 23.0379 19.4503 23.1738C19.4503 23.3098 19.5043 23.4402 19.6004 23.5364C19.6966 23.6325 19.827 23.6865 19.963 23.6865H21.6079C22.0508 23.6865 22.4111 24.0468 22.4111 24.4897C22.4111 24.9402 22.0583 25.293 21.6079 25.293C20.8996 25.293 20.0955 25.2131 19.5031 24.6207C19.4069 24.5246 19.2765 24.4706 19.1405 24.4706C19.0046 24.4706 18.8742 24.5246 18.778 24.6207C18.6819 24.7169 18.6279 24.8473 18.6279 24.9832C18.6279 25.1192 18.6819 25.2496 18.778 25.3457C19.6401 26.2078 20.7432 26.3184 21.6079 26.3184C22.6162 26.3184 23.4365 25.498 23.4365 24.4897C23.4365 24.2017 23.3695 23.9291 23.2503 23.6865H25.2897V25.8057C25.2897 25.9416 25.3437 26.072 25.4398 26.1682C25.536 26.2643 25.6664 26.3184 25.8024 26.3184C25.9383 26.3184 26.0687 26.2643 26.1649 26.1682C26.261 26.072 26.3151 25.9416 26.3151 25.8057V21.0547H26.9949C27.1309 21.0547 27.2613 21.0007 27.3574 20.9045C27.4536 20.8084 27.5076 20.678 27.5076 20.542C27.5076 20.406 27.4536 20.2756 27.3575 20.1795C27.2613 20.0833 27.1309 20.0293 26.995 20.0293Z"/></g><defs><clipPath id="clip0_0_638"><rect width="35" height="35" fill="#fff"/></clipPath></defs></svg>