<svg width="30" height="30" viewBox="0 0 30 30" fill="none" xmlns="http://www.w3.org/2000/svg">
<g clip-path="url(#clip0_0_984)">
<path d="M0.878906 30H16.8164C17.3019 30 17.6953 29.6066 17.6953 29.1211V28.1836C17.6953 27.2127 16.9084 26.4258 15.9375 26.4258V25.375C15.9375 23.9836 14.8055 22.8516 13.4141 22.8516H4.28121C2.88984 22.8516 1.75781 23.9836 1.75781 25.375V26.4258C0.786914 26.4258 0 27.2127 0 28.1836V29.1211C0 29.6063 0.393691 30 0.878906 30ZM11 19.3561C11.5842 20.1313 12.6865 20.2863 13.4617 19.7019C14.2371 19.1178 14.3919 18.0156 13.8077 17.2401L8.51836 10.2209C7.934 9.44552 6.83197 9.29077 6.05672 9.87489C5.28129 10.4592 5.12631 11.5613 5.71066 12.3368L11 19.3561ZM23.6346 9.83511C24.2189 10.6103 25.321 10.7653 26.0964 10.1809C26.8716 9.59681 27.0266 8.49477 26.4422 7.71929L21.1528 0.700224C20.5687 -0.0752061 19.4664 -0.230187 18.6912 0.354169C17.916 0.938524 17.761 2.04056 18.3454 2.81604L23.6346 9.83511ZM19.7791 14.9414C21.0782 13.9625 22.0535 12.7469 22.6634 11.467L16.5088 3.29962C15.1103 3.53329 13.6731 4.13546 12.3738 5.11462C11.0747 6.09354 10.0994 7.30913 9.48943 8.58882L15.6441 16.7567C17.0425 16.523 18.4797 15.9205 19.7791 14.9414ZM22.1523 15.1703C21.7431 15.5873 21.3121 15.9872 20.8369 16.3454C20.3616 16.7034 19.8582 17.0075 19.3448 17.2861L20.4909 18.807L23.2986 16.6915L22.1523 15.1703ZM24.3565 18.0952L21.5488 20.2108L26.8382 27.2301C27.4226 28.0056 28.5246 28.1603 29.2999 27.5762C30.0753 26.9918 30.23 25.8898 29.6459 25.1143L24.3565 18.0952Z" fill="#FB5F68"/>
</g>
<defs>
<clipPath id="clip0_0_984">
<rect width="30" height="30" fill="white"/>
</clipPath>
</defs>
</svg>
