<svg xmlns="http://www.w3.org/2000/svg" width="82" height="13" fill="none" viewBox="0 0 82 13"><path fill="#FB5F66" d="M0.614438 12V0.799999H2.45444V12H0.614438ZM1.87844 12V10.32H7.73444V12H1.87844ZM12.4737 12.16C11.7057 12.16 11.0124 11.9893 10.3937 11.648C9.78569 11.296 9.30035 10.816 8.93769 10.208C8.58569 9.6 8.40969 8.91733 8.40969 8.16C8.40969 7.40267 8.58569 6.72533 8.93769 6.128C9.28969 5.52 9.76435 5.04 10.3617 4.688C10.9697 4.336 11.6417 4.16 12.3777 4.16C13.0924 4.16 13.7217 4.32533 14.2657 4.656C14.8204 4.98667 15.2524 5.44 15.5617 6.016C15.8817 6.592 16.0417 7.248 16.0417 7.984C16.0417 8.112 16.031 8.24533 16.0097 8.384C15.999 8.512 15.9777 8.656 15.9457 8.816H9.64169V7.376H15.0337L14.3777 7.952C14.3564 7.48267 14.2657 7.088 14.1057 6.768C13.9457 6.448 13.7164 6.20267 13.4177 6.032C13.1297 5.86133 12.7724 5.776 12.3457 5.776C11.8977 5.776 11.5084 5.872 11.1777 6.064C10.847 6.256 10.591 6.528 10.4097 6.88C10.2284 7.22133 10.1377 7.632 10.1377 8.112C10.1377 8.592 10.2337 9.01333 10.4257 9.376C10.6177 9.73867 10.8897 10.0213 11.2417 10.224C11.5937 10.416 11.999 10.512 12.4577 10.512C12.8524 10.512 13.215 10.4427 13.5457 10.304C13.887 10.1653 14.175 9.96267 14.4097 9.696L15.5297 10.832C15.1564 11.2693 14.703 11.6 14.1697 11.824C13.6364 12.048 13.071 12.16 12.4737 12.16ZM20.6686 12.16C19.9752 12.16 19.3459 11.984 18.7806 11.632C18.2259 11.28 17.7832 10.8053 17.4526 10.208C17.1326 9.6 16.9726 8.92267 16.9726 8.176C16.9726 7.41867 17.1326 6.74133 17.4526 6.144C17.7832 5.536 18.2259 5.056 18.7806 4.704C19.3459 4.34133 19.9752 4.16 20.6686 4.16C21.2552 4.16 21.7726 4.288 22.2206 4.544C22.6792 4.78933 23.0419 5.13067 23.3086 5.568C23.5752 6.00533 23.7086 6.50133 23.7086 7.056V9.264C23.7086 9.81867 23.5752 10.3147 23.3086 10.752C23.0526 11.1893 22.6952 11.536 22.2366 11.792C21.7779 12.0373 21.2552 12.16 20.6686 12.16ZM20.9566 10.496C21.6072 10.496 22.1299 10.2773 22.5246 9.84C22.9299 9.40267 23.1326 8.84267 23.1326 8.16C23.1326 7.70133 23.0419 7.296 22.8606 6.944C22.6792 6.592 22.4232 6.32 22.0926 6.128C21.7726 5.92533 21.3939 5.824 20.9566 5.824C20.5299 5.824 20.1512 5.92533 19.8206 6.128C19.5006 6.32 19.2446 6.592 19.0526 6.944C18.8712 7.296 18.7806 7.70133 18.7806 8.16C18.7806 8.61867 18.8712 9.024 19.0526 9.376C19.2446 9.728 19.5006 10.0053 19.8206 10.208C20.1512 10.4 20.5299 10.496 20.9566 10.496ZM23.0206 12V9.936L23.3246 8.064L23.0206 6.208V4.32H24.7806V12H23.0206ZM26.7338 12V4.32H28.4938V12H26.7338ZM28.4938 7.728L27.8858 7.424C27.8858 6.45333 28.0991 5.66933 28.5258 5.072C28.9631 4.464 29.6191 4.16 30.4938 4.16C30.8778 4.16 31.2245 4.22933 31.5338 4.368C31.8431 4.50667 32.1311 4.73067 32.3978 5.04L31.2458 6.224C31.1071 6.07467 30.9525 5.968 30.7818 5.904C30.6111 5.84 30.4138 5.808 30.1898 5.808C29.6991 5.808 29.2938 5.96267 28.9738 6.272C28.6538 6.58133 28.4938 7.06667 28.4938 7.728ZM38.5134 12V7.568C38.5134 7.056 38.3481 6.63467 38.0174 6.304C37.6974 5.97333 37.2814 5.808 36.7694 5.808C36.4281 5.808 36.1241 5.88267 35.8574 6.032C35.5908 6.18133 35.3828 6.38933 35.2334 6.656C35.0841 6.92267 35.0094 7.22667 35.0094 7.568L34.3214 7.184C34.3214 6.59733 34.4494 6.08 34.7054 5.632C34.9614 5.17333 35.3134 4.816 35.7614 4.56C36.2201 4.29333 36.7321 4.16 37.2974 4.16C37.8734 4.16 38.3854 4.30933 38.8334 4.608C39.2814 4.896 39.6334 5.27467 39.8894 5.744C40.1454 6.20267 40.2734 6.68267 40.2734 7.184V12H38.5134ZM33.2494 12V4.32H35.0094V12H33.2494ZM45.5051 12V0.799999H46.7851L51.4411 8.464H50.6091L55.2651 0.799999H56.5451V12H54.7051V4.032L55.1211 4.144L51.6651 9.824H50.3851L46.9291 4.144L47.3451 4.032V12H45.5051ZM62.2538 12.16C61.5071 12.16 60.8298 11.984 60.2218 11.632C59.6138 11.2693 59.1285 10.784 58.7658 10.176C58.4138 9.568 58.2378 8.89067 58.2378 8.144C58.2378 7.39733 58.4138 6.72533 58.7658 6.128C59.1285 5.53067 59.6138 5.056 60.2218 4.704C60.8298 4.34133 61.5071 4.16 62.2538 4.16C63.0111 4.16 63.6938 4.336 64.3018 4.688C64.9098 5.04 65.3898 5.52 65.7418 6.128C66.1045 6.72533 66.2858 7.39733 66.2858 8.144C66.2858 8.89067 66.1045 9.568 65.7418 10.176C65.3898 10.784 64.9098 11.2693 64.3018 11.632C63.6938 11.984 63.0111 12.16 62.2538 12.16ZM62.2538 10.464C62.6911 10.464 63.0751 10.368 63.4058 10.176C63.7471 9.97333 64.0085 9.696 64.1898 9.344C64.3818 8.992 64.4778 8.592 64.4778 8.144C64.4778 7.696 64.3818 7.30133 64.1898 6.96C63.9978 6.61867 63.7365 6.352 63.4058 6.16C63.0751 5.95733 62.6911 5.856 62.2538 5.856C61.8271 5.856 61.4431 5.95733 61.1018 6.16C60.7711 6.352 60.5098 6.61867 60.3178 6.96C60.1365 7.30133 60.0458 7.696 60.0458 8.144C60.0458 8.592 60.1365 8.992 60.3178 9.344C60.5098 9.696 60.7711 9.97333 61.1018 10.176C61.4431 10.368 61.8271 10.464 62.2538 10.464ZM67.7494 12V4.32H69.5094V12H67.7494ZM69.5094 7.728L68.9014 7.424C68.9014 6.45333 69.1148 5.66933 69.5414 5.072C69.9788 4.464 70.6348 4.16 71.5094 4.16C71.8934 4.16 72.2401 4.22933 72.5494 4.368C72.8588 4.50667 73.1468 4.73067 73.4134 5.04L72.2614 6.224C72.1228 6.07467 71.9681 5.968 71.7974 5.904C71.6268 5.84 71.4294 5.808 71.2054 5.808C70.7148 5.808 70.3094 5.96267 69.9894 6.272C69.6694 6.58133 69.5094 7.06667 69.5094 7.728ZM77.5987 12.16C76.8307 12.16 76.1374 11.9893 75.5187 11.648C74.9107 11.296 74.4254 10.816 74.0627 10.208C73.7107 9.6 73.5347 8.91733 73.5347 8.16C73.5347 7.40267 73.7107 6.72533 74.0627 6.128C74.4147 5.52 74.8894 5.04 75.4867 4.688C76.0947 4.336 76.7667 4.16 77.5027 4.16C78.2174 4.16 78.8467 4.32533 79.3907 4.656C79.9454 4.98667 80.3774 5.44 80.6867 6.016C81.0067 6.592 81.1667 7.248 81.1667 7.984C81.1667 8.112 81.156 8.24533 81.1347 8.384C81.124 8.512 81.1027 8.656 81.0707 8.816H74.7667V7.376H80.1587L79.5027 7.952C79.4814 7.48267 79.3907 7.088 79.2307 6.768C79.0707 6.448 78.8414 6.20267 78.5427 6.032C78.2547 5.86133 77.8974 5.776 77.4707 5.776C77.0227 5.776 76.6334 5.872 76.3027 6.064C75.972 6.256 75.716 6.528 75.5347 6.88C75.3534 7.22133 75.2627 7.632 75.2627 8.112C75.2627 8.592 75.3587 9.01333 75.5507 9.376C75.7427 9.73867 76.0147 10.0213 76.3667 10.224C76.7187 10.416 77.124 10.512 77.5827 10.512C77.9774 10.512 78.34 10.4427 78.6707 10.304C79.012 10.1653 79.3 9.96267 79.5347 9.696L80.6547 10.832C80.2814 11.2693 79.828 11.6 79.2947 11.824C78.7614 12.048 78.196 12.16 77.5987 12.16Z"/></svg>