<svg xmlns="http://www.w3.org/2000/svg" width="231" height="423" fill="none" viewBox="0 0 231 423"><g opacity=".08"><g filter="url(#filter0_b_0_1050)"><path stroke="#FB5F66" stroke-opacity=".5" stroke-width="2" d="M139.185 421.924C137.557 421.937 136.391 421.945 135.474 421.884C134.567 421.823 133.985 421.697 133.512 421.482C132.368 420.964 131.45 420.053 130.923 418.914C130.705 418.443 130.575 417.861 130.507 416.955C130.438 416.038 130.437 414.872 130.437 413.244L130.437 175.696C130.437 174.068 130.438 172.902 130.507 171.985C130.575 171.078 130.705 170.494 130.923 170.019C131.45 168.872 132.368 167.947 133.512 167.41C133.985 167.189 134.567 167.054 135.474 166.979C136.391 166.903 137.557 166.893 139.185 166.881L467.384 164.332C469.011 164.319 470.177 164.311 471.094 164.372C472.001 164.433 472.584 164.559 473.056 164.773C474.2 165.292 475.118 166.203 475.645 167.342C475.863 167.813 475.994 168.395 476.062 169.301C476.13 170.218 476.131 171.383 476.131 173.011L476.131 410.56C476.131 412.188 476.13 413.353 476.062 414.271C475.994 415.178 475.863 415.762 475.645 416.236C475.118 417.384 474.2 418.309 473.056 418.845C472.584 419.067 472.001 419.202 471.094 419.277C470.177 419.353 469.011 419.363 467.384 419.375L139.185 421.924Z"/></g><g filter="url(#filter1_b_0_1050)"><path stroke="#FB5F66" stroke-opacity=".5" stroke-width="2" d="M98.4933 360.354C96.8654 360.367 95.6996 360.375 94.7826 360.314C93.8758 360.253 93.2932 360.127 92.8204 359.912C91.6768 359.394 90.7589 358.483 90.2317 357.344C90.0137 356.873 89.8833 356.291 89.8153 355.385C89.7465 354.468 89.7459 353.302 89.7459 351.674L89.7459 114.126C89.7459 112.498 89.7466 111.332 89.8153 110.415C89.8833 109.508 90.0137 108.924 90.2317 108.449C90.7589 107.302 91.6769 106.377 92.8204 105.84C93.2933 105.619 93.8759 105.484 94.7826 105.409C95.6996 105.333 96.8654 105.323 98.4934 105.311L426.692 102.762C428.32 102.749 429.486 102.741 430.403 102.802C431.31 102.863 431.892 102.989 432.365 103.203C433.509 103.722 434.426 104.633 434.954 105.772C435.172 106.243 435.302 106.825 435.37 107.731C435.439 108.648 435.439 109.814 435.439 111.441L435.439 348.99C435.439 350.618 435.439 351.784 435.37 352.701C435.302 353.608 435.172 354.192 434.954 354.667C434.426 355.814 433.509 356.739 432.365 357.275C431.892 357.497 431.309 357.632 430.403 357.707C429.486 357.783 428.32 357.793 426.692 357.805L98.4933 360.354Z"/></g><g filter="url(#filter2_b_0_1050)"><path stroke="#FB5F66" stroke-opacity=".5" stroke-width="2" d="M58.1544 298.749C56.5264 298.761 55.3606 298.77 54.4436 298.708C53.5369 298.647 52.9543 298.521 52.4814 298.307C51.3378 297.789 50.4199 296.878 49.8927 295.738C49.6747 295.267 49.5443 294.686 49.4763 293.779C49.4075 292.863 49.4069 291.697 49.4069 290.069L49.4069 52.5208C49.4069 50.8928 49.4076 49.727 49.4763 48.8094C49.5443 47.9021 49.6747 47.3185 49.8927 46.8439C50.4199 45.6962 51.3379 44.7711 52.4815 44.235C52.9543 44.0134 53.5369 43.8784 54.4436 43.8034C55.3606 43.7275 56.5265 43.7178 58.1544 43.7052L386.353 41.1562C387.981 41.1436 389.147 41.1352 390.064 41.1968C390.971 41.2578 391.553 41.3837 392.026 41.598C393.17 42.1163 394.087 43.0272 394.615 44.1667C394.833 44.6379 394.963 45.2195 395.031 46.1257C395.1 47.0422 395.1 48.2081 395.1 49.836L395.1 287.384C395.1 289.012 395.1 290.178 395.031 291.096C394.963 292.003 394.833 292.587 394.615 293.061C394.087 294.209 393.17 295.134 392.026 295.67C391.553 295.892 390.97 296.027 390.064 296.102C389.147 296.177 387.981 296.187 386.353 296.2L58.1544 298.749Z"/></g><g filter="url(#filter3_b_0_1050)"><path stroke="#FB5F66" stroke-opacity=".5" stroke-width="2" d="M9.74735 258.668C8.11941 258.681 6.95357 258.689 6.03657 258.627C5.12985 258.567 4.54725 258.441 4.07441 258.226C2.93083 257.708 2.01288 256.797 1.48568 255.658C1.2677 255.186 1.13727 254.605 1.06929 253.699C1.00053 252.782 0.999879 251.616 0.999879 249.988L0.999906 12.4401C0.999906 10.8121 1.00056 9.64627 1.06931 8.72871C1.1373 7.82143 1.26773 7.23779 1.48571 6.76324C2.01291 5.61553 2.93086 4.69043 4.07444 4.15433C4.54727 3.93267 5.12987 3.79771 6.0366 3.72269C6.9536 3.6468 8.11944 3.63711 9.74737 3.62446L337.946 1.07555C339.574 1.06291 340.74 1.05449 341.657 1.11614C342.564 1.17708 343.146 1.30299 343.619 1.5173C344.763 2.03564 345.68 2.9465 346.208 4.086C346.426 4.55716 346.556 5.13878 346.624 6.045C346.693 6.96149 346.693 8.12737 346.693 9.75534L346.693 247.303C346.693 248.931 346.693 250.097 346.624 251.015C346.556 251.922 346.426 252.506 346.208 252.98C345.68 254.128 344.763 255.053 343.619 255.589C343.146 255.811 342.563 255.946 341.657 256.021C340.74 256.097 339.574 256.107 337.946 256.119L9.74735 258.668Z"/></g></g><defs><filter id="filter0_b_0_1050" width="386.227" height="298.144" x="110.171" y="144.056" color-interpolation-filters="sRGB" filterUnits="userSpaceOnUse"><feFlood flood-opacity="0" result="BackgroundImageFix"/><feGaussianBlur in="BackgroundImageFix" stdDeviation="9.633"/><feComposite in2="SourceAlpha" operator="in" result="effect1_backgroundBlur_0_1050"/><feBlend in="SourceGraphic" in2="effect1_backgroundBlur_0_1050" mode="normal" result="shape"/></filter><filter id="filter1_b_0_1050" width="386.227" height="298.144" x="69.479" y="82.486" color-interpolation-filters="sRGB" filterUnits="userSpaceOnUse"><feFlood flood-opacity="0" result="BackgroundImageFix"/><feGaussianBlur in="BackgroundImageFix" stdDeviation="9.633"/><feComposite in2="SourceAlpha" operator="in" result="effect1_backgroundBlur_0_1050"/><feBlend in="SourceGraphic" in2="effect1_backgroundBlur_0_1050" mode="normal" result="shape"/></filter><filter id="filter2_b_0_1050" width="386.227" height="298.144" x="29.14" y="20.881" color-interpolation-filters="sRGB" filterUnits="userSpaceOnUse"><feFlood flood-opacity="0" result="BackgroundImageFix"/><feGaussianBlur in="BackgroundImageFix" stdDeviation="9.633"/><feComposite in2="SourceAlpha" operator="in" result="effect1_backgroundBlur_0_1050"/><feBlend in="SourceGraphic" in2="effect1_backgroundBlur_0_1050" mode="normal" result="shape"/></filter><filter id="filter3_b_0_1050" width="386.227" height="298.144" x="-19.267" y="-19.2" color-interpolation-filters="sRGB" filterUnits="userSpaceOnUse"><feFlood flood-opacity="0" result="BackgroundImageFix"/><feGaussianBlur in="BackgroundImageFix" stdDeviation="9.633"/><feComposite in2="SourceAlpha" operator="in" result="effect1_backgroundBlur_0_1050"/><feBlend in="SourceGraphic" in2="effect1_backgroundBlur_0_1050" mode="normal" result="shape"/></filter></defs></svg>