<svg width="220" height="423" viewBox="0 0 220 423" fill="none" xmlns="http://www.w3.org/2000/svg">
<g opacity="0.08">
<g filter="url(#filter0_b_0_1055)">
<path d="M-118.815 421.924C-120.443 421.937 -121.609 421.945 -122.526 421.884C-123.433 421.823 -124.015 421.697 -124.488 421.482C-125.632 420.964 -126.55 420.053 -127.077 418.914C-127.295 418.443 -127.425 417.861 -127.493 416.955C-127.562 416.038 -127.563 414.872 -127.563 413.244L-127.563 175.696C-127.563 174.068 -127.562 172.902 -127.493 171.985C-127.425 171.078 -127.295 170.494 -127.077 170.019C-126.55 168.872 -125.632 167.947 -124.488 167.41C-124.015 167.189 -123.433 167.054 -122.526 166.979C-121.609 166.903 -120.443 166.893 -118.815 166.881L209.384 164.332C211.011 164.319 212.177 164.311 213.094 164.372C214.001 164.433 214.584 164.559 215.056 164.773C216.2 165.292 217.118 166.203 217.645 167.342C217.863 167.813 217.994 168.395 218.062 169.301C218.13 170.218 218.131 171.383 218.131 173.011L218.131 410.56C218.131 412.188 218.13 413.353 218.062 414.271C217.994 415.178 217.863 415.762 217.645 416.236C217.118 417.384 216.2 418.309 215.056 418.845C214.584 419.067 214.001 419.202 213.094 419.277C212.177 419.353 211.011 419.363 209.384 419.375L-118.815 421.924Z" stroke="#FB5F66" stroke-opacity="0.5" stroke-width="2"/>
</g>
<g filter="url(#filter1_b_0_1055)">
<path d="M-159.507 360.354C-161.135 360.367 -162.3 360.375 -163.217 360.314C-164.124 360.253 -164.707 360.127 -165.18 359.912C-166.323 359.394 -167.241 358.483 -167.768 357.344C-167.986 356.873 -168.117 356.291 -168.185 355.385C-168.253 354.468 -168.254 353.302 -168.254 351.674L-168.254 114.126C-168.254 112.498 -168.253 111.332 -168.185 110.415C-168.117 109.508 -167.986 108.924 -167.768 108.449C-167.241 107.302 -166.323 106.377 -165.18 105.84C-164.707 105.619 -164.124 105.484 -163.217 105.409C-162.3 105.333 -161.135 105.323 -159.507 105.311L168.692 102.762C170.32 102.749 171.486 102.741 172.403 102.802C173.31 102.863 173.892 102.989 174.365 103.203C175.509 103.722 176.426 104.633 176.954 105.772C177.172 106.243 177.302 106.825 177.37 107.731C177.439 108.648 177.439 109.814 177.439 111.441L177.439 348.99C177.439 350.618 177.439 351.784 177.37 352.701C177.302 353.608 177.172 354.192 176.954 354.667C176.426 355.814 175.509 356.739 174.365 357.275C173.892 357.497 173.309 357.632 172.403 357.707C171.486 357.783 170.32 357.793 168.692 357.805L-159.507 360.354Z" stroke="#FB5F66" stroke-opacity="0.5" stroke-width="2"/>
</g>
<g filter="url(#filter2_b_0_1055)">
<path d="M-199.846 298.749C-201.474 298.761 -202.639 298.77 -203.556 298.708C-204.463 298.647 -205.046 298.521 -205.519 298.307C-206.662 297.789 -207.58 296.878 -208.107 295.738C-208.325 295.267 -208.456 294.686 -208.524 293.779C-208.592 292.863 -208.593 291.697 -208.593 290.069L-208.593 52.5208C-208.593 50.8928 -208.592 49.727 -208.524 48.8094C-208.456 47.9021 -208.325 47.3185 -208.107 46.8439C-207.58 45.6962 -206.662 44.7711 -205.519 44.235C-205.046 44.0134 -204.463 43.8784 -203.556 43.8034C-202.639 43.7275 -201.474 43.7178 -199.846 43.7052L128.353 41.1562C129.981 41.1436 131.147 41.1352 132.064 41.1968C132.971 41.2578 133.553 41.3837 134.026 41.598C135.17 42.1163 136.087 43.0272 136.615 44.1667C136.833 44.6379 136.963 45.2195 137.031 46.1257C137.1 47.0422 137.1 48.2081 137.1 49.836L137.1 287.384C137.1 289.012 137.1 290.178 137.031 291.096C136.963 292.003 136.833 292.587 136.615 293.061C136.087 294.209 135.17 295.134 134.026 295.67C133.553 295.892 132.97 296.027 132.064 296.102C131.147 296.177 129.981 296.187 128.353 296.2L-199.846 298.749Z" stroke="#FB5F66" stroke-opacity="0.5" stroke-width="2"/>
</g>
<g filter="url(#filter3_b_0_1055)">
<path d="M-248.253 258.668C-249.881 258.681 -251.046 258.689 -251.963 258.627C-252.87 258.567 -253.453 258.441 -253.926 258.226C-255.069 257.708 -255.987 256.797 -256.514 255.658C-256.732 255.186 -256.863 254.605 -256.931 253.699C-256.999 252.782 -257 251.616 -257 249.988L-257 12.4401C-257 10.8121 -256.999 9.64627 -256.931 8.72871C-256.863 7.82143 -256.732 7.23779 -256.514 6.76324C-255.987 5.61553 -255.069 4.69043 -253.926 4.15433C-253.453 3.93267 -252.87 3.79771 -251.963 3.72269C-251.046 3.6468 -249.881 3.63711 -248.253 3.62446L79.946 1.07555C81.574 1.06291 82.7398 1.05449 83.6568 1.11614C84.5635 1.17708 85.1461 1.30299 85.619 1.5173C86.7626 2.03564 87.6805 2.9465 88.2077 4.086C88.4257 4.55716 88.5561 5.13878 88.6241 6.045C88.6929 6.96149 88.6935 8.12737 88.6935 9.75534L88.6935 247.303C88.6935 248.931 88.6928 250.097 88.6241 251.015C88.5561 251.922 88.4257 252.506 88.2077 252.98C87.6805 254.128 86.7625 255.053 85.6189 255.589C85.1461 255.811 84.5635 255.946 83.6568 256.021C82.7398 256.097 81.5739 256.107 79.946 256.119L-248.253 258.668Z" stroke="#FB5F66" stroke-opacity="0.5" stroke-width="2"/>
</g>
</g>
<defs>
<filter id="filter0_b_0_1055" x="-147.829" y="144.056" width="386.227" height="298.144" filterUnits="userSpaceOnUse" color-interpolation-filters="sRGB">
<feFlood flood-opacity="0" result="BackgroundImageFix"/>
<feGaussianBlur in="BackgroundImageFix" stdDeviation="9.63327"/>
<feComposite in2="SourceAlpha" operator="in" result="effect1_backgroundBlur_0_1055"/>
<feBlend mode="normal" in="SourceGraphic" in2="effect1_backgroundBlur_0_1055" result="shape"/>
</filter>
<filter id="filter1_b_0_1055" x="-188.521" y="82.4861" width="386.227" height="298.144" filterUnits="userSpaceOnUse" color-interpolation-filters="sRGB">
<feFlood flood-opacity="0" result="BackgroundImageFix"/>
<feGaussianBlur in="BackgroundImageFix" stdDeviation="9.63327"/>
<feComposite in2="SourceAlpha" operator="in" result="effect1_backgroundBlur_0_1055"/>
<feBlend mode="normal" in="SourceGraphic" in2="effect1_backgroundBlur_0_1055" result="shape"/>
</filter>
<filter id="filter2_b_0_1055" x="-228.86" y="20.8807" width="386.227" height="298.144" filterUnits="userSpaceOnUse" color-interpolation-filters="sRGB">
<feFlood flood-opacity="0" result="BackgroundImageFix"/>
<feGaussianBlur in="BackgroundImageFix" stdDeviation="9.63327"/>
<feComposite in2="SourceAlpha" operator="in" result="effect1_backgroundBlur_0_1055"/>
<feBlend mode="normal" in="SourceGraphic" in2="effect1_backgroundBlur_0_1055" result="shape"/>
</filter>
<filter id="filter3_b_0_1055" x="-277.267" y="-19.2" width="386.227" height="298.144" filterUnits="userSpaceOnUse" color-interpolation-filters="sRGB">
<feFlood flood-opacity="0" result="BackgroundImageFix"/>
<feGaussianBlur in="BackgroundImageFix" stdDeviation="9.63327"/>
<feComposite in2="SourceAlpha" operator="in" result="effect1_backgroundBlur_0_1055"/>
<feBlend mode="normal" in="SourceGraphic" in2="effect1_backgroundBlur_0_1055" result="shape"/>
</filter>
</defs>
</svg>
