<svg width="24" height="23" viewBox="0 0 24 23" fill="none" xmlns="http://www.w3.org/2000/svg">
<path d="M19.5899 2.09253H4.33754C3.9698 2.09253 3.61711 2.23862 3.35708 2.49865C3.09704 2.75868 2.95096 3.11137 2.95096 3.47911V18.7315C2.95096 19.0993 3.09704 19.4519 3.35708 19.712C3.61711 19.972 3.9698 20.1181 4.33754 20.1181H19.5899C19.9577 20.1181 20.3104 19.972 20.5704 19.712C20.8304 19.4519 20.9765 19.0993 20.9765 18.7315V3.47911C20.9765 3.11137 20.8304 2.75868 20.5704 2.49865C20.3104 2.23862 19.9577 2.09253 19.5899 2.09253ZM19.5899 18.7315H4.33754V3.47911H19.5899V18.7315ZM9.19057 9.71873V15.2651C9.19057 15.4489 9.11753 15.6253 8.98751 15.7553C8.8575 15.8853 8.68116 15.9583 8.49728 15.9583C8.31341 15.9583 8.13707 15.8853 8.00705 15.7553C7.87704 15.6253 7.80399 15.4489 7.80399 15.2651V9.71873C7.80399 9.53485 7.87704 9.35851 8.00705 9.2285C8.13707 9.09848 8.31341 9.02544 8.49728 9.02544C8.68116 9.02544 8.8575 9.09848 8.98751 9.2285C9.11753 9.35851 9.19057 9.53485 9.19057 9.71873ZM16.8168 12.1452V15.2651C16.8168 15.4489 16.7437 15.6253 16.6137 15.7553C16.4837 15.8853 16.3074 15.9583 16.1235 15.9583C15.9396 15.9583 15.7633 15.8853 15.6333 15.7553C15.5032 15.6253 15.4302 15.4489 15.4302 15.2651V12.1452C15.4302 11.6856 15.2476 11.2447 14.9225 10.9197C14.5975 10.5946 14.1566 10.412 13.697 10.412C13.2373 10.412 12.7964 10.5946 12.4714 10.9197C12.1463 11.2447 11.9637 11.6856 11.9637 12.1452V15.2651C11.9637 15.4489 11.8907 15.6253 11.7607 15.7553C11.6307 15.8853 11.4543 15.9583 11.2704 15.9583C11.0866 15.9583 10.9102 15.8853 10.7802 15.7553C10.6502 15.6253 10.5772 15.4489 10.5772 15.2651V9.71873C10.578 9.54891 10.6412 9.38531 10.7547 9.25897C10.8681 9.13263 11.024 9.05233 11.1928 9.03331C11.3615 9.01429 11.5314 9.05786 11.6701 9.15577C11.8089 9.25368 11.9069 9.39911 11.9455 9.56447C12.4145 9.24631 12.9613 9.06192 13.5272 9.03109C14.0931 9.00025 14.6567 9.12415 15.1575 9.38947C15.6583 9.65478 16.0774 10.0515 16.3697 10.537C16.662 11.0225 16.8166 11.5785 16.8168 12.1452ZM9.53722 7.29221C9.53722 7.49789 9.47623 7.69895 9.36196 7.86997C9.24769 8.04098 9.08527 8.17427 8.89525 8.25299C8.70523 8.3317 8.49613 8.35229 8.2944 8.31216C8.09267 8.27204 7.90738 8.17299 7.76194 8.02756C7.6165 7.88212 7.51746 7.69682 7.47733 7.49509C7.4372 7.29336 7.4578 7.08427 7.53651 6.89424C7.61522 6.70422 7.74851 6.5418 7.91953 6.42753C8.09054 6.31326 8.2916 6.25227 8.49728 6.25227C8.77309 6.25227 9.0376 6.36184 9.23263 6.55686C9.42766 6.75189 9.53722 7.0164 9.53722 7.29221Z" fill="#FB5F66"/>
</svg>
