<svg xmlns="http://www.w3.org/2000/svg" width="36" height="36" fill="none" viewBox="0 0 36 36"><g clip-path="url(#clip0_0_648)"><path fill="#FB5F65" d="M16.4762 6.068C16.6122 6.068 16.7426 6.01399 16.8387 5.91784C16.9349 5.82169 16.9889 5.69128 16.9889 5.55531V4.32634C16.9889 2.40155 15.423 0.835571 13.4981 0.835571H4.04175C2.11696 0.835571 0.55098 2.40155 0.55098 4.32634V13.7827C0.55098 15.7076 2.11696 17.2735 4.04175 17.2735H13.4981C15.423 17.2735 16.9889 15.7075 16.9889 13.7827V7.62872C16.9889 7.49274 16.9349 7.36234 16.8387 7.26619C16.7426 7.17004 16.6122 7.11602 16.4762 7.11602C16.3402 7.11602 16.2098 7.17004 16.1137 7.26619C16.0175 7.36234 15.9635 7.49274 15.9635 7.62872V13.7827C15.9635 15.1422 14.8575 16.2481 13.4981 16.2481H4.04175C2.68236 16.2482 1.57637 15.1422 1.57637 13.7827V4.32634C1.57637 2.96695 2.68236 1.86096 4.04175 1.86096H13.4981C14.8576 1.86096 15.9635 2.96695 15.9635 4.32634V5.55531C15.9635 5.69128 16.0175 5.82169 16.1137 5.91784C16.2098 6.01399 16.3402 6.068 16.4762 6.068ZM32.0602 0.835571H22.6038C20.6791 0.835571 19.1131 2.40155 19.1131 4.32634V13.7827C19.1131 15.7076 20.6791 17.2735 22.6038 17.2735H26.4707C26.6066 17.2735 26.737 17.2195 26.8332 17.1233C26.9293 17.0272 26.9834 16.8968 26.9834 16.7608C26.9834 16.6248 26.9293 16.4944 26.8332 16.3982C26.737 16.3021 26.6066 16.2481 26.4707 16.2481H22.6038C21.2445 16.2481 20.1385 15.1421 20.1385 13.7827V4.32634C20.1385 2.96695 21.2445 1.86096 22.6038 1.86096H32.0602C33.4197 1.86096 34.5256 2.96695 34.5256 4.32634V13.7827C34.5256 15.1422 33.4196 16.2481 32.0602 16.2481H28.5441C28.4081 16.2481 28.2777 16.3021 28.1815 16.3982C28.0854 16.4944 28.0314 16.6248 28.0314 16.7608C28.0314 16.8968 28.0854 17.0272 28.1815 17.1233C28.2777 17.2195 28.4081 17.2735 28.5441 17.2735H32.0602C33.985 17.2735 35.551 15.7075 35.551 13.7827V4.32634C35.551 2.40155 33.985 0.835571 32.0602 0.835571ZM13.4981 19.1983H4.04175C2.11696 19.1983 0.55098 20.7642 0.55098 22.6891V32.1455C0.55098 34.0703 2.11696 35.6362 4.04175 35.6362H8.56044C8.69642 35.6362 8.82682 35.5822 8.92297 35.4861C9.01912 35.3899 9.07314 35.2595 9.07314 35.1235C9.07314 34.9876 9.01912 34.8572 8.92297 34.761C8.82682 34.6649 8.69642 34.6108 8.56044 34.6108H4.04175C2.68236 34.6108 1.57637 33.5049 1.57637 32.1455V22.6891C1.57637 21.3296 2.68236 20.2237 4.04175 20.2237H13.4981C14.8576 20.2237 15.9635 21.3297 15.9635 22.6891V32.1455C15.9635 33.5049 14.8575 34.6108 13.4981 34.6108H10.6339C10.4979 34.6108 10.3675 34.6649 10.2714 34.761C10.1752 34.8572 10.1212 34.9876 10.1212 35.1235C10.1212 35.2595 10.1752 35.3899 10.2714 35.4861C10.3675 35.5822 10.4979 35.6362 10.6339 35.6362H13.4981C15.423 35.6362 16.9889 34.0703 16.9889 32.1455V22.6891C16.9889 20.7642 15.423 19.1983 13.4981 19.1983ZM32.0602 19.1983H22.6038C20.6791 19.1983 19.1131 20.7642 19.1131 22.689V32.1454C19.1131 34.0703 20.6791 35.6362 22.6038 35.6362H32.0602C33.985 35.6362 35.551 34.0702 35.551 32.1454V22.6891C35.551 20.7642 33.985 19.1983 32.0602 19.1983ZM34.5256 32.1454C34.5256 33.5049 33.4196 34.6108 32.0602 34.6108H22.6038C21.2445 34.6108 20.1385 33.5048 20.1385 32.1454V22.6891C20.1385 21.3296 21.2445 20.2237 22.6038 20.2237H32.0602C33.4197 20.2237 34.5256 21.3297 34.5256 22.6891V32.1454Z"/><path fill="#FB5F65" d="M10.9363 8.54193H9.28313V6.88879C9.28313 6.75282 9.22911 6.62241 9.13296 6.52626C9.03681 6.43011 8.90641 6.3761 8.77043 6.3761C8.63446 6.3761 8.50405 6.43011 8.4079 6.52626C8.31175 6.62241 8.25774 6.75282 8.25774 6.88879V8.54193H6.60467C6.4687 8.54193 6.33829 8.59594 6.24214 8.69209C6.14599 8.78824 6.09198 8.91865 6.09198 9.05462C6.09198 9.1906 6.14599 9.32101 6.24214 9.41715C6.33829 9.5133 6.4687 9.56732 6.60467 9.56732H8.25781V11.2205C8.25936 11.3554 8.31406 11.4843 8.41004 11.5792C8.50601 11.674 8.63552 11.7272 8.77047 11.7272C8.90542 11.7272 9.03493 11.674 9.1309 11.5792C9.22687 11.4843 9.28157 11.3554 9.28313 11.2205V9.56732H10.9363C11.0722 9.56732 11.2026 9.5133 11.2988 9.41715C11.3949 9.32101 11.449 9.1906 11.449 9.05462C11.449 8.91865 11.3949 8.78824 11.2988 8.69209C11.2026 8.59594 11.0722 8.54193 10.9363 8.54193ZM29.4293 8.54193H25.0977C24.9618 8.54193 24.8313 8.59594 24.7352 8.69209C24.639 8.78824 24.585 8.91865 24.585 9.05462C24.585 9.1906 24.639 9.32101 24.7352 9.41715C24.8313 9.5133 24.9618 9.56732 25.0977 9.56732H29.4293C29.5653 9.56732 29.6957 9.5133 29.7919 9.41715C29.888 9.32101 29.942 9.1906 29.942 9.05462C29.942 8.91865 29.888 8.78824 29.7919 8.69209C29.6957 8.59594 29.5653 8.54193 29.4293 8.54193ZM9.49545 27.0184L10.6644 25.8494C10.7605 25.7533 10.8145 25.6229 10.8145 25.4869C10.8145 25.351 10.7605 25.2206 10.6644 25.1244C10.5683 25.0283 10.4379 24.9743 10.3019 24.9743C10.1659 24.9743 10.0355 25.0283 9.93938 25.1244L8.77043 26.2934L7.60149 25.1244C7.50534 25.0283 7.37494 24.9743 7.23898 24.9743C7.10301 24.9743 6.97262 25.0283 6.87647 25.1244C6.78033 25.2206 6.72632 25.351 6.72632 25.4869C6.72632 25.6229 6.78033 25.7533 6.87647 25.8494L8.04541 27.0184L6.87647 28.1873C6.80477 28.259 6.75595 28.3504 6.73617 28.4498C6.71639 28.5493 6.72655 28.6523 6.76535 28.746C6.80415 28.8397 6.86986 28.9198 6.95416 28.9761C7.03847 29.0324 7.13758 29.0625 7.23898 29.0625C7.30632 29.0626 7.37301 29.0494 7.43523 29.0236C7.49744 28.9978 7.55394 28.96 7.60149 28.9123L8.77043 27.7434L9.93938 28.9123C9.98693 28.96 10.0434 28.9978 10.1056 29.0236C10.1679 29.0494 10.2346 29.0626 10.3019 29.0625C10.3692 29.0626 10.4359 29.0494 10.4981 29.0236C10.5603 28.9978 10.6169 28.96 10.6644 28.9123C10.7605 28.8162 10.8145 28.6858 10.8145 28.5498C10.8145 28.4139 10.7605 28.2835 10.6644 28.1873L9.49545 27.0184ZM29.4293 25.5627H25.0977C24.9618 25.5627 24.8313 25.6167 24.7352 25.7129C24.639 25.809 24.585 25.9394 24.585 26.0754C24.585 26.2114 24.639 26.3418 24.7352 26.438C24.8313 26.5341 24.9618 26.5881 25.0977 26.5881H29.4293C29.5653 26.5881 29.6957 26.5341 29.7919 26.438C29.888 26.3418 29.942 26.2114 29.942 26.0754C29.942 25.9394 29.888 25.809 29.7919 25.7129C29.6957 25.6167 29.5653 25.5627 29.4293 25.5627ZM29.4293 27.4486H25.0977C24.9618 27.4486 24.8313 27.5026 24.7352 27.5987C24.639 27.6949 24.585 27.8253 24.585 27.9613C24.585 28.0972 24.639 28.2276 24.7352 28.3238C24.8313 28.4199 24.9618 28.474 25.0977 28.474H29.4293C29.5653 28.474 29.6957 28.4199 29.7919 28.3238C29.888 28.2276 29.942 28.0972 29.942 27.9613C29.942 27.8253 29.888 27.6949 29.7919 27.5987C29.6957 27.5026 29.5653 27.4486 29.4293 27.4486Z"/></g><defs><clipPath id="clip0_0_648"><rect width="35" height="35" fill="#fff" transform="translate(0.550781 0.73584)"/></clipPath></defs></svg>