<svg xmlns="http://www.w3.org/2000/svg" width="30" height="29" fill="none" viewBox="0 0 30 29"><path fill="#FB5F68" d="M8.84984 0.653198H5.24984V5.2477H0.655334V8.8477H5.24984V13.4422H8.84984V8.8477H13.4443V5.2477H8.84984V0.653198ZM10.2988 16.2532L7.04983 19.5022L3.80083 16.2532L1.25533 18.7987L4.50433 22.0477L1.25533 25.2964L3.80083 27.8422L7.04983 24.5932L10.2988 27.8422L12.8443 25.2964L9.59534 22.0477L12.8443 18.7987L10.2988 16.2532ZM16.8553 19.4002H29.6446V23.0002H16.8553V19.4002ZM25.0498 15.9502C25.0498 15.4728 24.8602 15.015 24.5226 14.6774C24.1851 14.3398 23.7272 14.1502 23.2498 14.1502C20.8669 14.2324 20.8675 17.6683 23.2498 17.7502C23.7272 17.7502 24.1851 17.5606 24.5226 17.223C24.8602 16.8854 25.0498 16.4276 25.0498 15.9502ZM23.2498 24.6502C22.7724 24.6502 22.3146 24.8398 21.977 25.1774C21.6395 25.515 21.4498 25.9728 21.4498 26.4502C21.532 28.8331 24.9679 28.8325 25.0498 26.4502C25.0498 25.9728 24.8602 25.515 24.5226 25.1774C24.1851 24.8398 23.7272 24.6502 23.2498 24.6502ZM16.8553 5.2228H29.6446V8.8228H16.8553V5.2228Z"/></svg>