<svg xmlns="http://www.w3.org/2000/svg" width="30" height="30" fill="none" viewBox="0 0 30 30"><path fill="#FB5F68" fill-rule="evenodd" d="M15 0C18.6445 0 21.599 2.90043 21.599 6.47824C21.599 10.0561 18.6445 12.9565 15 12.9565C11.3555 12.9565 8.40104 10.0561 8.40104 6.47824C8.40104 2.90043 11.3555 0 15 0ZM22.2115 14.7791L26.2163 21.5889C26.569 22.1886 27.3549 22.3953 27.9657 22.0491L29.3559 21.2611C29.9709 20.9125 30.1829 20.1358 29.8278 19.5321L25.8317 12.7371C25.4766 12.1333 24.6853 11.9253 24.0704 12.2738L22.6802 13.0618C22.0693 13.4081 21.8588 14.1794 22.2115 14.7791ZM7.78859 14.7791L3.78366 21.5889C3.43101 22.1886 2.6452 22.3953 2.0343 22.0491L0.64409 21.2611C0.029058 20.9125 -0.182915 20.1358 0.172179 19.5321L4.16834 12.7371C4.52344 12.1333 5.31466 11.9253 5.92963 12.2738L7.31983 13.0618C7.93067 13.4081 8.14123 14.1795 7.78852 14.7792L7.78859 14.7791ZM19.5506 19.7686C18.6318 19.5883 17.5668 19.1044 16.5076 18.0188C16.4712 17.9816 16.4275 17.9521 16.3791 17.9321C16.3307 17.9121 16.2786 17.9021 16.2261 17.9026L14.7585 17.8592C14.7061 17.8577 14.654 17.8668 14.6053 17.8858C14.5566 17.9049 14.5124 17.9335 14.4754 17.9699L14.4745 17.969L13.4471 18.9775C13.0899 19.3282 12.6426 19.4453 12.2339 19.4255C11.8263 19.4057 11.4665 19.257 11.2767 19.0706C11.2462 19.0409 11.222 19.0056 11.2054 18.9667C11.1888 18.9277 11.1803 18.886 11.1802 18.8438H11.1816C11.1816 18.7614 11.2134 18.6792 11.2767 18.617L13.1514 16.7766C13.3156 16.6154 13.4821 16.487 13.6587 16.3869L13.6598 16.3863L13.6601 16.3869C13.8394 16.2853 14.0359 16.2075 14.2571 16.1493L16.6461 15.5208C16.9261 15.4472 17.1958 15.4194 17.4603 15.4378C17.7254 15.4562 17.9884 15.521 18.2543 15.6324L18.8778 15.8924C19.2693 16.0556 19.6644 16.1422 20.0641 16.152C20.4638 16.1618 20.8625 16.0949 21.2609 15.9514C21.4652 15.8779 21.6665 15.7966 21.8643 15.7077L25.3683 21.6657C25.2699 21.801 25.1694 21.9348 25.0669 22.0671C24.9247 22.2507 24.7772 22.4304 24.6247 22.6059C24.5954 22.5867 24.5655 22.5685 24.5351 22.5513L21.059 20.5811C21.9673 20.4861 22.5486 20.2041 22.5526 20.2022C22.6443 20.1586 22.7146 20.0812 22.7482 19.9868C22.7818 19.8925 22.776 19.7889 22.7321 19.6987C22.6882 19.6086 22.6097 19.5391 22.5137 19.5056C22.4178 19.4721 22.3123 19.4772 22.2202 19.5199C22.215 19.5223 21.1268 20.0509 19.6314 19.7835C19.6051 19.7757 19.578 19.7707 19.5506 19.7686V19.7686ZM19.7252 23.6102L22.0208 24.9113C22.0272 24.9154 22.0337 24.9195 22.0404 24.9233C22.2538 25.0443 22.3976 25.2405 22.4572 25.4591C22.5154 25.6726 22.4941 25.9063 22.3797 26.1113L22.3697 26.1274C22.2465 26.337 22.0466 26.4781 21.8239 26.5366C21.6064 26.5938 21.3684 26.5728 21.1595 26.4606L21.1431 26.4508L18.8265 25.1378C18.7827 25.1129 18.7343 25.0967 18.684 25.0901C18.6338 25.0835 18.5827 25.0868 18.5338 25.0996C18.4349 25.1254 18.3505 25.1888 18.2992 25.2758C18.2479 25.3627 18.2339 25.4661 18.2602 25.5632C18.2866 25.6603 18.3512 25.7431 18.4397 25.7935L19.9325 26.6396C20.1459 26.7605 20.2897 26.9568 20.3493 27.1754C20.4067 27.3858 20.3867 27.6159 20.2766 27.8189C20.2666 27.8332 20.2576 27.8481 20.2498 27.8635C20.1258 28.0622 19.9315 28.1963 19.7159 28.253C19.4995 28.3099 19.2627 28.2891 19.0544 28.1777C19.0379 28.167 19.0205 28.1575 19.0025 28.1494L18.2537 27.7251C18.2397 27.7166 18.2256 27.7083 18.2114 27.7002C18.2043 27.6962 18.1972 27.6924 18.1899 27.6889L17.541 27.3211C17.4525 27.272 17.3478 27.2593 17.2498 27.2856C17.1518 27.312 17.0683 27.3754 17.0177 27.4619C16.967 27.5484 16.9533 27.6511 16.9794 27.7475C17.0056 27.844 17.0695 27.9264 17.1573 27.9767L17.8049 28.3438C17.8113 28.348 17.8179 28.352 17.8246 28.3558C18.038 28.4768 18.1818 28.673 18.2414 28.8917C18.2989 29.1023 18.2788 29.3326 18.1684 29.5357L18.166 29.5393L18.1664 29.5395L18.1639 29.5439L18.1539 29.56C18.0307 29.7695 17.8308 29.9107 17.6081 29.9693C17.3935 30.0257 17.159 30.006 16.9522 29.8977L16.9486 29.8953L16.9483 29.8957L16.9439 29.8932L16.9274 29.8834L15.1721 28.8885L16.1513 27.2235C16.1561 27.2154 16.1605 27.2072 16.1646 27.199C16.383 26.8135 16.4255 26.3763 16.3172 25.9797C16.2065 25.5742 15.9388 25.2096 15.5408 24.984L15.5376 24.9822C15.2434 24.8159 14.9044 24.7421 14.5662 24.7707C14.6452 24.4892 14.6462 24.1922 14.569 23.9103C14.4608 23.5137 14.2021 23.1562 13.8184 22.9296C13.7987 22.9163 13.7777 22.9047 13.7559 22.8952C13.366 22.6863 12.9256 22.6463 12.5255 22.7515C12.3658 22.7935 12.2133 22.8583 12.0729 22.9439C11.9424 22.5707 11.6786 22.2564 11.3304 22.0592L11.3308 22.0585C10.9321 21.8326 10.4765 21.7869 10.0638 21.8955C9.90408 21.9375 9.75162 22.0025 9.61131 22.0883C9.48489 21.7273 9.23082 21.4075 8.86908 21.2025L8.8687 21.2023C8.47009 20.9765 8.01468 20.931 7.60201 21.0395C7.39027 21.0949 7.19175 21.1908 7.01782 21.3217C6.84389 21.4526 6.69798 21.6159 6.58843 21.8022L6.58779 21.8018L5.82796 23.0938C5.60215 22.8656 5.38701 22.6275 5.18321 22.3802C4.99715 22.155 4.81516 21.9183 4.63161 21.666L8.13562 15.7079C9.19388 16.1839 10.186 16.3632 11.1259 16.5328C11.4614 16.5934 11.7898 16.6527 12.1104 16.7247L10.7297 18.0801C10.6274 18.1803 10.5464 18.2994 10.4912 18.4305C10.4359 18.5615 10.4076 18.702 10.4079 18.8439H10.4094C10.4094 19.1213 10.5162 19.3981 10.7297 19.6076C11.0393 19.9116 11.5935 20.1527 12.1975 20.182C12.8004 20.2112 13.4621 20.0367 13.994 19.5145L14.9045 18.6207L16.0625 18.6549C17.2081 19.7881 18.3678 20.3069 19.3837 20.5065L24.1481 23.207C24.3616 23.328 24.5053 23.5242 24.565 23.7428C24.6225 23.9533 24.6024 24.1834 24.4923 24.3864C24.4809 24.4028 24.4707 24.42 24.462 24.4379C24.3385 24.6324 24.1459 24.7641 23.9316 24.8204C23.7173 24.8768 23.4829 24.8572 23.2761 24.7491C23.2578 24.7367 23.2384 24.726 23.2182 24.7169L22.4695 24.2926C22.4555 24.2841 22.4413 24.2757 22.4271 24.2676C22.42 24.2636 22.4128 24.2599 22.4055 24.2563L20.1089 22.9546C20.0204 22.9055 19.9157 22.8927 19.8177 22.9191C19.7196 22.9455 19.6362 23.0088 19.5855 23.0954C19.5349 23.1819 19.5211 23.2846 19.5473 23.381C19.5734 23.4775 19.6373 23.5598 19.7251 23.6102H19.7252ZM7.53439 25.2357L8.81087 23.0651L8.81106 23.0648L8.81145 23.0642L8.81164 23.0639V23.0637L8.81241 23.0625L8.81177 23.0622C8.93465 22.8532 8.95895 22.6129 8.89919 22.394C8.83949 22.1753 8.69579 21.9791 8.48233 21.8581C8.26946 21.7374 8.02454 21.7135 7.80154 21.7721C7.57822 21.8309 7.37824 21.9716 7.25575 22.18L7.25511 22.1811L7.25575 22.1814L6.25326 23.8861C6.24995 23.8921 6.24647 23.898 6.24282 23.9038L5.98037 24.35C5.97302 24.3649 5.96466 24.3793 5.95535 24.3931C5.84189 24.5976 5.82074 24.8302 5.87863 25.0426C5.9364 25.2542 6.07301 25.4448 6.27531 25.5665C6.28898 25.5732 6.30213 25.5808 6.31483 25.5889C6.52306 25.7003 6.76005 25.7211 6.97634 25.6642C7.19902 25.6056 7.39894 25.4644 7.52214 25.255C7.526 25.2484 7.53019 25.2419 7.53439 25.2357ZM8.2017 25.6134C8.19804 25.6206 8.19415 25.6277 8.19003 25.6347C8.18178 25.6487 8.17327 25.6626 8.1647 25.6763L7.97026 26.007C7.96197 26.0247 7.95234 26.0417 7.94144 26.058C7.82798 26.2625 7.80677 26.4951 7.86472 26.7074C7.92249 26.9191 8.05916 27.1098 8.26146 27.2315C8.27726 27.2393 8.29241 27.2481 8.30685 27.2578C8.51367 27.3659 8.74801 27.3855 8.96237 27.3291C9.17815 27.2724 9.37252 27.1381 9.49643 26.9393C9.50516 26.9223 9.51518 26.9059 9.52641 26.8904L11.2741 23.9187L11.2734 23.9183C11.3963 23.7094 11.4206 23.4689 11.3609 23.25C11.301 23.0308 11.1577 22.8345 10.9455 22.7142L10.9444 22.7136L10.944 22.7142C10.7311 22.5936 10.4863 22.5696 10.2632 22.6283C10.0399 22.687 9.83992 22.8277 9.71736 23.0362L9.50339 23.3999C9.49566 23.414 9.48772 23.428 9.47954 23.442L9.47889 23.4416L8.20164 25.6134L8.2017 25.6134ZM10.1754 27.2993L10.1761 27.2996C10.1714 27.3076 10.1666 27.3154 10.1619 27.3233C10.0512 27.5265 10.031 27.7571 10.0886 27.9679C10.1483 28.1866 10.292 28.3828 10.5055 28.5037L10.5219 28.5136C10.7308 28.6258 10.9688 28.6468 11.1863 28.5895C11.4096 28.5308 11.6096 28.3901 11.7321 28.1818L11.7328 28.1807L11.7321 28.1803L13.2579 25.586V25.5859L13.2596 25.5831L13.2606 25.5815L13.7211 24.7985C13.7295 24.7814 13.7392 24.765 13.7501 24.7495C13.8602 24.5466 13.8802 24.3164 13.8227 24.106C13.765 23.8943 13.6284 23.7036 13.4261 23.582C13.4103 23.5742 13.3951 23.5654 13.3806 23.5556C13.1739 23.4475 12.9394 23.4279 12.7251 23.4843C12.5023 23.5429 12.3025 23.684 12.1793 23.8936C12.1754 23.9002 12.1713 23.9067 12.167 23.9131L11.9654 24.2559C11.9576 24.27 11.9497 24.2841 11.9415 24.2981L11.9408 24.2977L10.176 27.2986L10.1755 27.2993L10.1754 27.2993ZM12.6203 28.1854C12.5125 28.3872 12.4933 28.6152 12.5503 28.824C12.61 29.0426 12.7538 29.2388 12.9672 29.3598L12.9835 29.3697C13.1925 29.4819 13.4305 29.5029 13.648 29.4457C13.8706 29.3871 14.0706 29.2459 14.1938 29.0364L14.3104 28.8381L14.311 28.8371L14.3115 28.8364L15.4692 26.8679C15.4776 26.8508 15.4874 26.8345 15.4982 26.819C15.6083 26.616 15.6283 26.3859 15.5709 26.1754C15.5131 25.9638 15.3765 25.7731 15.1743 25.6514C15.1606 25.6447 15.1475 25.6372 15.1347 25.629C14.9264 25.5176 14.6895 25.4968 14.4732 25.5537C14.2511 25.6121 14.0516 25.7528 13.9283 25.9615L12.6204 28.1854H12.6203ZM10.8297 6.12034L13.0672 8.96887C13.3363 9.31095 13.8407 9.36329 14.1762 9.08457L19.0585 5.02898C19.3839 4.75867 19.4246 4.28045 19.1491 3.96097C18.8737 3.64148 18.3867 3.60161 18.0612 3.87198L13.7951 7.41575L12.0506 5.19473C11.7902 4.86379 11.3058 4.80266 10.9687 5.05828C10.6316 5.31391 10.5693 5.7894 10.8297 6.12034Z" clip-rule="evenodd"/></svg>