<svg width="30" height="30" viewBox="0 0 30 30" fill="none" xmlns="http://www.w3.org/2000/svg">
<path d="M22.4039 7.10588C22.4039 8.5279 23.6117 9.68479 25.0961 9.68479C26.085 9.68479 26.9505 9.17106 27.4186 8.40797H27.4187C27.6612 8.01337 27.7889 7.56373 27.7885 7.10582C27.7885 6.93413 27.7705 6.76639 27.7369 6.60402C27.4924 5.42139 26.4014 4.52692 25.0961 4.52692C23.6117 4.52692 22.4039 5.68381 22.4039 7.10588ZM15.7708 12.3146C14.2249 12.3146 12.9673 13.5193 12.9673 15.0001C12.9673 16.4809 14.225 17.6856 15.7708 17.6856C17.3166 17.6856 18.5743 16.4809 18.5743 15.0001C18.5743 13.5193 17.3167 12.3146 15.7708 12.3146Z" fill="#FB5F68"/>
<path d="M29.6243 18.9079C29.2121 17.9487 28.4685 16.9116 27.4145 15.8254C27.1392 15.5424 26.8553 15.2672 26.5632 15C26.8553 14.7329 27.1392 14.4577 27.4145 14.1747C28.4685 13.0885 29.2121 12.0513 29.6243 11.0922C30.2364 9.66816 29.989 8.67523 29.6737 8.09304C29.6391 8.02997 29.6013 7.9685 29.5606 7.90883C29.3496 8.98657 28.7231 9.92526 27.8462 10.5658C27.412 11.4772 26.5196 12.605 25.177 13.822C24.1656 13.0214 23.0313 12.2363 21.8054 11.4879C21.7561 10.9564 21.6943 10.4261 21.62 9.89734C21.4156 8.44493 21.1233 7.08164 20.7503 5.85433C20.6349 5.47309 20.5077 5.09524 20.3687 4.72129C19.8475 3.32483 19.2287 2.2151 18.5297 1.4229C17.4919 0.246889 16.4579 0 15.7733 0C15.0887 0 14.0547 0.246889 13.0168 1.42302C12.3178 2.21515 11.699 3.32495 11.1778 4.72141C10.9412 5.35542 10.7293 6.03695 10.5428 6.7569C9.78974 6.58396 9.06057 6.45034 8.36412 6.35956C6.83007 6.15977 5.51672 6.17482 4.46074 6.40454C2.89292 6.74545 2.18803 7.51102 1.8728 8.09316C1.55758 8.67529 1.31025 9.66816 1.92228 11.0922C2.33449 12.0514 3.07795 13.0885 4.13208 14.1747C4.39346 14.4435 4.66262 14.7052 4.93925 14.9596C4.11187 15.7078 3.42953 16.4441 2.90118 17.1548C3.5725 17.1836 4.22863 17.3557 4.82157 17.6586C5.23778 17.1706 5.74174 16.6616 6.32518 16.1425C7.34783 16.9553 8.49709 17.7527 9.74112 18.5121C9.83823 19.5558 9.97847 20.5649 10.1597 21.524C9.05755 21.7793 8.06584 21.929 7.20475 21.9869C7.13004 22.6262 6.90717 23.2415 6.55242 23.7877C7.73508 23.7757 9.08472 23.5953 10.5466 23.2575C10.7322 23.9721 10.9428 24.6488 11.1779 25.2786C11.6991 26.6751 12.3178 27.7848 13.0169 28.577C14.0547 29.7531 15.0887 30 15.7733 30C15.87 29.9996 15.9666 29.9953 16.0629 29.9871C15.1654 29.3441 14.5247 28.3905 14.3131 27.2944C13.58 26.3915 12.8614 24.8565 12.3249 22.7851C13.4363 22.4534 14.5942 22.0424 15.7777 21.5565C16.4079 21.8141 17.0454 22.0551 17.6894 22.2794C19.1922 22.8019 20.6508 23.1994 22.0121 23.4538C22.4002 23.5267 22.7905 23.5889 23.1824 23.6403C23.8959 23.7332 24.5614 23.7797 25.1757 23.7797C25.8823 23.7797 26.5209 23.7182 27.0858 23.5953C28.6536 23.2544 29.3585 22.4889 29.6737 21.9067C29.989 21.3246 30.2364 20.3319 29.6243 18.9079ZM23.7672 15C23.2118 15.4305 22.6046 15.8665 21.9453 16.3033C21.9586 15.8745 21.9656 15.4402 21.9656 15C21.9656 14.562 21.958 14.127 21.9436 13.6956C22.6036 14.1328 23.2114 14.5693 23.7672 15ZM15.7748 19.6245C15.099 19.3315 14.4315 19.0212 13.773 18.6938C13.0056 18.3129 12.2509 17.9089 11.5101 17.4823C11.4558 16.6559 11.4289 15.8281 11.4293 15.0001C11.4293 14.1345 11.4579 13.3047 11.5104 12.5119C12.2521 12.0888 13.0066 11.6868 13.773 11.3064C14.4305 10.9799 15.0965 10.6695 15.7705 10.3755C16.4468 10.6685 17.1147 10.9789 17.7735 11.3064C18.541 11.6873 19.2957 12.0913 20.0365 12.518C20.0907 13.3443 20.1177 14.1721 20.1172 15.0001C20.1172 15.8509 20.0912 16.6787 20.0403 17.48C19.2983 17.9075 18.5423 18.3122 17.7735 18.6937C17.1159 19.0208 16.4495 19.3312 15.7748 19.6245ZM11.7236 10.3515C11.7851 9.88678 11.858 9.42355 11.9421 8.96214C12.4564 9.11771 12.9665 9.28586 13.4718 9.46642C13.2879 9.55458 13.1046 9.64399 12.922 9.73462C12.5194 9.93463 12.1199 10.1403 11.7236 10.3515ZM18.6247 9.73456C18.4348 9.6403 18.2442 9.54744 18.0528 9.45597C18.5634 9.26713 19.0784 9.08931 19.5974 8.92265C19.6847 9.39794 19.76 9.87517 19.8233 10.3539C19.4272 10.1414 19.0276 9.9349 18.6247 9.73456ZM15.7733 1.77066C16.9036 1.77066 18.3119 3.72529 19.2129 7.18168C18.0988 7.53162 16.9356 7.95634 15.7647 8.44162C14.5965 7.96508 13.4411 7.55688 12.3222 7.22559C13.2226 3.74176 14.6382 1.77066 15.7733 1.77066ZM3.51364 8.90849C3.82579 8.33196 4.83512 7.99429 6.37417 7.99429C7.41185 7.99429 8.69051 8.14828 10.1578 8.48595C9.97834 9.43744 9.83915 10.438 9.74248 11.4728C8.49678 12.2223 7.35196 13.0014 6.33621 13.7917C3.98901 11.6546 3.03279 9.79647 3.51364 8.90849ZM7.74846 14.9761C8.3258 14.5373 8.94584 14.102 9.60353 13.6737C9.58847 14.1157 9.58089 14.5578 9.5808 15C9.5808 15.438 9.58844 15.873 9.60285 16.3044C8.93068 15.8592 8.31261 15.4147 7.74846 14.9761ZM11.9433 21.0449C11.8586 20.5804 11.7852 20.114 11.7233 19.6462C12.1193 19.8587 12.5189 20.0652 12.9219 20.2656C13.1064 20.3571 13.2916 20.4474 13.4775 20.5364C12.9707 20.7184 12.4592 20.888 11.9433 21.0449ZM18.6247 20.2656C19.0312 20.0635 19.4343 19.8551 19.8338 19.6406C19.7731 20.1092 19.7006 20.5764 19.6163 21.0416C19.098 20.885 18.5839 20.7157 18.0746 20.5338C18.2586 20.4455 18.442 20.3561 18.6247 20.2656ZM28.0329 21.0917C27.511 22.0555 25.039 22.3521 21.4045 21.5181C21.5837 20.566 21.7208 19.5592 21.8147 18.5066C23.0371 17.76 24.1682 16.9767 25.1771 16.178C27.5487 18.3279 28.516 20.1995 28.0329 21.0917Z" fill="#FB5F68"/>
<path d="M5.38457 21.4996C5.38457 20.0776 4.17677 18.9207 2.69225 18.9207C1.20774 18.9207 0 20.0776 0 21.4996C0 22.9216 1.20774 24.0785 2.69225 24.0785C4.17677 24.0785 5.38457 22.9217 5.38457 21.4996ZM21.4683 26.5026C21.4683 25.7573 21.1362 25.0852 20.6068 24.6139C20.1534 24.2104 19.5554 23.9544 18.8963 23.9265C18.8563 23.9247 18.8162 23.9237 18.7761 23.9236C17.2916 23.9236 16.0838 25.0805 16.0838 26.5025C16.0838 27.9245 17.2916 29.0814 18.7761 29.0814C20.2605 29.0814 21.4683 27.9246 21.4683 26.5026Z" fill="#FB5F68"/>
</svg>
