<svg xmlns="http://www.w3.org/2000/svg" width="35" height="35" fill="none" viewBox="0 0 35 35"><path fill="#FB5F65" d="M18.1439 12.4414C15.1689 12.4414 12.748 14.7106 12.748 17.5C12.748 20.2894 15.1689 22.5586 18.1439 22.5586C21.1193 22.5586 23.5397 20.2894 23.5397 17.5C23.5397 14.7106 21.1193 12.4414 18.1439 12.4414ZM18.1439 21.1914C15.9729 21.1914 14.2064 19.5355 14.2064 17.5C14.2064 15.4645 15.9729 13.8086 18.1439 13.8086C20.3151 13.8086 22.0814 15.4645 22.0814 17.5C22.0814 19.5355 20.3151 21.1914 18.1439 21.1914Z"/><path fill="#FB5F65" d="M32.1814 17.5C32.371 17.2681 32.5549 17.0321 32.7331 16.7923C35.0425 13.6754 35.6101 10.8152 34.3312 8.73879C33.0524 6.6621 30.1263 5.69276 26.0925 6.0092C25.7877 6.03326 25.4787 6.06505 25.1665 6.10319C24.8581 5.40921 24.5186 4.75897 24.1508 4.15769C24.4773 3.76407 24.6721 3.27031 24.6721 2.73438C24.6721 1.45291 23.5598 0.410156 22.1929 0.410156C21.7366 0.409693 21.2891 0.528021 20.9004 0.751953C20.0336 0.252588 19.1085 0 18.1443 0C15.5863 0 13.2281 1.88686 11.5041 5.31255C11.374 5.57216 11.25 5.83445 11.1324 6.09923C8.73412 5.80494 6.58789 5.93394 4.90198 6.5275C4.52486 6.66025 4.33425 7.05435 4.47586 7.40763C4.61739 7.76118 5.03783 7.94015 5.41466 7.80739C6.79607 7.32088 8.58224 7.20392 10.5991 7.42021C10.0107 9.03144 9.57201 10.8173 9.29689 12.7103C7.68077 13.8828 6.24897 15.1323 5.05715 16.4099C3.85118 14.8821 3.06703 13.3749 2.82583 12.0117C2.75976 11.6393 2.38468 11.3869 1.98699 11.4491C1.58996 11.5108 1.32104 11.863 1.38711 12.2352C1.68169 13.8994 2.63442 15.7045 4.10303 17.5032C3.61763 18.0986 3.18552 18.6974 2.81474 19.2944C2.28828 19.2266 1.7355 19.3153 1.24076 19.5831C0.667053 19.8934 0.256897 20.3945 0.0854695 20.9943C-0.085739 21.5938 0.0019798 22.2203 0.333241 22.7578C0.565116 23.1343 0.896887 23.4355 1.29457 23.6374C1.26235 24.6115 1.48423 25.493 1.95739 26.2612C3.07761 28.08 5.46104 29.0492 8.74601 29.0492C9.21173 29.0492 9.69568 29.0298 10.1963 28.9905C10.5037 28.9665 10.8154 28.9344 11.1301 28.8957C11.2503 29.1657 11.3747 29.4303 11.5041 29.6872C13.2281 33.1131 15.5863 35 18.1443 35C20.7024 35 23.0608 33.1131 24.7848 29.6875C24.9139 29.4311 25.0378 29.1676 25.1574 28.8984C25.9538 28.9953 26.7252 29.0458 27.4654 29.0484C27.6716 29.5246 28.0379 29.9214 28.5204 30.1825C28.8959 30.3862 29.322 30.4934 29.7557 30.4933C30.6134 30.4933 31.4485 30.0766 31.9071 29.3318C32.1356 28.9616 32.2501 28.5392 32.2377 28.1117C33.1541 27.6505 33.8579 27.0297 34.3312 26.2612C35.6102 24.1848 35.0425 21.3246 32.7331 18.2077C32.5549 17.9679 32.371 17.7319 32.1814 17.5ZM26.2142 7.37187C29.6039 7.10596 32.1022 7.85333 33.0683 9.42238C34.0348 10.9912 33.4759 13.3934 31.5353 16.0124C31.4356 16.1468 31.3337 16.2798 31.2297 16.4113C30.0343 15.1288 28.6039 13.8806 26.9937 12.7117C26.7188 10.812 26.2805 9.02583 25.696 7.42021C25.8698 7.40175 26.0429 7.3852 26.2142 7.37187ZM22.0089 23.7754C20.7297 24.4679 19.4332 25.0775 18.1437 25.5974C16.8577 25.0783 15.5615 24.4692 14.2797 23.7755C12.9994 23.0823 11.7874 22.3305 10.6641 21.542C10.5 20.2376 10.4151 18.8824 10.4151 17.5C10.4151 16.1149 10.5003 14.7574 10.665 13.4511C11.788 12.666 12.9989 11.918 14.2797 11.2246C15.5566 10.5335 16.8506 9.92469 18.1378 9.40557C19.428 9.92332 20.7286 10.5316 22.0089 11.2246C23.2852 11.9154 24.4941 12.6612 25.6165 13.4459C25.785 14.7598 25.8735 16.1211 25.8735 17.5C25.8735 18.8851 25.7886 20.2424 25.624 21.5487C24.4992 22.3356 23.2881 23.083 22.0089 23.7755V23.7754ZM25.3252 23.4296C25.0529 24.8366 24.6826 26.1635 24.2215 27.3777C22.8765 27.1448 21.4671 26.7812 20.0288 26.2962C20.9503 25.884 21.8542 25.438 22.7384 24.9592C23.6216 24.4812 24.4846 23.971 25.3252 23.4296ZM16.2573 26.2954C14.8249 26.7773 13.4165 27.1403 12.0663 27.3742C11.6057 26.1608 11.2357 24.8353 10.964 23.4299C11.8045 23.9713 12.6675 24.4814 13.5509 24.9592C14.434 25.4377 15.3368 25.8834 16.2573 26.2954ZM20.031 8.70488C21.4629 8.22315 22.8705 7.86023 24.2203 7.62638C24.6732 8.83169 25.0415 10.1581 25.3147 11.5637C24.4774 11.0247 23.618 10.5167 22.7384 10.0408C21.8549 9.56239 20.9518 9.11673 20.031 8.70488H20.031ZM27.2125 14.6342C28.3749 15.5571 29.4151 16.5197 30.3069 17.5C29.4151 18.4803 28.3746 19.4432 27.2122 20.366C27.2921 19.4125 27.3319 18.4564 27.3318 17.5C27.3318 16.5288 27.2911 15.5712 27.2125 14.6342ZM23.2138 2.73438C23.2138 3.26204 22.7559 3.69141 22.1929 3.69141C21.63 3.69141 21.1721 3.26204 21.1721 2.73438C21.1721 2.20671 21.6302 1.77734 22.1929 1.77734C22.7557 1.77734 23.2138 2.20671 23.2138 2.73438ZM12.8231 5.896C14.2713 3.01793 16.2109 1.36719 18.1443 1.36719C18.7559 1.36719 19.3517 1.51348 19.9225 1.80195C19.7846 2.0958 19.7135 2.41335 19.7137 2.73438C19.7137 4.01584 20.8257 5.05859 22.1929 5.05859C22.4576 5.05859 22.7124 5.01908 22.9517 4.94669C23.2095 5.37927 23.453 5.84206 23.6803 6.33179C21.8979 6.66128 20.0299 7.19858 18.1452 7.92142C16.2453 7.19243 14.3771 6.65649 12.6137 6.32864C12.6814 6.18352 12.7511 6.03929 12.8231 5.896H12.8231ZM12.0653 7.62877C13.3988 7.8629 14.8076 8.22609 16.248 8.70939C15.3307 9.12006 14.4309 9.56421 13.5506 10.0408C12.6673 10.5187 11.8044 11.029 10.9638 11.5704C11.2355 10.1661 11.6052 8.84133 12.0653 7.62877ZM9.07712 14.6321C8.99685 15.5862 8.95671 16.5429 8.95681 17.5C8.95681 18.4664 8.99735 19.4205 9.07596 20.3556C7.90725 19.4261 6.86592 18.4621 5.98181 17.4952C6.86964 16.5195 7.91009 15.5571 9.07712 14.6321ZM1.49415 21.3482C1.52849 21.2266 1.58823 21.1127 1.66988 21.0129C1.75154 20.9132 1.8535 20.8296 1.96986 20.7671C2.45716 20.5032 3.08293 20.6603 3.36439 21.1174C3.64577 21.5744 3.47828 22.161 2.99069 22.4248C2.87472 22.488 2.74653 22.529 2.61354 22.5454C2.48055 22.5618 2.34541 22.5533 2.21595 22.5204C2.08635 22.4881 1.96485 22.4321 1.85847 22.3556C1.75209 22.279 1.66293 22.1835 1.59616 22.0745C1.52887 21.9657 1.48521 21.8455 1.4677 21.7209C1.4502 21.5962 1.45918 21.4695 1.49415 21.3482ZM10.0747 27.6281C6.68465 27.8944 4.18667 27.1467 3.22052 25.5776C2.92142 25.0922 2.76479 24.5314 2.75109 23.9062C3.09258 23.8713 3.42254 23.7699 3.71986 23.6085C4.90359 22.968 5.31061 21.5436 4.62731 20.4336C4.49839 20.2244 4.3354 20.0354 4.14423 19.8734C4.41475 19.4461 4.71904 19.0178 5.05423 18.5903C6.23971 19.8597 7.671 21.1105 9.29653 22.2899C9.57194 24.1827 10.0106 25.9683 10.5985 27.5792C10.423 27.598 10.2479 27.6148 10.0747 27.6281ZM23.466 29.104C22.0177 31.9821 20.078 33.6328 18.1446 33.6328C16.2112 33.6328 14.2715 31.9821 12.8231 29.104C12.751 28.9609 12.681 28.8148 12.6121 28.6674C14.3931 28.3379 16.2599 27.8011 18.1432 27.0789C20.0333 27.8044 21.9013 28.3411 23.6761 28.6696C23.6081 28.8152 23.5381 28.9601 23.4661 29.104H23.466ZM30.6441 28.6482C30.3626 29.1054 29.7368 29.2623 29.2495 28.9985C29.1332 28.936 29.0313 28.8524 28.9497 28.7527C28.8681 28.6529 28.8084 28.539 28.7741 28.4175C28.739 28.2961 28.73 28.1695 28.7475 28.0449C28.765 27.9202 28.8087 27.8001 28.8761 27.6914C28.9428 27.5823 29.0319 27.4867 29.1383 27.4102C29.2447 27.3336 29.3663 27.2777 29.4959 27.2455C29.6253 27.2126 29.7604 27.2041 29.8933 27.2205C30.0263 27.2369 30.1544 27.2779 30.2703 27.3411C30.758 27.6046 30.9255 28.1913 30.6441 28.6482ZM33.0683 25.5779C32.7691 26.0636 32.3294 26.4716 31.7583 26.7953C31.5557 26.5352 31.2972 26.3178 30.9995 26.1571C30.4261 25.8465 29.7579 25.764 29.1182 25.9247C28.4787 26.0855 27.9441 26.47 27.6128 27.0078C27.4839 27.217 27.3906 27.4438 27.3361 27.6799C26.8037 27.6738 26.254 27.6415 25.6889 27.5827C26.2776 25.9707 26.7165 24.1837 26.9919 22.2897C28.6026 21.1204 30.0337 19.8718 31.2297 18.589C31.3334 18.7206 31.4353 18.8536 31.5353 18.9879C33.4759 21.6066 34.0347 24.0088 33.0683 25.5779Z"/><path fill="#FB5F65" d="M2.58848 9.76367C2.7818 9.76341 2.96715 9.6914 3.104 9.56338C3.24027 9.4349 3.31703 9.26126 3.31765 9.08008C3.31765 8.90036 3.23963 8.72461 3.104 8.59705C2.96703 8.46917 2.78179 8.39709 2.58848 8.39648C2.39671 8.39648 2.20851 8.46963 2.07296 8.59705C1.93675 8.72545 1.85999 8.89899 1.85931 9.08008C1.85931 9.26055 1.93733 9.4363 2.07296 9.56338C2.20981 9.6914 2.39516 9.76341 2.58848 9.76367Z"/></svg>