<svg xmlns="http://www.w3.org/2000/svg" width="30" height="30" fill="none" viewBox="0 0 30 30"><path fill="#FB5F68" d="M28.9286 20.655V9.345C29.5661 8.97321 30 8.28964 30 7.5C30 6.31821 29.0389 5.35714 27.8571 5.35714C27.3696 5.35714 26.925 5.52643 26.5661 5.80179L17.115 1.86321C16.9757 0.815357 16.0864 0 15 0C13.9136 0 13.0243 0.814286 12.885 1.86429L3.435 5.80179C3.06512 5.51511 2.61082 5.35878 2.14286 5.35714C0.961071 5.35714 0 6.31821 0 7.5C0 8.28964 0.433929 8.97321 1.07143 9.345V20.655C0.433929 21.0268 0 21.7104 0 22.5C0 23.6818 0.961071 24.6429 2.14286 24.6429C2.63036 24.6429 3.075 24.4736 3.43393 24.1982L12.885 28.1368C13.0243 29.1846 13.9136 30 15 30C16.0864 30 16.9757 29.1857 17.115 28.1357L26.565 24.1982C26.9261 24.4736 27.3696 24.6429 27.8571 24.6429C29.0389 24.6429 30 23.6818 30 22.5C30 21.7104 29.5661 21.0268 28.9286 20.655ZM25.7421 22.2193L16.2921 26.1589C15.93 25.8836 15.4864 25.7143 15 25.7143C14.5136 25.7143 14.0679 25.8836 13.7089 26.1589L4.25786 22.2204C4.21499 21.8972 4.09864 21.5882 3.91774 21.317C3.73683 21.0459 3.49619 20.8197 3.21429 20.6561V9.34393C3.77464 9.01714 4.16786 8.44821 4.25786 7.77964L13.7079 3.84C14.0689 4.11536 14.5125 4.28464 15 4.28464C15.4875 4.28464 15.9321 4.11536 16.2911 3.84L25.7421 7.77857C25.8311 8.44821 26.2254 9.01714 26.7857 9.34286V20.6539C26.2254 20.9807 25.8321 21.5496 25.7421 22.2182V22.2193Z"/><path fill="#FB5F68" d="M15.5367 14.2766V23.5713L22.9231 20.2702C23.1158 20.1876 23.28 20.0503 23.3954 19.8753C23.5108 19.7002 23.5724 19.4952 23.5724 19.2855V10.7141L23.5713 10.7055L15.5367 14.2766ZM15.4231 6.51519C15.2898 6.45758 15.1462 6.42786 15.001 6.42786C14.8558 6.42786 14.7121 6.45758 14.5788 6.51519C14.5788 6.51519 7.02311 9.7659 6.99311 9.78305L15.001 13.3423L23.0088 9.78305C22.9788 9.7659 15.4231 6.51519 15.4231 6.51519ZM6.42953 10.7141V19.2855C6.42956 19.4952 6.49109 19.7002 6.6065 19.8753C6.72191 20.0503 6.88613 20.1876 7.07882 20.2702L14.4652 23.5713V14.2766L6.43061 10.7055L6.42953 10.7141Z"/></svg>