<svg xmlns="http://www.w3.org/2000/svg" xmlns:xlink="http://www.w3.org/1999/xlink" id="elB3AVSemgq1" width="500" height="420" shape-rendering="geometricPrecision" text-rendering="geometricPrecision" viewBox="0 0 500 420"><style>@keyframes elB3AVSemgq3_to__to{0%,54.857143%{transform:translate(234.493569px,82.30617px)}23.714286%{transform:translate(234.493569px,82.30617px);animation-timing-function:cubic-bezier(.42,0,.58,1)}39.142857%{transform:translate(234.493569px,76.30617px);animation-timing-function:cubic-bezier(.42,0,.58,1)}}@keyframes elB3AVSemgq4_ts__ts{0%{transform:translate(203.922538px,66.183442px) scale(0,0);animation-timing-function:cubic-bezier(.42,0,.58,1)}13.428571%{transform:translate(203.922538px,66.183442px) scale(1.1,1.1);animation-timing-function:cubic-bezier(.42,0,.58,1)}19.142857%{transform:translate(203.922538px,66.183442px) scale(1,1)}}@keyframes elB3AVSemgq9_tr__tr{0%,68.285714%{transform:translate(252.124174px,63.2251px) rotate(0deg)}33.428571%{transform:translate(252.124174px,63.2251px) rotate(0deg);animation-timing-function:cubic-bezier(.42,0,.58,1)}42.285714%{transform:translate(252.124174px,63.2251px) rotate(7deg);animation-timing-function:cubic-bezier(.42,0,.58,1)}58%{transform:translate(252.124174px,63.2251px) rotate(-7deg);animation-timing-function:cubic-bezier(.42,0,.58,1)}}@keyframes elB3AVSemgq13_tr__tr{0%,67.142857%{transform:translate(251.597018px,156.376003px) rotate(0deg)}32%{transform:translate(251.597018px,156.376003px) rotate(0deg);animation-timing-function:cubic-bezier(.42,0,.58,1)}41.428571%{transform:translate(251.597018px,156.376003px) rotate(4.467877deg);animation-timing-function:cubic-bezier(.42,0,.58,1)}57.142857%{transform:translate(251.597018px,156.376003px) rotate(-4.47deg);animation-timing-function:cubic-bezier(.42,0,.58,1)}}@keyframes elB3AVSemgq20_ts__ts{0%,32%{transform:translate(223.442001px,111.059345px) scale(1,1);animation-timing-function:cubic-bezier(.42,0,.58,1)}37.142857%,5.142857%{transform:translate(223.442001px,111.059345px) scale(1,0);animation-timing-function:cubic-bezier(.42,0,.58,1)}10.285714%,42.285714%{transform:translate(223.442001px,111.059345px) scale(1,1)}}@keyframes elB3AVSemgq21_ts__ts{0%,32%{transform:translate(275.328888px,110.237999px) scale(1,1);animation-timing-function:cubic-bezier(.42,0,.58,1)}37.142857%,5.142857%{transform:translate(275.328888px,110.237999px) scale(1,0);animation-timing-function:cubic-bezier(.42,0,.58,1)}10.285714%,42.285714%{transform:translate(275.328888px,110.237999px) scale(1,1)}}@keyframes elB3AVSemgq31_to__to{0%,51.428571%{transform:translate(235.458489px,205.195168px)}21.142857%{transform:translate(235.458489px,205.195168px);animation-timing-function:cubic-bezier(.42,0,.58,1)}36.285714%{transform:translate(235.387039px,197.944626px);animation-timing-function:cubic-bezier(.42,0,.58,1)}}@keyframes elB3AVSemgq32_tr__tr{0%,78.857143%{transform:translate(198.091949px,190.275688px) rotate(-12.188729deg)}18%,48.857143%{transform:translate(198.091949px,190.275688px) rotate(-12.188729deg);animation-timing-function:cubic-bezier(.42,0,.58,1)}34%,64.571429%{transform:translate(198.091949px,190.275688px) rotate(13.452416deg);animation-timing-function:cubic-bezier(.42,0,.58,1)}}@keyframes elB3AVSemgq43_tr__tr{0%,74.571429%{transform:translate(310.951186px,192.539748px) rotate(-2deg)}29.142857%{transform:translate(310.951186px,192.539748px) rotate(-2deg);animation-timing-function:cubic-bezier(.42,0,.58,1)}40.857143%,62.857143%{transform:translate(310.951186px,192.539748px) rotate(6deg);animation-timing-function:cubic-bezier(.42,0,.58,1)}50.857143%{transform:translate(310.951186px,192.539748px) rotate(-4deg);animation-timing-function:cubic-bezier(.42,0,.58,1)}}@keyframes elB3AVSemgq173_ts__ts{0%{transform:translate(170.6405px,337.401px) scale(0,0)}3.428571%{transform:translate(170.6405px,337.401px) scale(0,0);animation-timing-function:cubic-bezier(.42,0,.58,1)}19.428571%,50.857143%{transform:translate(170.6405px,337.401px) scale(1.2,1.2);animation-timing-function:cubic-bezier(.42,0,.58,1)}26.857143%,60%{transform:translate(170.6405px,337.401px) scale(1,1)}42%{transform:translate(170.6405px,337.401px) scale(1,1);animation-timing-function:cubic-bezier(.42,0,.58,1)}}@keyframes elB3AVSemgq174_ts__ts{0%{transform:translate(222.728px,314.191px) scale(0,0);animation-timing-function:cubic-bezier(.42,0,.58,1)}16%,50.857143%{transform:translate(222.728px,314.191px) scale(1.2,1.2);animation-timing-function:cubic-bezier(.42,0,.58,1)}23.428571%,60%{transform:translate(222.728px,314.191px) scale(1,1)}42%{transform:translate(222.728px,314.191px) scale(1,1);animation-timing-function:cubic-bezier(.42,0,.58,1)}}@keyframes elB3AVSemgq175_ts__ts{0%{transform:translate(214.228px,349.536px) scale(0,0)}2.285714%{transform:translate(214.228px,349.536px) scale(0,0);animation-timing-function:cubic-bezier(.42,0,.58,1)}18.285714%,50.857143%{transform:translate(214.228px,349.536px) scale(1.2,1.2);animation-timing-function:cubic-bezier(.42,0,.58,1)}25.714286%,60%{transform:translate(214.228px,349.536px) scale(1,1)}42%{transform:translate(214.228px,349.536px) scale(1,1);animation-timing-function:cubic-bezier(.42,0,.58,1)}}@keyframes elB3AVSemgq176_ts__ts{0%{transform:translate(314.896px,346.297px) scale(0,0);animation-timing-function:cubic-bezier(.42,0,.58,1)}16%,50.857143%{transform:translate(314.896px,346.297px) scale(1.2,1.2);animation-timing-function:cubic-bezier(.42,0,.58,1)}23.428571%,60%{transform:translate(314.896px,346.297px) scale(1,1)}42%{transform:translate(314.896px,346.297px) scale(1,1);animation-timing-function:cubic-bezier(.42,0,.58,1)}}@keyframes elB3AVSemgq177_ts__ts{0%{transform:translate(257.41px,362.221px) scale(0,0)}1.714286%{transform:translate(257.41px,362.221px) scale(0,0);animation-timing-function:cubic-bezier(.42,0,.58,1)}17.714286%,50.857143%{transform:translate(257.41px,362.221px) scale(1.2,1.2);animation-timing-function:cubic-bezier(.42,0,.58,1)}25.142857%,60%{transform:translate(257.41px,362.221px) scale(1,1)}42%{transform:translate(257.41px,362.221px) scale(1,1);animation-timing-function:cubic-bezier(.42,0,.58,1)}}@keyframes elB3AVSemgq178_ts__ts{0%{transform:translate(278.4625px,318.768px) scale(0,0);animation-timing-function:cubic-bezier(.42,0,.58,1)}16%,50.857143%{transform:translate(278.4625px,318.768px) scale(1.2,1.2);animation-timing-function:cubic-bezier(.42,0,.58,1)}23.428571%,60%{transform:translate(278.4625px,318.768px) scale(1,1)}42%{transform:translate(278.4625px,318.768px) scale(1,1);animation-timing-function:cubic-bezier(.42,0,.58,1)}}#elB3AVSemgq3_to{animation:elB3AVSemgq3_to__to 3181.8181818181815ms linear infinite normal forwards}#elB3AVSemgq4_ts{animation:elB3AVSemgq4_ts__ts 3181.8181818181815ms linear infinite normal forwards}#elB3AVSemgq9_tr{animation:elB3AVSemgq9_tr__tr 3181.8181818181815ms linear infinite normal forwards}#elB3AVSemgq13_tr{animation:elB3AVSemgq13_tr__tr 3181.8181818181815ms linear infinite normal forwards}#elB3AVSemgq20_ts{animation:elB3AVSemgq20_ts__ts 3181.8181818181815ms linear infinite normal forwards}#elB3AVSemgq21_ts{animation:elB3AVSemgq21_ts__ts 3181.8181818181815ms linear infinite normal forwards}#elB3AVSemgq31_to{animation:elB3AVSemgq31_to__to 3181.8181818181815ms linear infinite normal forwards}#elB3AVSemgq32_tr{animation:elB3AVSemgq32_tr__tr 3181.8181818181815ms linear infinite normal forwards}#elB3AVSemgq43_tr{animation:elB3AVSemgq43_tr__tr 3181.8181818181815ms linear infinite normal forwards}#elB3AVSemgq173_ts{animation:elB3AVSemgq173_ts__ts 3181.8181818181815ms linear infinite normal forwards}#elB3AVSemgq174_ts{animation:elB3AVSemgq174_ts__ts 3181.8181818181815ms linear infinite normal forwards}#elB3AVSemgq175_ts{animation:elB3AVSemgq175_ts__ts 3181.8181818181815ms linear infinite normal forwards}#elB3AVSemgq176_ts{animation:elB3AVSemgq176_ts__ts 3181.8181818181815ms linear infinite normal forwards}#elB3AVSemgq177_ts{animation:elB3AVSemgq177_ts__ts 3181.8181818181815ms linear infinite normal forwards}#elB3AVSemgq178_ts{animation:elB3AVSemgq178_ts__ts 3181.8181818181815ms linear infinite normal forwards}</style><g transform="translate(3.499878 4.477997)"><g id="elB3AVSemgq3_to"><g transform="translate(234.493569,82.30617) translate(-234.493568,-82.30617)"><g id="elB3AVSemgq4_ts"><g><g><path fill="#fb5f66" fill-opacity=".1" d="M204.05,66.3267l-2.95-9.2074c4.195-6.8077,5.692-14.9385,4.197-22.794-1.496-7.8556-5.875-14.8676-12.278-19.6578-6.404-4.79015-14.367-7.01199-22.325-6.22874s-15.335,4.51494-20.682,10.46154c-5.346,5.9466-8.275,13.6779-8.21,21.6742.065,7.9964,3.118,15.6793,8.56,21.5385c5.442,5.8593,12.879,9.4711,20.848,10.1254c7.97.6544,15.896-1.6961,22.221-6.5893l10.619.6776Z" transform="translate(203.922538,66.183442) scale(0,0) translate(-203.922535,-66.183442)"/><path fill="#222" fill-opacity=".8" d="M162.448,46.7333c-.408.1531-.842.2296-1.301.2296s-.861-.1467-1.205-.4401c-.332-.2933-.498-.6951-.498-1.2053s.064-1.4859.192-2.9272c.127-1.4541.191-2.6148.191-3.4821c0-2.2321-.134-3.9986-.402-5.2996.408-.1531.842-.2296,1.301-.2296s.855.1467,1.186.44c.345.2934.517.6569.517,1.0906c0,.4209-.019.829-.057,1.2244-.026.3954-.064.8482-.115,1.3584s-.089.9566-.115,1.3393c.51.051,1.39.0765,2.64.0765s2.213-.051,2.889-.153c0-2.0281-.134-3.7818-.402-5.2614.409-.1531.842-.2296,1.301-.2296.46,0,.855.1467,1.187.4401.344.2933.516.7015.516,1.2244c0,.5102-.064,1.4222-.191,2.7359-.128,1.3138-.191,2.366-.191,3.1568c0,2.5.134,4.5089.401,6.0267-.408.1531-.841.2296-1.301.2296-.459,0-.861-.1467-1.205-.4401-.332-.2933-.497-.6823-.497-1.167s.051-1.2755.153-2.3724.165-1.8495.191-2.2576c-1.25-.0893-3.112-.1339-5.587-.1339v.4974c0,2.2576.134,4.1007.402,5.5292Zm10.073-9.2791c.408-.1148.816-.1722,1.224-.1722.421,0,.778.1275,1.072.3826.293.2551.44.5867.44.9949c0,.3954-.07,1.0905-.211,2.0854-.127.9821-.191,1.7474-.191,2.2959c0,1.4285.134,2.6594.402,3.6925-.396.1531-.823.2296-1.282.2296s-.823-.102-1.091-.3061c-.267-.2169-.401-.523-.401-.9184c0-.4081.076-1.0714.229-1.9897s.23-1.6773.23-2.2768c0-1.5943-.141-2.9336-.421-4.0177Zm.249-4.3239c.446-.2041.886-.3061,1.32-.3061.433,0,.752.1148.956.3444.217.2168.326.542.326.9757s-.147.8163-.44,1.1479c-.281.3317-.651.4975-1.11.4975-.944,0-1.416-.4911-1.416-1.4732c0-.4337.121-.8291.364-1.1862Zm4.857,11.2689c.408-.2169.823-.3253,1.243-.3253.944,0,1.416.4401,1.416,1.3201c0,.472-.159.8738-.478,1.2054-.319.3188-.702.4783-1.148.4783s-.791-.1276-1.033-.3827c-.23-.2551-.344-.5994-.344-1.0331c0-.4464.114-.8673.344-1.2627Zm4.914,0c.408-.2169.822-.3253,1.243-.3253.944,0,1.416.4401,1.416,1.3201c0,.472-.159.8738-.478,1.2054-.319.3188-.702.4783-1.148.4783-.447,0-.791-.1276-1.033-.3827-.23-.2551-.345-.5994-.345-1.0331c0-.4464.115-.8673.345-1.2627Z" transform="translate(203.922538,66.183442) scale(0,0) translate(-203.922535,-66.183442)"/></g><path fill="#fb5f66" fill-opacity=".8" d="M204.049,66.3267h-.669l-2.025-.1037-7.972-.4384c-.012,0-.024-.0025-.035-.0074-.011-.0048-.021-.012-.03-.021-.008-.0091-.014-.0197-.018-.0313s-.006-.0238-.004-.036c-.004-.0157-.004-.0321,0-.0478l.127.1275c-5.539,4.3267-12.351,6.7056-19.379,6.7681-1.775-.0095-3.547-.1507-5.301-.4225-8.151-1.2758-15.493-5.6549-20.488-12.2207-2.782-3.6962-4.742-7.9444-5.748-12.4599-1.093-4.8011-1.049-9.7912.128-14.5724.151-.6058.311-1.2197.47-1.8255.16-.6059.423-1.1958.63-1.7937.202-.6046.436-1.198.702-1.7777.271-.5739.55-1.1479.797-1.7298.274-.5818.588-1.1438.94-1.6821l1.013-1.6581l1.164-1.5944.59-.7971c.199-.2551.43-.4863.645-.7334c3.448-3.9637,7.821-7.0142,12.731-8.8806c4.675-1.78115,9.695-2.47098,14.676-2.01684c4.681.46542,9.202,1.95694,13.241,4.36854c7.178,4.263,12.414,11.154,14.597,19.2119.461,1.7265.791,3.4853.988,5.2614.128,1.6603.157,3.3266.088,4.9903-.306,5.3021-1.933,10.4434-4.735,14.955v-.0717c.94,2.9974,1.658,5.3092,2.152,6.8876.239.7972.415,1.3472.542,1.7538l.176.5899c0,0-.08-.2152-.216-.6138l-.582-1.7618c-.51-1.5943-1.267-3.8424-2.24-6.7999-.008-.0232-.008-.0486,0-.0717c2.749-4.5016,4.336-9.6162,4.616-14.8833.061-1.6483.024-3.2987-.112-4.9425-.199-1.7607-.532-3.5036-.996-5.2136-1.71-6.2031-5.256-11.7438-10.174-15.894-4.917-4.1503-10.974-6.71583-17.377-7.35958-4.919-.45018-9.875.22873-14.492,1.98498-4.836,1.8504-9.142,4.8618-12.54,8.7689-.207.2471-.438.4704-.638.7255l-.581.7971-1.148,1.5386-.989,1.6422c-.351.5363-.665,1.0956-.941,1.674-.271.566-.542,1.14-.797,1.706-.26.5718-.489,1.1572-.685,1.7538-.208.5899-.455,1.1718-.63,1.7697s-.311,1.2037-.462,1.8016c-1.156,4.7077-1.205,9.6193-.144,14.3492c1.381,6.2113,4.597,11.8644,9.229,16.2267c4.632,4.3622,10.468,7.2325,16.751,8.2386c1.738.273,3.494.4196,5.253.4385c1.643-.007,3.282-.1429,4.903-.4066c5.223-.8509,10.154-2.9847,14.349-6.21.008-.0087.018-.0156.029-.0203s.023-.0072.035-.0072.024.0025.035.0072.021.0116.029.0203c.011.0163.018.0358.018.0558s-.007.0396-.018.0558l-.064-.1435l7.876.5421l2.041.1435.669.0957Z" transform="translate(203.922538,66.183442) scale(0,0) translate(-203.922535,-66.183442)"/></g></g><g id="elB3AVSemgq9_tr"><g><path fill="#222" fill-opacity=".8" d="M249.998,63.417h4.281v-21.6433h-4.281v21.6433Z" transform="translate(252.124174,63.2251) rotate(0) translate(-252.124173,-63.2251)"/><path fill="#fb5f66" fill-opacity=".8" d="M257.132,46.3236c2.755-2.7551,2.755-7.2221,0-9.9773-2.755-2.7551-7.222-2.7551-9.977,0-2.755,2.7552-2.755,7.2222,0,9.9773c2.755,2.7552,7.222,2.7552,9.977,0Z" transform="translate(252.124174,63.2251) rotate(0) translate(-252.124173,-63.2251)"/><path fill="#fff" d="M252.596,36.4165c-.622-.0684-1.249-.0818-1.873-.0398-.743.0652-1.462.2999-2.101.686-.639.3862-1.18.9135-1.584,1.5415-.403.628-.657,1.3401-.742,2.0816-.086.7414,0,1.4926.25,2.1958.215.5833.482,1.1462.797,1.6821c0,0-.159-.0957-.383-.3508-.306-.369-.548-.7866-.717-1.2356-.304-.7444-.425-1.5511-.351-2.3519.074-.8007.339-1.572.774-2.2484.435-.6765,1.026-1.2382,1.724-1.6377s1.482-.6251,2.285-.6576c.477-.0331.957.0127,1.419.1355.359.0558.502.1754.502.1993Z" transform="translate(252.124174,63.2251) rotate(0) translate(-252.124173,-63.2251)"/></g></g><g id="elB3AVSemgq13_tr"><g><g transform="translate(251.597018,156.376003) rotate(0) translate(-251.597015,-156.376002) translate(.00001 0.000002)"><path fill="#222" fill-opacity=".8" d="M227.342,156.376h49.584c3.236,0,5.859-2.623,5.859-5.859v-.853c0-3.236-2.623-5.859-5.859-5.859h-49.584c-3.236,0-5.86,2.623-5.86,5.859v.853c0,3.236,2.624,5.859,5.86,5.859Z"/><path fill="#fb5f66" fill-opacity=".8" d="M317.595,127.85c6.759-1.606,10.936-8.388,9.33-15.147-1.607-6.759-8.388-10.936-15.147-9.33-6.76,1.607-10.937,8.389-9.33,15.148c1.606,6.759,8.388,10.936,15.147,9.329Z"/><path fill="#fb5f66" fill-opacity=".8" d="M190.486,127.033c6.775-1.537,11.021-8.275,9.485-15.05-1.537-6.776-8.276-11.022-15.051-9.485-6.775,1.536-11.022,8.275-9.485,15.05s8.275,11.022,15.051,9.485Z"/><path fill="#fb5f66" fill-opacity=".8" d="M249.647,58.7217c0,0-51.146-.6138-59.23,43.7173-8.083,44.331,35.156,45.128,47.6,45.965c5.636.383,17.705.423,28.355.231c23.581-.406,40.242-4.966,45.91-26.841.675-2.565,1.099-5.189,1.267-7.836c1.491-24.0109-14.716-56.4161-63.902-55.2363Z"/><path fill="#222" fill-opacity=".8" d="M286.748,126.195l-74.305,1.156c-1.854.032-3.696-.301-5.421-.981s-3.299-1.694-4.632-2.983-2.398-2.828-3.135-4.53c-.738-1.701-1.132-3.531-1.161-5.385-.032-1.855.302-3.697.983-5.422s1.696-3.299,2.986-4.632c1.289-1.332,2.829-2.398,4.531-3.135s3.532-1.1313,5.387-1.1604l74.304-1.1559c1.855-.0338,3.697.2987,5.423.9784c1.725.6798,3.3,1.6929,4.633,2.9829c1.333,1.289,2.398,2.829,3.135,4.531s1.131,3.532,1.159,5.387c.032,1.854-.301,3.697-.982,5.423-.68,1.725-1.695,3.299-2.985,4.632s-2.83,2.399-4.532,3.135c-1.703.737-3.533,1.131-5.388,1.159Z"/><g id="elB3AVSemgq20_ts"><path fill="#fff" d="M227.885,111.933c-.173.879-.602,1.686-1.234,2.321-.632.634-1.438,1.067-2.316,1.244-.877.177-1.788.089-2.616-.251-.828-.341-1.537-.92-2.036-1.663s-.767-1.618-.769-2.514c-.002-.895.261-1.771.757-2.517.495-.746,1.201-1.328,2.027-1.673.827-.344,1.737-.436,2.616-.264.583.114,1.139.343,1.634.672s.921.753,1.253,1.247c.331.493.563,1.048.68,1.631s.119,1.183.004,1.767Z" transform="translate(223.442001,111.059345) scale(1,1) translate(-223.442001,-111.059345)"/></g><g id="elB3AVSemgq21_ts"><path fill="#fff" d="M279.773,111.104c-.171.879-.6,1.688-1.231,2.324s-1.436,1.07-2.314,1.248-1.789.091-2.618-.249-1.538-.918-2.038-1.662c-.5-.743-.769-1.618-.771-2.514-.003-.896.26-1.772.756-2.518.496-.747,1.202-1.329,2.028-1.674.827-.345,1.738-.437,2.617-.264c1.177.231,2.214.92,2.884,1.916.669.995.917,2.216.687,3.393Z" transform="translate(275.328888,110.237999) scale(1,1) translate(-275.328888,-110.237999)"/></g><path fill="#222" fill-opacity=".8" d="M308.974,130.5c-.08,0,.837-1.435,1.722-3.946c1.1-3.289,1.796-6.7,2.072-10.156.319-3.445.399-6.908.239-10.364-.055-1.331-.119-2.391-.183-3.188-.054-.386-.067-.776-.04-1.164.102.375.169.76.199,1.148.112.741.224,1.817.319,3.188.25,3.484.21,6.982-.119,10.459-.281,3.49-1.023,6.926-2.208,10.22-.376.994-.829,1.956-1.356,2.878-.188.326-.404.635-.645.925Z"/><path fill="#222" fill-opacity=".8" d="M190.513,100.956c-.045.387-.128.769-.247,1.14-.104.359-.215.797-.319,1.323-.103.526-.263,1.1-.358,1.762-.28,1.537-.466,3.089-.559,4.648-.107,1.907-.08,3.82.08,5.723.178,1.901.487,3.787.925,5.644.366,1.52.824,3.016,1.371,4.48.215.63.462,1.18.662,1.675.199.494.39.908.55,1.243.182.344.331.705.446,1.076-.227-.316-.424-.652-.59-1.004-.225-.399-.43-.808-.614-1.228-.223-.478-.494-1.028-.725-1.658-.592-1.46-1.082-2.96-1.467-4.488-.466-1.876-.791-3.784-.972-5.708-.163-1.922-.179-3.854-.048-5.779.111-1.573.329-3.137.654-4.68.119-.661.287-1.243.422-1.761.136-.519.263-.957.383-1.316.105-.374.241-.74.406-1.092Z"/><path fill="#fff" d="M243.166,62.0378c-.061.0057-.122.0057-.183,0l-.534.0557c-.478.0479-1.18.0638-2.081.1675-2.541.2466-5.064.6648-7.549,1.2515-12.855,2.944-24.193,10.4784-31.887,21.189-3.717,5.1469-6.531,10.8888-8.323,16.9795-.279.861-.43,1.547-.566,2.001l-.151.526c-.014.061-.036.12-.064.176-.01-.061-.01-.123,0-.184c0-.143.064-.318.112-.534.111-.462.231-1.156.486-2.033.665-2.4761,1.518-4.8986,2.551-7.2458c3.408-7.8005,8.595-14.6942,15.146-20.1287c6.58-5.3936,14.331-9.1721,22.632-11.033c2.5-.568,5.04-.9438,7.597-1.124.909-.0797,1.595-.0717,2.089-.0956h.542c.128.0159.183.0239.183.0319Z"/><path fill="#fff" d="M193.128,123.404c-.32-.493-.567-1.03-.734-1.594-.945-2.664-1.386-5.481-1.299-8.307-.023-.586.047-1.173.207-1.737.128,0-.048,2.662.462,5.883.511,3.22,1.483,5.708,1.364,5.755Z"/><path fill="#fff" d="M179.71,119.283c0,0-.183-.128-.43-.431-.352-.429-.655-.897-.901-1.395-.851-1.647-1.177-3.517-.933-5.355.244-1.839,1.045-3.559,2.296-4.928.367-.42.782-.794,1.236-1.116.156-.132.334-.234.526-.303.048.064-.67.55-1.538,1.594-1.141,1.366-1.871,3.027-2.105,4.791s.037,3.558.781,5.174c.558,1.267,1.124,1.921,1.068,1.969Z"/><path fill="#fff" d="M322.078,109.613c-.088.096-1.323-1.092-3.189-1.984-1.865-.893-3.563-1.156-3.547-1.284c1.299-.032,2.584.281,3.723.909c1.198.501,2.239,1.316,3.013,2.359Z"/><path fill="#fff" d="M274.473,95.3918c0,.1116-9.789.2073-21.858.2073-12.07,0-21.867-.0957-21.867-.2073s9.789-.2072,21.867-.2072c12.077,0,21.858.0797,21.858.2072Z"/><path fill="#fff" d="M237.164,145.239c-.12.034-.243.053-.367.056l-1.068.096c-.463.039-1.029.071-1.69.087-.662.016-1.411.048-2.24,0-1.666,0-3.643-.119-5.836-.351-2.372-.276-4.727-.683-7.055-1.219-2.322-.557-4.61-1.244-6.855-2.057-1.83-.67-3.623-1.433-5.373-2.288-.798-.351-1.411-.717-1.993-1.028s-1.077-.59-1.475-.797l-.917-.558c-.109-.061-.21-.133-.303-.216c0,0,.128,0,.343.144l.957.486c.406.223.908.486,1.498.797s1.26.63,2.017.965c1.499.701,3.324,1.451,5.381,2.192c4.47,1.603,9.107,2.694,13.823,3.253c2.168.255,4.137.398,5.788.438.797.048,1.594,0,2.24,0c.645,0,1.219,0,1.682,0h1.068c.124-.021.251-.021.375,0Z"/></g><path fill="#fff" d="M240.87,109.844c.334.04.167,1.595,1.156,3.723.56,1.222,1.375,2.309,2.391,3.189c1.191,1.048,2.673,1.707,4.249,1.889c1.584.102,3.162-.275,4.528-1.084c1.156-.672,2.156-1.583,2.934-2.671c1.355-1.889,1.474-3.475,1.809-3.451.136,0,.271.398.271,1.148-.03,1.067-.303,2.114-.797,3.061-.743,1.431-1.841,2.647-3.189,3.531-1.666,1.175-3.696,1.718-5.726,1.532-2.03-.185-3.928-1.087-5.354-2.544-1.164-1.113-2.021-2.508-2.488-4.05-.332-1.028-.419-2.12-.255-3.188.136-.742.343-1.109.471-1.085Z" transform="translate(251.597018,156.376003) rotate(0) translate(-251.597015,-156.376002)"/></g></g></g></g><g id="elB3AVSemgq31_to"><g transform="translate(235.458489,205.195168) translate(-237.458489,-205.195167)"><g id="elB3AVSemgq32_tr"><g><g><path fill="#fb5f66" fill-opacity=".8" d="M192.107,183.751l-33.577-3.476-14.221-32.277-11.049,2.877c0,0,8.163,34.112,17.298,39.397c9.136,5.285,40.346,6.234,40.346,6.234l1.203-12.755Z" transform="translate(198.091949,190.275688) rotate(-12.188729) translate(-198.091943,-190.275688) translate(.000004 0.000007)"/><path fill="#222" fill-opacity=".8" d="M155.52,192.821c5.997-1.439,9.692-7.469,8.252-13.467-1.44-5.997-7.469-9.692-13.467-8.252s-9.692,7.469-8.252,13.467c1.439,5.998,7.469,9.692,13.467,8.252Z" transform="translate(198.091949,190.275688) rotate(-12.188729) translate(-198.091943,-190.275688) translate(.000004 0.000007)"/><path fill="#222" fill-opacity=".8" d="M144.431,150.607c3.565-3.565,3.565-9.344,0-12.908-3.565-3.565-9.344-3.565-12.908,0-3.565,3.564-3.565,9.343,0,12.908c3.564,3.565,9.343,3.565,12.908,0Z" transform="translate(198.091949,190.275688) rotate(-12.188729) translate(-198.091943,-190.275688) translate(.000004 0.000007)"/><path fill="#222" fill-opacity=".8" d="M152.205,139.213l-7.516,6.347-2.71-3.21l7.516-6.347c.395-.334.908-.497,1.424-.453.516.043.994.29,1.328.686l.185.219c.167.196.293.422.372.667s.109.503.087.759c-.021.256-.092.506-.21.735-.118.228-.279.431-.476.597Z" transform="translate(198.091949,190.275688) rotate(-12.188729) translate(-198.091943,-190.275688) translate(.000004 0.000007)"/><path fill="#222" fill-opacity=".8" d="M142.658,127.59v9.566c0,.074-.029.145-.082.197-.052.053-.123.082-.197.082h-3.635c-.074,0-.145-.029-.197-.082-.053-.052-.082-.123-.082-.197v-9.566c0-.518.206-1.015.572-1.381.366-.367.863-.572,1.381-.572h.287c.518,0,1.015.205,1.381.572.366.366.572.863.572,1.381Z" transform="translate(198.091949,190.275688) rotate(-12.188729) translate(-198.091943,-190.275688) translate(.000004 0.000007)"/><path fill="#222" fill-opacity=".8" d="M135.889,127.626l2.089,9.335c.016.072.003.148-.037.21-.04.063-.102.107-.175.123l-3.547.794c-.072.016-.148.003-.21-.037-.063-.039-.107-.102-.123-.175l-2.089-9.335c-.113-.505-.02-1.035.257-1.472.278-.438.717-.747,1.223-.86l.28-.063c.505-.113,1.035-.021,1.473.257.437.277.746.717.859,1.223Z" transform="translate(198.091949,190.275688) rotate(-12.188729) translate(-198.091943,-190.275688) translate(.000004 0.000007)"/><path fill="#222" fill-opacity=".8" d="M128.607,129.965l4.783,8.285c.037.064.047.14.028.212-.019.071-.066.132-.13.169l-3.148,1.818c-.064.037-.14.047-.211.027-.072-.019-.133-.065-.17-.13l-4.783-8.284c-.259-.449-.329-.982-.195-1.482s.461-.927.91-1.186l.248-.144c.449-.259.982-.329,1.482-.195.501.134.927.462,1.186.91Z" transform="translate(198.091949,190.275688) rotate(-12.188729) translate(-198.091943,-190.275688) translate(.000004 0.000007)"/></g><path fill="#222" fill-opacity=".8" d="M209.956,200.168c5.464-6.147,4.909-15.559-1.238-21.023-6.147-5.463-15.559-4.909-21.023,1.238-5.463,6.147-4.909,15.56,1.238,21.023c6.147,5.464,15.56,4.909,21.023-1.238Z" transform="translate(198.091949,190.275688) rotate(-12.188729) translate(-198.091943,-190.275688)"/></g></g><path fill="#222" fill-opacity=".8" d="M198.827,205.179c-3.45,0-6.794-1.197-9.462-3.386-2.667-2.189-4.493-5.235-5.166-8.619-.673-3.385-.152-6.898,1.474-9.941c1.627-3.043,4.259-5.429,7.447-6.749c3.188-1.321,6.735-1.495,10.037-.493s6.155,3.117,8.072,5.986c1.917,2.87,2.78,6.315,2.442,9.749-.339,3.434-1.857,6.644-4.297,9.084-1.382,1.39-3.026,2.491-4.836,3.241s-3.751,1.133-5.711,1.128Zm0-29.783c-3.441-.003-6.777,1.187-9.44,3.367-2.662,2.181-4.487,5.217-5.162,8.591-.674,3.375-.158,6.879,1.461,9.916s4.241,5.418,7.419,6.739c3.178,1.32,6.715,1.498,10.01.502c3.294-.995,6.141-3.102,8.056-5.961c1.915-2.86,2.78-6.295,2.446-9.72-.333-3.425-1.844-6.629-4.275-9.065-1.377-1.387-3.015-2.488-4.82-3.237-1.805-.75-3.74-1.135-5.695-1.132Z"/><g id="elB3AVSemgq43_tr"><g><path fill="#fb5f66" fill-opacity=".8" d="M338.038,267.367l10.05-4.274-29-68.187-10.05,4.274l29,68.187Z" transform="translate(310.951186,192.539748) rotate(-2) translate(-310.951178,-192.539746)"/><path fill="#222" fill-opacity=".8" d="M320.528,201.422c5.316-6.275,4.538-15.671-1.737-20.988-6.275-5.316-15.672-4.538-20.988,1.737s-4.538,15.672,1.737,20.988s15.671,4.538,20.988-1.737Z" transform="translate(310.951186,192.539748) rotate(-2) translate(-310.951178,-192.539746)"/><path fill="#222" fill-opacity=".8" d="M339.316,236.319c1.652-5.943-1.827-12.099-7.77-13.75-5.943-1.652-12.1,1.827-13.751,7.77-1.652,5.943,1.827,12.099,7.77,13.751c5.943,1.651,12.1-1.828,13.751-7.771Z" transform="translate(310.951186,192.539748) rotate(-2) translate(-310.951178,-192.539746)"/><path fill="#222" fill-opacity=".8" d="M345.397,277.22c5.041,0,9.128-4.086,9.128-9.128c0-5.041-4.087-9.127-9.128-9.127s-9.127,4.086-9.127,9.127c0,5.042,4.086,9.128,9.127,9.128Z" transform="translate(310.951186,192.539748) rotate(-2) translate(-310.951178,-192.539746)"/><path fill="#222" fill-opacity=".8" d="M333.458,277.284l5.111-8.386l3.587,2.186-5.111,8.387c-.269.442-.704.759-1.207.881s-1.035.04-1.477-.23l-.245-.149c-.22-.133-.412-.308-.564-.516-.152-.207-.262-.442-.323-.692-.062-.25-.073-.509-.034-.763.04-.254.129-.498.263-.718Z" transform="translate(310.951186,192.539748) rotate(-2) translate(-310.951178,-192.539746)"/><path fill="#222" fill-opacity=".8" d="M346.184,285.283l-3.029-9.074c-.023-.07-.018-.146.015-.213.033-.066.091-.116.161-.14l3.448-1.151c.071-.023.147-.018.213.015.067.033.117.091.14.162l3.029,9.073c.079.245.108.502.087.758-.021.255-.093.504-.21.732-.118.228-.279.431-.474.597-.196.166-.423.291-.667.369l-.272.091c-.486.156-1.013.115-1.469-.112-.456-.228-.805-.625-.972-1.107Z" transform="translate(310.951186,192.539748) rotate(-2) translate(-310.951178,-192.539746)"/><path fill="#222" fill-opacity=".8" d="M352.599,283.108l-4.936-8.193c-.019-.032-.032-.067-.037-.103-.006-.036-.004-.073.005-.109.009-.035.024-.069.046-.098.022-.03.049-.054.081-.073l3.113-1.876c.032-.019.066-.032.103-.037.036-.006.073-.004.108.005.036.009.069.024.099.046.029.022.054.049.073.081l4.937,8.193c.267.444.347.976.223,1.478-.125.503-.444.936-.888,1.203l-.246.148c-.443.268-.975.348-1.478.223s-.935-.444-1.203-.888Z" transform="translate(310.951186,192.539748) rotate(-2) translate(-310.951178,-192.539746)"/><path fill="#222" fill-opacity=".8" d="M358.763,278.591l-7.16-6.344c-.056-.049-.089-.118-.094-.192-.004-.074.021-.147.07-.202l2.405-2.715c.049-.055.118-.089.192-.093.074-.005.147.02.202.069l7.16,6.344c.388.343.623.827.654,1.344.032.517-.144,1.025-.487,1.413l-.191.215c-.344.385-.826.618-1.342.648-.516.031-1.023-.145-1.409-.487Z" transform="translate(310.951186,192.539748) rotate(-2) translate(-310.951178,-192.539746)"/><path fill="#222" fill-opacity=".8" d="M309.196,206.742c-2.336.001-4.64-.546-6.726-1.598s-3.896-2.579-5.284-4.458-2.316-4.058-2.708-6.361c-.393-2.303-.239-4.666.449-6.898.815-2.634,2.345-4.99,4.418-6.806c2.074-1.817,4.611-3.022,7.329-3.483s5.511-.16,8.068.871c2.556,1.031,4.777,2.751,6.415,4.968c1.638,2.218,2.63,4.846,2.864,7.593.234,2.746-.299,5.504-1.538,7.967-1.24,2.462-3.138,4.533-5.483,5.981-2.346,1.449-5.047,2.219-7.804,2.224Zm0-29.798c-2.752.002-5.449.769-7.792,2.213-2.343,1.445-4.239,3.511-5.477,5.968-1.238,2.458-1.771,5.211-1.538,7.954.233,2.742,1.223,5.366,2.858,7.579c1.636,2.214,3.853,3.93,6.406,4.959c2.553,1.028,5.341,1.328,8.054.866c2.713-.461,5.245-1.667,7.314-3.482c2.069-1.814,3.594-4.168,4.405-6.798c1.158-3.768.773-7.842-1.07-11.328-1.843-3.485-4.993-6.097-8.759-7.262-1.441-.446-2.941-.672-4.449-.669h.048Z" transform="translate(310.951186,192.539748) rotate(-2) translate(-310.951178,-192.539746)"/></g></g><path fill="#fb5f66" fill-opacity=".8" d="M194.404,174.774c0,0,1.076,104.542,59.741,106.583c58.664,2.041,61.127-105.833,61.127-106.583c0,0-6.927-15.584-60.434-14.978-53.506.605-60.434,14.978-60.434,14.978Z"/><path fill="#222" fill-opacity=".8" d="M272.303,216.291c-.291,3.99-1.758,7.803-4.217,10.958-2.458,3.155-5.797,5.511-9.594,6.769-3.797,1.257-7.882,1.361-11.737.297-3.856-1.063-7.31-3.246-9.925-6.273-2.615-3.026-4.274-6.76-4.768-10.73-.493-3.969.202-7.996,1.998-11.57c1.795-3.574,4.61-6.536,8.088-8.511c3.478-1.974,7.464-2.873,11.454-2.583c5.349.392,10.324,2.892,13.831,6.95c3.507,4.059,5.259,9.344,4.87,14.693Z"/><path fill="#fff" d="M266.827,215.894c-.213,2.907-1.283,5.686-3.075,7.986-1.792,2.299-4.226,4.015-6.994,4.931s-5.745.991-8.555.215-5.327-2.368-7.232-4.574c-1.906-2.207-3.114-4.929-3.472-7.822-.359-2.893.149-5.828,1.458-8.432c1.309-2.605,3.362-4.763,5.898-6.201c2.535-1.438,5.441-2.092,8.348-1.879c1.931.14,3.815.659,5.545,1.528s3.272,2.071,4.537,3.536s2.229,3.165,2.837,5.003.847,3.778.705,5.709Z"/><path fill="#fb5f66" fill-opacity=".8" d="M259.724,218.572c-.112-.806-.157-1.619-.135-2.432-.04-1.522-.072-3.699-.072-6.377l.16.295-7.582-4.425h.423l-7.653,4.297c-.207.351.279-.47.231-.382v1.132v1.14c0,.749,0,1.498-.04,2.232c0,1.466-.055,2.885-.079,4.257l-.208-.367l7.494,4.576h-.335c2.336-1.26,4.265-2.264,5.58-2.95.708-.403,1.446-.749,2.208-1.036-.594.484-1.235.909-1.913,1.267-1.291.797-3.188,1.921-5.58,3.301l-.167.095-.168-.095-7.589-4.425-.207-.119v-.255c0-1.372.016-2.791.048-4.257c0-.734,0-1.475,0-2.232v-1.132-1.101c-.048.088.438-.725.231-.382l7.677-4.257.223-.12.207.128l7.486,4.576.167.103v.192c-.088,2.758-.175,4.974-.255,6.481.02.76-.03,1.521-.152,2.272Z"/><g opacity=".3"><path fill="#222" fill-opacity=".8" d="M194.404,174.775c0,0,6.928-14.349,60.434-14.979c53.507-.63,60.434,14.979,60.434,14.979s-54.001,26.618-120.868,0Z"/></g><path fill="#fff" d="M212.738,249.175c-.036-.047-.068-.098-.095-.151l-.263-.471c-.24-.454-.559-1.06-.973-1.833-.207-.399-.431-.845-.686-1.324l-.749-1.594c-.542-1.156-1.148-2.471-1.746-3.986-.303-.741-.622-1.522-.956-2.328-.335-.805-.622-1.682-.949-2.566-.686-1.762-1.268-3.699-1.945-5.708-1.252-4.066-2.479-8.57-3.556-13.353-1.076-4.783-1.857-9.399-2.495-13.6-.637-4.201-1.052-7.972-1.307-11.208-.152-1.594-.247-3.045-.327-4.321-.08-1.275-.151-2.391-.175-3.268s-.048-1.555-.072-2.065v-.534c-.009-.061-.009-.123,0-.183.009.06.009.122,0,.183l.048.534c0,.502.087,1.196.143,2.057s.136,1.993.247,3.26c.112,1.268.216,2.719.391,4.313.287,3.189.797,6.983,1.395,11.16.598,4.178,1.467,8.769,2.519,13.552c1.052,4.784,2.288,9.28,3.508,13.337.677,2.009,1.243,3.938,1.913,5.7.319.893.622,1.746.925,2.567l.924,2.344c.574,1.49,1.164,2.814,1.69,3.986l.718,1.594c.231.486.454.933.654,1.339l.892,1.866.224.486c.048.064.083.137.103.215Z"/><path fill="#fff" d="M241.038,274.311c-.314-.006-.626-.044-.933-.112-.843-.15-1.677-.353-2.495-.606-1.216-.37-2.404-.826-3.555-1.363-1.403-.676-2.752-1.46-4.034-2.344-1.268-.906-2.462-1.911-3.571-3.005-.899-.9-1.73-1.865-2.488-2.886-.519-.681-.99-1.398-1.411-2.144-.172-.262-.313-.543-.422-.837.064-.04.733,1.116,2.065,2.806.782.982,1.626,1.914,2.527,2.79c2.206,2.144,4.738,3.925,7.501,5.277c1.129.545,2.289,1.022,3.476,1.427c2.041.686,3.356.917,3.34.997Z"/><path fill="#fff" d="M253.268,237.433c-.185.032-.371.051-.558.056-.531.045-1.063.061-1.595.048-1.982-.044-3.949-.363-5.843-.949-1.309-.408-2.583-.919-3.811-1.53-1.407-.724-2.742-1.581-3.986-2.559-2.881-2.214-5.152-5.124-6.6-8.457-1.447-3.333-2.023-6.979-1.674-10.596.13-1.57.41-3.123.837-4.639.382-1.316.875-2.596,1.475-3.827.864-1.786,1.975-3.441,3.3-4.918.355-.404.733-.788,1.132-1.148.132-.133.273-.255.422-.367c0,0-.526.566-1.435,1.594-1.275,1.5-2.347,3.162-3.188,4.943-1.254,2.624-2,5.461-2.2,8.362-.324,3.553.252,7.13,1.673,10.402c1.42,3.272,3.641,6.134,6.458,8.324c1.207.971,2.504,1.826,3.874,2.551c1.2.633,2.451,1.166,3.739,1.594c1.866.605,3.804.962,5.763,1.06c1.443.056,2.217.008,2.217.056Z"/><path fill="#fff" d="M300.802,181.16c-.059.039-.123.069-.191.088l-.574.215-2.216.797c-.965.351-2.145.758-3.54,1.164-1.395.407-2.965.933-4.743,1.379l-2.774.734c-.965.247-1.985.454-3.029.701-2.089.502-4.353.901-6.728,1.355-10.348,1.803-20.863,2.447-31.353,1.922-2.392-.152-4.712-.271-6.848-.519-1.068-.111-2.105-.191-3.093-.326l-2.846-.391c-1.818-.215-3.444-.542-4.871-.797s-2.662-.494-3.659-.726l-2.296-.51-.598-.143c-.069-.012-.136-.033-.199-.064.072-.006.144-.006.215,0l.598.104l2.312.438c1.005.199,2.232.43,3.667.646c1.435.215,3.053.526,4.871.725l2.838.359c.988.127,2.025.199,3.093.303c2.128.231,4.424.335,6.832.478c4.823.199,10.124.207,15.688-.12c5.564-.326,10.818-1.02,15.577-1.801c2.391-.439,4.639-.797,6.728-1.308c1.044-.239,2.065-.438,3.029-.677l2.774-.71c1.778-.422,3.349-.916,4.744-1.315s2.591-.797,3.555-1.092l2.24-.718.59-.175.207-.016Z"/><path fill="#222" fill-opacity=".8" d="M194.133,174.688l.303.087.893.303l3.396,1.196l2.455.877c.901.303,1.897.59,2.957.917c2.129.629,4.528,1.45,7.255,2.088l4.249,1.092c1.482.375,3.045.654,4.655,1.005c3.189.733,6.688,1.235,10.363,1.825c7.948,1.091,15.958,1.663,23.979,1.714c8.022-.047,16.033-.619,23.98-1.714c3.651-.59,7.126-1.084,10.363-1.825c1.594-.343,3.189-.622,4.655-.997l4.257-1.092c2.719-.638,5.118-1.459,7.247-2.089c1.06-.326,2.056-.613,2.957-.916l2.455-.877l3.396-1.196.893-.303c.101-.04.205-.069.311-.088l-.295.128-.877.343-3.372,1.267-2.511.941c-.893.311-1.889.606-2.949.949-2.129.653-4.52,1.49-7.247,2.152l-4.257,1.116c-1.474.383-3.045.67-4.655,1.028-3.189.75-6.696,1.26-10.363,1.866-7.964,1.117-15.994,1.7-24.035,1.746-8.039-.051-16.066-.637-24.027-1.754-3.659-.598-7.175-1.116-10.364-1.866-1.594-.358-3.188-.645-4.655-1.028l-4.257-1.116c-2.726-.662-5.118-1.499-7.246-2.152-1.061-.343-2.049-.638-2.95-.949l-2.447-.917-3.372-1.267-.877-.343c-.092-.042-.181-.093-.263-.151Z"/></g></g><path fill="#fb5f66" fill-opacity=".2" d="M386.263,292.944c0-13.136,0-26.311,0-39.446c0-.743-1.173-.743-1.173,0c0,13.135,0,26.31,0,39.446c0,.743,1.173.743,1.173,0Z"/><path fill="#fb5f66" fill-opacity=".2" d="M385.913,254.084c23.573,0,47.186,0,70.76,0c.743,0,.743-1.173,0-1.173-23.574,0-47.187,0-70.76,0-.743,0-.743,1.173,0,1.173Z"/><path fill="#fb5f66" fill-opacity=".2" d="M456.32,254.475c0,12.51,0,25.02,0,37.531c0,.742,1.173.742,1.173,0c0-12.511,0-25.021,0-37.531c0-.782-1.173-.782-1.173,0Z"/><path fill="#fb5f66" fill-opacity=".2" d="M392.48,258.033c0,9.382,0,18.804,0,28.187c0,.743,1.173.743,1.173,0c0-9.383,0-18.805,0-28.187c0-.743-1.173-.743-1.173,0Z"/><path fill="#fb5f66" fill-opacity=".2" d="M401.588,258.267c0,8.523,0,17.045,0,25.568c0,.743,1.173.743,1.173,0c0-8.523,0-17.045,0-25.568c0-.743-1.173-.743-1.173,0Z"/><path fill="#fb5f66" fill-opacity=".2" d="M411.637,257.563c0,8.445,0,16.889,0,25.334c0,.742,1.173.742,1.173,0c0-8.445,0-16.889,0-25.334c0-.742-1.173-.742-1.173,0Z"/><path fill="#fb5f66" fill-opacity=".2" d="M421.918,259.245c0,8.6,0,17.201,0,25.802c0,.743,1.173.743,1.173,0c0-8.601,0-17.202,0-25.802c0-.743-1.173-.782-1.173,0Z"/><path fill="#fb5f66" fill-opacity=".2" d="M431.926,259.714c0,8.835,0,17.67,0,26.545c0,.743,1.173.743,1.173,0c0-8.835,0-17.671,0-26.545c0-.743-1.173-.743-1.173,0Z"/><path fill="#fb5f66" fill-opacity=".2" d="M444.357,259.948c0,8.366,0,16.733,0,25.099c0,.743,1.173.743,1.173,0c0-8.366,0-16.733,0-25.099c0-.743-1.173-.743-1.173,0Z"/><path fill="#fb5f66" fill-opacity=".2" d="M452.723,261.16c0,7.506,0,14.973,0,22.479c0,.743,1.172.743,1.172,0c0-7.506,0-14.973,0-22.479c0-.782-1.172-.782-1.172,0Z"/><path fill="#fb5f66" fill-opacity=".2" d="M359.522,64.3979c30.142,0,60.323,0,90.464,0c8.562,0,17.163,0,25.724,0c.743,0,.743-1.1728,0-1.1728-30.141,0-60.322,0-90.464,0-8.562,0-17.162,0-25.724,0-.782,0-.782,1.1728,0,1.1728Z"/><path fill="#e8e8e8" d="M360.108,63.4599c0-2.5803,0-5.1214,0-7.7016c0-.7428-1.172-.7428-1.172,0c0,2.5802,0,5.1213,0,7.7016c0,.7818,1.172.7818,1.172,0Z"/><path fill="#fb5f66" fill-opacity=".2" d="M359.522,56.6963c29.829,0,59.658,0,89.448,0c8.562,0,17.123,0,25.685,0c.743,0,.743-1.1729,0-1.1729-29.829,0-59.658,0-89.448,0-8.562,0-17.123,0-25.685,0-.782,0-.782,1.1729,0,1.1729Z"/><path fill="#fb5f66" fill-opacity=".2" d="M474.422,56.4619c0,2.5802,0,5.1213,0,7.7016c0,.7428,1.173.7428,1.173,0c0-2.5803,0-5.1214,0-7.7016c0-.7428-1.173-.7428-1.173,0Z"/><path fill="#fb5f66" fill-opacity=".2" d="M371.759,25.9292c.352,2.6584.743,5.395.352,8.0925-.352,2.5802-1.486,4.8868-2.463,7.2716-1.877,4.4958-2.854,9.1871-2.815,14.0348c0,.7428,1.173.7428,1.173,0c0-5.5514,1.407-10.4773,3.558-15.5204.781-1.8375,1.485-3.714,1.759-5.7078.352-2.7366,0-5.4341-.352-8.1707-.156-.7428-1.329-.7428-1.212,0Z"/><path fill="#fb5f66" fill-opacity=".2" d="M372.698,26.4374c1.29-.6255,2.737-.8601,4.183-.5473.821.1954.977.6646,1.212,1.3683.117.3518.156.5082.391.8209.469.5865,1.29-.2345.821-.8209-.313-.391,0-1.1729-.43-1.642-.43-.5473-1.29-.7428-1.916-.8601-1.681-.3127-3.362-.0391-4.887.7037-.664.2737-.078,1.2901.626.9774Z"/><path fill="#fb5f66" fill-opacity=".2" d="M378.131,26.7895c-.352,4.7304.86,8.9135,3.049,13.0575c2.619,4.965,3.049,10.1255,3.206,15.6769.039.7428,1.212.7428,1.172,0-.156-4.7304-.312-9.6172-2.267-13.9958-1.016-2.3066-2.385-4.3786-3.128-6.8024-.821-2.5803-1.055-5.2387-.86-7.9362.079-.7428-1.133-.7428-1.172,0Z"/><path fill="#fb5f66" fill-opacity=".2" d="M396.662,55.172c.547-1.0555.039-2.1893.742-3.0885c1.095-1.3292,4.575-1.2901,6.138-1.4464c3.48-.3519,6.92-.3128,10.399-.0391c3.48.2736,6.959.7428,10.478.8991c1.72.0782,3.44.0391,5.16,0s6.451.5083,4.652,3.4403c-.391.6255.626,1.2511,1.017.5865c1.603-2.5803-1.056-4.8868-3.519-5.1996-2.15-.2737-4.378.0782-6.568,0-2.619-.0782-5.238-.3519-7.857-.6255-4.965-.4691-9.891-.7428-14.856-.1564-1.721.1955-4.301.1955-5.786,1.1728-1.486.9774-.352,2.463-1.017,3.7922-.352.7428.665,1.3683,1.017.6646Z"/><path fill="#fb5f66" fill-opacity=".2" d="M410.971,49.4252c.352-.8601.156-1.7202.43-2.5803.703-2.1892,3.479-1.5246,5.16-1.5246c3.128,0,6.216,0,9.344.0391c6.216,0,12.432.0391,18.687.0391-.196-.1564-.391-.2737-.547-.4301.43,1.9938.781,3.9876,1.055,6.0206.078.7427,1.251.7427,1.173,0-.274-2.1502-.626-4.2613-1.095-6.3333-.039-.2346-.313-.4301-.547-.4301-7.506-.0391-15.051-.0391-22.558-.0782-1.798,0-3.635,0-5.434,0-1.368,0-2.932-.2345-4.3.0782-2.541.5864-1.642,3.0494-2.385,4.8868-.391.7037.743,1.0165,1.017.3128Z"/><path fill="#fb5f66" fill-opacity=".2" d="M434.858,52.4351c3.401.1955,6.802.1173,10.164-.2737.743-.0782.743-1.251,0-1.1728-3.401.3909-6.763.4691-10.164.2737-.743-.0782-.743,1.0946,0,1.1728Z"/><path fill="#fb5f66" fill-opacity=".2" d="M434.742,44.8901c.781,2.0329,1.133,4.144,1.055,6.3333-.039.7428,1.134.7428,1.173,0c.078-2.3066-.313-4.4959-1.095-6.6461-.273-.7037-1.407-.3909-1.133.3128Z"/><path fill="#fb5f66" fill-opacity=".2" d="M459.918,19.9087c0,3.2448,0,6.5287,0,9.7736c0,3.0884.234,6.3332-.352,9.3826-.548,2.9321-2.111,5.3168-3.675,7.7798-1.681,2.7366-3.206,5.5514-4.613,8.4444-.313.6646.704,1.2901,1.016.5864c1.486-3.0885,3.128-6.0987,4.965-9.0308c1.486-2.3457,2.893-4.6913,3.401-7.467.509-2.8148.391-5.7078.391-8.5226c0-3.6358,0-7.3107,0-10.9464.039-.7428-1.133-.7428-1.133,0Z"/><path fill="#fb5f66" fill-opacity=".2" d="M460.894,20.6515c1.916-1.0555,4.066-1.0164,5.943.0782.664.3909,1.251-.6255.586-1.0165-2.228-1.3292-4.887-1.3683-7.115-.0781-.665.3518-.078,1.3683.586,1.0164Z"/><path fill="#fb5f66" fill-opacity=".2" d="M465.898,20.2999c0,3.5967-.039,7.2324-.039,10.8291c0,2.893-.274,5.9424.117,8.8354.391,2.7366,1.877,4.7695,3.479,6.9197c1.994,2.6193,3.402,5.3559,4.105,8.6007.157.7428,1.29.4301,1.134-.3127-.547-2.6194-1.564-5.0823-3.049-7.3107-1.642-2.4629-3.871-4.5349-4.418-7.5843-.586-3.2057-.195-6.7242-.195-9.93c0-3.3621.039-6.7242.039-10.0863c0-.7037-1.173-.7037-1.173.0391Z"/><path fill="#fb5f66" fill-opacity=".2" d="M404.012,76.9082c0,14.6995,0,29.4378,0,44.1378c0,.743,1.173.743,1.173,0c0-14.7,0-29.4383,0-44.1378c0-.7819-1.173-.7819-1.173,0Z"/><path fill="#fb5f66" fill-opacity=".2" d="M405.459,77.0259c20.369,0,40.737,0,61.105,0c.743,0,.743-1.1729,0-1.1729-20.368,0-40.736,0-61.105,0-.742,0-.742,1.1729,0,1.1729Z"/><path fill="#fb5f66" fill-opacity=".2" d="M404.754,121.554c19.469,0,38.938,0,58.447,0c.742,0,.742-1.173,0-1.173-19.47,0-38.939,0-58.447,0-.782,0-.782,1.173,0,1.173Z"/><path fill="#fb5f66" fill-opacity=".2" d="M465.273,77.2602c0,14.5822,0,29.1258,0,43.7078c0,.743,1.173.743,1.173,0c0-14.582,0-29.1256,0-43.7078c0-.7428-1.173-.7428-1.173,0Z"/><path fill="#fb5f66" fill-opacity=".2" d="M462.85,121.749c.782,0,1.603,0,2.385,0c.743,0,.743-1.172,0-1.172-.782,0-1.603,0-2.385,0-.743,0-.743,1.172,0,1.172Z"/><path fill="#fb5f66" fill-opacity=".2" d="M409.368,90.2002c16.967.0391,33.973.0782,50.94.1173.742,0,.742-1.1729,0-1.1729-16.967-.0391-33.973-.0782-50.94-.1173-.743,0-.743,1.1729,0,1.1729Z"/><path fill="#fb5f66" fill-opacity=".2" d="M410.971,101.655c16.42-.039,32.8-.078,49.22-.117.743,0,.743-1.173,0-1.173-16.42.039-32.8.078-49.22.118-.743,0-.743,1.172,0,1.172Z"/><path fill="#fb5f66" fill-opacity=".2" d="M411.909,113.071c16.302,0,32.604,0,48.907,0c.743,0,.743-1.173,0-1.173-16.303,0-32.605,0-48.907,0-.743,0-.743,1.173,0,1.173Z"/><path fill="#fb5f66" fill-opacity=".2" d="M419.766,89.7705c0,7.6234,0,15.2465,0,22.8705c0,.742,1.172.742,1.172,0c0-7.624,0-15.2471,0-22.8705c0-.7428-1.172-.7428-1.172,0Z"/><path fill="#fb5f66" fill-opacity=".2" d="M433.566,90.1225c0,7.2325,0,14.5045,0,21.7365c0,.743,1.173.743,1.173,0c0-7.232,0-14.504,0-21.7365c0-.7818-1.173-.7818-1.173,0Z"/><path fill="#fb5f66" fill-opacity=".2" d="M447.211,89.6142c0,7.3498,0,14.6998,0,22.0888c0,.742,1.173.742,1.173,0c0-7.35,0-14.6999,0-22.0888c0-.7428-1.173-.7428-1.173,0Z"/><path fill="#fb5f66" fill-opacity=".2" d="M459.605,89.9658c0,7.3498,0,14.6992,0,22.0882c0,.743,1.173.743,1.173,0c0-7.35,0-14.6994,0-22.0882c0-.7819-1.173-.7819-1.173,0Z"/><path fill="#fb5f66" fill-opacity=".2" d="M413.824,103.414c-1.525,1.251-3.128,3.245-2.033,5.317.391.743,1.055,1.329,1.915,1.446c1.095.157,1.955-.586,2.698-1.29.547-.508-.274-1.368-.821-.821-.587.548-1.251,1.212-2.072.821-.587-.273-.899-.977-.899-1.603c0-1.251,1.133-2.267,2.033-3.01.586-.508-.235-1.329-.821-.86Z"/><path fill="#fb5f66" fill-opacity=".2" d="M427.196,108.067c-1.447-.665-1.76-2.698-.157-3.441.977-.43,1.329.743,1.447,1.486.117.626-.196,2.228-1.212,1.564-.626-.391-1.212.625-.587,1.016c1.095.704,2.463-.039,2.893-1.173.313-.899.039-1.837-.273-2.697-.235-.665-.509-1.251-1.212-1.486-1.369-.391-2.815.821-3.206,2.072-.469,1.447.352,3.011,1.681,3.636.704.352,1.29-.664.626-.977Z"/><path fill="#fb5f66" fill-opacity=".2" d="M416.443,103.297c-.078-.117-.078-.274.078-.313-.117-.078-.235-.117-.352-.195.156.43-.117.899-.117,1.368c0,.313.156.626.43.821.586.43,1.368.196,1.681-.43.156-.352-.352-.625-.508-.313-.313.626-1.095.352-1.017-.312.039-.43.235-.821.078-1.291-.039-.156-.195-.273-.351-.195-.47.156-.743.743-.43,1.173.195.313.703,0,.508-.313Z"/><path fill="#fb5f66" fill-opacity=".2" d="M430.087,103.063c.391-.079.743-.196,1.134-.274.352-.078.195-.665-.157-.547-.39.078-.742.195-1.133.273-.352.078-.196.665.156.548Z"/><path fill="#fb5f66" fill-opacity=".2" d="M429.892,103.062c.079.196.118.43.196.626.039.117.156.234.274.234.195-.039.469-.078.625,0c.078.039.156.118.156.196s-.078,0-.039.039c-.234-.274-.664.117-.43.43.352.391,1.056.078,1.056-.43c0-.743-.821-.86-1.368-.782.078.078.195.156.273.235-.078-.196-.117-.43-.195-.626-.078-.469-.626-.313-.548.078Z"/><path fill="#fb5f66" fill-opacity=".2" d="M424.498,92.5071c.156,1.6028.156,3.1666-.039,4.7695-.039.3909.547.3909.586,0c.157-1.6029.196-3.1667.039-4.7695-.039-.391-.625-.391-.586,0Z"/><path fill="#fb5f66" fill-opacity=".2" d="M425.083,95.2437c1.173-.1173,1.955-1.1338,1.721-2.3066-.079-.3519-.548-.2346-.587.0782-.156,1.4465-.195,2.9321-.117,4.3786c0,.3909.586.3909.586,0-.078-1.4856-.039-2.9321.118-4.3786-.196.0391-.391.0391-.587.0782.157.7819-.391,1.4856-1.173,1.5638-.312.039-.312.6255.039.5864Z"/><path fill="#fb5f66" fill-opacity=".2" d="M428.406,92.0769c.039-.0782.039-.1173.078-.1955-.078.0391-.195.0391-.273.0782.234.0782.273.4692.078.6255-.196.1173-.196.4692.078.5474.235.0391.43.0782.665.1172-.039-.1563-.118-.2736-.157-.43-.156.2737-.352.5082-.625.6255-.352.1564-.196.7037.156.5473.43-.1954.782-.4691.978-.8991.078-.1564.039-.391-.157-.4301-.234-.0391-.43-.0782-.664-.1173.039.1955.039.3519.078.5474.664-.4301.508-1.4465-.235-1.6811-.078-.0391-.195,0-.273.0782-.235.2346-.274.4691-.235.7428c0,.3909.547.2346.508-.1564Z"/><path fill="#fb5f66" fill-opacity=".2" d="M441.543,93.1323c-1.799-1.251-4.457,1.7202-3.48,3.4794.43.7819,1.447,1.1729,2.268.7819.781-.3518,1.094-1.4465.195-1.8765-.039.1955-.039.3518-.078.5473.43-.0782.86-.1564,1.29-.2346.352-.0782.195-.6255-.156-.5473-.43.0782-.86.1564-1.29.2346-.235.0391-.313.43-.079.5473.196.5473.079.8601-.312.8992-.157.0782-.352.0782-.509.0391-.195-.0391-.43-.1564-.547-.2737-.547-.5082-.43-1.2901-.078-1.8374.469-.7819,1.564-1.7984,2.502-1.1729.274.1173.586-.3909.274-.5864Z"/><path fill="#fb5f66" fill-opacity=".2" d="M443.224,93.1326c.078.5864.156,1.2119.234,1.7983.04.3128.118.6255.118.8992c0,.1954-.039.3518-.039.5473-.118.5473-.47.5864-.939.1955.039-.3519-.508-.5474-.547-.1564-.117.8992.821,1.4856,1.564.9383.43-.3128.586-.821.625-1.3293.039-.9382-.195-1.9547-.312-2.8929-.157-.391-.743-.391-.704,0Z"/><path fill="#fb5f66" fill-opacity=".2" d="M442.519,92.7415c.665.1564,1.291.2345,1.994.1955.391-.0391.391-.6256,0-.5865-.625.0391-1.212,0-1.837-.1563-.391-.1173-.548.4691-.157.5473Z"/><path fill="#fb5f66" fill-opacity=".2" d="M436.695,104.47c.157,1.251.157,2.463,0,3.714-.039.391.548.352.587,0c.156-1.29.156-2.58-.039-3.87-.039-.352-.587-.196-.548.156Z"/><path fill="#fb5f66" fill-opacity=".2" d="M437.125,107.167c1.446.469,1.876-1.212,1.876-2.267c0-.391-.547-.352-.586,0-.117,1.29-.195,2.619-.235,3.948c0,.391.587.391.587,0c.039-1.329.117-2.619.234-3.948-.195,0-.391,0-.586,0c0,.664-.078,2.033-1.134,1.72-.391-.117-.547.469-.156.547Z"/><path fill="#fb5f66" fill-opacity=".2" d="M439.393,107.832c.039.391.078.782.039,1.134c0,.156.156.274.313.313.195,0,.43.039.625.039.391,0,.391-.587,0-.587-.195,0-.43-.039-.625-.039.117.118.195.196.312.313c0-.391,0-.782-.039-1.134-.039-.156-.117-.273-.312-.312-.196,0-.352.117-.313.273Z"/><path fill="#fb5f66" fill-opacity=".2" d="M442.872,108.497c-.391-.548-.587-1.173-.626-1.877c0-.43.039-1.485.43-1.798.821-.704,1.173,1.29,1.212,1.759.039.352.039.743-.039,1.095-.039.273-.43,1.563-1.055.742-.235-.312-.626.118-.43.43.625.782,1.602.235,1.915-.508.43-1.133.274-2.893-.43-3.87s-1.525-.391-1.876.508c-.509,1.251-.313,2.698.43,3.792.156.352.664.039.469-.273Z"/><path fill="#fb5f66" fill-opacity=".2" d="M453.114,93.7187c-.625-.5082-1.446-.5082-2.111-.0782-.821.5473-1.056,1.6029-1.134,2.5021-.039.86.196,1.7201,1.173,1.8374s1.642-.6646,2.189-1.4074c.235-.3128-.273-.5864-.508-.3128-.352.4692-.782,1.0556-1.446,1.0947-.86.0391-.86-.8992-.821-1.4856.078-.9383.977-2.7757,2.189-1.7983.313.3127.743-.1173.469-.3519Z"/><path fill="#fb5f66" fill-opacity=".2" d="M455.068,96.6119c-.234-.3128-.43-.6646-.508-1.0556-.078-.3127-.195-1.0164,0-1.2901.196-.0782.391-.1955.587-.2736.156.1172.273.3127.351.5082.079.1564.118.3518.157.5082.039.2346.117.4691.078.7037-.039.2737-.352.8601-.743.4691-.273-.2736-.664.1564-.43.4301.508.5082,1.329.2736,1.642-.3519.352-.7428,0-2.0329-.547-2.5802-.626-.5864-1.408-.2737-1.642.5082-.274.9774,0,1.9938.586,2.7757.196.2346.704-.0391.469-.3518Z"/><path fill="#fb5f66" fill-opacity=".2" d="M456.164,92.3897c0,.0391,0,.0391,0,0c.039,0,.117-.0391.195-.0391-.078,0,0,.5474.039.6647.039.0781.079.1563.118.2345.117.1564.273.2346.469.2737.352.0782.743-.0782.899-.4301.156-.3518-.352-.6255-.508-.3127-.078.1955-.352.1955-.43,0-.118-.3128-.118-.6255-.548-.7037-.312-.0391-.547.2346-.469.5082.078.2737.43.391.665.1955.273-.2346-.157-.6255-.43-.391Z"/><path fill="#fb5f66" fill-opacity=".2" d="M411.48,92.7805c-.195,2.0329-.234,4.1049-.117,6.1378c0,.391.586.391.586,0-.078-2.0329-.039-4.1049.118-6.1378c0-.3909-.587-.3909-.587,0Z"/><path fill="#fb5f66" fill-opacity=".2" d="M411.987,94.0318c.781-.0782,1.172.1563,1.133.6646c0,.2345,0,.43-.078.6646-.117.5473-.352,1.0164-.938,1.251-.235.0782-.313.5082,0,.5473c1.134.2346,2.072.7819,2.736,1.7202.235.3127.743,0,.509-.3128-.782-1.0555-1.799-1.7201-3.089-1.9938c0,.1955,0,.3909,0,.5473c1.408-.5473,2.072-2.9712.86-4.0658-1.016-.8992-2.58.3128-1.564,1.3292.274.3128.704-.0782.431-.3518Z"/><path fill="#fb5f66" fill-opacity=".2" d="M416.17,97.7848c-.039.1564,0,.43.039.6255.039.2346.118.43.313.5473.352.2737.821.0782,1.212-.0782.352-.1563.039-.6646-.313-.5082-.117.0782-.273.1564-.43.1564-.195,0-.195-.1564-.195-.3519c0-.2736-.039-.5473-.196-.7819-.273-.3127-.899-.2345-.977.1955-.078.391.469.5473.547.1955Z"/><path fill="#fb5f66" fill-opacity=".2" d="M449.869,104.509c.039,1.837.039,3.675-.078,5.473-.039.313.508.391.586.078.04-.156.079-.312.118-.43.078-.351-.469-.508-.548-.156-.039.156-.078.313-.117.43.196.039.391.039.587.078.117-1.837.156-3.675.078-5.473-.078-.391-.665-.391-.626,0Z"/><path fill="#fb5f66" fill-opacity=".2" d="M449.869,104.705c.313,1.563.782,3.088,1.407,4.574.118.312.548.273.587-.079.234-1.72.43-3.401.664-5.121.039-.391-.547-.352-.586,0-.235,1.72-.43,3.401-.665,5.121.196-.039.391-.039.587-.078-.626-1.485-1.095-3.01-1.408-4.574-.117-.391-.664-.234-.586.157Z"/><path fill="#fb5f66" fill-opacity=".2" d="M453.544,109.083c-.156-.274-.351-.626-.312-.938.039-.157.234-.469.43-.352.195.078.156.664.117.86-.039.195-.274.586-.508.313-.235-.274-.665.117-.43.43.352.391,1.016.273,1.329-.157.313-.469.352-1.407-.039-1.837-.352-.391-.977-.196-1.251.156-.469.548-.117,1.29.156,1.838.196.312.704,0,.508-.313Z"/><path fill="#fb5f66" fill-opacity=".2" d="M455.109,104.079c.234,1.876.312,3.714.195,5.59-.039.391.548.391.587,0c.117-1.876.039-3.714-.196-5.59-.078-.352-.664-.352-.586,0Z"/><path fill="#fb5f66" fill-opacity=".2" d="M455.774,105.252c-.04-.313-.079-.743.312-.821s.587.391.626.703c.078.626-.313,1.252-.821,1.603-.313.196-.039.704.313.509.977-.626,1.602-2.112.703-3.089-.312-.352-.86-.508-1.251-.234-.469.312-.469.938-.391,1.446c0,.391.587.235.509-.117Z"/><path fill="#fb5f66" fill-opacity=".2" d="M457.102,102.75c-.196.43-.039.938.273,1.251.313.273.939.391,1.173-.078.157-.352-.352-.626-.508-.313-.039.078.039.039,0,.039s-.078,0-.117,0c-.078-.039-.157-.117-.196-.196-.117-.195-.117-.391-.039-.586.078-.156-.078-.313-.195-.352-.196,0-.313.117-.391.235Z"/><path fill="#fb5f66" fill-opacity=".2" d="M408.977,89.6142c0,7.5843,0,15.1298,0,22.7138c0,.743,1.172.743,1.172,0c0-7.584,0-15.1295,0-22.7138c0-.7428-1.172-.7428-1.172,0Z"/><path fill="#fb5f66" fill-opacity=".2" d="M409.721,113.071c16.967,0,33.934,0,50.901,0c.743,0,.743-1.173,0-1.173-16.967,0-33.934,0-50.901,0-.743,0-.743,1.173,0,1.173Z"/><path fill="#fb5f66" fill-opacity=".2" d="M19,209.125c0,10.282,0,20.525,0,30.807c0,.743,1.1728.743,1.1728,0c0-10.282,0-20.525,0-30.807c0-.742-1.1728-.742-1.1728,0Z"/><path fill="#fb5f66" fill-opacity=".2" d="M20.8755,209.712c19.9772,0,39.9544,0,59.8926,0c.7428,0,.7428-1.173,0-1.173-19.9773,0-39.9545,0-59.8926,0-.7819,0-.7819,1.173,0,1.173Z"/><path fill="#fb5f66" fill-opacity=".2" d="M20.8755,240.948c18.9999,0,37.9606,0,56.9605,0c.7428,0,.7428-1.173,0-1.173-18.9999,0-37.9606,0-56.9605,0-.7819,0-.7819,1.173,0,1.173Z"/><path fill="#fb5f66" fill-opacity=".2" d="M79.7539,209.986c0,9.422,0,18.843,0,28.265c0,.743,1.1728.743,1.1728,0c0-9.422,0-18.843,0-28.265c0-.743-1.1728-.743-1.1728,0Z"/><path fill="#fb5f66" fill-opacity=".2" d="M46.875,193.097c0,3.245,0,6.451,0,9.696c0,.742,1.1728.742,1.1728,0c0-3.245,0-6.451,0-9.696c0-.743-1.1728-.743-1.1728,0Z"/><path fill="#fb5f66" fill-opacity=".2" d="M47.852,193.684c12.9403,0,25.8805,0,38.8207,0c.7428,0,.7428-1.173,0-1.173-12.9402,0-25.8804,0-38.8207,0-.7428,0-.7428,1.173,0,1.173Z"/><path fill="#fb5f66" fill-opacity=".2" d="M48.2817,203.809c12.5102,0,25.0204,0,37.5306,0c.7428,0,.7428-1.173,0-1.173-12.5102,0-25.0204,0-37.5306,0-.7428,0-.7428,1.173,0,1.173Z"/><path fill="#fb5f66" fill-opacity=".2" d="M101.656,194.778c0,2.658,0,5.356,0,8.014c0,.743,1.173.743,1.173,0c0-2.658,0-5.356,0-8.014c0-.743-1.173-.743-1.173,0Z"/><path fill="#fb5f66" fill-opacity=".2" d="M232.27,0.557095c0,8.405295,0,16.810605,0,25.215905c0,.7428,1.172.7428,1.172,0c0-8.4053,0-16.81061,0-25.215905c0-.742793-1.172-.742793-1.172,0Z"/><path fill="#fb5f66" fill-opacity=".2" d="M208.93,28.2754c14.661,0,29.282,0,43.942,0c.743,0,.743-1.1729,0-1.1729-14.66,0-29.281,0-43.942,0-.743,0-.743,1.1729,0,1.1729Z"/><path fill="#fb5f66" fill-opacity=".2" d="M21,93.7934c0,6.6856,0,13.3706,0,20.0166c0,.743,1.1728.743,1.1728,0c0-6.685,0-13.371,0-20.0166c0-.7428-1.1728-.7428-1.1728,0Z"/><path fill="#fb5f66" fill-opacity=".2" d="M21.6587,114.908c14.2303,0,28.4216,0,42.6519,0c.7428,0,.7428-1.173,0-1.173-14.2303,0-28.4216,0-42.6519,0-.7428,0-.7428,1.173,0,1.173Z"/><path fill="#fb5f66" fill-opacity=".2" d="M45.5439,113.032c0-3.675,0-7.311,0-10.986c0-.742-1.1728-.742-1.1728,0c0,3.675,0,7.311,0,10.986c0,.743,1.1728.743,1.1728,0Z"/><path fill="#fb5f66" fill-opacity=".2" d="M58.5625,116.237c0,4.301,0,8.601,0,12.941c0,.742,1.1728.742,1.1728,0c0-4.301,0-8.601,0-12.941c0-.743-1.1728-.743-1.1728,0Z"/><path fill="#fb5f66" fill-opacity=".2" d="M377.624,189.852c17.67,0,35.341,0,53.011,0c.743,0,.743-1.173,0-1.173-17.67,0-35.341,0-53.011,0-.743,0-.743,1.173,0,1.173Z"/><path fill="#fb5f66" fill-opacity=".2" d="M410.54,188.64c0-3.87,0-7.74,0-11.65c0-.743-1.173-.743-1.173,0c0,3.871,0,7.741,0,11.65c0,.743,1.173.743,1.173,0Z"/><path fill="#fb5f66" fill-opacity=".2" d="M403.465,177.577c13.801,0,27.562,0,41.362,0c.743,0,.743-1.173,0-1.173-13.8,0-27.561,0-41.362,0-.742,0-.742,1.173,0,1.173Z"/><path fill="#fb5f66" fill-opacity=".2" d="M0.586416,336.704c25.684984,0,51.330984,0,77.015984,0c.7428,0,.7428-1.173,0-1.173-25.685,0-51.331,0-77.015984,0-.781888,0-.781888,1.173,0,1.173Z"/><path fill="#fb5f66" fill-opacity=".2" d="M33.4633,330.409c27.9916,0,55.9832,0,84.0137,0c.743,0,.743-1.173,0-1.173-27.9914,0-55.983,0-84.0137,0-.7427,0-.7427,1.173,0,1.173Z"/><path fill="#e8e8e8" d="M224.374,334.54c10.75,0,21.462,0,32.213,0c.743,0,.743-1.173,0-1.173-10.751,0-21.463,0-32.213,0-.782,0-.782,1.173,0,1.173Z"/><path fill="#fb5f66" fill-opacity=".2" d="M312.571,322.656c23.105,0,46.209,0,69.314,0c.743,0,.743-1.173,0-1.173-23.105,0-46.209,0-69.314,0-.782,0-.782,1.173,0,1.173Z"/><path fill="#fb5f66" fill-opacity=".2" d="M361.557,306.549c27.523,0,55.084,0,82.607,0c.742,0,.742-1.173,0-1.173-27.523,0-55.084,0-82.607,0-.743,0-.743,1.173,0,1.173Z"/><path fill="#fb5f66" fill-opacity=".2" d="M409.836,321.952c27.523,0,55.084,0,82.607,0c.743,0,.743-1.173,0-1.173-27.523,0-55.084,0-82.607,0-.742,0-.742,1.173,0,1.173Z"/><path fill="#fb5f66" fill-opacity=".2" d="M377.586,323.409c12.354,0,24.747,0,37.101,0c.743,0,.743-1.173,0-1.173-12.354,0-24.747,0-37.101,0-.781,0-.781,1.173,0,1.173Z"/><path fill="#222" fill-opacity=".3" d="M165.353,331.415l30.497,4.939l49.833-6.871l37.153,9.867l37.477-8.361l34.745,66.458-55.997,13.213-53.735-5.538-62.803,5.922-39.587-15.789l22.417-63.84Z" opacity=".2"/><path fill="#fff" stroke="#263238" stroke-linecap="round" stroke-linejoin="round" stroke-opacity=".8" stroke-width=".54" d="M156.727,304.2l33.639,5.446l54.977-7.579l40.98,10.882l41.342-9.224L366,377.043l-61.772,14.574-59.279-6.11-69.281,6.531L132,374.625L156.727,304.2Z"/><path fill="#fb5f66" fill-opacity=".8" stroke="#263238" stroke-linecap="round" stroke-linejoin="round" stroke-opacity=".8" stroke-width=".54" d="M163.123,308.934l26.277,4.733l55.64-7.098l42.141,9.943l36.462-8.286l31.258,66.14-52.741,13.116-56.828-5.451-69.189,4.798-33.051-14.655l20.031-63.24Z"/><g opacity=".64"><path fill="#fff" d="M312.789,338.184l-20.372,5.333h-6.196c0,0,7.972,7.676,23.318,9.149c15.346,1.474,18.892-1.473,18.892-1.473l-15.642-13.009Z"/><path fill="#fff" d="M224.232,311.325l-13.581,2.952-1.77,4.723l8.561-1.77-2.068,10.623l10.04-1.177l1.771-12.107-2.953-3.244Z"/><path fill="#fff" d="M215.67,329.623l-.885,5.317l5.905-1.182v-4.426l-5.02.291Z"/><path fill="#fff" d="M212.129,329.623l-1.182,5.905-11.513,1.479.296-4.134l12.399-3.25Z"/><path fill="#fff" d="M280.158,355.9c-5.624,0-10.185,2.904-10.185,6.477c0,3.574,4.561,6.478,10.185,6.478c5.625,0,10.186-2.91,10.186-6.478s-4.55-6.477-10.186-6.477Zm0,9.441c-2.558,0-4.631-1.317-4.631-2.948c0-1.63,2.073-2.952,4.631-2.952c2.559,0,4.642,1.349,4.642,2.969c0,1.619-2.072,2.931-4.642,2.931Z"/><path fill="#fff" d="M199.434,379.218l7.972-19.486-17.71.891-2.661,6.785h8.264l-6.196,14.169l10.331-2.359Z"/><path fill="#fff" d="M233.678,336.71l11.805-2.655l15.351,4.723-11.81,2.062-3.244-2.656-12.102,2.364v-3.838Z"/><path fill="#fff" d="M234.266,325.494l.297,7.676l5.311-1.182-.885-6.791-4.723.297Z"/><path fill="#fff" d="M160.764,329.623l-4.723,13.581l19.189,5.02l2.953-10.628-8.264-7.676-9.155-.297Z"/></g><path fill="#fff" stroke="#263238" stroke-linecap="round" stroke-linejoin="round" stroke-opacity=".8" stroke-width=".54" d="M350.87,365.826l-7.638-7.557c1.317-.167,2.591-.351,3.811-.54l-.956-2.029c-1.527.226-3.131.442-4.804.637l-22.768-22.536c6.051-.902,11.8-1.679,16.194-2.132l-.977-2.062c-4.751.507-10.796,1.344-17.025,2.283l.065-.394-.729-.113-8.027-7.946l18.024-10.186-.923-1.954-18.677,10.559-7.988-7.903-2.494.54l16.479,16.301-52.412-8.199c-.254-.577-.508-1.155-.74-1.749-1.498-3.804-2.662-7.733-3.476-11.74l-2.321-.54c.853,4.444,2.118,8.799,3.778,13.009l.259.631-12.28-1.927-12.674,1.107-.453-13.171-2.159.276l1.182,36.03c-.734,0-1.468,0-2.159-.032-19.945-.578-41.488-6.397-44.678-8.135-2.159-1.193-7.017-6.812-9.602-10.002c5.284-.275,10.396-.988,13.419-2.559c4.145-2.159,13.953-7.853,22.379-12.819l-5.441.696c-7.195,4.216-14.509,8.437-17.926,10.207-6.116,3.174-22.493,2.516-28.781,2.127l-.675,2.127c2.343.156,6.434.372,10.968.372c1.08,0,2.24,0,3.379-.043.81,1.025,7.908,9.964,11.249,11.789c3.342,1.824,25.03,7.8,45.649,8.393.76.022,1.532.033,2.316.033l.162,4.928-16.501.48-.248-.086-.033.092-32.775.955-30.26-7.665-.653,2.062l18.638,4.712-17.273,24.091l2.019.89l17.521-24.408l9.792,2.477l32.241-.939-9.387,26.498-11.027,4.858l6.358-.437l45.514-20.037l32.479-17.397c3.696,2.464,7.686,4.459,11.875,5.937c3.801,1.333,7.683,2.424,11.622,3.266l-4.761,9.527L276.92,385.08l2.85.27l18.395-17.435.135-.13l5.193-10.385c5.467,1.036,11.001,1.672,16.561,1.9l-4.373,24.83l2.294-.567l4.286-24.204c1.128.027,2.246.049,3.352.049c4.972-.005,9.94-.277,14.882-.815l13.079,12.955-2.704-5.722ZM207.191,379.58l8.971-25.37l15.308-.437.491,14.914-24.77,10.893Zm103.832-46.788c-12.523,1.975-24.479,4.113-27.081,4.631l-2.159.437c-2.31.48-5.91,1.231-10.283,2.051-4.309-4.353-7.838-9.414-10.434-14.962l49.957,7.843Zm-78.365-9.247l12.496-1.079l13.354,2.094c2.608,5.823,6.167,11.172,10.531,15.826-7.341,1.333-16.409,2.769-25.246,3.552l-.091-.135-.249.167c-3.454.297-6.866.497-10.126.54l-.669-20.965Zm.755,23.103c2.095-.033,4.254-.13,6.44-.27l-6.305,4.253-.135-3.983Zm11.023,16.528l-10.332,4.545-.475-14.537l10.58-7.141c9.457-.853,19.135-2.429,26.703-3.832c1.553,1.483,3.199,2.866,4.928,4.14l-31.404,16.825Zm45.978-11.562c-6.244-2.152-12.003-5.512-16.949-9.889c3.698-.707,6.737-1.339,8.777-1.765l2.121-.437c3.854-.772,18.029-3.239,31.486-5.317l22.67,22.417c-13.629,1.311-31.118.993-48.105-5.009Z"/><path fill="none" stroke="#263238" stroke-linecap="round" stroke-linejoin="round" stroke-opacity=".8" stroke-width=".54" d="M179.366,368.245l-3.46,20.241"/><path fill="none" stroke="#263238" stroke-linecap="round" stroke-linejoin="round" stroke-opacity=".8" stroke-width=".54" d="M188.932,312.248l-8.864,51.883"/><path fill="none" stroke="#263238" stroke-linecap="round" stroke-linejoin="round" stroke-opacity=".8" stroke-width=".54" d="M244.896,304.237l.297,20.96"/><path fill="none" stroke="#263238" stroke-linecap="round" stroke-linejoin="round" stroke-opacity=".8" stroke-width=".54" d="M288.574,329.105l12.113,50.998"/><path fill="none" stroke="#263238" stroke-linecap="round" stroke-linejoin="round" stroke-opacity=".8" stroke-width=".54" d="M285.336,315.454l2.661,11.217"/><path fill="none" stroke="#263238" stroke-linecap="round" stroke-linejoin="round" stroke-opacity=".8" stroke-width=".54" d="M245.483,383.941l-.292-12.399"/><g id="elB3AVSemgq173_ts"><path fill="#263238" fill-opacity=".8" stroke="#263238" stroke-linecap="round" stroke-linejoin="round" stroke-opacity=".8" stroke-width=".54" d="M170.638,324.447c-.659,0-1.312.13-1.921.382-.608.252-1.161.622-1.627,1.088-.466.467-.835,1.02-1.087,1.629-.251.609-.381,1.262-.38,1.921c0,2.769,5.015,7.934,5.015,7.934s5.02-5.165,5.02-7.934c0-1.332-.529-2.608-1.471-3.55-.941-.941-2.218-1.47-3.549-1.47Zm0,7.017c-.337,0-.666-.1-.946-.287-.279-.187-.497-.453-.626-.764-.128-.311-.162-.653-.096-.983s.229-.633.467-.871c.239-.237.542-.399.872-.464s.672-.03.983.099c.311.13.576.349.762.629s.285.609.284.946c-.003.449-.183.879-.502,1.195-.318.317-.749.495-1.198.495v.005Z" transform="translate(170.6405,337.401) scale(0,0) translate(-170.6405,-337.401)"/></g><g id="elB3AVSemgq174_ts"><path fill="#263238" fill-opacity=".8" stroke="#263238" stroke-linecap="round" stroke-linejoin="round" stroke-opacity=".8" stroke-width=".54" d="M222.726,301.236c-.659,0-1.312.13-1.921.383-.608.252-1.162.622-1.627,1.088-.466.466-.835,1.02-1.087,1.629s-.381,1.261-.38,1.92c0,2.769,5.015,7.935,5.015,7.935s5.019-5.166,5.019-7.935c0-1.331-.528-2.608-1.47-3.549-.941-.942-2.218-1.471-3.549-1.471Zm0,7.017c-.337,0-.666-.099-.946-.286-.279-.188-.497-.453-.626-.764-.128-.311-.162-.654-.096-.984s.229-.632.467-.87.542-.399.872-.464.672-.031.983.099c.311.129.576.348.762.628.186.281.285.61.284.947-.003.449-.183.878-.502,1.195-.319.316-.749.494-1.198.494v.005Z" transform="translate(222.728,314.191) scale(0,0) translate(-222.728,-314.191)"/></g><g id="elB3AVSemgq175_ts"><path fill="#263238" fill-opacity=".8" stroke="#263238" stroke-linecap="round" stroke-linejoin="round" stroke-opacity=".8" stroke-width=".54" d="M214.231,336.586c-.659,0-1.312.129-1.921.381-.609.251-1.162.621-1.628,1.086-.467.466-.836,1.019-1.089,1.628-.252.608-.382,1.261-.382,1.92c0,2.774,5.02,7.935,5.02,7.935s5.014-5.161,5.014-7.935c0-1.33-.528-2.605-1.468-3.546-.941-.94-2.216-1.469-3.546-1.469Zm0,7.018c-.335,0-.662-.1-.941-.285-.278-.186-.495-.45-.624-.759s-.163-.65-.098-.978c.064-.329.225-.631.461-.868s.537-.4.865-.466c.328-.067.668-.035.978.092.31.126.575.342.763.619.187.277.289.604.291.939c0,.449-.179.88-.497,1.198-.317.318-.749.497-1.198.497v.011Z" transform="translate(214.228,349.536) scale(0,0) translate(-214.228,-349.536)"/></g><g id="elB3AVSemgq176_ts"><path fill="#263238" fill-opacity=".8" stroke="#263238" stroke-linecap="round" stroke-linejoin="round" stroke-opacity=".8" stroke-width=".54" d="M314.899,333.348c-.659-.001-1.312.128-1.921.38s-1.162.621-1.628,1.086c-.467.466-.837,1.019-1.089,1.628s-.382,1.261-.382,1.92c0,2.775,5.02,7.935,5.02,7.935s5.014-5.16,5.014-7.935c0-1.33-.528-2.605-1.468-3.546-.941-.94-2.216-1.468-3.546-1.468Zm0,7.017c-.335,0-.662-.099-.941-.285-.278-.186-.495-.45-.624-.759s-.163-.649-.098-.978c.064-.328.225-.63.461-.868.236-.237.537-.4.865-.466.328-.067.668-.035.978.092s.575.342.763.619c.187.278.289.604.291.939c0,.45-.179.881-.497,1.199-.318.317-.749.496-1.198.496v.011Z" transform="translate(314.896,346.297) scale(0,0) translate(-314.896,-346.297)"/></g><g id="elB3AVSemgq177_ts"><path fill="#263238" fill-opacity=".8" stroke="#263238" stroke-linecap="round" stroke-linejoin="round" stroke-opacity=".8" stroke-width=".54" d="M257.413,349.271c-.659,0-1.312.129-1.921.381-.609.251-1.163.621-1.629,1.086-.466.466-.836,1.019-1.088,1.628-.253.609-.382,1.261-.382,1.92c0,2.775,5.02,7.935,5.02,7.935s5.014-5.16,5.014-7.935c0-.658-.13-1.311-.382-1.919s-.621-1.161-1.087-1.627c-.465-.465-1.018-.835-1.626-1.087-.609-.252-1.261-.382-1.919-.382Zm0,7.018c-.335,0-.662-.1-.941-.285-.278-.186-.496-.45-.624-.759-.129-.309-.163-.65-.099-.978.065-.328.225-.63.461-.868.236-.237.537-.4.865-.466.328-.067.669-.035.979.092.31.126.575.342.763.619.187.278.288.604.29.939c0,.449-.178.881-.496,1.198-.318.318-.749.497-1.198.497v.011Z" transform="translate(257.41,362.221) scale(0,0) translate(-257.41,-362.221)"/></g><g id="elB3AVSemgq178_ts"><path fill="#263238" fill-opacity=".8" stroke="#263238" stroke-linecap="round" stroke-linejoin="round" stroke-opacity=".8" stroke-width=".54" d="M278.465,305.819c-.659-.001-1.311.128-1.92.38s-1.163.621-1.629,1.087c-.466.465-.836,1.018-1.088,1.627-.253.609-.383,1.261-.383,1.92c0,2.775,5.02,7.935,5.02,7.935s5.015-5.16,5.015-7.935c0-1.33-.528-2.605-1.469-3.545-.94-.941-2.216-1.469-3.546-1.469Zm0,7.017c-.335,0-.662-.099-.94-.285-.279-.186-.496-.45-.625-.759-.128-.309-.162-.649-.098-.978.065-.328.225-.63.461-.868.236-.237.537-.399.865-.466s.669-.035.978.092c.31.127.576.342.763.62.188.277.289.604.291.938c0,.45-.178.881-.496,1.199s-.749.496-1.199.496v.011Z" transform="translate(278.4625,318.768) scale(0,0) translate(-278.4625,-318.768)"/></g></g></svg>