<svg width="96" height="16" viewBox="0 0 96 16" fill="none" xmlns="http://www.w3.org/2000/svg">
<path d="M4.44137 12V1.12H6.28137V12H4.44137ZM0.793374 2.48V0.799999H9.92937V2.48H0.793374ZM9.811 12V4.32H11.571V12H9.811ZM11.571 7.728L10.963 7.424C10.963 6.45333 11.1763 5.66933 11.603 5.072C12.0403 4.464 12.6963 4.16 13.571 4.16C13.955 4.16 14.3017 4.22933 14.611 4.368C14.9203 4.50667 15.2083 4.73067 15.475 5.04L14.323 6.224C14.1843 6.07467 14.0297 5.968 13.859 5.904C13.6883 5.84 13.491 5.808 13.267 5.808C12.7763 5.808 12.371 5.96267 12.051 6.272C11.731 6.58133 11.571 7.06667 11.571 7.728ZM18.8572 12.08L15.5772 4.32H17.5132L19.7532 10.016H19.1932L21.5612 4.32H23.5132L19.9452 12.08H18.8572ZM16.5692 15.2L18.9532 10.288L19.9452 12.08L18.5212 15.2H16.5692ZM28.1976 12V4.32H29.9576V12H28.1976ZM29.0776 2.912C28.779 2.912 28.5283 2.81067 28.3256 2.608C28.1336 2.40533 28.0376 2.15467 28.0376 1.856C28.0376 1.55733 28.1336 1.30667 28.3256 1.104C28.5283 0.901333 28.779 0.799999 29.0776 0.799999C29.387 0.799999 29.6376 0.901333 29.8296 1.104C30.0216 1.30667 30.1176 1.55733 30.1176 1.856C30.1176 2.15467 30.0216 2.40533 29.8296 2.608C29.6376 2.81067 29.387 2.912 29.0776 2.912ZM33.2596 12V1.12H35.0196V12H33.2596ZM31.4196 5.92V4.32H36.8596V5.92H31.4196ZM42.7176 12V3.312C42.7176 2.72533 42.8456 2.208 43.1016 1.76C43.3683 1.312 43.731 0.959999 44.1896 0.704C44.659 0.448 45.1976 0.32 45.8056 0.32C46.275 0.32 46.675 0.4 47.0056 0.559999C47.3363 0.719999 47.6456 0.949333 47.9336 1.248L46.7976 2.384C46.6696 2.256 46.531 2.15467 46.3816 2.08C46.2323 2.00533 46.0403 1.968 45.8056 1.968C45.379 1.968 45.0483 2.08533 44.8136 2.32C44.5896 2.544 44.4776 2.86933 44.4776 3.296V12H42.7176ZM40.8776 5.92V4.32H46.7976V5.92H40.8776ZM51.4041 12.16C50.6575 12.16 49.9801 11.984 49.3721 11.632C48.7641 11.2693 48.2788 10.784 47.9161 10.176C47.5641 9.568 47.3881 8.89067 47.3881 8.144C47.3881 7.39733 47.5641 6.72533 47.9161 6.128C48.2788 5.53067 48.7641 5.056 49.3721 4.704C49.9801 4.34133 50.6575 4.16 51.4041 4.16C52.1615 4.16 52.8441 4.336 53.4521 4.688C54.0601 5.04 54.5401 5.52 54.8921 6.128C55.2548 6.72533 55.4361 7.39733 55.4361 8.144C55.4361 8.89067 55.2548 9.568 54.8921 10.176C54.5401 10.784 54.0601 11.2693 53.4521 11.632C52.8441 11.984 52.1615 12.16 51.4041 12.16ZM51.4041 10.464C51.8415 10.464 52.2255 10.368 52.5561 10.176C52.8975 9.97333 53.1588 9.696 53.3401 9.344C53.5321 8.992 53.6281 8.592 53.6281 8.144C53.6281 7.696 53.5321 7.30133 53.3401 6.96C53.1481 6.61867 52.8868 6.352 52.5561 6.16C52.2255 5.95733 51.8415 5.856 51.4041 5.856C50.9775 5.856 50.5935 5.95733 50.2521 6.16C49.9215 6.352 49.6601 6.61867 49.4681 6.96C49.2868 7.30133 49.1961 7.696 49.1961 8.144C49.1961 8.592 49.2868 8.992 49.4681 9.344C49.6601 9.696 49.9215 9.97333 50.2521 10.176C50.5935 10.368 50.9775 10.464 51.4041 10.464ZM57.0597 12V4.32H58.8197V12H57.0597ZM58.8197 7.728L58.2117 7.424C58.2117 6.45333 58.4251 5.66933 58.8517 5.072C59.2891 4.464 59.9451 4.16 60.8197 4.16C61.2037 4.16 61.5504 4.22933 61.8597 4.368C62.1691 4.50667 62.4571 4.73067 62.7237 5.04L61.5717 6.224C61.4331 6.07467 61.2784 5.968 61.1077 5.904C60.9371 5.84 60.7397 5.808 60.5157 5.808C60.0251 5.808 59.6197 5.96267 59.2997 6.272C58.9797 6.58133 58.8197 7.06667 58.8197 7.728ZM68.4357 12V3.312C68.4357 2.72533 68.5637 2.208 68.8197 1.76C69.0864 1.312 69.4491 0.959999 69.9077 0.704C70.3771 0.448 70.9157 0.32 71.5237 0.32C71.9931 0.32 72.3931 0.4 72.7237 0.559999C73.0544 0.719999 73.3637 0.949333 73.6517 1.248L72.5157 2.384C72.3877 2.256 72.2491 2.15467 72.0997 2.08C71.9504 2.00533 71.7584 1.968 71.5237 1.968C71.0971 1.968 70.7664 2.08533 70.5317 2.32C70.3077 2.544 70.1957 2.86933 70.1957 3.296V12H68.4357ZM66.5957 5.92V4.32H72.5157V5.92H66.5957ZM73.7116 12V4.32H75.4716V12H73.7116ZM75.4716 7.728L74.8636 7.424C74.8636 6.45333 75.077 5.66933 75.5036 5.072C75.941 4.464 76.597 4.16 77.4716 4.16C77.8556 4.16 78.2023 4.22933 78.5116 4.368C78.821 4.50667 79.109 4.73067 79.3756 5.04L78.2236 6.224C78.085 6.07467 77.9303 5.968 77.7596 5.904C77.589 5.84 77.3916 5.808 77.1676 5.808C76.677 5.808 76.2716 5.96267 75.9516 6.272C75.6316 6.58133 75.4716 7.06667 75.4716 7.728ZM83.7209 12.16C82.9529 12.16 82.2595 11.9893 81.6409 11.648C81.0329 11.296 80.5475 10.816 80.1849 10.208C79.8329 9.6 79.6569 8.91733 79.6569 8.16C79.6569 7.40267 79.8329 6.72533 80.1849 6.128C80.5369 5.52 81.0115 5.04 81.6089 4.688C82.2169 4.336 82.8889 4.16 83.6249 4.16C84.3395 4.16 84.9689 4.32533 85.5129 4.656C86.0675 4.98667 86.4995 5.44 86.8089 6.016C87.1289 6.592 87.2889 7.248 87.2889 7.984C87.2889 8.112 87.2782 8.24533 87.2569 8.384C87.2462 8.512 87.2249 8.656 87.1929 8.816H80.8889V7.376H86.2809L85.6249 7.952C85.6035 7.48267 85.5129 7.088 85.3529 6.768C85.1929 6.448 84.9635 6.20267 84.6649 6.032C84.3769 5.86133 84.0195 5.776 83.5929 5.776C83.1449 5.776 82.7555 5.872 82.4249 6.064C82.0942 6.256 81.8382 6.528 81.6569 6.88C81.4755 7.22133 81.3849 7.632 81.3849 8.112C81.3849 8.592 81.4809 9.01333 81.6729 9.376C81.8649 9.73867 82.1369 10.0213 82.4889 10.224C82.8409 10.416 83.2462 10.512 83.7049 10.512C84.0995 10.512 84.4622 10.4427 84.7929 10.304C85.1342 10.1653 85.4222 9.96267 85.6569 9.696L86.7769 10.832C86.4035 11.2693 85.9502 11.6 85.4169 11.824C84.8835 12.048 84.3182 12.16 83.7209 12.16ZM92.4277 12.16C91.6597 12.16 90.9664 11.9893 90.3477 11.648C89.7397 11.296 89.2544 10.816 88.8917 10.208C88.5397 9.6 88.3637 8.91733 88.3637 8.16C88.3637 7.40267 88.5397 6.72533 88.8917 6.128C89.2437 5.52 89.7184 5.04 90.3157 4.688C90.9237 4.336 91.5957 4.16 92.3317 4.16C93.0464 4.16 93.6757 4.32533 94.2197 4.656C94.7744 4.98667 95.2064 5.44 95.5157 6.016C95.8357 6.592 95.9957 7.248 95.9957 7.984C95.9957 8.112 95.9851 8.24533 95.9637 8.384C95.9531 8.512 95.9317 8.656 95.8997 8.816H89.5957V7.376H94.9877L94.3317 7.952C94.3104 7.48267 94.2197 7.088 94.0597 6.768C93.8997 6.448 93.6704 6.20267 93.3717 6.032C93.0837 5.86133 92.7264 5.776 92.2997 5.776C91.8517 5.776 91.4624 5.872 91.1317 6.064C90.8011 6.256 90.5451 6.528 90.3637 6.88C90.1824 7.22133 90.0917 7.632 90.0917 8.112C90.0917 8.592 90.1877 9.01333 90.3797 9.376C90.5717 9.73867 90.8437 10.0213 91.1957 10.224C91.5477 10.416 91.9531 10.512 92.4117 10.512C92.8064 10.512 93.1691 10.4427 93.4997 10.304C93.8411 10.1653 94.1291 9.96267 94.3637 9.696L95.4837 10.832C95.1104 11.2693 94.6571 11.6 94.1237 11.824C93.5904 12.048 93.0251 12.16 92.4277 12.16Z" fill="#FB5F68"/>
</svg>
