<svg width="23" height="23" viewBox="0 0 23 23" fill="none" xmlns="http://www.w3.org/2000/svg">
<path d="M21.4509 5.98709C21.3984 5.8604 21.3096 5.7521 21.1956 5.6759C21.0816 5.5997 20.9476 5.55901 20.8105 5.55898H18.1734C17.8047 4.93171 17.2799 4.41051 16.6502 4.04605C16.0204 3.6816 15.3071 3.48629 14.5795 3.47911C14.0375 3.472 13.4995 3.57337 12.9972 3.77727C12.4949 3.98116 12.0384 4.28346 11.6547 4.66637C11.2598 5.05394 10.9463 5.51656 10.7327 6.02703C10.5192 6.5375 10.4098 7.08551 10.4111 7.63885V8.16662C6.92212 7.24628 4.06836 4.40812 4.03803 4.37779C3.94502 4.28395 3.82713 4.21865 3.69824 4.18957C3.56936 4.16048 3.43485 4.16883 3.31056 4.21364C3.18626 4.25844 3.07736 4.33782 2.99666 4.44244C2.91597 4.54706 2.86686 4.67256 2.8551 4.80416C2.48159 8.94571 3.68445 11.7171 4.76165 13.3126C5.28689 14.1013 5.92584 14.808 6.6578 15.4098C5.33795 16.9289 3.25981 17.7271 3.23728 17.7358C3.13945 17.7724 3.05117 17.8307 2.97902 17.9062C2.90688 17.9818 2.85275 18.0727 2.82066 18.1721C2.78858 18.2715 2.77938 18.3769 2.79375 18.4804C2.80811 18.5838 2.84568 18.6827 2.90363 18.7696C2.96863 18.8667 3.22861 19.2073 3.86384 19.5253C4.64899 19.9188 5.68633 20.1181 6.94465 20.1181C13.069 20.1181 18.1864 15.402 18.7089 9.33395L21.301 6.74278C21.3979 6.64576 21.4639 6.52219 21.4906 6.38767C21.5172 6.25316 21.5034 6.11376 21.4509 5.98709ZM17.5511 8.5358C17.4323 8.65495 17.3608 8.81328 17.3501 8.98124C16.9974 14.4487 12.4286 18.7315 6.94465 18.7315C6.02951 18.7315 5.38475 18.6102 4.93237 18.4646C5.92985 17.923 7.32076 16.9913 8.21511 15.6498C8.2676 15.5709 8.30336 15.4821 8.32019 15.3889C8.33702 15.2957 8.33456 15.1999 8.31296 15.1077C8.29135 15.0154 8.25107 14.9286 8.19459 14.8525C8.13811 14.7764 8.06664 14.7127 7.98459 14.6654C7.94386 14.642 4.17929 12.3827 4.17149 6.34587C5.55807 7.47246 8.09291 9.22042 10.9891 9.70746C11.0884 9.7242 11.1901 9.71911 11.2872 9.69257C11.3843 9.66603 11.4745 9.61866 11.5514 9.55376C11.6284 9.48885 11.6902 9.40797 11.7328 9.31674C11.7753 9.2255 11.7975 9.1261 11.7977 9.02544V7.63885C11.7969 7.26903 11.8701 6.90278 12.013 6.56166C12.1559 6.22055 12.3655 5.91146 12.6296 5.65258C12.8828 5.39892 13.1843 5.19859 13.5162 5.06343C13.8482 4.92828 14.2038 4.86104 14.5622 4.86569C15.6593 4.87956 16.6845 5.54858 17.1135 6.53046C17.1676 6.6539 17.2565 6.75891 17.3693 6.83263C17.4821 6.90636 17.6139 6.9456 17.7487 6.94556H19.1353L17.5511 8.5358Z" fill="white"/>
</svg>
