<svg xmlns="http://www.w3.org/2000/svg" xmlns:xlink="http://www.w3.org/1999/xlink" id="e0jBTLXwsOh1" width="550" height="450" shape-rendering="geometricPrecision" text-rendering="geometricPrecision" viewBox="0 0 550 450"><style>@keyframes e0jBTLXwsOh7_to__to{0%,47.272727%{transform:translate(165.542015px,187.289742px);animation-timing-function:cubic-bezier(.42,0,.58,1)}23.636364%,74.545455%{transform:translate(165.542015px,182.289742px);animation-timing-function:cubic-bezier(.42,0,.58,1)}}@keyframes e0jBTLXwsOh18_tr__tr{0%{transform:translate(101.484501px,36.47345px) rotate(0deg);animation-timing-function:cubic-bezier(.42,0,.58,1)}50.909091%{transform:translate(101.484501px,36.47345px) rotate(90deg);animation-timing-function:cubic-bezier(.42,0,.58,1)}}@keyframes e0jBTLXwsOh32_tr__tr{0%,29.090909%,72.909091%{transform:translate(426.582794px,345.48465px) rotate(5.540118deg);animation-timing-function:cubic-bezier(.42,0,.58,1)}14%,58.181818%,85.454545%{transform:translate(426.582794px,345.48465px) rotate(-6.247169deg);animation-timing-function:cubic-bezier(.42,0,.58,1)}}@keyframes e0jBTLXwsOh38_tr__tr{0%,29.090909%,72.909091%{transform:translate(428.845429px,345.026093px) rotate(3.927372deg);animation-timing-function:cubic-bezier(.42,0,.58,1)}14%,58.181818%,85.454545%{transform:translate(428.845429px,345.026093px) rotate(-7.425277deg);animation-timing-function:cubic-bezier(.42,0,.58,1)}}@keyframes e0jBTLXwsOh186_to__to{0%{transform:translate(91.571834px,193.173561px);animation-timing-function:cubic-bezier(.42,0,.58,1)}29.090909%{transform:translate(93.571834px,220.173561px)}}@keyframes e0jBTLXwsOh186_c_o{0%{opacity:0;animation-timing-function:cubic-bezier(.42,0,.58,1)}24.545455%,7.454545%{opacity:1;animation-timing-function:cubic-bezier(.42,0,.58,1)}29.090909%{opacity:0}}@keyframes e0jBTLXwsOh187_to__to{0%{transform:translate(91.394077px,193.267372px)}16.181818%{transform:translate(91.394077px,193.267372px);animation-timing-function:cubic-bezier(.42,0,.58,1)}53.272727%{transform:translate(93.394077px,220.267372px)}}@keyframes e0jBTLXwsOh187_c_o{0%,53.272727%{opacity:0}16.181818%{opacity:0;animation-timing-function:cubic-bezier(.42,0,.58,1)}25.636364%,44.727273%{opacity:1;animation-timing-function:cubic-bezier(.42,0,.58,1)}}@keyframes e0jBTLXwsOh191_to__to{0%{offset-distance:0}37.454545%{offset-distance:0;animation-timing-function:cubic-bezier(.42,0,.58,1)}81.272727%{offset-distance:100%}}@keyframes e0jBTLXwsOh191_c_o{0%,81.272727%{opacity:0}37.454545%{opacity:0;animation-timing-function:cubic-bezier(.42,0,.58,1)}55.818182%,72.181818%{opacity:1;animation-timing-function:cubic-bezier(.42,0,.58,1)}}@keyframes e0jBTLXwsOh192_to__to{0%{offset-distance:0}18.181818%{offset-distance:0;animation-timing-function:cubic-bezier(.42,0,.58,1)}55.272727%{offset-distance:100%}}@keyframes e0jBTLXwsOh192_c_o{0%,55.272727%{opacity:0}18.181818%{opacity:0;animation-timing-function:cubic-bezier(.42,0,.58,1)}28.363636%,46.909091%{opacity:1;animation-timing-function:cubic-bezier(.42,0,.58,1)}}@keyframes e0jBTLXwsOh202_ts__ts{0%,58.181818%{transform:translate(256.074112px,417.979706px) scale(1,1);animation-timing-function:cubic-bezier(.42,0,.58,1)}16.181818%,74.363636%{transform:translate(256.074112px,417.979706px) scale(.92,1);animation-timing-function:cubic-bezier(.42,0,.58,1)}33.454545%,91.636364%{transform:translate(256.074112px,417.979706px) scale(1,1)}}@keyframes e0jBTLXwsOh203_to__to{0%,33.454545%,58.181818%{transform:translate(247.478951px,271.939194px);animation-timing-function:cubic-bezier(.42,0,.58,1)}16.181818%,74.363636%{transform:translate(247.478951px,257.939194px)}91.636364%{transform:translate(247.478951px,271.939194px)}}@keyframes e0jBTLXwsOh205_ts__ts{0%,33.454545%,58.181818%{transform:translate(256.63px,291.812103px) scale(1,.96);animation-timing-function:cubic-bezier(.42,0,.58,1)}16.181818%,74.363636%{transform:translate(256.63px,291.812103px) scale(1,1)}91.636364%{transform:translate(256.63px,291.812103px) scale(1,.96)}}@keyframes e0jBTLXwsOh233_ts__ts{0%,40%,80%{transform:translate(248.275185px,165.152519px) scale(1,1);animation-timing-function:cubic-bezier(.42,0,.58,1)}45.454545%,5.454545%,85.454545%{transform:translate(248.275185px,165.152519px) scale(1,0);animation-timing-function:cubic-bezier(.42,0,.58,1)}10.909091%,50.909091%,90.909091%{transform:translate(248.275185px,165.152519px) scale(1,1)}}@keyframes e0jBTLXwsOh234_ts__ts{0%,40%,80%{transform:translate(265.611176px,165.152519px) scale(1,1);animation-timing-function:cubic-bezier(.42,0,.58,1)}45.454545%,5.454545%,85.454545%{transform:translate(265.611176px,165.152519px) scale(1,0);animation-timing-function:cubic-bezier(.42,0,.58,1)}10.909091%,50.909091%,90.909091%{transform:translate(265.611176px,165.152519px) scale(1,1)}}@keyframes e0jBTLXwsOh250_to__to{0%,47.272727%{transform:translate(361.293122px,204.832733px);animation-timing-function:cubic-bezier(.42,0,.58,1)}14.545455%,61.818182%{transform:translate(361.293122px,199.832733px);animation-timing-function:cubic-bezier(.42,0,.58,1)}28.545455%,75.818182%{transform:translate(361.293122px,204.832733px)}}@keyframes e0jBTLXwsOh252_tr__tr{0%,36.363636%,72.727273%{transform:translate(344.038132px,193.173584px) rotate(21.348487deg);animation-timing-function:cubic-bezier(.42,0,.58,1)}46.181818%,82.545455%,9.818182%{transform:translate(344.038132px,193.173584px) rotate(.965797deg);animation-timing-function:cubic-bezier(.42,0,.58,1)}20.181818%,56.545455%,92.909091%{transform:translate(344.038132px,193.173584px) rotate(21.348487deg)}}@keyframes e0jBTLXwsOh265_to__to{0%,28.909091%,77.090909%{transform:translate(368.923737px,175.825842px)}2.727273%,50.909091%{transform:translate(368.923737px,175.825842px);animation-timing-function:cubic-bezier(.42,0,.58,1)}15.454545%,63.636364%{transform:translate(368.923737px,170.825842px);animation-timing-function:cubic-bezier(.42,0,.58,1)}}@keyframes e0jBTLXwsOh265_tr__tr{0%,36.727273%,88.545455%{transform:rotate(0deg)}2.727273%,54.545455%{transform:rotate(0deg);animation-timing-function:cubic-bezier(.42,0,.58,1)}12.727273%,64.545455%{transform:rotate(-5deg);animation-timing-function:cubic-bezier(.42,0,.58,1)}25.818182%,77.636364%{transform:rotate(5deg);animation-timing-function:cubic-bezier(.42,0,.58,1)}}#e0jBTLXwsOh7_to{animation:e0jBTLXwsOh7_to__to 5000ms linear infinite normal forwards}#e0jBTLXwsOh18_tr{animation:e0jBTLXwsOh18_tr__tr 5000ms linear infinite normal forwards}#e0jBTLXwsOh32_tr{animation:e0jBTLXwsOh32_tr__tr 5000ms linear infinite normal forwards}#e0jBTLXwsOh38_tr{animation:e0jBTLXwsOh38_tr__tr 5000ms linear infinite normal forwards}#e0jBTLXwsOh186_to{animation:e0jBTLXwsOh186_to__to 5000ms linear infinite normal forwards}#e0jBTLXwsOh186{animation:e0jBTLXwsOh186_c_o 5000ms linear infinite normal forwards}#e0jBTLXwsOh187_to{animation:e0jBTLXwsOh187_to__to 5000ms linear infinite normal forwards}#e0jBTLXwsOh187{animation:e0jBTLXwsOh187_c_o 5000ms linear infinite normal forwards}#e0jBTLXwsOh191_to{animation:e0jBTLXwsOh191_to__to 5000ms linear infinite normal forwards}#e0jBTLXwsOh191{animation:e0jBTLXwsOh191_c_o 5000ms linear infinite normal forwards}#e0jBTLXwsOh192_to{animation:e0jBTLXwsOh192_to__to 5000ms linear infinite normal forwards}#e0jBTLXwsOh192{animation:e0jBTLXwsOh192_c_o 5000ms linear infinite normal forwards}#e0jBTLXwsOh202_ts{animation:e0jBTLXwsOh202_ts__ts 5000ms linear infinite normal forwards}#e0jBTLXwsOh203_to{animation:e0jBTLXwsOh203_to__to 5000ms linear infinite normal forwards}#e0jBTLXwsOh205_ts{animation:e0jBTLXwsOh205_ts__ts 5000ms linear infinite normal forwards}#e0jBTLXwsOh233_ts{animation:e0jBTLXwsOh233_ts__ts 5000ms linear infinite normal forwards}#e0jBTLXwsOh234_ts{animation:e0jBTLXwsOh234_ts__ts 5000ms linear infinite normal forwards}#e0jBTLXwsOh250_to{animation:e0jBTLXwsOh250_to__to 5000ms linear infinite normal forwards}#e0jBTLXwsOh252_tr{animation:e0jBTLXwsOh252_tr__tr 5000ms linear infinite normal forwards}#e0jBTLXwsOh265_to{animation:e0jBTLXwsOh265_to__to 5000ms linear infinite normal forwards}#e0jBTLXwsOh265_tr{animation:e0jBTLXwsOh265_tr__tr 5000ms linear infinite normal forwards}</style><g transform="translate(1.689515 3.890931)"><path fill="#fb5f66" fill-opacity=".2" d="M448.647,1.28837c26.412,0,52.78,0,79.192,0c.816,0,.816-1.28837,0-1.28837-26.412,0-52.78,0-79.192,0-.816,0-.816,1.28837,0,1.28837v0Z"/><path fill="#fb5f66" fill-opacity=".2" d="M452.598,4.4661c23.534,0,47.069,0,70.603,0c.816,0,.816-1.28837,0-1.28837-23.534,0-47.069,0-70.603,0-.816,0-.816,1.28837,0,1.28837v0Z"/><path fill="#fb5f66" fill-opacity=".2" d="M510.874,14.172c1.46-.5153,2.963-.4724,4.38.0859.773.3007,1.117-.9448.344-1.2454-1.632-.6442-3.436-.6442-5.068-.0859-.773.2577-.472,1.5031.344,1.2454v0Z"/><path fill="#fb5f66" fill-opacity=".3" d="M192.225,185.408c0,0-.322.189-.964.535-.643.346-1.591.824-2.81,1.566-3.588,2.039-7.049,4.293-10.366,6.748-5.264,3.862-10.16,8.201-14.626,12.962-2.785,2.975-5.399,6.105-7.828,9.377-2.748,3.646-5.13,7.554-7.111,11.668-1.038,2.222-1.922,4.512-2.645,6.855-.728,2.453-1.219,4.969-1.467,7.515-.229,2.655-.088,5.328.42,7.944.265,1.349.631,2.677,1.096,3.971.488,1.303,1.078,2.564,1.764,3.774c2.986,5.011,7.252,9.138,12.36,11.957c5.437,2.949,11.354,4.913,17.477,5.8c3.131.52,6.32.874,9.566,1.121c1.648.14,3.296.19,4.895.264l4.944.214c1.648.107,3.296.066,5.01.066h5.059c1.698,0,3.403-.115,5.109-.173l5.158-.239c14.237-.937,28.371-3.06,42.255-6.345c28.593-6.641,54.722-16.991,77.728-27.727c11.536-5.332,22.305-10.902,31.386-17.626c4.395-3.218,8.446-6.883,12.088-10.934l1.285-1.467c.421-.486.824-1.014,1.203-1.508l1.179-1.508l1.079-1.557c1.442-1.984,2.676-4.11,3.683-6.345c1.958-4.116,2.945-8.627,2.884-13.184-.079-4.09-1.711-7.996-4.564-10.926-2.588-2.434-5.84-4.043-9.345-4.623-2.932-.52-5.933-.52-8.866,0-2.343.412-4.648,1.021-6.889,1.821-1.952.676-3.567,1.343-4.878,1.895l-2.958,1.269-1.005.429.989-.47c.659-.297,1.648-.75,2.941-1.31c1.294-.56,2.917-1.244,4.87-1.936c2.242-.817,4.549-1.44,6.897-1.863c2.954-.543,5.982-.557,8.941-.041c3.546.563,6.845,2.169,9.476,4.615c2.911,2.967,4.582,6.934,4.672,11.091.08,4.612-.907,9.18-2.884,13.348-1.006,2.256-2.243,4.402-3.692,6.403l-1.079,1.565-1.137,1.517c-.404.502-.783,1.03-1.212,1.524l-1.285,1.475c-3.65,4.073-7.712,7.756-12.121,10.992-9.105,6.765-19.908,12.36-31.428,17.7-23.014,10.769-49.168,21.135-77.802,27.793s-56.93,8.553-82.169,5.068c-6.163-.907-12.116-2.899-17.584-5.884-5.17-2.853-9.487-7.031-12.508-12.104-.699-1.227-1.297-2.508-1.788-3.832-.468-1.305-.837-2.644-1.105-4.004-.509-2.646-.647-5.35-.412-8.034.255-2.569.754-5.108,1.492-7.581.733-2.358,1.628-4.662,2.678-6.897c1.995-4.129,4.397-8.048,7.169-11.701c6.355-8.533,13.964-16.056,22.569-22.314c3.332-2.442,6.813-4.674,10.424-6.682c2.439-1.385,3.782-2.027,3.782-2.027Z"/><g id="e0jBTLXwsOh7_to"><g><g><g><path fill="#fb5f66" fill-opacity=".3" d="M173.009,200.709c7.412-4.346,9.896-13.878,5.55-21.289-4.347-7.412-13.878-9.896-21.29-5.55-7.411,4.347-9.896,13.878-5.549,21.29c4.346,7.411,13.878,9.896,21.289,5.549Z" transform="translate(165.542015,187.289742) translate(-165.542015,-187.289741) translate(0 0.000001) translate(0 0.000001)"/><path fill="#fb5f66" fill-opacity=".3" d="M154.664,175.797c-.206.19-17.848-5.545-18.63-1.219-.783,4.326,12.261,13.818,26.911,20.007c14.651,6.188,30.686,10.415,32.054,6.171c1.368-4.243-14.313-13.381-14.313-13.381l-.165,2.191c0,0,9.699,5.406,9.064,9.114-.634,3.708-12.656.568-25.931-5.818s-24.077-13.645-22.817-16.34c1.261-2.694,12.229.981,12.229.981l1.598-1.706Z" transform="translate(165.542015,187.289742) translate(-165.542015,-187.289741) translate(0 0.000001) translate(0 0.000001)"/></g><g opacity=".3"><path fill="#fff" d="M159.888,187.82c-.442.237-.945.339-1.445.291-.5-.049-.975-.244-1.364-.562-.389-.319-.674-.745-.821-1.226-.146-.48-.146-.994-.001-1.474.146-.481.431-.908.82-1.227.388-.318.862-.515,1.362-.564.5-.048,1.003.052,1.446.289.443.238.806.601,1.042,1.045.315.592.383,1.286.188,1.928-.194.642-.635,1.182-1.227,1.5Z" transform="translate(165.542015,187.289742) translate(-165.542015,-187.289741) translate(0 0.000001)"/></g><g opacity=".3"><path fill="#fff" d="M164.645,181.17c-.258.136-.55.193-.84.163-.289-.029-.564-.144-.788-.329-.225-.186-.39-.434-.474-.713-.084-.278-.083-.576.001-.855.085-.278.251-.526.476-.71.225-.185.5-.299.79-.328.29-.028.582.029.839.166s.468.347.606.604c.181.347.219.751.105,1.126-.114.374-.371.689-.715.876Z" transform="translate(165.542015,187.289742) translate(-165.542015,-187.289741) translate(0 0.000001)"/></g></g><g opacity=".3"><path fill="#fff" d="M170.739,174.578c-.074.181-1.359-.322-3.51-.528-2.771-.306-5.571.205-8.055,1.47-2.485,1.265-4.545,3.229-5.928,5.65-1.096,1.862-1.442,3.197-1.648,3.148-.206-.05-.091-1.459.873-3.544.573-1.218,1.326-2.343,2.233-3.337c1.114-1.231,2.44-2.253,3.914-3.016c1.485-.742,3.089-1.217,4.738-1.401c1.338-.15,2.691-.097,4.013.157c2.233.478,3.428,1.285,3.37,1.401Z" transform="translate(165.542015,187.289742) translate(-165.542015,-187.289741)"/></g></g></g><g id="e0jBTLXwsOh18_tr"><path fill="#fb5f66" fill-opacity=".3" d="M94.4565,24.8084c1.0336-.6238,2.1458-1.1071,3.3072-1.437l.68-3.2752L103.977,20l.796,3.2462c1.172.2882,2.301.7327,3.355,1.3216l2.797-1.8316l3.981,3.8493-1.735,2.8581c.625,1.0331,1.108,2.1454,1.437,3.3072l3.265.6608.096,5.5334-3.246.7955c-.288,1.1725-.733,2.301-1.322,3.3554l1.832,2.7971-3.849,3.9776-2.858-1.7321c-1.035.6238-2.148,1.1071-3.311,1.437l-.68,3.2752-5.5299.0962-.7988-3.2463c-1.1715-.2914-2.2997-.7357-3.3553-1.3216l-2.7939,1.8317-3.9809-3.8493l1.7322-2.8582c-.6238-1.0336-1.1071-2.1458-1.437-3.3072l-3.2752-.68L85,33.9826l3.2495-.7955c.2888-1.1719.7322-2.3002,1.3183-3.3553l-1.8316-2.7972l3.8493-3.9776l2.8581,1.7322.0129.0192Zm2.9479,7.3779c-.8152.8444-1.3616,1.9116-1.5703,3.0665-.2087,1.155-.0701,2.346.398,3.4222.4682,1.0763,1.245,1.9896,2.2322,2.6244s2.1407.9626,3.3137.9419c1.174-.0206,2.315-.3888,3.279-1.0579s1.709-1.6091,2.139-2.7012c.43-1.092.526-2.2871.277-3.434s-.833-2.1942-1.677-3.0095c-1.131-1.0935-2.65-1.6933-4.223-1.6674s-3.071.6752-4.1654,1.8053l-.0032.0097Z" transform="translate(101.484501,36.47345) rotate(0) translate(-101.484501,-36.47345)"/></g><path fill="#fb5f66" fill-opacity=".2" d="M402.313,346.81c2.233,10.779,4.466,21.515,6.657,32.295.171.816,1.417.472,1.245-.344-2.233-10.779-4.466-21.516-6.656-32.295-.172-.816-1.418-.472-1.246.344v0Z"/><path fill="#fb5f66" fill-opacity=".2" d="M409.487,380.007c10.608,5.583,23.277,5.926,34.185.945.773-.344.086-1.461-.644-1.117-10.436,4.767-22.719,4.38-32.897-.945-.73-.386-1.374.73-.644,1.117v0Z"/><path fill="#fb5f66" fill-opacity=".2" d="M444.444,380.221c3.264-11.208,6.184-22.503,8.804-33.926.172-.816-1.074-1.16-1.246-.344-2.619,11.381-5.54,22.675-8.803,33.927-.215.773,1.03,1.117,1.245.343v0Z"/><path fill="#fb5f66" fill-opacity=".2" d="M402.829,346.638c15.847,6.442,33.927,6.356,49.688-.215.773-.3.429-1.546-.344-1.245-15.589,6.528-33.368,6.613-49.001.215-.73-.344-1.073.901-.343,1.245v0Z"/><path fill="#fb5f66" fill-opacity=".2" d="M399.05,340.582c-.171.988-.386,2.019-.472,3.049-.043.516-.086.988.301,1.375.472.472,1.374.687,1.975.902.988.343,1.976.558,2.963.687.816.129,1.16-1.117.344-1.246-1.289-.171-2.491-.472-3.693-.945-.816-.343-.645-.558-.516-1.374.129-.687.215-1.374.344-2.104.086-.773-1.117-1.16-1.246-.344v0Z"/><path fill="#fb5f66" fill-opacity=".2" d="M399.179,341.141c8.074,4.38,18.08,4.165,27.013,4.466c9.62.344,19.368-.129,28.344-3.822-.258-.129-.515-.301-.773-.43.43,1.289.515,2.491.344,3.822.171-.214.3-.429.472-.601-.988.344-1.975.687-3.006.988-.773.258-.43,1.503.343,1.245.988-.343,1.976-.687,3.007-.987.3-.086.429-.301.472-.602.172-1.46.043-2.748-.387-4.165-.085-.301-.472-.602-.773-.43-8.632,3.565-17.994,4.08-27.227,3.779-8.89-.257-19.111,0-27.142-4.337-.773-.429-1.417.687-.687,1.074v0Z"/><path fill="#fb5f66" fill-opacity=".2" d="M407.767,370.988c2.619,4.638,5.969,8.718,10.049,12.197.644.515,1.546-.387.902-.902-3.951-3.393-7.258-7.387-9.835-11.896-.429-.773-1.546-.129-1.116.601v0Z"/><path fill="#fb5f66" fill-opacity=".2" d="M405.278,359.607c2.878,4.81,6.013,9.406,9.448,13.786c1.761,2.233,3.565,4.38,5.411,6.528c1.117,1.245,2.706,3.908,4.424,4.122.215.043.472-.128.558-.3.172-.301.215-.516.086-.859-.086-.258-.301-.472-.601-.472-.043,0-.086,0-.129,0-.816,0-.816,1.288,0,1.288.043,0,.086,0,.129,0-.215-.172-.43-.301-.602-.473.559-.257.645-.558.215-.815-.172-.172-.343-.387-.515-.559-.43-.472-.859-.945-1.331-1.417-.859-.945-1.718-1.89-2.577-2.877-1.718-2.019-3.393-4.037-4.982-6.142-3.049-3.993-5.84-8.159-8.417-12.454-.43-.73-1.546-.086-1.117.644v0Z"/><path fill="#fb5f66" fill-opacity=".2" d="M403.559,349.902c7.902,11.982,17.05,23.062,27.4,32.982.601.558,1.503-.344.902-.902-10.264-9.877-19.369-20.871-27.185-32.724-.472-.687-1.589-.043-1.117.644v0Z"/><path fill="#fb5f66" fill-opacity=".2" d="M413.565,350.16c7.258,11.509,15.633,22.245,25.038,32.08.558.601,1.503-.301.901-.902-9.319-9.749-17.65-20.399-24.822-31.823-.43-.687-1.546-.043-1.117.645v0Z"/><path fill="#fb5f66" fill-opacity=".2" d="M425.419,351.147c5.797,7.731,11.853,15.246,18.252,22.461.558.644,1.46-.301.902-.902-6.313-7.172-12.326-14.559-18.038-22.203-.472-.644-1.589,0-1.116.644v0Z"/><path fill="#fb5f66" fill-opacity=".2" d="M435.554,350.675c3.306,5.024,7.086,9.705,11.251,14.043.559.601,1.503-.301.902-.902-4.123-4.252-7.773-8.847-11.037-13.785-.472-.688-1.589-.043-1.116.644v0Z"/><path fill="#fb5f66" fill-opacity=".2" d="M443.974,349.258c1.717,2.448,3.607,4.81,5.625,7c.559.601,1.461-.301.902-.902-1.975-2.104-3.779-4.38-5.411-6.742-.472-.688-1.589-.043-1.116.644v0Z"/><g id="e0jBTLXwsOh32_tr"><g><path fill="#fb5f66" fill-opacity=".2" d="M416.745,342.73c-7.344-4.51-13.829-10.178-19.24-16.835c0,.301,0,.601,0,.902.773-.859,1.632-1.503,2.663-2.062.343-.171.429-.773.129-1.03-3.608-2.878-4.853-7.344-5.97-11.638-.129.257-.3.515-.429.773c1.932-.731,1.718-2.62.859-4.209-1.761-3.307-1.761-7.215-2.19-10.908-.816-7.473-1.504-14.945-2.062-22.461-.343.172-.644.387-.988.558c5.712,3.35,10.264,8.16,14.301,13.357c4.209,5.368,7.859,11.165,10.951,17.264c6.142,12.067,9.921,25.252,11.123,38.737.086.816,1.375.816,1.289,0-1.246-13.7-5.068-27.099-11.295-39.382-3.092-6.055-6.742-11.852-10.908-17.221-4.166-5.368-8.89-10.35-14.773-13.828-.387-.215-.988.043-.988.558.472,6.227,1.03,12.497,1.675,18.724.3,3.05.644,6.099.987,9.148.129,1.159.215,2.405.516,3.521.257.945,2.405,4.424,1.116,4.896-.343.129-.558.43-.429.773c1.159,4.509,2.491,9.233,6.27,12.24.043-.344.086-.688.129-1.031-1.16.601-2.062,1.288-2.963,2.276-.258.258-.215.644,0,.902c5.497,6.785,12.067,12.497,19.497,17.049.816.473,1.46-.644.73-1.073v0Z" transform="translate(426.582794,345.48465) rotate(5.540118) translate(-426.582794,-345.484647)"/><path fill="#fb5f66" fill-opacity=".2" d="M397.333,292.011c9.62,16.405,17.693,33.712,24.092,51.621.258.773,1.503.429,1.246-.344-6.442-18.037-14.559-35.43-24.221-51.921-.43-.687-1.547-.043-1.117.644v0Z" transform="translate(426.582794,345.48465) rotate(5.540118) translate(-426.582794,-345.484647)"/><path fill="#fb5f66" fill-opacity=".2" d="M394.113,306.14c4.681,1.117,9.491,2.319,12.97,5.798.601.601,1.503-.344.901-.902-3.65-3.651-8.632-4.982-13.527-6.141-.816-.172-1.16,1.073-.344,1.245v0Z" transform="translate(426.582794,345.48465) rotate(5.540118) translate(-426.582794,-345.484647)"/><path fill="#fb5f66" fill-opacity=".2" d="M403.432,300.729c.258-3.564,1.16-7,2.663-10.264.343-.73-.773-1.417-1.117-.644-1.589,3.479-2.577,7.086-2.834,10.908-.043.816,1.245.816,1.288,0v0Z" transform="translate(426.582794,345.48465) rotate(5.540118) translate(-426.582794,-345.484647)"/></g></g><path fill="#fb5f66" fill-opacity=".2" d="M399.953,341.098c3.221-.472,6.442-.773,9.662-.945.816-.043.816-1.331,0-1.288-3.349.172-6.699.515-10.006.988-.816.128-.472,1.374.344,1.245v0Z"/><g id="e0jBTLXwsOh38_tr"><g><path fill="#fb5f66" fill-opacity=".2" d="M424.044,325.551c.172-14.086,6.399-27.012,12.497-39.424-.3.086-.601.172-.902.215.816.472,1.632.988,2.448,1.46.43.258.988-.086.988-.558c0-4.81,5.068-8.503,8.16-11.681c3.478-3.565,7-7.172,10.478-10.737-.386-.171-.73-.3-1.116-.472.816,7.344,1.589,14.687,1.89,22.074.128,3.607.171,7.215,0,10.822-.129,2.878.429,10.436-3.866,10.436-.601,0-.773.687-.472,1.117c2.749,3.435.258,7.558-1.975,10.435-1.89,2.491-3.823,4.896-5.626,7.473-3.908,5.54-7.387,11.338-10.479,17.35-.387.73.73,1.374,1.117.644c3.693-7.172,7.944-14.043,12.754-20.485c3.307-4.38,9.706-10.65,5.111-16.319-.172.386-.301.73-.473,1.116c2.749,0,4.166-2.362,4.596-4.853.73-4.122.687-8.503.687-12.711-.043-9.062-1.031-18.08-2.019-27.056-.043-.515-.687-.902-1.116-.472-4.08,4.208-8.203,8.374-12.283,12.583-2.92,3.006-6.699,6.184-6.742,10.736.343-.172.644-.387.988-.558-.816-.473-1.632-.988-2.448-1.461-.301-.171-.73-.085-.902.215-6.227,12.626-12.497,25.725-12.669,40.068.086.859,1.374.859,1.374.043v0Z" transform="translate(428.845429,345.026093) rotate(3.927372) translate(-428.845416,-345.02609)"/><path fill="#fb5f66" fill-opacity=".2" d="M452.991,276.379c-11.596,19.97-19.583,41.915-23.577,64.676-.129.816,1.116,1.159,1.245.344c3.951-22.633,11.896-44.449,23.448-64.333.43-.773-.687-1.417-1.116-.687v0Z" transform="translate(428.845429,345.026093) rotate(3.927372) translate(-428.845416,-345.02609)"/><path fill="#fb5f66" fill-opacity=".2" d="M434.439,288.275c3.22,4.681,3.951,10.221,4.122,15.761.043.816,1.332.816,1.289,0-.215-5.755-.988-11.552-4.338-16.405-.429-.687-1.546-.043-1.073.644v0Z" transform="translate(428.845429,345.026093) rotate(3.927372) translate(-428.845416,-345.02609)"/><path fill="#fb5f66" fill-opacity=".2" d="M445.517,294.459c1.932-2.19,3.908-4.381,6.313-6.055c1.932-1.332,4.122-2.148,5.883-3.78.601-.558-.3-1.46-.902-.901-1.889,1.803-4.466,2.662-6.527,4.251-2.105,1.632-3.865,3.608-5.626,5.583-.601.601.3,1.503.859.902v0Z" transform="translate(428.845429,345.026093) rotate(3.927372) translate(-428.845416,-345.02609)"/></g></g><path fill="#fb5f66" fill-opacity=".2" d="M439.376,339.552c4.595-.258,9.062.558,13.227,2.491.731.343,1.418-.773.645-1.117-4.381-2.018-9.062-2.92-13.915-2.662-.816.043-.816,1.331.043,1.288v0Z"/><path fill="#fb5f66" fill-opacity=".2" d="M438.261,344.104c.73-1.374,1.417-2.748,2.147-4.165-.386-.172-.773-.344-1.159-.516-.43,1.246-.859,2.448-1.289,3.694-.257.73.773,1.073,1.16.515.859-1.245,1.761-2.448,2.62-3.693-.387-.172-.773-.344-1.16-.516-.429,1.289-.859,2.577-1.288,3.865-.258.688.816,1.117,1.159.516.73-1.203,1.417-2.362,2.148-3.565-.387-.129-.816-.214-1.203-.343.043,1.03-.086,1.932-.343,2.92-.215.73.773,1.074,1.159.515.558-.773,1.117-1.546,1.718-2.319-.387-.171-.773-.343-1.16-.515-.3.988-.558,1.976-.859,2.963-.128.516.344.902.773.773.731-.172,1.16-.386,1.589-.987.301-.387.172-1.117-.472-1.117-1.675.086-3.264.344-4.853.945-.644.214-.601,1.288.172,1.245c2.834-.086,5.497-.816,8.203-1.589.816-.257.472-1.374-.344-1.245-1.933.257-3.822.3-5.755.086.043.429.129.859.172,1.245.988-.343,5.196-1.718,6.012-.558.129-.301.258-.644.387-.945-2.104.386-3.994-.086-5.755-1.331-.129.386-.214.816-.343,1.202.429-.043,4.423-.386,4.165.558.258-.128.516-.3.773-.429-1.632-.301-3.135-.773-4.681-1.331-.043.429-.128.859-.171,1.245c1.202.086,2.147.344,3.263.816.043-.386.086-.773.172-1.159-1.116.171-2.018,0-3.049-.387-.129.429-.215.816-.343,1.245c1.803.516,3.521.645,5.368.473.687-.086.945-1.074.172-1.246-.516-.085-1.031-.257-1.504-.515-.171.387-.343.773-.515,1.16.988.3,1.89.472,2.92.429.816,0,.816-1.288,0-1.288-1.46,0-2.662-.301-3.951-.988-.043.386-.086.773-.171,1.159c2.018-.386,3.779.043,5.454,1.203.129-.387.214-.816.343-1.203-2.877-.171-5.754-.429-8.589-.816c0,.43,0,.816,0,1.246c2.963-.644,5.798-.558,8.718.215.043-.43.129-.859.172-1.246-3.522.301-6.957,0-10.393-.859c0,.43,0,.816,0,1.246c2.963-1.16,6.055-1.16,8.761.601.129-.387.215-.816.343-1.203-2.018.129-3.908-.042-5.883-.472-.043.43-.129.859-.172,1.246c1.589.171,3.221.343,4.81.472.816.086.816-1.203,0-1.288-1.589-.172-3.221-.344-4.81-.473-.73-.086-.859,1.117-.172,1.246c2.062.472,4.123.687,6.227.558.645-.043.859-.859.344-1.203-2.963-1.932-6.528-2.018-9.749-.73-.558.215-.687,1.074,0,1.246c3.522.902,7.086,1.202,10.737.902.687-.043.902-1.074.172-1.246-3.135-.816-6.228-.902-9.405-.215-.602.129-.645,1.16,0,1.246c2.963.429,5.926.73,8.932.859.687.043.816-.859.344-1.203-1.976-1.374-4.123-1.76-6.442-1.331-.558.086-.644.945-.172,1.16c1.46.773,2.92,1.159,4.595,1.159c0-.429,0-.859,0-1.288-.902,0-1.718-.129-2.576-.387-.688-.215-1.16.859-.516,1.16.601.3,1.16.472,1.804.644.043-.43.129-.859.172-1.246-1.718.172-3.35.043-5.025-.429-.816-.215-1.116.945-.343,1.245c1.288.473,2.362.559,3.736.387.515-.086.644-.945.172-1.16-1.289-.558-2.491-.901-3.908-.987-.773-.086-.816,1.03-.172,1.245c1.546.601,3.092,1.031,4.681,1.331.343.086.687-.085.773-.429.73-2.877-3.865-2.319-5.411-2.19-.644.043-.859.816-.344,1.202c2.062,1.417,4.295,1.89,6.743,1.46.386-.086.601-.644.386-.944-1.417-2.019-5.583-.645-7.429-.043-.731.257-.559,1.202.171,1.245c2.062.215,4.037.172,6.099-.129-.129-.429-.215-.816-.344-1.245-2.577.773-5.153,1.46-7.859,1.546.043.429.129.859.172,1.245c1.503-.515,2.92-.816,4.509-.902-.172-.386-.301-.73-.472-1.116-.344.215-.688.429-1.031.644.258.258.515.515.773.773.301-.988.558-1.976.859-2.963.215-.73-.773-1.074-1.16-.516-.558.773-1.116,1.546-1.717,2.319.386.172.773.344,1.159.516.301-1.117.429-2.105.387-3.264c0-.644-.859-.902-1.203-.344-.73,1.203-1.417,2.362-2.147,3.565.386.172.773.343,1.159.515.43-1.288.859-2.577,1.289-3.865.257-.73-.773-1.074-1.16-.515-.859,1.245-1.761,2.448-2.62,3.693.387.172.774.344,1.16.515.429-1.245.859-2.447,1.288-3.693.258-.687-.859-1.159-1.159-.515-.73,1.374-1.417,2.748-2.147,4.165-.301.902.816,1.547,1.202.816v0Z"/><path fill="#fb5f66" fill-opacity=".2" d="M404.076,341.141c-.644-.472-1.16-.601-1.89-.687-.816-.086-.816,1.159,0,1.288c3.264.43,6.485.859,9.749,1.289c0-.43,0-.859,0-1.289-2.706-.257-5.411-.472-8.117-.73c0,.43,0,.859,0,1.289c2.749,0,5.411.429,8.031,1.245.043-.429.129-.859.172-1.245-2.534.043-4.853-.559-7.043-1.847-.043.386-.086.773-.172,1.159c2.834-.515,5.497.043,7.859,1.675.129-.386.215-.816.343-1.202-2.748.129-5.239-.601-7.429-2.276-.129.386-.215.816-.344,1.202c2.577.215,4.982.816,7.301,1.933.172-.387.344-.773.515-1.16-.386-.129-.816-.3-1.202-.429c0,.429,0,.816,0,1.245.172-.043.301-.043.472-.086.645.086,1.031-.558.645-1.073-1.074-1.375-2.921-.988-4.166-2.062-.215.344-.43.73-.644,1.074c2.533.386,4.595,1.546,6.227,3.564.172-.386.3-.73.472-1.116-.945-.086-1.675-.258-2.577-.558-.73-.215-1.116.815-.515,1.159.988.601,1.89.988,3.049,1.16.816.128,1.16-.988.344-1.246-.902-.258-1.718-.644-2.534-1.116-.215.386-.429.73-.644,1.116c1.03.473,2.018.773,3.135.945.816.129,1.159-1.117.343-1.245-1.03-.129-1.846-.344-2.834-.816-.73-.344-1.374.687-.644,1.116.902.515,1.803.902,2.834,1.246.129-.43.215-.816.344-1.246-.988-.172-1.847-.472-2.749-1.031-.172.387-.343.773-.515,1.16.988.301,1.889.515,2.92.601.601.043.773-.73.473-1.116-1.761-2.148-4.037-3.479-6.786-3.865-.558-.086-1.159.601-.644,1.073c1.202,1.031,3.221.816,4.166,2.062.214-.344.429-.731.644-1.074-.515-.086-.644-.086-1.16.086-.601.215-.601,1.031,0,1.245.387.129.816.301,1.203.43.687.257,1.159-.859.515-1.16-2.534-1.202-5.153-1.889-7.945-2.104-.687-.043-.773.859-.343,1.202c2.405,1.761,5.11,2.577,8.116,2.448.645-.043.859-.859.344-1.202-2.663-1.804-5.712-2.362-8.89-1.804-.558.086-.601.902-.172,1.16c2.362,1.417,4.939,2.061,7.688,2.061.73,0,.859-1.031.172-1.245-2.749-.859-5.498-1.289-8.375-1.289-.859,0-.816,1.203,0,1.289c2.706.257,5.411.472,8.117.73.859.085.816-1.203,0-1.289-3.264-.429-6.485-.859-9.749-1.288c0,.429,0,.859,0,1.288.43.172.816.344,1.246.516.644.429,1.288-.688.644-1.16v0Z"/><path fill="#fb5f66" fill-opacity=".2" d="M350.906,168.843c0,3.565,0,7.129,0,10.694c0,.816,1.289.816,1.289,0c0-3.565,0-7.129,0-10.694c0-.816-1.289-.816-1.289,0v0Z"/><path fill="#fb5f66" fill-opacity=".2" d="M352.109,181.298c34.7,0,69.4,0,104.1,0c.816,0,.816-1.289,0-1.289-34.7,0-69.4,0-104.1,0-.859,0-.859,1.289,0,1.289v0Z"/><path fill="#fb5f66" fill-opacity=".2" d="M351.811,169.187c34.786,0,69.572,0,104.401,0c.816,0,.816-1.289,0-1.289-34.786,0-69.572,0-104.401,0-.816,0-.816,1.289,0,1.289v0Z"/><path fill="#fb5f66" fill-opacity=".2" d="M455.824,169.402c0,3.478,0,6.957,0,10.392c0,.816,1.289.816,1.289,0c0-3.478,0-6.957,0-10.392c0-.816-1.289-.816-1.289,0v0Z"/><path fill="#fb5f66" fill-opacity=".2" d="M361.559,181.469c1.331,2.964,2.62,5.927,3.951,8.89c1.031,2.276,2.019,2.019,4.466,2.147c2.277.086,3.178.387,3.823-1.846.944-3.264,1.846-6.528,2.748-9.792.215-.816-1.031-1.159-1.245-.343-.602,2.19-1.203,4.337-1.847,6.527-.258.945-.386,2.405-.902,3.264.043.859-.429,1.203-1.331.945-.558-.043-1.117-.043-1.718-.086-1.546-.086-2.061-.086-2.92-1.503-.559-.902-.902-2.018-1.332-2.963-.858-1.976-1.76-3.951-2.619-5.927-.301-.687-1.417-.043-1.074.687v0Z"/><path fill="#fb5f66" fill-opacity=".2" d="M424.044,181.641c.945,1.503,1.632,3.092,2.018,4.81.301,1.374.301,2.791,1.246,3.908c1.76,2.061,4.681,1.632,7,1.159.215-.043.386-.257.429-.429.859-3.307,1.718-6.614,2.577-9.92.215-.816-1.031-1.16-1.245-.344-.559,2.19-1.16,4.423-1.718,6.614-.129.558-.301,1.975-.644,2.49-.688.988-2.62.902-3.651.645-2.619-.645-2.362-3.05-2.92-5.068-.43-1.589-1.117-3.049-1.976-4.466-.472-.773-1.589-.129-1.116.601v0Z"/><path fill="#fb5f66" fill-opacity=".2" d="M358.896,167.985c0-16.577,0-33.197,0-49.774c0-.816-1.289-.816-1.289,0c0,16.577,0,33.197,0,49.774c0,.815,1.289.815,1.289,0v0Z"/><path fill="#fb5f66" fill-opacity=".2" d="M358.597,118.425c2.533-1.03,5.11-1.03,7.644-.085.773.3,1.117-.945.343-1.246-2.705-1.031-5.625-1.031-8.331.086-.73.301-.429,1.546.344,1.245v0Z"/><path fill="#fb5f66" fill-opacity=".2" d="M366.109,118.597c0,16.276,0,32.51,0,48.786c0,.816,1.289.816,1.289,0c0-16.276,0-32.51,0-48.786c0-.816-1.289-.816-1.289,0v0Z"/><path fill="#fb5f66" fill-opacity=".2" d="M367.358,123.579c3.865-2.534,8.718-2.62,12.669-.172.73.429,1.374-.687.644-1.117-4.337-2.662-9.749-2.577-13.957.172-.73.472-.086,1.589.644,1.117v0Z"/><path fill="#fb5f66" fill-opacity=".2" d="M379.598,123.149c0,14.559,0,29.074,0,43.633c0,.816,1.288.816,1.288,0c0-14.559,0-29.074,0-43.633c0-.816-1.288-.816-1.288,0v0Z"/><path fill="#fb5f66" fill-opacity=".2" d="M359.709,123.364c.129,1.202.258,2.362.387,3.564.086.816,1.374.816,1.288,0-.129-1.202-.258-2.362-.386-3.564-.086-.816-1.375-.816-1.289,0v0Z"/><path fill="#fb5f66" fill-opacity=".2" d="M361.043,127.186c.859,0,1.717,0,2.576,0c.816,0,.816-1.288,0-1.288-.859,0-1.717,0-2.576,0s-.859,1.288,0,1.288v0Z"/><path fill="#fb5f66" fill-opacity=".2" d="M360.272,124.008c.558.043,1.116.086,1.675.129.343.043,1.159-.086,1.288.301.043.215-.215.687-.215.945c0,.343.129.601.387.858.601.559,1.546-.343.902-.901c0,0,.214-.945.214-1.117-.043-.429-.257-.773-.644-1.031-.429-.257-.902-.257-1.374-.3-.73-.043-1.46-.086-2.19-.129-.902-.086-.902,1.202-.043,1.245v0Z"/><path fill="#fb5f66" fill-opacity=".2" d="M369.332,126.155c-.086,2.234-.043,4.51.086,6.743.043.816,1.331.816,1.288,0-.172-2.233-.215-4.509-.086-6.743.043-.858-1.245-.858-1.288,0v0Z"/><path fill="#fb5f66" fill-opacity=".2" d="M369.761,126.456c2.706.129,5.412.258,8.117.386-.215-.214-.429-.429-.644-.644c0,1.976,0,3.951,0,5.927c0,.816,1.288.816,1.288,0c0-1.976,0-3.951,0-5.927c0-.343-.3-.644-.644-.644-2.705-.129-5.411-.258-8.117-.386-.859-.043-.859,1.245,0,1.288v0Z"/><path fill="#fb5f66" fill-opacity=".2" d="M369.932,134.186c2.233-.086,4.51-.172,6.743-.257.816-.043.816-1.332,0-1.289-2.233.086-4.51.172-6.743.258-.816,0-.816,1.288,0,1.288v0Z"/><path fill="#fb5f66" fill-opacity=".2" d="M387.452,167.985c0-2.105,0-4.209,0-6.356c0-.816-1.288-.816-1.288,0c0,2.104,0,4.208,0,6.356c0,.815,1.288.815,1.288,0v0Z"/><path fill="#fb5f66" fill-opacity=".2" d="M386.594,161.671c12.97,0,25.897,0,38.866,0c.816,0,.816-1.288,0-1.288-12.969,0-25.896,0-38.866,0-.816,0-.816,1.288,0,1.288v0Z"/><path fill="#fb5f66" fill-opacity=".2" d="M424.816,161.414c0,2.319,0,4.638,0,6.957c0,.816,1.289.816,1.289,0c0-2.319,0-4.638,0-6.957c0-.816-1.289-.816-1.289,0v0Z"/><path fill="#fb5f66" fill-opacity=".2" d="M397.546,160.641c0-1.589,0-3.178,0-4.767c0-.816-1.288-.816-1.288,0c0,1.589,0,3.178,0,4.767c0,.816,1.288.816,1.288,0v0Z"/><path fill="#fb5f66" fill-opacity=".2" d="M397.115,156.346c12.411,0,24.865,0,37.277,0c.816,0,.816-1.288,0-1.288-12.412,0-24.866,0-37.277,0-.859,0-.859,1.288,0,1.288v0Z"/><path fill="#fb5f66" fill-opacity=".2" d="M425.675,162.273c2.577,0,5.154,0,7.731,0c.816,0,.816-1.289,0-1.289-2.577,0-5.154,0-7.731,0-.858,0-.858,1.289,0,1.289v0Z"/><path fill="#fb5f66" fill-opacity=".2" d="M434.179,155.53c-.3,2.018-.472,4.08-.472,6.098c0,.816,1.288.816,1.288,0c0-1.932.129-3.865.43-5.754.129-.816-1.117-1.16-1.246-.344v0Z"/><path fill="#fb5f66" fill-opacity=".2" d="M406.136,132.254c.257,7.859,1.331,15.632,3.221,23.276.214.816,1.46.472,1.245-.344-1.847-7.515-2.92-15.202-3.178-22.932-.043-.859-1.331-.859-1.288,0v0Z"/><path fill="#fb5f66" fill-opacity=".2" d="M407.084,132.726c2.706-1.073,5.497-1.331,8.374-1.589c2.964-.3,5.283.258,8.074,1.203.773.257,1.117-.988.344-1.246-2.964-.987-5.24-1.546-8.418-1.245-3.006.301-5.883.515-8.718,1.632-.773.301-.429,1.546.344,1.245v0Z"/><path fill="#fb5f66" fill-opacity=".2" d="M423.1,132.082c.3,7.687-.773,15.288-3.135,22.589-.258.773.987,1.117,1.245.344c2.405-7.43,3.479-15.16,3.178-22.933-.043-.816-1.331-.816-1.288,0v0Z"/><path fill="#fb5f66" fill-opacity=".2" d="M409.784,130.794c-.516-1.16-.902-2.405-1.16-3.651-.129-.687-.257-1.374-.3-2.104-.043-.902-.215-1.117.687-1.331.687-.172.601-.258.945.214.3.387.3,1.332.386,1.804.301,1.46.472,2.963.601,4.467.086.815,1.375.815,1.289,0-.172-2.234-.344-4.81-1.117-6.915-.515-1.331-1.503-1.073-2.706-.773-1.717.43-1.546,1.46-1.374,3.092.215,2.019.773,3.951,1.589,5.841.387.773,1.503.129,1.16-.644v0Z"/><path fill="#fb5f66" fill-opacity=".2" d="M417.945,129.935c.601-2.62,1.246-5.24,2.019-7.816.386-1.289.773-2.577,1.202-3.866.473-1.503,1.16-2.447,2.749-1.803c1.331.558,1.932.214,1.46,1.889-.344,1.203-.945,2.405-1.374,3.608-1.074,2.791-2.148,5.583-3.221,8.374-.301.773.944,1.117,1.245.344c1.546-3.994,3.092-7.988,4.638-11.982.258-.687,1.031-1.847.473-2.577-.215-.3-.473-.258-.773-.386-.902-.344-1.933-.559-2.878-.902-2.448-.859-2.92,1.073-3.564,3.092-1.246,3.865-2.319,7.73-3.221,11.681-.172.816,1.073,1.16,1.245.344v0Z"/><path fill="#fb5f66" fill-opacity=".2" d="M419.879,128.947c.515.086,1.03.129,1.546.215.343.043.644-.344.644-.645c0-.386-.301-.601-.644-.644-.516-.086-1.031-.129-1.546-.214-.344-.043-.645.343-.645.644c0,.386.301.601.645.644v0Z"/><path fill="#fb5f66" fill-opacity=".2" d="M420.779,125.168c.516.128,1.031.3,1.589.429.816.215,1.16-1.031.344-1.245-.515-.129-1.031-.301-1.589-.43-.773-.214-1.117,1.031-.344,1.246v0Z"/><path fill="#fb5f66" fill-opacity=".2" d="M422.199,121.689c.559.172,1.16.344,1.718.515.773.258,1.117-.987.344-1.245-.558-.172-1.16-.344-1.718-.515-.773-.258-1.117.987-.344,1.245v0Z"/><path fill="#fb5f66" fill-opacity=".2" d="M423.186,118.253c.472.215.902.387,1.374.602.301.128.687.086.902-.215.172-.258.086-.73-.215-.902-.472-.215-.902-.386-1.374-.601-.301-.129-.687-.086-.902.215-.172.3-.129.773.215.901v0Z"/><path fill="#fb5f66" fill-opacity=".2" d="M448,0.644183C448,34.3564,448,68.0258,448,101.738c0,.816,1.288.816,1.288,0c0-33.7122,0-67.3816,0-101.093817c0-.858911-1.288-.858911-1.288,0v0Z"/><path fill="#fb5f66" fill-opacity=".2" d="M448.346,101.695c0,.301,0,.601,0,.945c0,.816,1.288.816,1.288,0c0-3.0064,0-6.0126,0-9.0187c0-.816-1.288-.816-1.288,0c0,3.0061,0,6.0123,0,9.0187.429,0,.859,0,1.288,0c0-.301,0-.601,0-.945c0-.816-1.288-.816-1.288,0v0Z"/><path fill="#fb5f66" fill-opacity=".2" d="M448.989,103.027c26.411,0,52.78,0,79.192,0c.815,0,.815-1.289,0-1.289-26.412,0-52.781,0-79.192,0-.816,0-.816,1.289,0,1.289v0Z"/><path fill="#fb5f66" fill-opacity=".2" d="M528.48,102.726c0-33.7985,0-67.5967,0-101.43776c0-.815962-1.289-.815962-1.289,0c0,33.79816,0,67.59636,0,101.43776c0,.816,1.289.816,1.289,0v0Z"/><path fill="#fb5f66" fill-opacity=".2" d="M451.953,3.82194c0,31.26436,0,62.52876,0,93.79306c0,.816,1.288.816,1.288,0c0-31.2643,0-62.5287,0-93.79306c0-.81597-1.288-.81597-1.288,0v0Z"/><path fill="#fb5f66" fill-opacity=".2" d="M452.254,97.6582c0,.3006,0,.5583,0,.8589c0,.816,1.288.816,1.288,0c0-2.7914,0-5.5829,0-8.3744c0-.8159-1.288-.8159-1.288,0c0,2.7915,0,5.583,0,8.3744.429,0,.859,0,1.288,0c0-.3006,0-.5583,0-.8589c0-.8589-1.288-.8589-1.288,0v0Z"/><path fill="#fb5f66" fill-opacity=".2" d="M452.897,98.9036c23.534,0,47.068,0,70.603,0c.816,0,.816-1.2884,0-1.2884-23.535,0-47.069,0-70.603,0-.816,0-.816,1.2884,0,1.2884v0Z"/><path fill="#fb5f66" fill-opacity=".2" d="M523.843,98.5602c0-31.3503,0-62.7435,0-94.09373c0-.81597-1.288-.81597-1.288,0c0,31.35023,0,62.74343,0,94.09373c0,.8589,1.288.8589,1.288,0v0Z"/><path fill="#fb5f66" fill-opacity=".2" d="M453.585,35.2151c22.632,0,45.264,0,67.897,0c.816,0,.816-1.2883,0-1.2883-22.633,0-45.265,0-67.897,0-.816,0-.816,1.2883,0,1.2883v0Z"/><path fill="#fb5f66" fill-opacity=".2" d="M453.2,38.1785c22.675,0,45.393,0,68.069,0c.816,0,.816-1.2884,0-1.2884-22.676,0-45.394,0-68.069,0-.816,0-.816,1.2884,0,1.2884v0Z"/><path fill="#fb5f66" fill-opacity=".2" d="M462.047,33.3686c-.558-6.0982-.558-12.2394,0-18.3806.086-.816-1.203-.816-1.288,0-.559,6.0982-.559,12.2394,0,18.3806.085.816,1.374.816,1.288,0v0Z"/><path fill="#fb5f66" fill-opacity=".2" d="M461.185,19.4546c1.374-.4294,2.792-.4724,4.209-.2147.816.1718,1.159-1.0736.343-1.2454-1.632-.3436-3.306-.3006-4.895.2147-.816.2147-.473,1.4601.343,1.2454v0Z"/><path fill="#fb5f66" fill-opacity=".2" d="M467.156,30.6201c-.429-2.2331-.816-4.5093-.902-6.8283-.043-1.0307-.043-2.0614.043-3.0921.086-.9019.172-3.3068.773-3.9939c1.203-1.3313,1.374,1.7607,1.46,2.5767.129,1.0736.172,2.1902.215,3.3068s0,2.1902-.043,3.3068c-.043.6013-.258,5.3253-1.761,4.3375-.687-.4724-1.331.6442-.644,1.1166c2.92,1.9755,3.479-2.9203,3.608-4.6381.171-2.3191.171-4.6811-.043-7.0001-.129-1.3743-.043-3.5645-.945-4.6811-2.019-2.4909-3.307,1.9325-3.565,3.2209-.859,4.2087-.257,8.5462.559,12.7119.171.816,1.417.4724,1.245-.3436v0Z"/><path fill="#fb5f66" fill-opacity=".2" d="M470.034,19.3685c.902-.3865,1.847-.3865,2.749-.1288.816.2577,1.116-.9878.343-1.2454-1.288-.3865-2.534-.2577-3.736.2576-.773.3436-.129,1.4602.644,1.1166v0Z"/><path fill="#fb5f66" fill-opacity=".2" d="M472.523,15.976c.128,2.7485.214,5.497.343,8.2455.086,1.8467-.301,4.4234.387,6.1412.386.9878,1.331,1.5031,2.362,1.0737c1.46-.5583,1.674-2.5768,1.932-3.8651.43-2.2332.558-4.5523.43-6.8284-.086-1.8037-.172-4.0798-1.031-5.7117-1.589-3.0921-4.381-.9878-4.466,1.7178-.043.8159,1.245.8159,1.288,0c.043-.3436.043-.6442.086-.9878.687.1289,1.417.2148,2.104.3436.258.2577.301,1.3313.387,1.7178.214,1.2454.343,2.4909.343,3.7363.043,1.1595,0,2.362-.129,3.5215-.085.816-.128,3.3498-.73,3.994c0,.4294-.3.5153-.816.1717-.601.1718-.859,0-.73-.5153-.172-.3436-.043-1.2454-.086-1.6319-.043-1.2455-.086-2.4909-.171-3.6934-.086-2.4908-.215-4.9387-.301-7.4295.043-.816-1.245-.816-1.202,0v0Z"/><path fill="#fb5f66" fill-opacity=".2" d="M477.506,18.7673c1.074-.3006,2.148-.1718,3.135.3865.731.3865,1.375-.7301.645-1.1166-1.289-.6871-2.706-.8589-4.123-.5153-.773.2147-.473,1.4601.343,1.2454v0Z"/><path fill="#fb5f66" fill-opacity=".2" d="M480.597,15.5892c.086,2.8344.172,5.6688.258,8.5032.086,2.1473-.172,4.6381.429,6.7424.258.816.988,2.362,2.062,2.1473c1.331-.2577,1.717-3.0921,1.932-4.0369.945-4.4234.387-9.1044-.601-13.4849-.773-3.4786-3.865-2.5767-4.295.5583-.128.816,1.117,1.1595,1.246.3436-.129-.6442.215-.9019.902-.773.601-.3866.902-.3007.902.2147.3.3865.257,1.3313.343,1.8037.258,1.4172.472,2.8344.558,4.2516.215,2.7485.086,5.497-.73,8.1167-.214.6442-.257,1.7178-1.159.5154-.344-.4295-.215-1.3743-.258-1.8467-.086-1.3742-.086-2.7485-.129-4.1228-.086-2.9632-.172-5.9265-.3-8.9326.086-.816-1.203-.816-1.16,0v0Z"/><path fill="#fb5f66" fill-opacity=".2" d="M484.891,19.3683c1.116-.3006,2.19-.2147,3.263.2147.774.3007,1.117-.9448.344-1.2454-1.288-.5153-2.62-.5583-3.951-.2147-.773.2147-.429,1.4601.344,1.2454v0Z"/><path fill="#fb5f66" fill-opacity=".2" d="M488.114,14.172c-.344,6.3989-.387,12.7549-.215,19.1538.043.8159,1.331.8159,1.288,0-.171-6.3989-.129-12.7978.215-19.1538.043-.8159-1.245-.8159-1.288,0v0Z"/><path fill="#fb5f66" fill-opacity=".2" d="M466.295,19.1536c.688-.3865,1.461-.3865,2.148,0c.73.4294,1.374-.6871.644-1.1166-1.074-.6012-2.362-.6442-3.436,0-.73.3865-.086,1.5031.644,1.1166v0Z"/><path fill="#fb5f66" fill-opacity=".2" d="M474.028,19.0676c.73-.5583,1.718-.6012,2.448-.0429.644.5153,1.546-.3865.902-.9019-1.16-.9448-2.792-1.0736-3.994-.1718-.644.5154,0,1.632.644,1.1166v0Z"/><path fill="#fb5f66" fill-opacity=".2" d="M482.014,19.0249c.644-.3865,1.46-.3006,2.062.2147.601.5583,1.503-.3435.901-.9018-.987-.9019-2.447-1.1166-3.607-.4295-.73.4295-.086,1.5461.644,1.1166v0Z"/><path fill="#fb5f66" fill-opacity=".2" d="M509.889,13.6565c0,3.4357.773,7.6014-1.331,10.5217-2.019,2.7914-3.951,5.54-5.669,8.5461-.386.7301.687,1.3743,1.117.6442c1.03-1.8466,2.147-3.6933,3.392-5.4541.988-1.4172,2.234-2.7485,3.05-4.2516c1.546-2.8344.73-6.9572.73-10.0492c0-.7731-1.289-.7731-1.289.0429v0Z"/><path fill="#fb5f66" fill-opacity=".2" d="M514.57,13.8713c0,2.9202,0,5.8405,0,8.7179c0,.816,1.289.816,1.289,0c0-2.9203,0-5.8406,0-8.7179c0-.816-1.289-.816-1.289,0v0Z"/><path fill="#fb5f66" fill-opacity=".2" d="M514.867,23.1478c2.792,3.0921,4.509,6.6996,5.239,10.7794.129.8159,1.375.4724,1.246-.3436-.73-4.2945-2.663-8.1167-5.583-11.3806-.558-.5583-1.46.3436-.902.9448v0Z"/><path fill="#fb5f66" fill-opacity=".2" d="M503.232,34.2707c5.454.5583,11.08.6012,16.491-.3006.816-.1289.472-1.3743-.344-1.2454-5.325.8589-10.822.8159-16.147.2576-.859-.0859-.816,1.2025,0,1.2884v0Z"/><path fill="#fb5f66" fill-opacity=".2" d="M510.918,32.4238c.687-.2147,1.374-.2576,2.061-.0429.816.2147,1.16-1.0307.344-1.2454-.902-.2577-1.847-.2577-2.749.0429-.773.2577-.429,1.5031.344,1.2454v0Z"/><path fill="#fb5f66" fill-opacity=".2" d="M511.516,29.9761c.558-.0859,1.159-.043,1.717.1288.816.2148,1.16-1.0307.344-1.2454-.773-.2147-1.589-.2577-2.405-.1288-.344.0429-.515.4724-.429.773.085.3865.429.5153.773.4724v0Z"/><path fill="#fb5f66" fill-opacity=".2" d="M511.778,27.4853c.386.0859.815.1289,1.202.2148.344.0429.687-.0859.773-.4295.086-.3006-.086-.7301-.429-.773-.387-.0859-.816-.1288-1.203-.2147-.343-.043-.687.0859-.773.4294-.086.2577.086.6872.43.773v0Z"/><path fill="#fb5f66" fill-opacity=".2" d="M512.72,25.7674c-.043.0859-.129.1289-.215.1718-.086,0-.129,0-.043,0-.043,0-.086,0-.172-.0429-.129-.1718-.171-.2147-.129-.0859.172.3006.602.3865.902.2147.301-.1718.387-.5583.215-.9018-.344-.6872-1.331-.6442-1.675-.043-.172.3006-.086.6871.215.9019s.687.0859.902-.2148v0Z"/><path fill="#fb5f66" fill-opacity=".2" d="M453.028,60.4671c23.148,0,46.338,0,69.486,0c.816,0,.816-1.2884,0-1.2884-23.148,0-46.338,0-69.486,0-.816,0-.816,1.2884,0,1.2884v0Z"/><path fill="#fb5f66" fill-opacity=".2" d="M453.241,63.6453c23.105,0,46.166,0,69.271,0c.816,0,.816-1.2884,0-1.2884-23.105,0-46.166,0-69.271,0-.816,0-.816,1.2884,0,1.2884v0Z"/><path fill="#fb5f66" fill-opacity=".2" d="M485.75,63.216c0,11.2517,0,22.5034,0,33.7981c0,.816,1.288.816,1.288,0c0-11.2517,0-22.5035,0-33.7981c0-.859-1.288-.859-1.288,0v0Z"/><path fill="#fb5f66" fill-opacity=".2" d="M490.045,81.5966c-.387-.6013-.559-1.2454-.43-1.9755.172-.9019,1.203-1.8467,1.632-.5154.172.5583.129,1.3314.043,1.9326-.043.2577-.086.5153-.172.773-.086.1718-.859.816-.859.2147.043-.8159-1.245-.8159-1.288,0-.086,1.3313,1.632,1.9326,2.62,1.2455c1.202-.859,1.288-3.178.901-4.4664-.386-1.4172-2.104-2.2761-3.263-1.1166-1.203,1.2025-1.203,3.221-.301,4.5952.472.6442,1.589,0,1.117-.6871v0Z"/><path fill="#fb5f66" fill-opacity=".2" d="M495.368,59.6943c0-.4295,0-.8589-.043-1.2884c0-.8589-.172-.9877.387-1.4172.773-.5583,2.834-.4294,3.736-.5153c2.491-.2577,4.982-.4295,7.515-.5154c5.025-.1718,10.05,0,15.031.4295.816.0859.816-1.2025,0-1.2884-6.227-.5583-12.54-.6442-18.767-.2147-1.546.0859-3.049.2147-4.595.3865-1.16.1288-2.663.0429-3.736.5153-1.418.6013-.859,2.6197-.816,3.9081c0,.816,1.288.8589,1.288,0v0Z"/><path fill="#fb5f66" fill-opacity=".2" d="M500.867,54.8844c-.429-2.5338,2.835-1.9326,4.467-1.9755c1.717-.043,3.435-.043,5.153-.0859c3.436-.043,6.871-.0859,10.307-.1289.816,0,.816-1.2883,0-1.2883-5.153.0859-10.307.1288-15.417.2147-3.135.0429-6.399-.5154-5.712,3.6074.086.816,1.331.4724,1.202-.3435v0Z"/><path fill="#fb5f66" fill-opacity=".2" d="M494.468,47.9274c0,1.2884-.472,3.3498,1.117,3.8651c1.889.6012,4.294.4295,6.27.3006.816-.0429.816-1.3313,0-1.2883-1.418.0858-2.792.0858-4.209-.043-.73-.0859-1.675.043-1.89-.7301-.171-.6012,0-1.5031,0-2.1043c0-.816-1.288-.816-1.288,0v0Z"/><path fill="#fb5f66" fill-opacity=".2" d="M495.114,48.5284c8.675-.4295,17.393-.4724,26.068-.0859.816.0429.816-1.2454,0-1.2884-8.675-.3865-17.393-.3436-26.068.0859-.816.0429-.816,1.3313,0,1.2884v0Z"/><path fill="#fb5f66" fill-opacity=".2" d="M73.7409,143.677c23.663,0,47.3261,0,70.9891,0c.816,0,.816-1.288,0-1.288-23.663,0-47.3261,0-70.9891,0-.816,0-.816,1.288,0,1.288v0Z"/><path fill="#fb5f66" fill-opacity=".2" d="M93.0625,143.591c0,8.203,0,16.449,0,24.651c0,.816,1.2884.816,1.2884,0c0-8.202,0-16.448,0-24.651c0-.815-1.2884-.815-1.2884,0v0Z"/><path fill="#fb5f66" fill-opacity=".2" d="M127.078,144.193c0,7.429,0,14.859,0,22.288c0,.816,1.288.816,1.288,0c0-7.429,0-14.859,0-22.288c0-.816-1.288-.816-1.288,0v0Z"/><path fill="#fb5f66" fill-opacity=".2" d="M110.199,141.83c0-5.883,0-11.724,0-17.607c0-.816-1.289-.816-1.289,0c0,5.883,0,11.724,0,17.607c0,.859,1.289.859,1.289,0v0Z"/><path fill="#fb5f66" fill-opacity=".2" d="M100.75,121.388c11.165,0,22.288,0,33.454,0c.816,0,.816-1.288,0-1.288-11.166,0-22.289,0-33.454,0-.8593,0-.8593,1.288,0,1.288v0Z"/><path fill="#fb5f66" fill-opacity=".2" d="M195.703,17.2028c0,11.5953,0,23.1906,0,34.7859c0,.816,1.288.816,1.288,0c0-11.5953,0-23.1906,0-34.7859c0-.816-1.288-.816-1.288,0v0Z"/><path fill="#fb5f66" fill-opacity=".2" d="M196.821,17.3743c13.356,0,26.669,0,40.025,0c.816,0,.816-1.2884,0-1.2884-13.356,0-26.669,0-40.025,0-.816,0-.816,1.2884,0,1.2884v0Z"/><path fill="#fb5f66" fill-opacity=".2" d="M197.806,53.1048c12.712,0,25.424,0,38.136,0c.816,0,.816-1.2884,0-1.2884-12.712,0-25.424,0-38.136,0-.859,0-.859,1.2884,0,1.2884v0Z"/><path fill="#fb5f66" fill-opacity=".2" d="M237.189,16.7301c0,11.4236,0,22.89,0,34.3135c0,.816,1.289.816,1.289,0c0-11.4235,0-22.8899,0-34.3135c0-.8159-1.289-.8159-1.289,0v0Z"/><path fill="#fb5f66" fill-opacity=".2" d="M200.385,21.7545c-.473,8.8898-.559,17.7795-.344,26.6692c0,.816,1.288.816,1.288,0-.214-8.8897-.085-17.7794.344-26.6692.043-.8589-1.245-.8589-1.288,0v0Z"/><path fill="#fb5f66" fill-opacity=".2" d="M201.973,22.5708c10.737-.043,21.516-.3007,32.252-.7301.816-.043.816-1.3313,0-1.2884-10.736.4295-21.472.6871-32.252.7301-.816,0-.816,1.2884,0,1.2884v0Z"/><path fill="#fb5f66" fill-opacity=".2" d="M233.495,21.7545c.344,8.8039.215,17.5648-.301,26.3686-.043.816,1.246.816,1.289,0c.558-8.7609.644-17.5647.3-26.3686-.043-.8589-1.331-.8589-1.288,0v0Z"/><path fill="#fb5f66" fill-opacity=".2" d="M201.715,49.7982c5.497-.6012,11.037-1.3313,16.534-1.7178c2.706-.1718,5.454-.2577,8.16-.0859c2.705.2147,5.368.7301,8.074.3865.816-.0859.816-1.3743,0-1.2884-2.577.3436-5.111-.1718-7.688-.3865-2.834-.2147-5.711-.1718-8.589.043-5.54.3865-11.037,1.1165-16.534,1.7178-.773.1288-.773,1.4172.043,1.3313v0Z"/><path fill="#fb5f66" fill-opacity=".2" d="M200.686,40.7368c2.619-.043,5.239-.043,7.816-.1718s5.067-1.2454,7.644-1.1166s5.068.6012,7.645.5583c2.834,0,5.668-.2577,8.503-.5154.816-.0858.816-1.3742,0-1.2883-2.706.2147-5.368.4724-8.074.5153-2.706.043-5.368-.4294-8.074-.5583-2.491-.1288-4.81.9019-7.301,1.0737-2.705.1718-5.454.1288-8.202.1718-.773.0429-.773,1.3313.043,1.3313v0Z"/><path fill="#fb5f66" fill-opacity=".2" d="M213.996,30.9024c-.644-.6442-.687-1.1595-.086-1.6319.215-.2148.472-.4295.73-.6013.43-.2577.945-.4294,1.417-.4294c1.074,0,2.105.73,2.319,1.8037.215,1.0736-.601,2.0614-1.632,2.362-1.116.3435-2.276-.2147-3.092-.9448-.601-.5583-1.546.3435-.901.9018c1.589,1.4602,4.079,2.0614,5.84.4724c1.546-1.4172,1.417-3.7362-.172-5.0675-1.717-1.4172-4.294-.816-5.626.8589-.558.6871-.944,1.6748-.601,2.5338.344.9018,1.332,1.3313,2.19.9877.731-.3436.387-1.589-.386-1.2454v0Z"/><path fill="#fb5f66" fill-opacity=".2" d="M216.144,16.0001c-.172-1.3743-.129-3.7792.945-4.8529.816-.8159.945.816,1.031,1.4173.129.9018.129,1.7607.043,2.6626-.086.8159,1.202.8159,1.288,0c.129-1.2884.172-6.69953-2.362-5.79767-1.074.38651-1.632,1.93257-1.933,2.92027-.386,1.3313-.429,2.6626-.257,3.994.129.8159,1.374.4724,1.245-.3436v0Z"/><path fill="#fb5f66" fill-opacity=".2" d="M157.781,374.08c31.694,0,63.43,0,95.124,0c31.866,0,63.732,0,95.554,0c17.866,0,35.731,0,53.553,0c.816,0,.816-1.288,0-1.288-31.694,0-63.43,0-95.124,0-31.866,0-63.731,0-95.554,0-17.865,0-35.731,0-53.553,0-.859,0-.859,1.288,0,1.288v0Z"/><path fill="#fb5f66" fill-opacity=".2" d="M448.694,373.436c32.424,0,64.848,0,97.315,0c.816,0,.816-1.289,0-1.289-1.117,0-2.276,0-3.393,0-.816,0-.816,1.289,0,1.289c1.117,0,2.276,0,3.393,0c.816,0,.816-1.289,0-1.289-32.424,0-64.848,0-97.315,0-.816,0-.816,1.289,0,1.289v0Z"/><path fill="#fb5f66" fill-opacity=".2" d="M351.721,407.835c30.277,0,60.597,0,90.873,0c8.589,0,17.135,0,25.725,0c.815,0,.815-1.288,0-1.288-30.277,0-60.597,0-90.873,0-8.589,0-17.136,0-25.725,0-.816,0-.816,1.288,0,1.288v0Z"/><path fill="#fb5f66" fill-opacity=".2" d="M405.75,426.86c33.54,0,67.124,0,100.664,0c.816,0,.816-1.288,0-1.288-33.54,0-67.124,0-100.664,0-.859,0-.859,1.288,0,1.288v0Z"/><path fill="#fb5f66" fill-opacity=".2" d="M163.923,393.105c31.05,0,62.143,0,93.192,0c8.847,0,17.651,0,26.498,0c.816,0,.816-1.289,0-1.289-31.05,0-62.142,0-93.192,0-8.847,0-17.651,0-26.498,0-.858,0-.858,1.289,0,1.289v0Z"/><path fill="#fb5f66" fill-opacity=".2" d="M190.292,421.921c34.571,0,69.142,0,103.713,0c.816,0,.816-1.288,0-1.288-34.571,0-69.142,0-103.713,0-.816,0-.816,1.288,0,1.288v0Z"/><path fill="#fb5f66" fill-opacity=".2" d="M253.421,384.001c14.087,17.221,28.087,34.528,41.915,51.921.516.644,1.418-.258.902-.902-13.828-17.436-27.786-34.743-41.915-51.921-.515-.644-1.417.258-.902.902v0Z"/><path fill="#fb5f66" fill-opacity=".2" d="M397.42,389.669c17.564,20.958,43.332,32.51,61.927,52.351.558.601,1.46-.301.902-.902-18.596-19.841-44.363-31.436-61.928-52.35-.515-.645-1.417.257-.901.901v0Z"/><path fill="#f6787e" fill-opacity=".5" d="M24.1764,267.532c29.8901,0,59.8232,0,89.7136,0c8.46,0,16.877,0,25.338,0c.816,0,.816-1.288,0-1.288-29.891,0-59.8236,0-89.7137,0-8.4603,0-16.8776,0-25.3379,0-.8159,0-.8159,1.288,0,1.288v0Z"/><path fill="#f6787e" fill-opacity=".5" d="M25.4668,279.643c0,4.251,0,8.503,0,12.798c0,.815,1.2884.815,1.2884,0c0-4.252,0-8.504,0-12.798c0-.816-1.2884-.816-1.2884,0v0Z"/><path fill="#f6787e" fill-opacity=".5" d="M26.5817,279.815c6.313,0,12.626,0,18.939,0c.8159,0,.8159-1.289,0-1.289-6.313,0-12.626,0-18.939,0-.8589,0-.8589,1.289,0,1.289v0Z"/><path fill="#f6787e" fill-opacity=".5" d="M48.8297,279.815c2.5338,0,5.0676,0,7.5584,0c.816,0,.816-1.289,0-1.289-2.5337,0-5.0675,0-7.5584,0-.8589,0-.8589,1.289,0,1.289v0Z"/><path fill="#f6787e" fill-opacity=".5" d="M60.1667,279.815c23.4912,0,47.0253,0,70.5163,0c.816,0,.816-1.289,0-1.289-23.491,0-47.0251,0-70.5163,0-.816,0-.816,1.289,0,1.289v0Z"/><path fill="#f6787e" fill-opacity=".5" d="M28.4723,298.754c30.2766,0,60.5962,0,90.8727,0c.816,0,.816-1.289,0-1.289-30.2765,0-60.5961,0-90.8727,0-.8589,0-.8589,1.289,0,1.289v0Z"/><path fill="#f6787e" fill-opacity=".5" d="M130.553,282.005c0,3.479,0,6.957,0,10.436c0,.816,1.288.816,1.288,0c0-3.479,0-6.957,0-10.436c0-.816-1.288-.816-1.288,0v0Z"/><path fill="#f6787e" fill-opacity=".5" d="M76.4849,290.551c-2.9633-.644-2.8344-5.54.5583-5.025c1.2454.172,2.4908,1.203,2.1902,2.577-.3006,1.503-2.1902,2.577-3.5645,1.847-.7301-.387-1.3742.73-.6442,1.116c1.9755,1.031,4.4664-.086,5.3253-2.147.8589-2.062-.6442-4.123-2.7056-4.595-2.0614-.473-4.2087.601-4.5093,2.791-.3006,2.062.9878,4.252,3.0921,4.681.7301.172,1.0736-1.073.2577-1.245v0Z"/><path fill="#f6787e" fill-opacity=".5" d="M31.1348,317.048c0,20.829,0,41.658,0,62.486c0,.816,1.2883.816,1.2883,0c0-20.828,0-41.657,0-62.486c0-.815-1.2883-.815-1.2883,0v0Z"/><path fill="#f6787e" fill-opacity=".5" d="M33.6686,317.22c23.4912,0,47.0254,0,70.5164,0c.816,0,.816-1.288,0-1.288-23.491,0-47.0252,0-70.5164,0-.816,0-.816,1.288,0,1.288v0Z"/><path fill="#f6787e" fill-opacity=".5" d="M109.898,316.748c4.123,0,8.203,0,12.325,0c.816,0,.816-1.289,0-1.289-4.122,0-8.202,0-12.325,0-.859,0-.859,1.289,0,1.289v0Z"/><path fill="#f6787e" fill-opacity=".5" d="M34.6139,383.013c30.9208,0,61.8416,0,92.7621,0c.816,0,.816-1.288,0-1.288-30.9205,0-61.8413,0-92.7621,0-.8159,0-.8159,1.288,0,1.288v0Z"/><path fill="#f6787e" fill-opacity=".5" d="M126.732,319.41c0,19.712,0,39.467,0,59.179c0,.816,1.289.816,1.289,0c0-19.712,0-39.467,0-59.179c0-.816-1.289-.816-1.289,0v0Z"/><path fill="#f6787e" fill-opacity=".5" d="M117.368,347.54c-1.847-.988-.602-4.123,1.503-3.049c2.405,1.202.343,4.251-1.847,3.349-.773-.3-1.116.945-.343,1.246c1.589.644,3.564-.172,4.337-1.718.773-1.589-.129-3.393-1.675-4.08-1.503-.687-3.221-.129-3.865,1.417-.601,1.417-.129,3.221,1.288,3.994.688.344,1.332-.773.602-1.159v0Z"/><path fill="#fb5f66" fill-opacity=".2" d="M13.1426,268.777c0,34.615,0,69.229,0,103.843c0,9.706,0,19.454,0,29.16c0,.816,1.2883.816,1.2883,0c0-34.614,0-69.228,0-103.842c0-9.706,0-19.455,0-29.161c0-.858-1.2883-.858-1.2883,0v0Z"/><path fill="#fb5f66" fill-opacity=".2" d="M14.7311,404.314c34.0129,0,67.9828,0,101.9959,0c9.706,0,19.411,0,29.16,0c.816,0,.816-1.289,0-1.289-34.013,0-67.983,0-101.9959,0-9.7056,0-19.4113,0-29.16,0-.816,0-.816,1.289,0,1.289v0Z"/><path fill="#fb5f66" fill-opacity=".2" d="M147.433,401.78c0-35.902,0-71.848,0-107.75c0-10.179,0-20.314,0-30.492c0-.816-1.288-.816-1.288,0c0,35.903,0,71.848,0,107.751c0,10.178,0,20.313,0,30.491c0,.859,1.288.859,1.288,0v0Z"/><path fill="#fb5f66" fill-opacity=".2" d="M15.1177,263.281c6.3989-3.35,12.9266-6.399,19.6261-9.148.773-.3.4295-1.546-.3436-1.245-6.7854,2.748-13.4419,5.84-19.9267,9.276-.7301.387-.0859,1.503.6442,1.117v0Z"/><path fill="#fb5f66" fill-opacity=".2" d="M128.968,249.452c5.797,3.264,11.123,7.172,15.975,11.724.602.558,1.503-.343.902-.902-4.938-4.595-10.35-8.589-16.233-11.939-.73-.429-1.374.687-.644,1.117v0Z"/><path fill="#f6787e" fill-opacity=".5" d="M119.775,248.851c0-14.601,0-29.203,0-43.804c0-.816-1.289-.816-1.289,0c0,14.601,0,29.203,0,43.804c0,.816,1.289.816,1.289,0v0Z"/><path fill="#f6787e" fill-opacity=".5" d="M119.688,239.704c2.019-1.546,3.264,8.76,3.307,9.576s1.331.816,1.289,0c-.086-1.76-1.246-13.699-5.24-10.693-.644.515,0,1.632.644,1.117v0Z"/><path fill="#f6787e" fill-opacity=".5" d="M106.634,223.985c3.78.086,7.559.215,11.338.301.816.043.816-1.246,0-1.289-3.779-.085-7.558-.214-11.338-.3-.858-.043-.858,1.245,0,1.288v0Z"/><path fill="#f6787e" fill-opacity=".5" d="M119.991,202.083c0-1.031,0-2.061,0-3.049c0-.816-1.288-.816-1.288,0c0,1.031,0,2.061,0,3.049c0,.859,1.288.859,1.288,0v0Z"/><path fill="#f6787e" fill-opacity=".5" d="M90.0572,225.274c2.405,2.104,6.0553,1.975,8.2885-.301.5583-.601-.3436-1.503-.9018-.902-1.7179,1.761-4.5523,1.933-6.4419.301-.6442-.558-1.589.344-.9448.902v0Z"/><path fill="#f6787e" fill-opacity=".5" d="M98.3463,224.673c6.6997,0,13.3557,0,20.0557,0c.816,0,.816-1.289,0-1.289-6.7,0-13.356,0-20.0557,0-.8159,0-.8159,1.289,0,1.289v0Z"/><path fill="#f6787e" fill-opacity=".5" d="M33.3266,257.483c-.9448-1.289-.8159-1.804.3436-1.632.2577,0,.5583-.043.816-.043.8159-.043,1.6319-.086,2.4479-.129c1.4172-.086,3.6074-.515,4.9816-.086.9878,0,.9878.687-.0429,2.062-.4724.128-.9878.171-1.5031.128-.773.043-1.546-.042-2.3191-.042-.4294,0-5.3682,0-5.3682-.215c0-.816-1.2883-.816-1.2883,0-.043,1.331,1.2454,1.417,2.319,1.417c2.4909.043,5.1964.386,7.6443.086c2.1044-.258,4.4234-3.049,1.7608-4.466-1.5031-.816-3.8221-.301-5.4111-.258-1.8037.086-4.5952-.301-6.2271.515-.9878.516-1.4602,1.632-.9448,2.663.5583,1.245,1.8896,1.417,3.092,1.159.859-.086.5154-1.331-.3006-1.159v0Z"/><path fill="#f6787e" fill-opacity=".5" d="M31.8217,256.366c.4294.559.8589,1.117,1.2884,1.675.3006.387,1.0736.473,1.1595-.172.0429-.3.0859-.515,0-.815-.043-.129-.043-.215-.1288-.344-.2577.472-.1289.859.3435,1.159.2577-.3.4724-.644.7301-.944.1288.257.2577.472.3865.73.3865-.172.7301-.301,1.1166-.473c0,0-.043,0-.043-.043.3436-.085.7301-.171,1.0737-.3.0859,0,.1718,0,.2577,0c.3865.043.773.086,1.1595.172-.043.043-.1289.085-.1718.128.3865,0,.7301,0,1.1166,0c0-.214-.043-.386-.043-.601.3436.086.7301.172,1.0737.301-.1289,0-.2148,0-.3436-.043.3006,0,.6013,0,.9019,0-.2577-.258-.6442,1.245-.6872,1.417.2148-.215.4295-.429.6442-.644-.1718-.258-.3006-.515-.4724-.816.4724-.687-.6442-1.331-1.1166-.644-.9448,1.331-.0859,2.92,1.589,2.748.3865-.043.6013-.257.6442-.644.0859-.773.816-1.202.4724-2.061-.2147-.473-.7301-.816-1.2454-.816-1.3743,0-1.5461,1.589-.773,2.405.2147.214.6871.257.9018,0c.6872-.859,1.2025-2.792-.5153-2.921-1.3313-.086-1.4602,1.418-1.2884,2.362.0859.473.773.645,1.0736.301.816-1.031.816-2.018,0-3.049-.1288-.172-.4294-.215-.6441-.172-1.5461.515-2.1903,2.104-1.3743,3.565.2147.386.9019.429,1.1166,0c.4724-.988.8589-2.964-.8589-3.05-1.4172-.085-1.5031,1.632-1.3313,2.62.0859.515.9448.644,1.1595.172.5153-1.074-.0429-2.749-1.546-2.491-1.3743.258-1.4602,1.89-.7301,2.749.3006.343.9877.171,1.0736-.301.2148-1.031-.5153-2.405-1.8037-1.933-1.1166.387-1.0736,1.847-.3436,2.534.4295.387,1.0737.129,1.1166-.472.0859-1.289-1.0736-2.835-2.4479-1.847-1.0307.73-.6012,1.976.4295,2.405.5153.215,1.0736-.515.7301-.945-.4724-.601-1.3743-2.405-2.4479-1.846-1.0737.558,0,1.417-.1289,2.147.3865-.043.7731-.086,1.1596-.172-.4295-.558-.859-1.116-1.2884-1.675-.3006-.644-1.4602,0-.9448.644v0Z"/><path fill="#f6787e" fill-opacity=".5" d="M37.3629,257.655c.6012.429,1.4602.3,1.9755-.172.2577-.215.2577-.687,0-.902-.2577-.258-.6442-.258-.9019,0-.0429.043-.1288.043-.1717.043-.043,0-.0859,0-.0859,0c.0429,0,.0429,0,0,0-.0859-.043-.0859-.043-.043,0-.0429,0-.0859-.043-.1288-.086-.3006-.215-.7301-.043-.9019.215-.1288.343,0,.687.2577.902v0Z"/><path fill="#fb5f66" fill-opacity=".2" d="M88.2955,217.844c.4724,2.105.9019,4.252,1.3743,6.356.1718.816,1.4172.473,1.2454-.343-.4724-2.105-.9019-4.252-1.3743-6.356-.1717-.816-1.4172-.473-1.2454.343v0Z"/><path fill="#fb5f66" fill-opacity=".2" d="M89.1545,218.188c2.7485.988,5.6688.945,8.4173-.172.773-.301.4295-1.546-.3436-1.245-2.5337,1.03-5.1534,1.116-7.7302.171-.773-.257-1.1165.988-.3435,1.246v0Z"/><path fill="#fb5f66" fill-opacity=".2" d="M97.4423,217.501c-.3435,1.975-.73,3.951-1.0736,5.926-.1288.816,1.1166,1.16,1.2454.344.3436-1.976.7301-3.951,1.0737-5.927.1288-.816-1.0737-1.159-1.2455-.343v0Z"/><path fill="#fb5f66" fill-opacity=".2" d="M88.2104,227.636c-2.1902,6.828-4.1228,13.743-5.7547,20.743-.1718.816,1.0736,1.159,1.2454.343c1.6319-7,3.5645-13.914,5.7547-20.742.2577-.816-.9877-1.16-1.2454-.344v0Z"/><path fill="#fb5f66" fill-opacity=".2" d="M83.1415,249.409c2.6626,1.503,6.0982,1.374,9.0615,1.289c3.6074-.129,7.1289-.688,10.608-1.589.815-.215.472-1.461-.344-1.246-3.0921.816-6.2701,1.331-9.491,1.503-2.9632.129-6.5707.43-9.1903-1.073-.7301-.43-1.3743.687-.6442,1.116v0Z"/><path fill="#fb5f66" fill-opacity=".2" d="M97.6172,227.421c1.5031,3.092,2.7488,6.27,3.7788,9.534.43,1.374,3.866,10.092,1.504,10.65-.816.172-.473,1.417.343,1.246c3.865-.859,1.16-6.485.473-8.761-1.332-4.552-2.921-9.019-4.9822-13.313-.3865-.773-1.5031-.086-1.1166.644v0Z"/><path fill="#fb5f66" fill-opacity=".2" d="M87.1373,246.661c3.5215.773,7.0001.73,10.4787-.129.816-.215.4724-1.46-.3435-1.246-3.2639.816-6.5278.859-9.8346.129-.773-.171-1.1166,1.074-.3006,1.246v0Z"/><path fill="#fb5f66" fill-opacity=".2" d="M89.7146,243.955c1.9755.601,3.9939.687,6.0124.257.816-.171.4724-1.417-.3436-1.245-1.8037.387-3.5645.301-5.3252-.258-.816-.214-1.1596,1.031-.3436,1.246v0Z"/><path fill="#fb5f66" fill-opacity=".2" d="M89.6276,241.207c1.3313,0,2.6626,0,3.9939,0c.816,0,.816-1.289,0-1.289-1.3313,0-2.6626,0-3.9939,0-.816,0-.816,1.289,0,1.289v0Z"/><path fill="#fb5f66" fill-opacity=".2" d="M89.1998,237.513c1.7178.301,3.4356.215,5.0676-.301.773-.257.4294-1.503-.3436-1.245-1.4601.472-2.9203.601-4.4234.301-.773-.172-1.1166,1.073-.3006,1.245v0Z"/><ellipse fill="none" stroke="#fb5f66" stroke-opacity=".2" stroke-width=".859" rx="20.099" ry="19.326" transform="translate(39.3368 222.225)"/><path fill="#fb5f66" fill-opacity=".2" d="M33.4963,241.335c.4724,3.994,1.2454,8.031.2147,11.982-.2147.816,1.0307,1.16,1.2454.344c1.0737-4.08.3436-8.203-.1717-12.326-.0859-.816-1.3743-.859-1.2884,0v0Z"/><path fill="#fb5f66" fill-opacity=".2" d="M42.1291,241.421c-.5583,2.147-.9018,4.337-1.1166,6.528-.2147,2.018-.5582,3.994.0859,5.969.2577.773,1.5031.473,1.2455-.343-.5583-1.804-.2148-3.737-.043-5.626.2147-2.105.5583-4.166,1.0736-6.227.2148-.773-1.0306-1.117-1.2454-.301v0Z"/><path fill="#fb5f66" fill-opacity=".2" d="M36.2456,202.727c.3436-4.552.4295-9.147.3436-13.699-.2148.214-.4295.429-.6442.644c1.7178-.172,3.0491-.988,4.1228-2.319c1.7178-2.147,1.7178-5.111,3.2638-7.215c1.1166-1.503,3.4786-1.546,5.1535-1.761c1.589-.215,3.178-.3,4.7669-.386c3.1351-.129,6.2701-.129,9.4051-.129c6.2701-.043,12.5401-.129,18.8531-.172c1.4172,0,2.8344-.043,4.2946-.043.3435,0,2.319-.215,2.5767-.043.5154.387.3436,1.804.3436,2.362c0,1.074-.3436,2.749.0859,3.779.4724,1.203,1.7178,1.718,1.0307,3.393-.3007.773.9448,1.117,1.2454.344.3435-.859.4724-1.718.0859-2.62-.1718-.387-.3865-.601-.5583-.945-.5583-1.073-.6442-1.975-.6013-3.135.043-2.018.6872-4.08-1.6319-4.466-1.6319-.258-3.4786.043-5.1535.043-1.7178,0-3.4356.043-5.1534.043-3.5645.043-7.129.086-10.6935.086-6.5706.043-13.3131-.258-19.8408.687-2.5338.386-4.5093.472-5.6259,2.963-1.3313,2.963-1.9325,7.773-5.9694,8.245-.3436.043-.6442.258-.6442.645.1288,4.595,0,9.147-.3436,13.699-.0859.816,1.2025.816,1.2884,0v0Z"/><path fill="#fb5f66" fill-opacity=".2" d="M44.4478,202.728c-.0859-1.933-.1288-3.823-.0859-5.755.043-1.46-.0429-3.049.816-4.338.3006-.472.773-.816,1.1166-1.288c1.5031-2.104,1.9325-4.681,1.4172-7.215-.2147.258-.4295.558-.6013.816c12.8837-.859,25.7674-1.761,38.694-2.62-.2147-.171-.4295-.3-.6012-.472.2147.988-.3436,1.976-.2148,3.006.1289,1.203,1.2025,2.362.5154,3.694-.3865.73.73,1.374,1.1166.644.6012-1.074.4724-1.933.1288-3.049-.5583-1.632.0859-3.007-.2577-4.596-.0429-.257-.3435-.472-.6012-.472-12.8837.859-25.7674,1.761-38.694,2.62-.4294.043-.73.386-.6012.816.3865,1.846.1718,3.779-.773,5.454-.6013,1.03-1.8037,1.761-2.2761,2.834-.5154,1.16-.3007,2.963-.3436,4.209-.043,1.932,0,3.822.0859,5.755-.0859.773,1.2025.773,1.1595-.043v0Z"/><path fill="#fb5f66" fill-opacity=".2" d="M90.3127,188.169c.5153.172,1.5031-.043,1.8037.429.1718.258.1718.688.2147.988.0859.516.1718.988.2148,1.503.0858.816,1.3742.816,1.2883,0-.0859-1.03-.1288-2.405-.7301-3.307-.6012-.901-1.5889-.558-2.4478-.858-.7731-.258-1.1166.987-.3436,1.245v0Z"/><path fill="#fb5f66" fill-opacity=".2" d="M85.461,188.383c-.9019.945-.3436,2.277.816,2.663.9877.301,2.1043-.215,2.4049,1.16.1718.773-.3865,1.803.1718,2.533.6871.902,3.0921.645,3.9939.258c1.4602-.644,1.2454-3.049.9878-4.294-.1289-.816-1.3743-.473-1.2454.343.1288.601.3006,1.761-.043,2.319s-1.0307.558-1.6749.558c-.9877.043-.9018-.257-.9448-1.202-.0429-.387.0859-.816,0-1.203-.0859-.558-.3865-1.03-.9018-1.288-.2577-.129-.5154-.215-.816-.258-.1718-.042-2.3191-.214-1.8896-.644.6442-.601-.2577-1.546-.8589-.945v0Z"/><g id="e0jBTLXwsOh186_to" transform="translate(91.571834,193.173561)"><path id="e0jBTLXwsOh186" fill="#fb5f66" fill-opacity=".2" d="M91.0025,201.01c0-.301.1718-2.276.7301-1.89.3006.215.1288.859.043,1.117c0,.043-.3007.816-.4724.558-.4295-.687-1.5461-.043-1.1166.644.5153.816,1.6319.859,2.2761.172.6871-.687.9018-2.061.5153-2.92s-1.5031-1.289-2.2761-.645c-.8159.645-1.0307,1.976-.9877,2.964.0429.816,1.3313.816,1.2883,0v0Z" opacity="0" transform="translate(-91.438938,-199.913811)"/></g><g id="e0jBTLXwsOh187_to" transform="translate(91.394077,193.267372)"><path id="e0jBTLXwsOh187" fill="#fb5f66" fill-opacity=".2" d="M92.4179,211.832c-.2147-.301-.1288-.559.0429-.859.0859-.129.2148-.258.3007-.43.1288-.086.1288-.128,0-.128-.1289-.043-.1289,0,0,.085c0,.129.1717.344.2147.473.0429.172.0859.386.0429.558-.0429.258-.2576.558-.5583.473-.8159-.215-1.1595,1.03-.3435,1.245.8589.215,1.6749-.258,2.0184-1.031.3436-.816.1289-2.018-.5153-2.705-.6872-.73-1.5461-.301-2.0614.386-.5583.73-.8589,1.718-.3006,2.491.5153.773,1.6319.129,1.1595-.558v0Z" opacity="0" transform="translate(-92.629612,-211.217018)"/></g><path fill="#fb5f66" fill-opacity=".2" d="M89.5397,217.973c2.2761-.043,4.5522-.129,6.8284-.258.8159-.043.8159-1.331,0-1.288-2.2762.086-4.5523.172-6.8284.258-.816,0-.816,1.288,0,1.288v0Z"/><path fill="#fb5f66" fill-opacity=".2" d="M21.6873,230.041c1.8896-4.509,6.8283.257,9.0615,1.675c2.1473,1.417,4.724,1.932,7.2148,1.159c1.3313-.429,2.4909-1.202,3.7363-1.846c1.7608-.902,3.5215-1.246,5.497-1.074c3.178.258,6.1412,2.018,9.4051,1.288.816-.171.4724-1.417-.3436-1.245-2.2761.515-4.3804-.473-6.5706-.945-1.5461-.344-3.178-.515-4.767-.386-3.7363.386-6.4418,3.693-10.3069,3.135-3.4786-.516-5.4541-3.866-8.7609-4.724-2.0614-.516-4.3375.171-5.1964,2.233-.3865.859.73,1.503,1.0307.73v0Z"/><path fill="#fb5f66" fill-opacity=".2" d="M30.0642,231.157c5.6688,1.203,8.8897-4.595,13.9144-5.712c4.5952-1.03,10.6505,4.037,14.3867-.644.5154-.644-.3865-1.546-.9018-.902-3.3068,4.123-9.5339-.687-13.8285.301-4.5952,1.074-8.1596,6.828-13.2272,5.712-.816-.172-1.1595,1.073-.3436,1.245Z"/><g id="e0jBTLXwsOh191_to" style="offset-path:path('M31.100491,232.762825C21.074176,224.156761,33.492393,210.734538,40.100491,199.762825');offset-rotate:0deg"><path id="e0jBTLXwsOh191" fill="#fb5f66" fill-opacity=".2" d="M30.5323,224.586c-.3865-.343-.5583-.944-.2147-1.374.3006-.429.9877-.558,1.4172-.257.4295.3.5153.944.2577,1.374-.3006.429-.9448.515-1.4602.257-.6871-.386-1.3313.688-.6442,1.117c1.0307.601,2.4479.344,3.1351-.687.6441-.988.3865-2.405-.5583-3.092s-2.362-.515-3.1351.386c-.773.945-.6441,2.405.2577,3.178.6871.559,1.589-.343.9448-.902v0Z" opacity="0" transform="translate(-31.100491,-223.762825)"/></g><g id="e0jBTLXwsOh192_to" style="offset-path:path('M38.823951,229.885486C30.324396,218.918001,48.955464,209.837864,39.3368,200.574623');offset-rotate:0deg"><path id="e0jBTLXwsOh192" fill="#fb5f66" fill-opacity=".2" d="M37.9203,214.838c-.1718-.473,0-1.031.5153-1.203.5583-.214,1.1166.258,1.2884.773.4294,1.375-1.7608,2.019-1.7178.602c0-.816-1.2884-.816-1.2884,0c0,1.288,1.2025,2.362,2.4908,2.104c1.2455-.258,2.1044-1.589,1.8467-2.834-.2577-1.203-1.5031-2.191-2.7485-1.89-1.2025.301-2.0614,1.675-1.589,2.834.2577.73,1.5031.387,1.2025-.386v0Z" opacity="0" transform="translate(-38.843515,-214.743996)"/></g><path fill="#fb5f66" fill-opacity=".2" d="M47.0671,248.593c7.859,0,15.6751,0,23.5341,0c.816,0,.816-1.288,0-1.288-7.859,0-15.6751,0-23.5341,0-.816,0-.816,1.288,0,1.288v0Z"/><path fill="#fb5f66" fill-opacity=".2" d="M107.662,246.36c1.632,0,3.221,0,4.853,0c.816,0,.816-1.288,0-1.288-1.632,0-3.221,0-4.853,0-.859,0-.859,1.288,0,1.288v0Z"/><path fill="#f6787e" fill-opacity=".5" d="M0.644183,405.602c34.528217,0,69.056417,0,103.584817,0c.816,0,.816-1.288,0-1.288-34.5284,0-69.0566,0-103.584817,0-.858911,0-.858911,1.288,0,1.288v0Z"/><path fill="#f6787e" fill-opacity=".5" d="M77.3454,411.958c26.0676,0,52.0926,0,78.1606,0c.816,0,.816-1.288,0-1.288-26.068,0-52.093,0-78.1606,0-.859,0-.859,1.288,0,1.288v0Z"/><path fill="#f6787e" fill-opacity=".5" d="M58.278,422.179c6.3559,0,12.7119,0,19.0678,0c.816,0,.816-1.288,0-1.288-6.3559,0-12.7119,0-19.0678,0-.816,0-.816,1.288,0,1.288v0Z"/><path fill="#f6787e" fill-opacity=".5" d="M142.796,438.326c27.699,0,55.356,0,83.056,0c.816,0,.816-1.288,0-1.288-27.7,0-55.357,0-83.056,0-.816,0-.816,1.288,0,1.288v0Z"/><path fill="#f6787e" fill-opacity=".5" d="M267.379,430.983c23.791,0,47.54,0,71.332,0c.816,0,.816-1.288,0-1.288-23.792,0-47.541,0-71.332,0-.859,0-.859,1.288,0,1.288v0Z"/><path fill="#f6787e" fill-opacity=".5" d="M323.038,434.891c14,0,28,0,42.001,0c.815,0,.815-1.288,0-1.288-14.001,0-28.001,0-42.001,0-.816,0-.816,1.288,0,1.288v0Z"/><path fill="#f6787e" fill-opacity=".5" d="M222.928,416.468c18.596,0,37.234,0,55.83,0c.816,0,.816-1.289,0-1.289-18.596,0-37.234,0-55.83,0-.816,0-.816,1.289,0,1.289v0Z"/><g id="e0jBTLXwsOh202_ts"><path fill="#fb5f66" fill-opacity=".5" d="M170.787,417.834c.068,7.407,35.801,13.095,54.558,15.159c52.902,5.752,115.585-1.618,116.014-11.962.434-10.43-62.576-25.333-121.454-18.226-18.568,2.209-49.133,8.141-49.118,15.029Z" opacity=".17" transform="translate(256.074112,417.979706) scale(1,1) translate(-256.074112,-417.979706)"/></g><g id="e0jBTLXwsOh203_to"><g transform="translate(247.478951,271.939194) translate(-247.478951,-271.939194)"><g><g id="e0jBTLXwsOh205_ts"><g><g><path fill="#222" fill-opacity=".8" stroke="#222" stroke-opacity=".8" stroke-width=".672" d="M268.595,353.362c-6.384,7.829-12.734,15.624-19.118,23.453c7.492,26.342,11.726,33.264,14.246,32.894c1.814-.269,2.688-4.2,3.662-8.601c2.42-10.988.975-20.429-.504-26.309c4.032-4.503,8.031-9.039,12.063-13.541-3.461-2.621-6.888-5.242-10.349-7.896Z" transform="translate(256.63,291.812103) scale(1,0.96) translate(-256.63,-291.812101)"/><path fill="#fb5f66" fill-opacity=".8" d="M245.04,313.042c3.998,3.091,7.828,1.982,15.758,3.326c6.754,1.143,14.347,3.663,22.411,8.703-8.601,10.08-17.203,20.731-25.737,31.954-2.05,2.721-4.1,5.443-6.082,8.164c3.293.773,7.258,1.983,11.558,3.932c4.2,1.881,7.628,3.998,10.349,5.913c12.802-11.155,24.226-21.941,34.407-32.121c4.704-4.705,11.357-11.895,12.398-22.076.067-.571.067-1.075.067-1.579-.235-16.901-21.504-29.131-34.44-33.634-14.145-4.905-38.472-7.56-45.259,4.167-3.998,6.921-1.646,18.446,4.57,23.251Z" transform="translate(256.63,291.812103) scale(1,0.96) translate(-256.63,-291.812101)"/><path fill="#6d6c6c" d="M269.871,296.141c-.235,3.192-.806,6.989-1.982,11.189-.84,2.99-1.848,5.645-2.856,7.896-1.109.437-2.184.874-3.293,1.31c7.224,2.856,14.482,5.712,21.706,8.568-5.376,6.149-10.786,12.6-16.229,19.32-5.612,6.922-10.954,13.709-16.028,20.396c3.596,1.176,7.157,2.352,10.752,3.494c12.869-14.179,25.738-28.392,38.607-42.571c1.344-3.864,1.277-6.888.874-9.005-1.848-10.349-14.516-18.782-31.551-20.597Z" opacity=".26" transform="translate(256.63,291.812103) scale(1,0.96) translate(-256.63,-291.812101)"/><path fill="#222" fill-opacity=".8" stroke="#222" stroke-opacity=".8" stroke-width=".672" d="M249.946,340.595c9.912,1.814,19.857,3.595,29.769,5.409c11.458,24.999,12.735,33.063,10.585,34.44-1.546.975-4.772-1.444-8.367-4.166-9.005-6.821-14.011-14.952-16.733-20.429-5.981-.806-11.961-1.646-17.942-2.453.873-4.267,1.781-8.534,2.688-12.801Z" transform="translate(256.63,291.812103) scale(1,0.96) translate(-256.63,-291.812101)"/><path fill="#fb5f66" fill-opacity=".8" d="M229.516,284.919c-18.077,5.309-29.098,16.33-36.187,23.587-9.576,9.845-21.337,21.908-17.943,30.812c1.747,4.536,7.056,7.324,31.786,11.625c18.681,3.259,34.877,5.007,47.51,5.981c1.58-5.779,3.159-11.525,4.704-17.304-12.701-4.099-25.368-8.165-38.069-12.264c7.796-1.646,15.994-3.595,24.528-5.981c6.485-1.814,12.668-3.696,18.548-5.678c5.443-10.987,6.619-22.848.941-29.568-7.93-9.408-25.705-4.2-35.818-1.21Z" transform="translate(256.63,291.812103) scale(1,0.96) translate(-256.63,-291.812101)"/><path fill="#6d6c6c" d="M269.737,296.545c-.168,3.326-.739,7.594-2.285,12.298-.941,2.856-2.016,5.342-3.091,7.392-.907.067-1.815.168-2.722.235-7.661,2.52-15.825,4.905-24.461,7.123-5.577,1.445-11.02,2.688-16.296,3.83c12.735,3.999,25.469,7.964,38.204,11.962-.269,1.378-.605,2.822-1.008,4.334-.471,1.748-1.008,3.36-1.512,4.839-17.573-4.335-35.146-8.669-52.719-13.003-.806-.975-3.461-4.503-3.058-9.173.437-5.074,5.276-8.669,11.458-11.962c17.875-9.475,47.847-15.893,57.49-17.875Z" opacity=".29" transform="translate(256.63,291.812103) scale(1,0.96) translate(-256.63,-291.812101)"/><path fill="#6d6c6c" d="M211.842,328.129c3.192-.235,6.417-.471,9.609-.739c12.533,4.166,25.066,8.366,37.599,12.532-.538,1.983-1.075,3.999-1.613,5.981-15.187-5.947-30.408-11.861-45.595-17.774Z" opacity=".24" transform="translate(256.63,291.812103) scale(1,0.96) translate(-256.63,-291.812101)"/></g><path fill="#6d6c6c" d="M283.377,325.037c1.176,1.781,2.319,3.595,3.495,5.376-10.013,12.063-20.026,24.091-30.039,36.154-1.781-.471-3.595-.975-5.376-1.445c6.418-8.803,13.339-17.842,20.832-26.947c3.73-4.536,7.426-8.904,11.088-13.138Z" opacity=".23" transform="translate(256.63,291.812103) scale(1,0.96) translate(-256.63,-291.812101)"/></g></g><path fill="#fff" stroke="#222" stroke-opacity=".8" stroke-width=".672" d="M224.777,208.782c4.973-2.924,13.608-7.09,25.1-8.3c17.606-1.848,31.113,4.469,36.456,7.325-.975,13.205-2.487,23.755-3.696,31.013-1.445,8.669-2.621,13.474-3.159,21.437-.672,9.979.168,18.178.941,23.554-5.846,1.814-14.683,3.796-25.57,3.561-10.483-.235-18.95-2.52-24.628-4.502c1.512-12.029,1.008-21.571.268-28.056-.84-7.224-1.982-10.752-3.36-19.488-1.78-11.29-2.251-20.53-2.352-26.544Z"/><path fill="#6d6c6c" d="M261.134,204.481c.705,2.553,1.512,6.081,2.049,10.315.37,2.856,1.882,15.792-2.822,32.861-2.89,10.517-5.947,21.638-15.96,30.777-3.226,2.957-6.351,4.94-8.635,6.183c5.073,1.31,11.692,2.553,19.521,2.621c10.248.1,18.716-1.748,24.596-3.562-.336-2.52-.773-6.317-.941-10.886-.135-3.999-.135-10.383,2.621-28.359c2.184-14.145,3.729-20.227,4.502-33.029.101-1.478.134-2.721.202-3.561-2.453-1.445-5.645-3.024-9.576-4.301-3.629-1.176-6.888-1.781-9.576-2.05-1.949.975-3.965,1.983-5.981,2.991Z" opacity=".14"/><path fill="#6d6c6c" d="M285.292,213.318c-1.881,10.651-4.368,19.253-6.316,25.234-5.712,17.472-9.711,29.232-20.496,37.833-6.687,5.343-13.642,7.594-18.111,8.669c4.536,1.277,10.954,2.52,18.715,2.352c8.938-.202,16.162-2.218,20.9-3.931-.639-4.099-1.378-10.248-1.176-17.741.235-9.71,1.814-15.557,3.561-26.208.975-6.25,2.218-15.187,2.923-26.208Z" opacity=".17"/><path fill="#fff" stroke="#222" stroke-opacity=".8" stroke-width=".672" d="M224.576,208.613c-4.368,3.024-9.979,7.796-14.884,14.885-11.055,16.061-10.752,33.096-10.316,39.379c2.016,5.41,5.477,12.5,11.525,19.455c3.528,4.065,8.703,9.912,17.539,13.675c2.957,1.277,5.544,1.983,7.426,2.386c1.613-1.445,3.192-2.89,4.805-4.335-5.175-6.048-10.383-12.398-15.591-18.95-3.998-5.007-7.828-9.979-11.524-14.885.134-4.133,1.008-11.626,5.51-19.454c2.554-4.436,5.544-7.661,7.93-9.845-.807-7.426-1.613-14.851-2.42-22.311Z"/><path fill="#6d6c6c" d="M225.215,216.106c-9.677,10.92-14.28,21.269-16.565,27.787-3.999,11.29-3.159,17.203-2.554,20.026.504,2.217,1.613,6.014,5.679,11.794c3.528,5.006,10.953,13.977,25.099,21.369c1.243-1.209,2.486-2.385,3.729-3.595-3.998-4.502-8.03-9.24-12.096-14.179-5.342-6.485-10.315-12.869-14.918-19.119.134-3.393.706-8.131,2.688-13.44c2.99-7.963,7.694-13.205,10.618-15.993-.605-4.872-1.143-9.744-1.68-14.65Z" opacity=".13"/><path fill="#6d6c6c" d="M213.555,260.626c.604,3.932,1.848,8.938,4.468,14.348c5.78,11.76,14.818,18.245,19.421,21.067.908-.806,1.781-1.579,2.688-2.386-8.87-11.02-17.707-22.041-26.577-33.029Z" opacity=".16"/><path fill="#fff" stroke="#222" stroke-opacity=".8" stroke-width=".672" d="M286.841,208.008c4.905,2.991,11.222,7.661,16.699,14.616c12.432,15.759,12.062,32.492,11.592,38.674-2.285,5.309-6.149,12.264-12.936,19.118-3.965,3.965-9.778,9.711-19.69,13.441-3.326,1.243-6.25,1.948-8.366,2.352-1.781-1.412-3.596-2.823-5.376-4.234c5.779-5.947,11.659-12.163,17.505-18.615c4.469-4.939,8.77-9.811,12.936-14.616-.168-4.032-1.108-11.39-6.182-19.118-2.89-4.368-6.216-7.526-8.904-9.677.941-7.325,1.848-14.616,2.722-21.941Z"/><path fill="#6d6c6c" d="M286.605,216.173c4.267,4.469,10.08,11.625,14.616,21.605c2.15,4.737,5.645,12.432,5.712,19.689.235,22.076-31.013,37.263-32.827,38.136-1.781-1.142-3.528-2.251-5.309-3.393c10.114-11.088,20.194-22.176,30.307-33.264-.201-3.629-1.041-10.383-5.073-17.573-3.327-5.914-7.46-9.744-10.181-11.861.941-4.435,1.848-8.87,2.755-13.339Z" opacity=".16"/><path fill="#6d6c6c" d="M299.439,259.047c-.504,2.923-1.344,6.115-2.654,9.408-5.914,14.918-17.876,23.083-23.924,26.578-1.444-.941-2.856-1.882-4.3-2.823c10.281-11.054,20.563-22.109,30.878-33.163Z" opacity=".12"/><path fill="#222" fill-opacity=".8" d="M252.059,292.68c-4.368.538-6.485-4.771-5.342-8.299c1.108-3.494,5.241-5.141,8.601-3.931c3.327,1.21,4.939,5.275,3.763,8.534-1.31,3.629-5.88,5.108-9.24,3.495-.571-.269-1.108.605-.504.873c2.991,1.445,6.653.908,9.039-1.444c2.318-2.319,2.654-5.981,1.209-8.837-3.292-6.519-13.473-4.435-14.179,2.721-.369,3.831,2.386,8.434,6.653,7.93.638-.101.638-1.109,0-1.042v0Z"/><path fill="#6d6c6c" d="M242.952,261.399c11.189,3.898,18.816,13.877,19.051,24.595.302,13.44-10.987,26.074-26.376,27.351c19.589.168,39.178.336,58.8.504-.067-17.539-.101-35.079-.168-52.584-17.102,0-34.205.067-51.307.134Z" opacity=".14"/><path fill="#6d6c6c" d="M294.431,261.231c-.302,10.685-2.419,19.018-4.2,24.494-2.621,7.964-4.502,13.776-9.912,18.917-7.358,7.056-16.531,8.367-20.563,8.703c11.457.1,22.915.201,34.373.336.033-9.98.101-19.959.168-29.972c0-7.492.067-14.985.134-22.478Z" opacity=".26"/><path fill="#fff" stroke="#222" stroke-opacity=".8" stroke-width=".672" d="M250.816,181.666c-1.848,2.251-.067,5.006-.403,12.365-.168,3.662-.773,6.619-1.243,8.601c1.579.74,4.368,1.781,7.963,1.882c4.435.101,7.795-1.277,9.442-2.083-.739-1.479-1.714-3.763-2.319-6.72-1.512-7.527,1.176-11.055-1.041-13.844-2.587-3.225-9.912-3.259-12.399-.201Z"/><path fill="#fff" stroke="#222" stroke-opacity=".8" stroke-width=".672" d="M239.089,149.343c-2.117,5.443-1.311,10.349-.84,12.465-.202.034-4.133.874-5.208,3.898-1.076,3.058,1.142,7.392,5.779,8.803c1.68,4.099,5.746,12.029,14.314,16.363c1.444.706,2.822,1.277,4.2,1.68c1.243-.47,2.923-1.209,4.838-2.318c5.981-3.461,9.307-7.762,10.08-8.803c1.411-1.882,3.326-4.906,4.67-9.072.74.134,2.05.201,3.327-.437c2.889-1.478,4.334-6.082,2.318-9.072-1.68-2.486-4.939-2.587-5.342-2.587.437-1.747,1.781-8.031-1.613-14.247-3.898-7.157-12.264-10.92-20.126-9.845-11.626,1.512-16.196,12.634-16.397,13.172Z"/><path fill="#222" fill-opacity=".8" d="M250.377,190.57c2.05,1.209,4.301,3.091,6.821,2.889c2.083-.168,4.402-1.377,5.981-2.654.504-.403-.202-1.109-.706-.706-1.478,1.176-3.864,2.42-5.813,2.386-2.049-.034-4.132-1.747-5.812-2.789-.504-.336-1.008.538-.471.874v0Z"/><path fill="#222" fill-opacity=".8" d="M250.245,191.007c1.915,1.647,4.099,3.495,6.787,3.36c2.621-.134,5.074-1.881,6.787-3.763.437-.471-.268-1.176-.705-.706-1.479,1.613-3.562,3.192-5.847,3.428-2.52.235-4.536-1.479-6.316-3.025-.471-.436-1.176.269-.706.706v0Z"/><path fill="#222" fill-opacity=".8" d="M251.52,191.209c0-.034,0-.034,0,0-.201-.303-.571-.37-.806-.135c0,0,0,0-.034.034-.201.168-.201.538,0,.706c3.697,3.528,10.484,4.67,13.138-.74.269-.571-.571-1.108-.873-.504-2.352,4.839-8.3,3.663-11.525.538c0,.235,0,.47,0,.706c0,0,0,0,.033-.034-.269-.034-.537-.067-.806-.101v.034c.336.537,1.21.033.873-.504v0Z"/><path fill="#222" fill-opacity=".8" d="M255.554,160.128c-.437,5.444-.202,10.853.672,16.229.034.269.37.437.605.336c1.31-.437,2.251-1.209,2.957-2.385.336-.572-.538-1.076-.874-.504-.571.974-1.277,1.545-2.352,1.915.202.101.403.235.605.336-.874-5.275-1.075-10.618-.639-15.96.101-.639-.907-.639-.974.033v0Z"/><g id="e0jBTLXwsOh233_ts"><path fill="#222" fill-opacity=".8" stroke="#222" stroke-opacity=".8" stroke-width=".336" d="M249.572,165.471c.067.302.571,2.184,0,2.486-.571.303-2.184-.907-2.688-2.486-.403-1.344-.067-3.024.571-3.159.672-.168,1.714,1.68,2.117,3.159Z" transform="translate(248.275185,165.152519) scale(1,1) translate(-248.275185,-165.152519)"/></g><g id="e0jBTLXwsOh234_ts"><path fill="#222" fill-opacity=".8" stroke="#222" stroke-opacity=".8" stroke-width=".336" d="M266.908,165.471c.067.302.571,2.184,0,2.486-.571.303-2.184-.907-2.688-2.486-.403-1.344-.067-3.024.571-3.159.672-.168,1.714,1.68,2.117,3.159Z" transform="translate(265.611176,165.152519) scale(1,1) translate(-265.611176,-165.152519)"/></g><path fill="#222" fill-opacity=".8" d="M254.342,180.792c4.099,1.748,7.829-.705,10.853-3.36.504-.436-.235-1.142-.706-.705-2.62,2.285-5.98,4.737-9.609,3.192-.639-.235-1.143.638-.538.873v0Z"/><path fill="#222" fill-opacity=".8" d="M266.172,170.813c.639,0,.639-1.008,0-1.008-.638,0-.638,1.008,0,1.008v0Z"/><path fill="#222" fill-opacity=".8" d="M269.898,168.932c.033-.034.067-.067.101-.101.201-.202.201-.504,0-.706-.202-.201-.504-.201-.706,0-.034.034-.067.068-.101.101-.201.202-.201.504,0,.706.202.201.504.201.706,0v0Z"/><path fill="#222" fill-opacity=".8" d="M268.791,171.384c.034,0,.067,0,.101,0c.269,0,.504-.235.504-.504c0-.268-.235-.504-.504-.504-.034,0-.067,0-.101,0-.269,0-.504.236-.504.504c0,.269.202.504.504.504v0Z"/><path fill="#222" fill-opacity=".8" d="M245.607,159.457c1.276-1.075,3.158-1.109,4.435-.067.504.403,1.209-.303.705-.706-1.747-1.411-4.166-1.411-5.88.067-.47.403.269,1.109.74.706v0Z"/><path fill="#222" fill-opacity=".8" d="M262.006,159.087c1.445-1.277,3.494-1.512,5.208-.605.571.302,1.075-.571.504-.874-2.117-1.142-4.637-.84-6.418.773-.504.437.202,1.143.706.706v0Z"/><path fill="#222" fill-opacity=".8" d="M245.877,170.713c.639,0,.639-1.008,0-1.008-.638,0-.638,1.008,0,1.008v0Z"/><path fill="#222" fill-opacity=".8" d="M249.44,170.242c.638,0,.638-1.008,0-1.008-.639,0-.639,1.008,0,1.008v0Z"/><path fill="#222" fill-opacity=".8" d="M247.656,171.015c-.033.034-.067.067-.101.101-.201.201-.201.504,0,.705.202.202.504.202.706,0c.034-.033.067-.067.101-.1.201-.202.201-.504,0-.706-.202-.202-.504-.202-.706,0v0Z"/><path fill="#222" fill-opacity=".8" d="M244.566,138.423c-2.016,1.243-6.418,3.965-9.408,9.542-2.99,5.544-2.957,10.786-2.822,13.037-4.906,8.837-7.124,16.632-8.199,21.941-1.747,8.433-.806,11.525.403,13.574c2.957,5.04,8.904,6.284,10.349,6.586c7.426,1.579,13.339-2.218,14.683-3.091.37-1.109.74-2.487.941-4.032.37-2.655.168-4.94-.134-6.586-1.68-1.378-3.629-3.226-5.511-5.645-2.856-3.696-4.468-7.325-5.376-9.945-2.956-.303-5.174-2.319-5.376-4.57-.201-2.117,1.277-4.838,3.226-4.838c1.445,0,2.486,1.478,2.688,1.747c1.109-.639,2.654-1.747,4.032-3.495c1.982-2.52,2.318-4.771,3.226-7.123.873-2.285,2.553-5.443,6.182-8.736c3.494,1.243,6.283,2.453,8.198,3.36c6.149,2.856,9.644,4.536,12.365,8.199c1.512,2.016,2.285,3.998,2.688,5.241c3.125-2.385,4.402-1.747,4.671-1.613c1.982,1.109,1.915,7.191-1.176,8.871-1.176.638-2.52.47-3.36.269-.975,3.393-3.125,8.937-8.064,13.843-1.647,1.646-3.327,2.923-4.839,3.897-.134,1.244-.201,2.957.135,4.973.302,1.848.84,3.36,1.344,4.436c8.164,5.376,18.312,4.401,23.822-1.378c4.906-5.175,4.906-13.003,3.058-18.346-1.68-4.872-4.94-7.795-6.552-9.072.436-1.881,2.856-13.037-4.167-23.285-1.814-2.654-6.888-9.072-16.027-11.289-9.677-2.352-17.64,1.478-21,3.528Z"/><path fill="#6d6c6c" d="M265.868,152.232c3.796,4.772,4.804,9.173,5.14,11.458c1.378,9.61-4.2,17.405-7.022,21.403-2.318,3.26-4.704,5.578-6.418,7.09c1.479,3.965,2.924,7.896,4.402,11.861c1.512-.504,3.024-1.008,4.536-1.512-.706-1.243-1.445-2.789-2.016-4.671-1.042-3.36-1.109-6.316-1.008-8.332c1.848-1.311,3.998-3.092,6.082-5.444c4.166-4.704,6.249-9.542,7.324-12.801.672.134,2.117.302,3.495-.471c2.889-1.646,2.419-5.745,2.385-6.014-.1-.874-.302-2.285-1.31-2.856-1.176-.639-3.125-.034-4.67,1.781-.471-1.647-1.815-5.444-5.444-8.468-2.016-1.68-4.065-2.553-5.476-3.024Z" opacity=".17"/><path fill="#6d6c6c" d="M256.025,160.431c-.202-.034-.874,2.89-2.923,15.792c1.176,0,2.352,0,3.528,0-.236-1.714-.504-4.2-.639-7.224-.168-5.174.235-8.534.034-8.568Z" opacity=".19"/><path fill="#222" fill-opacity=".8" d="M285.559,169.805c-.572.336,1.579,3.226,1.276,7.526-.1,1.344-.302,4.402-2.721,6.452-.168.134-3.763,3.091-7.325,1.209-2.117-1.109-3.394-3.461-3.326-6.014-1.008,1.881-2.655,4.368-5.242,6.787-1.613,1.512-3.192,2.621-4.57,3.461-.1,1.478-.1,3.494.437,5.779.303,1.243.672,2.319,1.042,3.192c1.041.672,2.587,1.579,4.603,2.285c1.277.437,8.299,2.89,15.154-.504c1.209-.605,3.897-1.982,5.846-4.939.235-.37,1.109-1.68,1.747-3.898c2.285-7.594-1.075-14.448-1.377-15.019-1.848-3.73-4.839-6.72-5.544-6.317Z" opacity=".54"/><path fill="#222" fill-opacity=".8" d="M239.457,173.938c-.302.034.37,2.789-.37,5.511-.537,2.016-2.251,5.308-5.174,5.98-3.058.672-6.854-1.579-8.602-5.779-.806,1.848-1.881,4.805-2.049,8.568-.101,2.453-.235,5.074.974,7.661c2.722,5.779,10.719,8.031,16.666,7.493c3.965-.37,6.955-1.915,8.568-2.957.403-1.142.806-2.52,1.075-4.099.437-2.722.336-5.107.101-6.855-2.655-1.915-4.469-3.897-5.611-5.342-1.613-2.05-3.797-4.805-4.906-8.635-.168-.437-.47-1.579-.672-1.546Z" opacity=".35"/></g><rect width="82.623" height="52.315" fill="#fff" stroke="#222" stroke-opacity=".8" stroke-width=".672" rx="0" ry="0" transform="translate(211.941 261.533)"/></g></g><g id="e0jBTLXwsOh250_to"><g><g transform="translate(361.293122,204.832733) translate(-361.293122,-204.832733)"><g id="e0jBTLXwsOh252_tr"><path fill="#fb5f66" fill-opacity=".8" d="M341.983,184.627c-6.322-3.623-12.94-6.923-20.048-8.494-.986-.27-2.013-.357-3.031-.259-.508.059-.995.237-1.42.519-.426.283-.779.663-1.03,1.108-.61,1.266,0,2.773.749,3.947c1.71,2.588,4.27,4.464,6.849,6.174c7.071,4.686,14.659,8.503,22.183,12.311-.924-5.397-2.847-10.028-4.298-15.306" transform="translate(344.038132,193.173584) rotate(21.348487) translate(-344.038132,-193.173583)"/></g><path fill="#fb5f66" fill-opacity=".8" d="M390.451,198.556c2.071,6.987,4.557,13.938,8.605,19.992.528.879,1.215,1.653,2.024,2.283.405.313.88.523,1.384.613.503.09,1.021.057,1.509-.096c1.313-.489,1.941-1.987,2.182-3.364.554-3.05,0-6.183-.675-9.197-1.849-8.318-4.714-16.276-7.551-24.262-3.041,4.557-4.881,9.243-7.478,14.031Z"/><path fill="#fb5f66" fill-opacity=".8" d="M341.893,184.479c0,0,.489,48.386,27.645,49.338c27.155.952,28.292-48.987,28.292-49.338c0,0-3.207-7.209-27.969-6.932-24.761.277-27.968,6.932-27.968,6.932Z"/><path fill="#222" fill-opacity=".8" d="M377.953,203.695c-.135,1.847-.814,3.613-1.953,5.074-1.138,1.46-2.684,2.551-4.442,3.133-1.759.582-3.65.63-5.435.137s-3.384-1.505-4.595-2.906c-1.21-1.402-1.978-3.131-2.205-4.97-.228-1.838.095-3.702.927-5.356.832-1.655,2.136-3.026,3.748-3.939c1.611-.913,3.457-1.328,5.304-1.192c2.475.182,4.777,1.339,6.4,3.218c1.622,1.879,2.432,4.325,2.251,6.801Z"/><path fill="#fff" d="M375.423,203.51c-.099,1.346-.594,2.632-1.424,3.696-.829,1.064-1.956,1.858-3.237,2.281-1.28.424-2.658.458-3.959.099-1.3-.359-2.465-1.096-3.346-2.117-.882-1.022-1.441-2.281-1.607-3.62-.165-1.339.07-2.697.676-3.902.606-1.206,1.556-2.204,2.73-2.87c1.173-.665,2.518-.968,3.863-.869c1.804.135,3.48.979,4.662,2.348c1.181,1.369,1.772,3.15,1.642,4.954Z"/><path fill="#fb5f66" fill-opacity=".8" d="M372.134,204.758c-.052-.373-.074-.751-.065-1.128c0-.711,0-1.709,0-2.939l.074.13-3.54-2.043h.194l-3.54,1.987c-.092.167.129-.212.111-.175v1.044c0,.342,0,.693,0,1.035c0,.675,0,1.331,0,1.969l-.092-.176l3.466,2.117h-.157c1.081-.582,1.978-1.045,2.606-1.368.325-.185.665-.343,1.017-.471-.291.22-.6.415-.925.582-.591.36-1.478.924-2.588,1.525l-.073.046-.074-.046-3.513-2.043-.101-.055v-.12c0-.638,0-1.294,0-1.969c0-.342,0-.684,0-1.035v-.998c0,0,.203-.342.101-.185l3.559-1.969.101-.056.093.056l3.466,2.126h.083v.083c0,1.275-.074,2.301-.111,3.004.003.359-.028.718-.092,1.072Z"/><path fill="#fff" d="M350.404,218.918c-.019-.023-.034-.047-.046-.074l-.12-.213-.453-.85-.314-.61-.352-.749c-.249-.536-.527-1.146-.804-1.848l-.444-1.082-.434-1.183c-.323-.813-.591-1.71-.924-2.643-.583-1.849-1.146-3.965-1.645-6.184-.5-2.218-.86-4.344-1.156-6.294s-.49-3.697-.601-5.185c-.074-.74-.12-1.405-.157-1.997-.037-.591-.064-1.1-.083-1.516v-.924-.342c0,0,0,0,0,.093v.24c0,.24,0,.554.074.924s.056.924.111,1.507c.055.582.102,1.257.176,1.996.138,1.479.369,3.226.647,5.176.277,1.95.684,4.058,1.164,6.276.481,2.218,1.063,4.289,1.627,6.165.314.924.573,1.849.924,2.644l.425,1.192.435,1.081c.259.693.536,1.304.776,1.849l.333.758.305.619.416.86.102.221.018.093Z"/><path fill="#fff" d="M363.492,230.555c-.146-.005-.292-.024-.435-.056-.391-.062-.778-.155-1.155-.277-.563-.169-1.113-.379-1.645-.629-.644-.314-1.262-.679-1.849-1.09-.587-.417-1.141-.881-1.654-1.387-.419-.416-.806-.864-1.156-1.34-.24-.313-.456-.643-.647-.989-.081-.122-.149-.252-.203-.388c0,0,.342.518.924,1.294.361.456.75.888,1.165,1.294.515.492,1.065.946,1.645,1.359.588.407,1.206.769,1.849,1.081.521.256,1.058.478,1.608.666.943.314,1.553.425,1.553.462Z"/><path fill="#fff" d="M369.147,213.483h-.259c-.166,0-.425,0-.749,0-.915-.015-1.824-.161-2.699-.434-1.308-.397-2.528-1.04-3.595-1.895-1.33-1.028-2.379-2.375-3.05-3.916-.67-1.542-.941-3.228-.786-4.901.061-.729.191-1.45.388-2.154.182-.605.411-1.196.684-1.765.402-.83.919-1.598,1.535-2.283.163-.185.336-.361.517-.527.13-.12.194-.176.204-.167.009.01-.25.259-.666.749-.589.69-1.081,1.459-1.46,2.283-.268.566-.488,1.153-.656,1.756-.187.693-.308,1.401-.361,2.117-.148,1.644.119,3.3.776,4.814.657,1.515,1.684,2.84,2.986,3.856.561.447,1.161.843,1.793,1.183.558.281,1.136.522,1.728.721.866.276,1.764.441,2.672.49.637.073.998.055.998.073Z"/><path fill="#fff" d="M391.148,187.437h-.083l-.268.102-1.026.369c-.444.157-.989.342-1.636.536s-1.378.435-2.191.638l-1.285.342-1.405.324c-.924.231-2.015.416-3.114.628-2.397.405-4.812.689-7.238.85-2.423.124-4.851.124-7.274,0-1.118-.073-2.181-.129-3.17-.24l-1.433-.148-1.321-.185c-.842-.101-1.59-.249-2.256-.36-.665-.111-1.229-.231-1.691-.333l-1.063-.24-.277-.065h-.093c0,0,0,0,.102,0l.277.046l1.072.204c.462.092,1.026.203,1.692.295.665.093,1.414.25,2.255.342l1.322.167c.453.055.924.092,1.423.138.989.102,2.052.158,3.161.222c2.237.093,4.696.093,7.265-.055c2.57-.148,5.01-.472,7.21-.832c1.099-.203,2.144-.379,3.114-.61.481-.111.925-.203,1.405-.314l1.285-.324c.823-.194,1.553-.425,2.191-.61.637-.185,1.201-.36,1.654-.508l1.035-.333.268-.083.093.037Z"/></g><path fill="#222" fill-opacity=".8" d="M341.771,184.442c0,0,.056,0,.148,0l.407.138l1.581.555l1.127.407l1.377.425c.98.296,2.089.675,3.356.924l1.968.499c.684.176,1.405.305,2.154.462c1.479.342,3.096.573,4.778.851c7.357,1.058,14.827,1.058,22.183,0c1.692-.268,3.3-.499,4.779-.841.749-.167,1.469-.296,2.153-.463l1.969-.508c1.266-.296,2.376-.675,3.365-.924.489-.148.924-.277,1.368-.416l1.136-.407l1.572-.554.406-.139.148-.046c0,0-.046,0-.138.064l-.407.158-1.562.582-1.128.425c-.416.148-.924.277-1.368.444-.979.296-2.089.684-3.355.989l-1.969.517c-.684.176-1.404.315-2.153.481-1.488.342-3.097.582-4.788.86-7.376,1.084-14.871,1.084-22.248,0-1.7-.278-3.308-.518-4.797-.869-.739-.157-1.469-.296-2.153-.472l-1.969-.517c-1.266-.305-2.366-.693-3.355-.998l-1.368-.435-1.128-.425-1.562-.592-.406-.157-.121-.018Z" transform="translate(361.293122,204.832733) translate(-361.293122,-204.832733)"/><g opacity=".3"><path fill="#222" fill-opacity=".8" d="M341.895,184.479c0,0,3.207-6.646,27.968-6.932c24.762-.287,27.969,6.932,27.969,6.932s-24.974,12.321-55.937,0Z" transform="translate(361.293122,204.832733) translate(-361.293122,-204.832733)"/></g></g></g><g id="e0jBTLXwsOh265_to" transform="translate(368.923737,175.825842)"><g id="e0jBTLXwsOh265_tr"><g><path fill="#fb5f66" fill-opacity=".8" d="M367.973,134.17c0,0-23.68-.286-27.377,20.242s16.276,20.88,22.035,21.259c2.615.175,8.198.194,13.124.101c10.916-.185,18.625-2.301,21.259-12.422.314-1.189.512-2.405.592-3.633.637-11.091-6.877-26.092-29.633-25.547Z" transform="rotate(0) translate(-368.923737,-175.825836)"/><path fill="#222" fill-opacity=".8" d="M385.148,165.402l-34.393.536c-.861.013-1.716-.144-2.516-.462-.8-.319-1.529-.792-2.145-1.394-.616-.601-1.106-1.318-1.444-2.11s-.515-1.643-.522-2.504c-.027-1.732.634-3.403,1.838-4.648c1.205-1.244,2.854-1.959,4.586-1.989l34.411-.49c.861-.012,1.715.146,2.515.465s1.529.792,2.146,1.393c.616.601,1.108,1.318,1.447,2.109.339.792.518,1.643.528,2.503.015,1.729-.656,3.393-1.865,4.628s-2.858,1.941-4.586,1.963Z" transform="rotate(0) translate(-368.923737,-175.825836)"/><path fill="#fff" d="M357.89,158.803c-.08.407-.279.782-.572,1.077-.292.295-.666.496-1.074.578-.407.082-.829.041-1.214-.118-.384-.158-.712-.427-.943-.772-.231-.346-.355-.752-.355-1.167c0-.416.124-.822.355-1.167.231-.346.56-.614.944-.773.384-.158.806-.199,1.214-.117.543.109,1.021.429,1.329.89.309.461.422,1.025.316,1.569Z" transform="rotate(0) translate(-368.923737,-175.825836)"/><path fill="#fff" d="M381.921,158.414c-.079.408-.277.783-.569,1.077-.293.295-.666.497-1.073.579-.407.083-.829.043-1.213-.115-.384-.157-.713-.425-.945-.769-.232-.345-.356-.75-.357-1.166-.002-.415.12-.821.35-1.167s.557-.616.94-.775c.384-.16.806-.203,1.213-.122.545.107,1.025.426,1.336.887.31.461.424,1.026.318,1.571Z" transform="rotate(0) translate(-368.923737,-175.825836)"/><path fill="#fff" d="M363.916,157.832c.157,0,.074.749.536,1.728.265.558.643,1.056,1.109,1.461.554.482,1.24.785,1.969.869.734.053,1.467-.121,2.098-.5.534-.313.997-.735,1.359-1.238.628-.878.684-1.608.841-1.599s.12.185.12.536c-.021.493-.15.976-.379,1.414-.343.661-.849,1.224-1.469,1.636-.78.528-1.714.779-2.653.712-.937-.1-1.811-.518-2.477-1.183-.537-.507-.935-1.144-1.156-1.849-.15-.471-.191-.971-.12-1.46.065-.37.157-.536.222-.527Z" transform="rotate(0) translate(-368.923737,-175.825836)"/><path fill="#fff" d="M364.98,135.705h-.083-.25c-.222,0-.545,0-.924.074-1.176.116-2.343.311-3.494.582-1.705.404-3.365.98-4.954,1.719-1.95.912-3.776,2.067-5.435,3.438-3.003,2.511-5.396,5.671-6.997,9.243-.485,1.077-.896,2.185-1.229,3.318-.129.407-.194.721-.259.925l-.074.24v.083c0,0,0,0,0-.083l.056-.25c.046-.212.101-.536.222-.924.291-1.145.668-2.266,1.127-3.355.698-1.629,1.569-3.178,2.597-4.621c3.578-4.998,8.873-8.5,14.872-9.835c1.169-.26,2.355-.433,3.549-.517.416,0,.749,0,.925,0h.332l.019-.037Z" transform="rotate(0) translate(-368.923737,-175.825836)"/><path fill="#fff" d="M379.463,151.14c0,.055-4.529.102-10.112.102-5.582,0-10.121,0-10.121-.102s4.529-.092,10.121-.092s10.112.046,10.112.092Z" transform="rotate(0) translate(-368.923737,-175.825836)"/><path fill="#fff" d="M362.197,174.21c0,0-.056,0-.167,0h-.49c-.221,0-.48,0-.785,0s-.657,0-1.045,0c-.902-.007-1.803-.063-2.699-.166-1.097-.127-2.186-.316-3.262-.564-1.075-.244-2.133-.553-3.171-.924-.847-.307-1.677-.658-2.486-1.054-.351-.166-.656-.332-.924-.48s-.499-.268-.684-.379l-.425-.259-.139-.102c0,0,.055,0,.157.065l.444.222c.185.101.416.231.693.36.277.13.582.296.924.444.693.323,1.535.675,2.487,1.017c1.037.361,2.092.67,3.161.924c1.07.247,2.153.438,3.244.573.998.12,1.913.185,2.68.203.379,0,.73,0,1.035,0h1.442l.01.12Z" transform="rotate(0) translate(-368.923737,-175.825836)"/></g></g></g><path fill="#fff" d="M341.816,164.108c-.152-.227-.268-.477-.342-.739-.215-.601-.376-1.22-.481-1.849-.097-.645-.137-1.298-.12-1.95-.005-.271.026-.542.093-.804.064,0,0,1.238.221,2.772.222,1.535.684,2.552.629,2.57Z"/></g></svg>