<svg xmlns="http://www.w3.org/2000/svg" width="23" height="23" fill="none" viewBox="0 0 23 23"><path fill="#FB5F66" d="M15.0514 10.5282L10.8916 7.755C10.7872 7.68532 10.6658 7.64531 10.5404 7.63924C10.415 7.63316 10.2903 7.66125 10.1796 7.7205C10.069 7.77976 9.97645 7.86796 9.91198 7.97568C9.8475 8.08341 9.81349 8.20662 9.81358 8.33216V13.8785C9.81349 14.004 9.8475 14.1272 9.91198 14.235C9.97645 14.3427 10.069 14.4309 10.1796 14.4901C10.2903 14.5494 10.415 14.5775 10.5404 14.5714C10.6658 14.5653 10.7872 14.5253 10.8916 14.4557L15.0514 11.6825C15.1465 11.6192 15.2245 11.5334 15.2784 11.4327C15.3324 11.332 15.3606 11.2196 15.3606 11.1053C15.3606 10.9911 15.3324 10.8786 15.2784 10.7779C15.2245 10.6773 15.1465 10.5914 15.0514 10.5282ZM11.2002 12.5829V9.63208L13.417 11.1053L11.2002 12.5829ZM21.1081 6.03737C21.0265 5.71789 20.87 5.42241 20.6517 5.17529C20.4334 4.92818 20.1594 4.73652 19.8524 4.61613C16.8817 3.46873 12.1534 3.47913 11.8934 3.47913C11.6335 3.47913 6.90522 3.46873 3.93447 4.61613C3.62748 4.73652 3.35352 4.92818 3.13519 5.17529C2.91685 5.42241 2.7604 5.71789 2.67875 6.03737C2.45429 6.90225 2.18738 8.48295 2.18738 11.1053C2.18738 13.7277 2.45429 15.3084 2.67875 16.1733C2.76028 16.4929 2.91668 16.7886 3.13502 17.0359C3.35336 17.2831 3.62738 17.4749 3.93447 17.5954C6.78043 18.6934 11.2348 18.7315 11.8363 18.7315H11.9506C12.5521 18.7315 17.0091 18.6934 19.8524 17.5954C20.1595 17.4749 20.4335 17.2831 20.6519 17.0359C20.8702 16.7886 21.0266 16.4929 21.1081 16.1733C21.3326 15.3067 21.5995 13.7277 21.5995 11.1053C21.5995 8.48295 21.3326 6.90225 21.1081 6.03737ZM19.7658 15.8301C19.7394 15.9364 19.6881 16.035 19.6163 16.1177C19.5444 16.2004 19.454 16.2649 19.3524 16.3059C16.6096 17.3649 11.9446 17.3458 11.8995 17.3458H11.8934C11.8467 17.3458 7.18514 17.3631 4.44057 16.3059C4.33898 16.2649 4.24855 16.2004 4.1767 16.1177C4.10484 16.035 4.05361 15.9364 4.0272 15.8301C3.81661 15.0389 3.57396 13.5812 3.57396 11.1053C3.57396 8.62941 3.81661 7.17177 4.02113 6.38488C4.04705 6.27793 4.09806 6.17868 4.16994 6.09534C4.24183 6.01201 4.33251 5.94698 4.43451 5.90565C7.07941 4.88391 11.5113 4.86571 11.8744 4.86571H11.8978C11.9446 4.86571 16.6104 4.85011 19.3507 5.90565C19.4522 5.94665 19.5427 6.01114 19.6145 6.09384C19.6864 6.17654 19.7376 6.27509 19.764 6.38142C19.9703 7.17177 20.2129 8.62941 20.2129 11.1053C20.2129 13.5812 19.9703 15.0389 19.7658 15.8258V15.8301Z"/></svg>