<svg xmlns="http://www.w3.org/2000/svg" width="26" height="26" fill="none" viewBox="0 0 26 26"><g clip-path="url(#clip0_0_698)"><path fill="#fff" d="M22.4417 4.65669L21.2776 3.49253V0L17.6557 3.75126L17.397 6.72638L13.6458 10.4776H12.999C11.5761 10.4776 10.412 11.6418 10.412 13.0647C10.412 14.4876 11.5761 15.6517 12.999 15.6517C14.4219 15.6517 15.5861 14.4876 15.5861 13.0647C15.5861 12.806 15.5861 12.6766 15.4567 12.4179L19.208 8.66668L22.1831 8.40795L25.9344 4.65669H22.4417Z"/><path fill="#fff" d="M19.9844 9.83106H19.8551L18.0441 11.7714C18.1734 12.1594 18.1734 12.6768 18.1734 13.0649C18.1734 15.9107 15.8451 18.2391 12.9993 18.2391C10.1535 18.2391 7.82513 15.9107 7.82513 13.0649C7.82513 10.2191 10.1536 7.89076 12.9993 7.89076C13.5167 7.89076 13.9048 8.0201 14.2929 8.0201L16.2332 6.0798V5.95046C15.1984 5.56239 14.1635 5.30371 12.9993 5.30371C8.73066 5.30371 5.23813 8.79624 5.23813 13.0649C5.23813 17.3336 8.73066 20.8261 12.9993 20.8261C17.268 20.8261 20.7605 17.3335 20.7605 13.0649C20.7605 11.9007 20.5018 10.8659 19.9844 9.83106Z"/><path fill="#fff" d="M24.7708 7.76126L22.8305 9.57222C23.0892 10.607 23.3479 11.7713 23.3479 13.0648C23.3479 18.7563 18.6912 23.413 12.9996 23.413C7.30804 23.413 2.65135 18.7563 2.65135 13.0648C2.65135 7.37324 7.30804 2.7165 12.9996 2.7165C14.1638 2.7165 15.328 2.97523 16.4921 3.36325V3.23391L18.4324 1.29361C16.7509 0.517465 14.9399 0.129395 12.9996 0.129395C5.88515 0.129395 0.0643005 5.9503 0.0643005 13.0648C0.0643005 20.1792 5.88515 26.0001 12.9996 26.0001C20.1141 26.0001 25.9349 20.1792 25.9349 13.0648C25.9349 11.1244 25.5469 9.31349 24.7708 7.76126Z"/></g><defs><clipPath id="clip0_0_698"><rect width="26" height="26" fill="#fff"/></clipPath></defs></svg>