<svg xmlns="http://www.w3.org/2000/svg" width="26" height="26" fill="none" viewBox="0 0 26 26"><g clip-path="url(#clip0_0_677)"><path fill="#fff" d="M0 13.8379V16.4379C0 17.1558 0.582055 17.7379 1.3 17.7379H1.73332V12.5379H1.3C0.582055 12.5379 0 13.1199 0 13.8379ZM24.7 12.5379H24.2667V17.7379H24.7C25.4179 17.7379 26 17.1558 26 16.4379V13.8379C26 13.1199 25.418 12.5379 24.7 12.5379ZM15.1667 2.57119C15.164 3.59991 14.4407 4.486 13.4334 4.6945V6.9045H12.5667V4.6945C11.4495 4.4665 10.7003 3.41167 10.8528 2.28179C11.0053 1.1519 12.0074 0.333512 13.145 0.409837C14.2826 0.486161 15.1664 1.43105 15.1667 2.57119Z"/><path fill="#fff" d="M18.2004 15.1377C18.9184 15.1377 19.5004 14.5557 19.5004 13.8377C19.5004 13.1197 18.9184 12.5377 18.2004 12.5377C17.4824 12.5377 16.9004 13.1197 16.9004 13.8377C16.9004 14.5557 17.4824 15.1377 18.2004 15.1377Z"/><path fill="#fff" d="M7.8 15.1378C8.51797 15.1378 9.1 14.5558 9.1 13.8378C9.1 13.1199 8.51797 12.5378 7.8 12.5378C7.08203 12.5378 6.5 13.1199 6.5 13.8378C6.5 14.5558 7.08203 15.1378 7.8 15.1378Z"/><path fill="#fff" d="M20.7996 7.77112H5.19961C3.76367 7.77112 2.59961 8.93518 2.59961 10.3711V19.9044C2.59961 21.3368 3.75813 22.4994 5.19052 22.5044C5.24806 22.5037 5.30518 22.5143 5.3586 22.5358C5.41202 22.5572 5.46068 22.5889 5.5018 22.6292C5.54291 22.6694 5.57566 22.7174 5.59817 22.7704C5.62069 22.8234 5.63251 22.8803 5.63298 22.9378V25.1613C5.63288 25.2397 5.65411 25.3168 5.69439 25.3841C5.73467 25.4515 5.79249 25.5067 5.86168 25.5437C5.93087 25.5808 6.00882 25.5984 6.08721 25.5946C6.16561 25.5908 6.2415 25.5658 6.30679 25.5222L10.6163 22.6501C10.7581 22.5555 10.9247 22.5049 11.0951 22.5045H20.7996C22.2355 22.5045 23.3996 21.3404 23.3996 19.9045V10.3711C23.3996 8.93518 22.2355 7.77112 20.7996 7.77112ZM7.79961 16.0044C6.603 16.0044 5.63293 15.0344 5.63293 13.8378C5.63293 12.6411 6.603 11.6711 7.79961 11.6711C8.99622 11.6711 9.96629 12.6411 9.96629 13.8378C9.96482 15.0338 8.99561 16.003 7.79961 16.0044ZM15.5337 17.5341C15.5064 17.5778 14.8434 18.6044 12.9996 18.6044C11.1558 18.6044 10.4928 17.5778 10.4655 17.5341C10.4062 17.4371 10.3874 17.3208 10.4131 17.2101C10.4388 17.0994 10.507 17.0033 10.6029 16.9423C10.6988 16.8814 10.8148 16.8606 10.9259 16.8844C11.037 16.9082 11.1344 16.9747 11.1969 17.0695C11.2229 17.1068 11.6762 17.7377 12.9996 17.7377C14.3347 17.7377 14.7845 17.0959 14.8027 17.0687C14.8664 16.9741 14.9646 16.9082 15.0762 16.885C15.1878 16.8617 15.3041 16.883 15.4002 16.9443C15.4956 17.0053 15.5631 17.1014 15.5881 17.2118C15.6131 17.3222 15.5935 17.438 15.5337 17.5341ZM18.1996 16.0044C17.003 16.0044 16.0329 15.0344 16.0329 13.8378C16.0329 12.6411 17.003 11.6711 18.1996 11.6711C19.3962 11.6711 20.3663 12.6411 20.3663 13.8378C20.3648 15.0338 19.3956 16.003 18.1996 16.0044Z"/></g><defs><clipPath id="clip0_0_677"><rect width="26" height="26" fill="#fff"/></clipPath></defs></svg>