<svg xmlns="http://www.w3.org/2000/svg" width="26" height="26" fill="none" viewBox="0 0 26 26"><g clip-path="url(#clip0_0_692)"><path fill="#fff" d="M10.7148 7.87097C4.83466 7.87097 0.000183605 11.9145 0.000183605 16.8849C0.000183605 18.8718 0.77084 20.891 2.18413 22.456L0.188379 24.7366C0.0920263 24.8467 0.0294784 24.9823 0.00823899 25.127C-0.0130004 25.2717 0.00797083 25.4195 0.0686367 25.5526C0.128995 25.6859 0.226489 25.799 0.349442 25.8783C0.472396 25.9576 0.615599 25.9997 0.761902 25.9997H11.4765C15.818 25.9997 21.4294 22.2612 21.4294 16.8849C21.4294 11.9145 16.5949 7.87097 10.7148 7.87097ZM6.09378 18.2811C5.25396 18.2811 4.57039 17.5975 4.57039 16.7577C4.57039 15.9179 5.25401 15.2344 6.09378 15.2344C6.93355 15.2344 7.61717 15.918 7.61717 16.7577C7.61722 17.5975 6.9336 18.2811 6.09378 18.2811ZM10.7148 18.2811C9.87495 18.2811 9.19139 17.5975 9.19139 16.7577C9.19139 15.9179 9.875 15.2344 10.7148 15.2344C11.5545 15.2344 12.2382 15.918 12.2382 16.7577C12.2382 17.5975 11.5546 18.2811 10.7148 18.2811ZM15.3358 18.2811C14.4959 18.2811 13.8124 17.5975 13.8124 16.7577C13.8124 15.9179 14.496 15.2344 15.3358 15.2344C16.1755 15.2344 16.8592 15.918 16.8592 16.7577C16.8592 17.5975 16.1756 18.2811 15.3358 18.2811Z"/><path fill="#fff" d="M25.8156 15.4998L24.0222 13.4074C25.3023 11.9628 25.9994 10.2013 25.9994 8.37895C25.9993 3.75892 21.5571 0.000244141 16.0972 0.000244141C11.16 0.000244141 6.96544 3.07703 6.22479 7.08169C7.60239 6.61359 9.1473 6.34749 10.7146 6.34749C17.3848 6.34749 22.865 11.0064 22.9451 16.7577H25.2376C25.8883 16.7577 26.2377 15.9915 25.8156 15.4998Z"/></g><defs><clipPath id="clip0_0_692"><rect width="26" height="26" fill="#fff"/></clipPath></defs></svg>